<svg width="40" height="46" viewBox="0 0 40 46" fill="none" xmlns="http://www.w3.org/2000/svg">
<path d="M6.10274 42.4979L14.6117 41.9208L14.157 44.6156L3.6653 45.3271L0.57332 5.57769L3.21689 5.39842L3.01076 2.74846L5.65433 2.56918L5.86047 5.21914L11.1476 4.86058L10.9415 2.21062L13.5851 2.03134L13.7912 4.6813L19.0783 4.32274L18.8722 1.67278L21.5158 1.4935L21.7219 4.14346L27.0091 3.7849L26.8029 1.13494L29.4465 0.955663L29.6526 3.60562L32.2962 3.42634L33.3397 16.8418C32.877 16.9425 32.4317 17.0907 32.004 17.2862C31.5763 17.4817 31.1661 17.7245 30.7735 18.0148L29.8588 6.25558L3.42303 8.04838L6.10274 42.4979ZM34.6896 19.2477C35.2678 19.2085 35.8129 19.2755 36.3246 19.449C36.8364 19.6224 37.299 19.8754 37.7125 20.2081C38.1259 20.5408 38.4488 20.956 38.6813 21.4536C38.9138 21.9512 39.0664 22.4889 39.139 23.0667C39.1809 23.605 39.1184 24.1364 38.9516 24.6611C38.7848 25.1858 38.5237 25.6544 38.1682 26.067L24.5147 41.9152L16.8799 44.3893L18.2142 36.4527L31.8693 20.6252C32.2374 20.1979 32.6618 19.8708 33.1425 19.644C33.6231 19.4171 34.1388 19.285 34.6896 19.2477ZM36.1438 24.3312C36.4104 24.0218 36.5276 23.66 36.4954 23.246C36.4621 22.8181 36.2976 22.4824 36.0019 22.2389C35.7061 21.9953 35.3374 21.8816 34.8957 21.8976C34.7029 21.9107 34.5192 21.9509 34.3445 22.0183C34.1698 22.0856 34.0195 22.1999 33.8936 22.361L20.7162 37.6566L20.2314 40.4991L22.9648 39.6061L36.1438 24.3312Z" fill="#41B4B4"/>
</svg>
