<svg width="50" height="50" viewBox="0 0 50 50" fill="none" xmlns="http://www.w3.org/2000/svg">
<g clip-path="url(#clip0_4529_7875)">
<path d="M16.2778 12.7586L16.5449 2.75576M36.2303 13.0486L36.4974 3.0458M43.6237 35.1709L43.3834 44.1734L7.46883 43.6513L7.62908 37.6496M43.8044 18.1621L7.86796 17.6397M1.65668 37.0625L1.64333 37.5626L37.3583 38.0818L37.671 37.586L38.1641 36.6105C41.9327 29.1436 44.0035 20.9489 44.2258 12.6225L44.3449 8.16323L8.43034 7.64116L8.31667 11.8984C8.09271 20.2891 5.99161 28.5453 2.16856 36.0572L1.65668 37.0625Z" stroke="#E7BD11" stroke-width="3"/>
</g>
<defs>
<clipPath id="clip0_4529_7875">
<rect width="47.9609" height="47.9609" fill="white" transform="matrix(0.998438 0.0145138 -0.0267303 1.0011 1.63281 0.537109)"/>
</clipPath>
</defs>
</svg>
