<svg width="192" height="36" viewBox="0 0 192 36" fill="none" xmlns="http://www.w3.org/2000/svg">
<path d="M187.211 35.2421C189.923 34.3391 190.697 32.1074 187.867 29.4328C191.442 27.4055 189.386 25.9064 191.979 23.9131C191.979 21.3237 186.556 19.8416 189.297 17.7121C191.085 12.022 188.403 8.41043 189.088 5.97429C190.131 2.43081 188.135 0.625 189.327 0.625C178.601 0.625 2.45903 0.625 5.79596 0.625C7.01751 0.625 6.68978 4.76474 3.97852 5.95725C4.48502 8.80226 4.0977 11.2554 6.80895 11.4769C5.46822 12.4991 4.48502 13.2827 4.48502 13.2827C4.48502 13.2827 4.72337 16.6218 5.82575 17.695C3.97852 18.7513 1.50562 19.6371 1.02892 20.6763C0.552217 21.7325 3.65079 23.2487 2.19089 24.2539C2.19089 26.0426 2.96553 28.2914 3.97852 29.4158C5.64699 32.6185 8.74556 34.748 5.85555 34.748C4.90214 34.748 183.904 36.3324 187.211 35.2421Z" fill="#E96024"/>
</svg>
