<svg width="288" height="35" viewBox="0 0 288 35" fill="none" xmlns="http://www.w3.org/2000/svg">
<path d="M280.315 34.6171C284.389 33.7141 285.553 31.4824 281.3 28.8078C286.673 26.7805 283.584 25.2814 287.479 23.2881C287.479 20.6987 279.331 19.2166 283.449 17.0871C286.135 11.3971 282.106 7.78543 283.136 5.34929C284.703 1.80581 281.703 0 283.494 0C267.377 0 2.70317 0 7.71729 0C9.55282 0 9.06036 4.13974 4.98638 5.33225C5.74745 8.17726 5.16546 10.6304 9.23943 10.8519C7.22483 11.8741 5.74745 12.6577 5.74745 12.6577C5.74745 12.6577 6.10561 15.9968 7.76206 17.07C4.98638 18.1263 1.27056 19.0121 0.554255 20.0513C-0.162048 21.1075 4.49392 22.6237 2.30024 23.6289C2.30024 25.4176 3.46424 27.6664 4.98638 28.7908C7.49344 31.9935 12.1494 34.123 7.80683 34.123C6.37422 34.123 275.346 35.7074 280.315 34.6171Z" fill="#E7BD11"/>
</svg>
