<svg width="162" height="84" viewBox="0 0 162 84" fill="none" xmlns="http://www.w3.org/2000/svg">
<path d="M16.2037 67.3852C18.2456 67.8879 20.1415 68.4057 22.0652 68.8251C23.9889 69.2444 25.6197 70.3759 27.2084 71.6C28.3354 72.4735 28.8297 73.7674 28.5595 75.3457C28.3878 76.3757 28.187 77.4416 27.8755 78.4308C26.7251 82.0279 24.2452 83.5295 20.9848 83.0218C16.7431 82.3624 15.2533 80.6995 13.7991 74.9796C13.491 73.774 13.4616 72.4856 13.2759 71.0258C12.5838 71.244 11.8536 71.3741 11.1864 71.6825C8.5608 72.8856 6.10991 74.3513 4.2251 76.935C3.57183 77.8289 2.55405 78.396 1.64572 78.9772C1.04863 79.3608 0.825815 79.0901 0.945758 78.2876C1.23743 76.2436 2.10787 74.3596 3.42272 72.9545C6.2249 69.9134 9.36424 67.6189 13.3362 67.2156C13.5559 67.1969 13.8844 66.8711 13.9323 66.6128C15.2688 60.565 17.7988 55.2784 20.8805 50.2031C24.3899 44.4181 28.8792 39.514 34.0651 35.8015C38.5684 32.5408 43.0974 29.1115 48.1169 27.0002C55.82 23.7708 63.8301 22.374 72.0922 22.693C80.6909 23.0142 89.231 24.1439 97.7743 25.1398C103.444 25.8105 109.127 26.5339 114.801 26.0283C119.167 25.6496 123.516 24.8815 127.829 24.0408C131.263 23.377 134.677 22.4971 138.045 21.4205C142.079 20.1298 145.604 17.5319 149.174 15.1307C153.83 12.0183 157.378 7.70058 159.647 2.00039C159.893 1.39755 160.153 0.79265 160.832 0.999674C161.511 1.2067 161.531 1.94798 161.482 2.56693C161.359 4.40427 160.816 6.16638 159.911 7.67184C157.351 11.8739 154.417 15.6252 150.501 18.2139C146.685 20.74 142.965 23.4939 138.693 24.9238C135.922 25.8361 133.105 26.6383 130.264 27.2638C126.073 28.1638 121.872 29.0418 117.625 29.6135C111.361 30.4545 105.075 29.7474 98.8039 29.1083C91.8056 28.4108 84.8117 27.4306 77.8044 26.8208C72.0556 26.3193 66.2796 26.0806 60.5418 27.1996C56.499 27.9979 52.3266 28.5188 48.643 30.5539C41.0885 34.7396 33.3217 38.6843 27.2916 45.703C22.5091 51.2643 18.6078 57.5653 16.6383 65.2482C16.4555 65.9273 16.3588 66.6477 16.2037 67.3852ZM15.9076 71.1931C15.7337 73.4224 16.3211 75.2895 17.0912 77.1122C18.0995 79.4854 20.2993 80.7 22.6517 80.2058C24.6895 79.7766 25.7266 78.2505 25.9361 75.3495C25.9454 75.3166 25.9603 75.2751 25.9508 75.2531C25.7756 74.8809 25.6808 74.3472 25.4074 74.155C22.5155 72.1007 19.2889 71.5407 15.9076 71.1931Z" fill="#E96024"/>
</svg>
