<svg width="7" height="12" viewBox="0 0 7 12" fill="none" xmlns="http://www.w3.org/2000/svg">
<path d="M0.644007 0.709778C0.551303 0.802292 0.477756 0.91218 0.427574 1.03315C0.377393 1.15413 0.351562 1.28381 0.351562 1.41478C0.351562 1.54575 0.377393 1.67543 0.427574 1.7964C0.477756 1.91738 0.551303 2.02726 0.644007 2.11978L4.52401 5.99978L0.644007 9.87978C0.457029 10.0668 0.351986 10.3204 0.351986 10.5848C0.351986 10.8492 0.457029 11.1028 0.644007 11.2898C0.830984 11.4768 1.08458 11.5818 1.34901 11.5818C1.61343 11.5818 1.86703 11.4768 2.05401 11.2898L6.64401 6.69978C6.73671 6.60726 6.81026 6.49738 6.86044 6.3764C6.91062 6.25543 6.93645 6.12575 6.93645 5.99478C6.93645 5.86381 6.91062 5.73413 6.86044 5.61315C6.81026 5.49218 6.73671 5.38229 6.64401 5.28978L2.05401 0.699778C1.67401 0.319778 1.03401 0.319778 0.644007 0.709778Z" fill="#E96024"/>
</svg>
