<svg width="7" height="12" viewBox="0 0 7 12" fill="none" xmlns="http://www.w3.org/2000/svg">
<path d="M6.52396 11.2902C6.61667 11.1977 6.69021 11.0878 6.74039 10.9668C6.79058 10.8459 6.81641 10.7162 6.81641 10.5852C6.81641 10.4543 6.79058 10.3246 6.74039 10.2036C6.69021 10.0826 6.61667 9.97274 6.52396 9.88022L2.64396 6.00022L6.52396 2.12022C6.71094 1.93324 6.81598 1.67965 6.81598 1.41522C6.81598 1.1508 6.71094 0.897199 6.52396 0.710221C6.33699 0.523244 6.08339 0.418202 5.81896 0.418202C5.55454 0.418202 5.30094 0.523244 5.11396 0.710221L0.523963 5.30022C0.431259 5.39274 0.357711 5.50262 0.30753 5.6236C0.257349 5.74457 0.231519 5.87425 0.231519 6.00522C0.231519 6.13619 0.257349 6.26587 0.30753 6.38685C0.357711 6.50782 0.431259 6.61771 0.523962 6.71022L5.11396 11.3002C5.49396 11.6802 6.13396 11.6802 6.52396 11.2902Z" fill="#E96024"/>
</svg>
