<svg width="41" height="42" viewBox="0 0 41 42" fill="none" xmlns="http://www.w3.org/2000/svg">
<path d="M24.5465 23.1138C23.6951 23.9122 22.5665 24.3481 21.3995 24.3293C20.2325 24.3106 19.1185 23.8386 18.2932 23.0133C17.4678 22.188 16.9959 21.074 16.9771 19.907C16.9584 18.74 17.3943 17.6114 18.1927 16.76L22.1642 12.7867C22.9662 11.9858 24.0411 11.5173 25.1737 11.4752C26.3063 11.433 27.413 11.8203 28.2723 12.5594M27.7251 7.22753C28.1397 6.79872 28.6355 6.45674 29.1837 6.22153C29.7318 5.98633 30.3213 5.86261 30.9177 5.85758C31.5142 5.85256 32.1056 5.96633 32.6577 6.19226C33.2097 6.41819 33.7112 6.75177 34.133 7.17353C34.5547 7.5953 34.8883 8.09681 35.1142 8.64883C35.3402 9.20085 35.4539 9.79233 35.4489 10.3888C35.4439 10.9852 35.3202 11.5747 35.085 12.1228C34.8498 12.671 34.5078 13.1668 34.079 13.5814L30.1074 17.5546C29.3055 18.3556 28.2306 18.824 27.0979 18.8662C25.9653 18.9083 24.8586 18.521 23.9993 17.7819" stroke="#FFCE00" stroke-width="2.52538" stroke-linecap="round" stroke-linejoin="round"/>
<path d="M35.3983 22.747C35.3983 29.0958 35.3983 32.271 33.4251 34.2425C31.4519 36.214 28.2784 36.2156 21.9296 36.2156H18.5624C12.2136 36.2156 9.03839 36.2156 7.06691 34.2425C5.09543 32.2693 5.09375 29.0958 5.09375 22.747V19.3798C5.09375 13.031 5.09375 9.85577 7.06691 7.88429C9.04007 5.91282 12.2136 5.91113 18.5624 5.91113" stroke="#FFCE00" stroke-width="2.52538" stroke-linecap="round" stroke-linejoin="round"/>
</svg>
