<svg width="38" height="38" viewBox="0 0 38 38" fill="none" xmlns="http://www.w3.org/2000/svg">
<path d="M12.7596 3.78613H25.5929C30.4818 3.78613 34.4541 7.75836 34.4541 12.6473V25.4806C34.4541 27.8307 33.5205 30.0846 31.8587 31.7464C30.1969 33.4082 27.9431 34.3418 25.5929 34.3418H12.7596C7.87067 34.3418 3.89844 30.3695 3.89844 25.4806V12.6473C3.89844 10.2971 4.83202 8.04328 6.4938 6.3815C8.15559 4.71971 10.4095 3.78613 12.7596 3.78613ZM12.454 6.8417C10.9953 6.8417 9.59637 7.42116 8.56492 8.45261C7.53346 9.48406 6.954 10.883 6.954 12.3417V25.7862C6.954 28.8265 9.41373 31.2862 12.454 31.2862H25.8985C27.3572 31.2862 28.7561 30.7067 29.7876 29.6753C30.819 28.6438 31.3985 27.2449 31.3985 25.7862V12.3417C31.3985 9.30142 28.9388 6.8417 25.8985 6.8417H12.454ZM27.1971 9.13337C27.7036 9.13337 28.1893 9.33457 28.5475 9.69271C28.9056 10.0509 29.1068 10.5366 29.1068 11.0431C29.1068 11.5496 28.9056 12.0353 28.5475 12.3935C28.1893 12.7516 27.7036 12.9528 27.1971 12.9528C26.6906 12.9528 26.2049 12.7516 25.8467 12.3935C25.4886 12.0353 25.2874 11.5496 25.2874 11.0431C25.2874 10.5366 25.4886 10.0509 25.8467 9.69271C26.2049 9.33457 26.6906 9.13337 27.1971 9.13337ZM19.1763 11.425C21.2022 11.425 23.1452 12.2298 24.5778 13.6624C26.0103 15.095 26.8152 17.038 26.8152 19.0639C26.8152 21.0899 26.0103 23.0329 24.5778 24.4655C23.1452 25.898 21.2022 26.7029 19.1763 26.7029C17.1503 26.7029 15.2073 25.898 13.7747 24.4655C12.3422 23.0329 11.5373 21.0899 11.5373 19.0639C11.5373 17.038 12.3422 15.095 13.7747 13.6624C15.2073 12.2298 17.1503 11.425 19.1763 11.425ZM19.1763 14.4806C17.9607 14.4806 16.7949 14.9635 15.9353 15.823C15.0758 16.6826 14.5929 17.8484 14.5929 19.0639C14.5929 20.2795 15.0758 21.4453 15.9353 22.3049C16.7949 23.1644 17.9607 23.6473 19.1763 23.6473C20.3918 23.6473 21.5576 23.1644 22.4172 22.3049C23.2767 21.4453 23.7596 20.2795 23.7596 19.0639C23.7596 17.8484 23.2767 16.6826 22.4172 15.823C21.5576 14.9635 20.3918 14.4806 19.1763 14.4806Z" fill="#E96024"/>
</svg>
