<svg width="213" height="65" viewBox="0 0 213 65" fill="none" xmlns="http://www.w3.org/2000/svg">
<g clip-path="url(#clip0_1720_15774)">
<path d="M21.3332 47.0362C23.7948 47.9194 26.0722 48.7941 28.3998 49.5679C30.7275 50.3417 32.5779 51.8305 34.3613 53.4117C35.6256 54.5388 36.0359 56.0107 35.4498 57.6593C35.073 58.7359 34.6543 59.8461 34.1101 60.8554C32.109 64.5226 28.785 65.717 24.8079 64.6236C19.6335 63.2021 18.0426 61.1666 17.1384 54.7827C16.9458 53.437 17.1133 52.0491 17.1133 50.4511C16.2174 50.5688 15.288 50.5856 14.4088 50.8043C10.9509 51.6538 7.66871 52.8145 4.91405 55.2706C3.95954 56.1201 2.60315 56.5574 1.38071 57.0285C0.576921 57.3397 0.342482 57.0116 0.618785 56.1705C1.30536 54.0257 2.68687 52.1501 4.54564 50.8632C8.51436 48.0708 12.7845 46.1278 17.7915 46.3717C18.0678 46.3886 18.5283 46.0942 18.6287 45.825C21.2494 39.5589 25.2349 34.3104 29.8734 29.3816C35.1567 23.763 41.5201 19.2548 48.5616 16.1427C54.6821 13.4007 60.8613 10.4821 67.4423 9.06067C77.54 6.89063 87.7297 6.73924 97.9613 8.4719C108.612 10.2634 119.061 12.9129 129.535 15.4194C136.485 17.0931 143.442 18.8258 150.585 19.2379C156.077 19.566 161.612 19.4734 167.112 19.2968C171.491 19.1622 175.879 18.7922 180.241 18.2034C185.466 17.4969 190.263 15.3016 195.086 13.325C201.374 10.7681 206.473 6.73083 210.199 0.994542C210.601 0.388952 211.02 -0.216638 211.832 0.119801C212.644 0.45624 212.552 1.25528 212.393 1.91134C211.949 3.86268 210.994 5.66263 209.63 7.12614C205.778 11.2055 201.533 14.7381 196.25 16.8576C191.101 18.9267 186.035 21.2566 180.492 22.0724C176.9 22.5855 173.267 22.9724 169.633 23.1659C164.274 23.4266 158.907 23.6621 153.532 23.5612C145.603 23.4098 137.891 21.593 130.188 19.8519C121.589 17.9258 113.041 15.6969 104.417 13.8633C97.3417 12.3578 90.1913 11.1298 82.8735 11.3653C77.7158 11.5419 72.4409 11.3989 67.5344 12.9634C57.4703 16.1848 47.1801 19.1118 38.5644 25.6303C31.7322 30.7946 25.8796 36.901 22.2123 44.8157C21.869 45.5222 21.6346 46.2792 21.3248 47.053L21.3332 47.0362ZM20.3619 51.0735C19.7926 53.437 20.2279 55.5397 20.8978 57.6256C21.7769 60.3424 24.3223 62.0162 27.3281 61.8816C29.9321 61.7638 31.4643 60.3003 32.1843 57.2219C32.2011 57.1883 32.2262 57.1462 32.2178 57.1126C32.0588 56.6836 32.0253 56.0948 31.7155 55.8425C28.4501 53.151 24.5232 52.0155 20.3703 51.0651L20.3619 51.0735Z" fill="#FFCE00"/>
</g>
<defs>
<clipPath id="clip0_1720_15774">
<rect width="212" height="65" fill="white" transform="translate(0.5 0.000976562)"/>
</clipPath>
</defs>
</svg>
