<svg width="407" height="331" viewBox="0 0 407 331" fill="none" xmlns="http://www.w3.org/2000/svg">
<g clip-path="url(#clip0_4259_4087)">
<path d="M300.045 164C300.045 136.559 300.107 109.224 300.18 103.999C300.408 104.421 300.563 104.738 300.719 104.997C300.719 105.044 300.325 224.566 300.325 224.613C300.117 218.977 300.045 191.43 300.045 163.989L300.045 164ZM299.848 236.19L299.889 235.392C299.993 235.592 300.117 235.721 300.18 236.05C300.366 237.459 300.097 238.915 299.858 236.179L299.848 236.19ZM298.551 262.199L298.759 260.743C298.904 259.639 299.028 258.536 299.174 257.444C299.495 255.213 299.547 252.958 299.713 250.539C299.796 251.631 299.868 252.207 299.848 252.723C299.785 253.663 299.765 254.614 299.671 255.565C299.557 256.516 299.443 257.467 299.319 258.43L298.572 262.199L298.551 262.199ZM298.189 264.031L298.551 262.199L298.531 262.399C298.417 262.939 298.313 263.491 298.189 264.031ZM295.907 133.107C295.907 123.761 295.98 114.132 296.073 112.359C296.872 111.619 296.872 117.572 296.758 120.872C296.457 129.925 296.861 129.549 296.726 134.551C296.581 140.235 296.861 145.953 296.592 151.577C296.446 151.789 296.332 151.965 296.208 152.141C295.99 151.507 295.907 142.442 295.897 133.095L295.907 133.107ZM295.244 174.768C294.984 177.48 294.974 180.216 295.254 182.823C296.135 183.633 296.001 178.009 295.607 174.65C295.472 174.674 295.254 174.568 295.244 174.768ZM294.86 276.125C295.669 273.19 295.285 274.329 296.312 271.792C295.565 274.716 295.938 273.612 294.86 276.125ZM293.522 105.854C293.46 106.758 293.875 106.875 293.937 106.077C294.176 102.519 294.144 106.089 294.072 85.6341C292.942 95.4035 294.041 99.4897 293.533 105.854L293.522 105.854ZM291.386 149.593C291.459 148.959 291.469 149.112 291.386 148.971L291.386 149.593ZM291.334 190.925C291.448 190.96 291.407 191.324 291.469 188.87C291.355 188.835 291.397 188.53 291.334 190.925ZM291.314 154.677C291.314 154.865 291.334 155.241 291.376 156.274C291.583 155.593 291.49 154.983 291.428 154.302C291.355 154.513 291.324 154.489 291.314 154.677ZM291.293 174.815C291.262 175.531 291.324 175.954 291.438 175.801C291.479 175.742 291.479 175.308 291.5 175.085L291.407 174.369C291.376 174.521 291.303 174.65 291.293 174.827L291.293 174.815ZM290.961 216.887C291.096 216.957 291.065 217.11 291.023 216.252L290.961 216.887ZM289.084 130.9C289.105 129.89 289.198 128.422 289.406 125.498C289.406 134.469 289.437 132.825 289.271 133.636C289.126 132.497 289.063 131.921 289.084 130.9ZM288.814 138.767C288.814 138.649 288.846 138.555 288.908 138.191C288.98 139.025 288.991 138.708 288.866 139.448C288.835 139.025 288.804 138.884 288.814 138.767ZM285.061 166.278C285.164 166.231 285.133 166.56 285.144 164.717C285.03 164.764 285.061 164.435 285.061 166.278ZM285.05 180.005C285.061 180.157 285.092 180.087 285.175 180.087C285.175 179.547 285.372 178.76 285.061 178.572C285.061 179.465 285.04 179.84 285.05 179.993L285.05 180.005ZM285.019 146.035C285.019 146.211 285.04 146.564 285.071 147.538C285.206 147.127 285.206 147.609 285.113 145.671C285.05 145.883 285.019 145.871 285.019 146.047L285.019 146.035ZM284.967 154.384C284.967 155.112 285.019 155.769 285.164 156.486C285.32 153.163 285.32 154.419 285.081 151.918C285.019 152.869 284.978 153.656 284.978 154.384L284.967 154.384ZM284.947 191.442C285.092 193.074 285.216 194.682 285.351 196.491C285.185 198.017 284.978 199.015 284.967 200.072C284.926 203.184 284.781 206.354 285.071 209.407C285.361 212.413 284.853 215.172 285.019 216.992C285.403 221.149 284.459 224.155 285.444 229.427C285.714 230.824 285.579 232.844 285.942 234.006C286.253 231.529 286.098 138.861 285.838 135.033C285.507 201.939 286.077 179.606 284.957 191.442L284.947 191.442ZM276.879 282.959C277.584 282.102 277.636 281.62 276.962 282.677C276.91 282.759 276.91 282.877 276.879 282.959ZM274.816 75.0898C274.816 74.8902 274.857 74.8432 274.909 74.4557C275.013 74.7493 275.064 74.4557 275.023 76.3814C275.013 76.4871 274.95 76.5576 274.909 76.6398C274.847 75.6417 274.816 75.2777 274.816 75.0898ZM274.059 284.474C274.225 284.345 274.463 284.192 274.546 284.074L274.733 283.335L274.888 283.076L274.816 283.1L275.407 281.785C275.438 281.62 275.241 281.761 274.722 282.184C274.67 282.231 274.017 283.229 274.307 283.217L274.805 283.112L274.764 283.206L274.722 283.346L274.038 284.474L274.059 284.474ZM273.685 300.455C273.685 300.455 273.934 300.243 274.432 299.832L274.38 299.774C273.924 300.231 273.685 300.455 273.685 300.455ZM267.629 35.1199C272.254 39.5349 275.22 44.1378 277.698 49.9032C274.867 44.3139 271.881 39.9694 267.629 35.1199ZM261.003 39.4175C261.968 40.2512 262.631 41.2258 263.388 42.0008C264.156 42.7875 264.83 43.5742 265.587 44.3844C264.996 43.445 264.363 42.5879 263.565 41.8364C262.777 41.0849 262.02 40.1807 260.993 39.4175L261.003 39.4175ZM258.338 298.74C259.106 298.271 259.894 297.871 260.64 297.39L262.88 295.887C264.394 294.924 265.763 293.715 267.08 292.447C267.028 292.376 267.059 292.247 266.966 292.294C266.53 292.564 266.043 292.834 265.628 293.186C265.162 293.586 264.716 293.961 264.27 294.302C263.824 294.619 263.378 294.901 262.932 295.135C262.071 295.64 261.273 296.004 260.557 296.227C259.863 297.132 257.82 298.259 258.328 298.74L258.338 298.74ZM249.472 302.204C250.292 302.098 250.167 302.369 252.324 301.464C252.583 301.359 252.801 301.206 253.029 301.053C252.386 301.159 252.303 301.112 251.982 301.218C251.671 301.347 251.111 301.594 249.462 302.204L249.472 302.204ZM239.476 18.775C240.005 18.9746 239.642 18.9512 240.835 18.8455C240.005 18.7163 240.295 18.7281 239.476 18.775ZM230.475 316.271C232.622 316.4 234.654 316.4 236.593 316.447L236.946 316.471L237.506 316.447C237.879 316.424 238.263 316.424 238.636 316.412C239.383 316.389 240.129 316.365 240.855 316.353C241.581 316.342 242.307 316.306 243.022 316.295C243.738 316.236 244.453 316.165 245.159 316.095C245.843 316.036 246.807 315.86 247.502 315.684C253.755 313.899 258.826 312.854 262.227 309.707C256.565 312.584 251.36 314.31 245.77 315.226C242.981 315.825 240.078 315.919 236.946 316.095C234.965 316.142 232.829 316.201 230.455 316.259L230.475 316.271ZM222.128 11.8472C224.388 12.2582 224.772 12.3521 225.073 12.3404C225.747 12.2934 225.902 11.8825 224.834 11.8472L222.138 11.8472L222.128 11.8472ZM219.39 26.4778C221.744 26.1725 223.839 26.3017 225.456 25.9024C228.101 25.832 230.766 25.7733 233.4 25.9846C233.801 26.0159 233.825 26.2273 233.472 26.6187C229.003 26.7361 224.482 26.6422 219.39 26.4778ZM216.57 8.82952C216.632 8.59468 217.285 8.35984 218.747 8.37158C218.986 8.47726 219.546 8.61817 219.66 8.7943C219.867 9.11133 219.048 9.31095 217.897 9.29921C217.016 9.2992 216.497 9.06436 216.57 8.82952ZM207.486 14.3013C207.413 14.36 207.6 14.4187 208.181 14.4187C208.253 14.4187 208.347 14.3483 208.419 14.3013C207.911 14.2191 207.559 14.2426 207.476 14.3013L207.486 14.3013ZM204.188 318.655C204.178 318.76 203.805 318.713 206.833 318.772C206.625 318.608 207.05 318.655 204.188 318.655ZM201.679 4.16794C203.442 4.01529 200.31 4.03877 216.539 4.09749L216.311 4.27362C200.186 4.27362 202.301 4.30884 201.689 4.16794L201.679 4.16794ZM201.326 321.907C213.438 321.215 219.183 322.072 235.608 321.508C235.774 321.508 236.075 321.719 236.179 321.849C236.313 322.001 234.934 322.201 234.436 322.224C233.451 322.283 207.445 322.389 201.482 322.142L201.326 321.907ZM199.014 13.4207C200.497 13.4441 200.3 13.4559 200.3 13.3385L199.014 13.3385L199.014 13.4207ZM196.152 322.001C196.318 321.966 196.494 321.907 196.66 321.907C197.739 321.919 197.106 322.189 196.442 322.13C196.308 322.107 196.235 322.036 196.142 322.001L196.152 322.001ZM194.192 27.3467C197.345 27.6285 203.794 27.9808 206.48 26.9475C205.433 26.7126 204.209 26.5952 203.079 26.7713C200.175 27.2175 198.796 26.877 194.182 27.3467L194.192 27.3467ZM180.733 18.7046C180.733 18.7046 180.909 18.6928 181.23 18.6693L180.753 18.5871C180.722 18.6693 180.681 18.6928 180.722 18.6928L180.733 18.7046ZM178.348 322.001C181.313 321.438 184.517 321.532 187.525 321.555C189.733 322.365 184.051 322.025 178.866 322.154C178.71 322.154 178.524 322.048 178.358 321.989L178.348 322.001ZM174.21 20.5598C175.651 20.7594 175.04 20.7594 176.637 20.595C175.164 20.4072 175.786 20.4189 174.21 20.5598ZM173.505 321.602C173.505 321.602 173.66 321.59 173.992 321.578L173.961 321.661C173.66 321.625 173.505 321.602 173.495 321.602L173.505 321.602ZM167.771 316.682C170.135 316.976 197.085 316.905 201.389 316.905C197.106 315.625 177.85 315.931 171.037 315.989C170.083 316.013 169.119 316.154 168.237 316.283C167.947 316.33 167.916 316.541 167.781 316.682L167.771 316.682ZM166.599 318.573C169.44 318.831 194.566 318.995 199.284 318.608C187.815 318.502 178.099 318.69 166.599 318.573ZM157.028 321.614C159.402 321.426 163.737 321.391 166.163 321.614C166.661 321.649 166.796 321.79 166.568 322.036C163.944 322.201 161.227 322.248 158.531 322.083C158.023 322.048 157.619 321.802 157.028 321.614ZM155.13 14.5831C155.213 14.6888 155.462 14.7592 155.804 14.7592C162.555 14.6771 160.014 15.0176 162.7 14.7358L164.027 14.5949L164.11 14.6418L164.525 14.6418L165.769 14.8649L167.045 14.6066L167.408 14.6066L167.48 14.5714L171.587 14.9471C175.382 15.0176 178.119 14.3131 184.113 14.8767C186.363 15.0763 188.572 14.9471 190.853 14.5831C192.844 14.7827 195.032 15.088 197.262 14.8062C199.284 14.5596 201.762 14.9002 203.587 14.3013C202.996 14.2191 202.529 14.1369 202.073 14.1369C175.62 14.1839 169.876 14.1017 168.268 14.3013L167.48 14.5714L167.283 14.5479L167.045 14.5949L164.525 14.6183L164.235 14.5596L164.038 14.5831L163.467 14.313C162.575 14.1017 160.699 14.1487 155.524 14.1487C155.172 14.313 155.068 14.4657 155.151 14.5714L155.13 14.5831ZM148.369 14.4892C147.944 14.6418 148.608 14.9002 149.468 14.9119C150.142 14.9354 150.806 14.8649 151.47 14.8297C151.2 14.2543 149.354 14.1487 148.369 14.4774L148.369 14.4892ZM148.058 4.25013C147.488 4.12097 150.972 3.96832 159.942 3.89787C173.795 3.79219 187.369 4.00355 195.768 4.10923C170.27 4.80201 149.333 4.55542 148.058 4.26187L148.058 4.25013ZM143.081 316.447C144.315 316.647 142.811 316.729 151.698 316.482C152.05 316.482 152.393 316.353 153.087 316.189C149.842 315.978 146.928 315.966 143.993 316.13C143.651 316.154 143.381 316.342 143.081 316.459L143.081 316.447ZM142.552 321.719C145.061 321.402 145.061 321.391 147.249 321.684C145.694 322.013 144.138 321.919 142.552 321.719ZM140.042 13.4207C140.094 13.4207 140.25 13.4207 140.602 13.3972L140.042 13.3385C140.042 13.3385 139.98 13.4089 140.032 13.4207L140.042 13.4207ZM136.766 26.9592C137.523 27.0179 137.305 27.0414 137.554 26.9122C136.797 26.8535 137.014 26.8301 136.766 26.9592ZM129.465 4.73155C129.994 4.82549 130.492 4.93117 131.062 4.67284C129.403 4.5789 129.828 4.5789 129.465 4.73155ZM116.317 0.516162C118.515 0.0934487 120.745 0.0582228 128.439 0.316548C124.25 0.692293 120.444 0.433968 116.317 0.516162ZM102.173 20.8064C110.956 20.9356 110.831 20.7125 115.062 20.7712C149.313 21.2408 154.995 20.4776 151.511 20.4776C98.5537 20.3602 104.63 20.231 102.173 20.8064ZM100.845 0.85668C100.835 0.727518 100.7 0.751002 101.457 0.809712L100.845 0.85668ZM94.9348 0.79797C96.625 0.680549 96.1065 0.692291 96.7909 0.79797C96.5524 0.903648 96.7805 0.9741 95.194 0.927132C95.0903 0.927132 95.0177 0.833196 94.9348 0.79797ZM83.6423 5.77659C85.0837 5.62394 85.0941 5.65917 83.6423 5.67091L83.6423 5.77659ZM76.2177 6.59853C76.3007 6.58679 76.5599 6.53982 77.1717 6.4224L76.2281 6.52808C76.2281 6.52808 76.1244 6.62202 76.2177 6.61027L76.2177 6.59853ZM71.2196 3.43993C73.2624 2.60624 75.0667 2.24224 77.8768 1.71385C79.2767 1.4203 80.9462 1.34984 83.0305 1.22068C83.5594 1.20894 84.0986 1.17371 84.6793 1.15023C84.9593 1.12675 85.26 1.12675 85.5607 1.115L86.214 1.115C86.9606 1.13849 87.7901 1.15023 88.6819 1.16197C88.4745 1.26765 87.7487 1.3381 86.7532 1.38507C86.0895 1.4203 85.3637 1.44378 84.586 1.49075C83.5594 1.54946 82.4809 1.61991 81.3714 1.69036C79.1834 1.7843 76.9539 2.2305 75.1289 2.54753C73.2831 2.84108 71.8625 3.24031 71.2196 3.43993ZM67.4762 27.0062C69.3116 26.2664 68.8035 26.5835 69.3945 26.0903C67.5176 26.6891 68.088 26.5013 67.4762 27.0062ZM56.9407 9.82759L57.9569 9.08784C58.3095 8.91171 58.7554 8.64164 58.9524 8.58293C59.3672 8.46551 58.9628 8.74732 57.9673 9.28746L56.9407 9.81585L56.9407 9.82759ZM49.9931 42.7522C50.9989 41.4019 52.1499 40.0398 53.3425 38.4664C53.2802 38.4194 53.3839 38.2433 53.0106 38.6895C52.824 38.9126 52.5336 39.3001 52.0359 39.9107C51.5485 40.5447 50.8227 41.4019 49.9931 42.7522ZM44.5076 304.388C45.0883 304.987 45.9801 305.68 47.0896 306.643C48.2199 307.558 49.5161 308.768 51.1752 309.883C52.0048 310.447 52.8758 311.046 53.7987 311.68C54.255 311.997 54.7527 312.314 55.2401 312.643C55.7482 312.936 56.2563 313.23 56.8059 313.523C57.8739 314.134 59.0042 314.733 60.176 315.355C61.3477 315.989 62.6336 316.459 63.909 317.023C66.491 318.185 69.3427 318.995 72.3499 319.817C73.8534 320.193 75.4089 320.428 76.9747 320.71C77.7628 320.827 78.5612 320.956 79.3597 321.074C80.1685 321.132 80.9773 321.191 81.7861 321.25C82.6157 321.297 83.4349 321.332 84.2541 321.379L85.5296 321.426L89.3663 321.426C91.3676 321.426 93.4208 321.426 95.474 321.402C111.91 321.379 129.051 321.449 135.428 321.532C135.023 321.872 133.966 322.13 133.074 322.072C127.889 321.825 112.698 321.79 97.2161 321.79L85.6644 321.79C79.2456 321.684 73.0239 320.604 67.5073 318.725C66.1178 318.314 64.8112 317.692 63.5253 317.175C62.2499 316.612 60.9744 316.118 59.813 315.461C57.4695 314.181 55.2401 313.03 53.3632 311.633C49.485 309.038 46.5711 306.337 44.5076 304.376L44.5076 304.388ZM42.8692 53.2848C43.8232 51.0773 44.4868 49.3865 45.1712 48.2123C45.8349 47.0146 46.3119 46.1927 46.6645 45.6056C47.3592 44.4079 47.6392 44.1613 48.0125 43.5859C48.4169 43.0458 48.8732 42.1417 50.3353 39.9811L52.9691 36.5642L59.5538 29.8243C58.268 31.0102 57.1273 32.0553 56.08 33.0064C55.126 34.0631 54.2861 35.0025 53.5395 35.8244L52.9691 36.5642L49.4435 40.169C46.6644 44.1965 44.4246 48.6233 42.8692 53.2848ZM42.0396 61.7861C42.3507 60.4123 42.6307 59.1793 42.527 59.6138C42.5788 59.1559 42.0396 60.4123 42.0396 61.7861ZM40.5153 118.547C40.5153 118.723 40.5464 118.711 40.5983 118.935C40.6916 116.915 40.6916 117.408 40.5775 116.985C40.5257 117.995 40.5049 118.371 40.5153 118.547ZM40.2975 74.5027C40.2975 75.1955 40.3079 75.9 40.3079 76.6163C40.3597 79.4461 40.3909 82.4638 40.4531 85.8103C40.6397 84.5069 40.7331 83.638 40.7745 81.4188C40.7849 80.315 40.7849 78.8472 40.7745 76.8276C40.7745 76.3227 40.7642 75.7708 40.7642 75.1955C40.7642 74.9019 40.7538 74.6319 40.7642 74.2678C40.7745 73.9039 40.7953 73.5164 40.8057 73.1171C40.8368 72.3187 40.8679 71.4615 40.8886 70.5691C40.899 70.1112 40.9197 69.6532 40.9405 69.1718C41.0027 68.7021 41.0545 68.1972 41.1167 67.6923C41.1271 67.4927 40.9508 67.3518 40.8368 67.0935C40.7331 67.9037 40.5775 68.7256 40.5153 69.5241C40.4738 70.346 40.4323 71.1797 40.3805 72.0016C40.3494 72.8236 40.3183 73.6573 40.2975 74.5027ZM39.2087 74.1857C39.2087 75.4186 39.2606 76.4754 39.3124 77.6261L39.4265 74.35L39.6443 70.3108C40.2768 64.2871 40.3805 63.6178 40.4012 62.8076L40.4012 62.0796L40.5153 61.5747L40.5671 61.2577L40.7331 60.741C40.8782 60.2948 41.0338 59.7899 41.1686 59.3202C41.4071 58.3691 41.6663 57.6529 41.2827 57.9934C41.1271 58.1108 41.0234 58.4279 40.9197 59.0032L40.5775 61.2577L40.422 61.7391L40.422 62.0796L40.0798 63.6413L39.7998 65.7314C39.6443 67.1404 39.3747 68.5377 39.3435 69.9468C39.2813 71.3558 39.2295 72.7884 39.1984 74.1857L39.2087 74.1857ZM38.7732 206.53C38.7732 209.289 38.8251 211.908 38.908 214.738C39.1292 210.096 39.1292 204.338 38.908 197.465C38.8147 200.87 38.7732 203.771 38.7732 206.53ZM34.9261 292.717C35.486 293.351 35.9527 293.996 36.3986 294.666C36.8756 295.3 37.3318 295.957 37.7777 296.674C37.1867 296.098 36.6578 295.488 36.1808 294.842C35.7349 294.173 35.3201 293.456 34.9261 292.717ZM32.4996 43.175C32.5307 43.2806 32.5826 43.3159 32.6448 43.3863C32.7174 43.4803 33.1011 42.6466 33.7958 41.3549C34.5009 40.0751 35.4861 38.2903 36.5438 36.3528C37.7155 34.5093 38.9702 32.5014 40.2042 30.7401C41.5004 29.0493 42.6722 27.5228 43.4914 26.466C44.4972 25.2566 45.5342 24.1646 46.4571 23.1196C46.9652 22.6029 47.4422 22.0628 47.9295 21.5814C48.4273 21.1117 48.9354 20.6537 49.4331 20.2075C50.439 19.3151 51.4137 18.4697 52.3885 17.636C53.4047 16.8611 54.4209 16.1448 55.4371 15.4168C57.4384 13.9138 59.6264 12.7866 61.8766 11.5184C63.0069 10.8844 64.2305 10.4147 65.4541 9.85107C66.7088 9.31094 67.9946 8.72384 69.3945 8.31287C67.8391 8.72384 66.377 9.36965 64.9667 9.92153C63.5565 10.4734 62.1877 11.037 60.933 11.7533C59.6575 12.4226 58.4339 13.0801 57.2725 13.7494C56.1319 14.4657 55.0431 15.2054 54.0061 15.9217C49.8583 18.7985 46.6644 21.8397 44.1135 24.5873C42.7862 25.9142 41.7596 27.335 40.7538 28.5561C40.2768 29.1785 39.7998 29.789 39.3643 30.3409C38.9495 30.9398 38.5658 31.5034 38.2133 32.0553C36.7719 34.2393 35.652 35.9771 34.9261 37.4683C33.4018 40.3921 32.7796 41.7894 32.6033 42.5291C32.4996 42.8931 32.4893 43.0693 32.5204 43.175L32.4996 43.175ZM30.2805 284.415C30.8198 285.049 30.5813 284.591 31.3382 286.552C31.1827 286.364 31.0271 286.223 30.8924 285.977C30.3946 285.108 30.1976 284.568 30.2805 284.415ZM24.9299 101.85C24.9299 103.294 24.9506 103.517 25.0439 104.01L25.2098 104.856L25.2098 105.314L25.272 105.69L25.272 108.261L25.272 108.613L25.2306 108.907L25.2306 109.106L25.1994 109.048C25.1683 109.001 25.1373 109.013 25.0958 109.283C24.8365 110.762 24.9091 112.312 25.0958 113.78C25.1373 114.073 25.2928 114.156 25.4069 114.238C25.5002 114.308 25.5001 113.721 25.4587 112.746L25.2513 109.118L25.272 109.142L25.272 108.625L25.4691 107.028L25.2824 105.69L25.2824 105.173L25.2202 104.868L25.1787 101.439C25.1476 98.8204 25.1372 99.4545 24.9402 98.5973C24.9402 100.112 24.9402 101.145 24.9402 101.862L24.9299 101.85ZM24.7743 145.178C24.7225 149.84 24.7328 154.677 24.9817 159.891C25.3653 149.487 25.438 140.516 24.9713 131.557C24.9506 136.031 24.8262 140.516 24.7743 145.178ZM24.6187 58.7449L24.7743 57.3828C24.8158 56.9484 24.8676 56.6313 24.9921 56.0325C25.1061 55.4219 25.3032 54.553 25.6765 53.0383C26.1223 51.547 26.7653 49.3982 27.8333 46.2749C27.4704 48.4471 26.4645 50.772 25.9149 52.8739C25.4172 55.1753 24.9921 57.0188 24.7432 58.1813L24.6291 58.7449L24.6187 58.7449ZM24.4839 59.379L24.6187 58.7449L24.5462 59.3907C24.4632 59.6021 24.4528 59.5903 24.4839 59.379ZM24.4839 200.636C24.4839 202.409 24.4839 204.921 24.4839 208.514C24.7017 204.311 24.7432 199.837 24.6499 194.847C24.4943 196.573 24.4736 195.305 24.4736 200.636L24.4839 200.636ZM24.401 60.6588L24.4321 59.6725L24.5462 59.379L24.401 60.6588ZM24.1418 62.7724L24.401 60.6588L24.3803 61.1168C24.3388 62.0796 24.3388 61.8448 24.1418 62.7724ZM23.3744 71.9547C23.3744 71.9547 23.3744 71.6376 23.3848 70.9566L23.4677 71.0388C23.4055 71.6494 23.3848 71.9664 23.3744 71.9664L23.3744 71.9547ZM22.9181 247.839L22.9181 246.946C22.9285 244.563 22.9493 242.308 22.9596 240.159C23.0218 231.529 23.0944 224.437 23.1255 218.566C23.3433 195.093 23.4988 190.948 23.3018 183.422C23.167 178.549 23.1152 183.774 23.1152 173.394C23.6233 167.241 23.7892 166.548 23.8099 161.488C23.8514 140.751 24.0796 149.816 23.9551 141.726C23.8203 133.612 24.2247 132.637 24.0899 128.892C23.9862 125.968 23.9759 123.197 24.0899 120.355C24.1936 117.784 23.8307 115.318 24.0899 112.676C24.4425 108.883 23.5507 102.742 23.8721 88.6988C23.9758 84.5774 24.1003 82.546 24.1936 80.6438C24.2454 79.6927 24.2869 78.7768 24.3077 77.6378C24.3181 77.0625 24.3181 76.4519 24.3388 75.7473L24.3388 74.6319C24.3388 74.3735 24.3491 74.0917 24.3491 73.7982C24.3491 73.4577 24.3595 73.1054 24.3803 72.7296C24.4218 66.3772 25.3861 58.0873 28.2274 49.1751C31.079 40.3099 35.8905 30.8106 43.0455 22.9317C50.1175 15.0058 59.3672 8.45377 69.7367 5.25994C74.88 3.51038 80.2411 2.80586 85.5192 2.58276C88.7234 2.50056 91.8965 2.41837 95.0177 2.34792C119.739 1.7843 140.426 1.53772 137.927 2.68844C136.33 3.42819 132.514 2.77063 126.137 3.20509C126.8 3.4047 127.205 3.67477 127.744 3.70999C131.467 3.93309 137.211 3.67477 142.873 4.00355C142.614 4.12097 142.458 4.26187 142.272 4.26187C138.487 4.39103 134.93 4.76678 131.767 5.40085C124.758 5.11904 124.716 4.96639 125.162 5.63569C180.411 5.80008 208.284 5.64743 222.771 5.63569C230.019 5.63569 233.918 5.67092 236.22 5.80008C236.531 5.82356 236.811 5.84705 237.081 5.85879C237.464 5.89402 237.807 5.94098 238.138 5.96447C238.771 6.03492 239.289 6.11712 239.746 6.19931C240.648 6.3637 241.249 6.56331 241.903 6.8099C240.886 6.88035 239.051 6.83338 236.822 6.78641C235.37 6.83338 233.597 6.84512 231.689 6.84512C227.883 6.84512 223.569 6.84512 220.199 7.00951C217.69 7.13867 208.596 6.61028 200.746 7.13867C199.792 7.19738 198.693 7.18564 197.78 7.0917C194.317 6.73944 169.834 6.89209 167.812 7.05647C161.777 7.56138 159.433 6.44589 152.258 7.22086C145.155 7.97235 142.562 7.5379 139.327 8.30113C139.316 9.56927 160.17 8.51249 168.248 8.97043C169.689 9.04088 171.255 8.98217 172.738 8.92346C177.953 8.7121 179.841 9.49882 182.941 9.87456C187.286 9.87456 191.963 10.2151 196.536 10.0507C196.847 9.75714 197.127 9.6045 197.127 9.45185C197.158 8.61817 197.915 8.18371 199.823 8.01932C202.073 7.84319 204.292 7.79622 206.449 8.33636C207.393 8.7943 207.082 9.5223 209.01 10.0507C212.121 10.2151 215.585 10.2268 219.204 9.80411C222.149 10.1681 224.316 10.2151 227.624 10.2268C229.272 10.2503 231.201 10.2621 233.659 10.2855C234.271 10.2973 234.913 10.309 235.608 10.3325C235.95 10.356 236.303 10.356 236.656 10.3677C236.884 10.3677 237.122 10.3912 237.35 10.403C237.641 10.4382 237.9 10.4499 238.18 10.4617C239.31 10.5439 240.482 10.6261 241.726 10.7435C242.981 10.8374 244.267 11.1779 245.636 11.4245C246.693 11.6594 247.616 11.8707 248.373 12.1408C249.13 12.4343 249.742 12.7161 250.188 12.9392C251.069 13.3972 251.339 13.6555 250.903 13.5498C247.772 12.6222 245.584 12.4343 244.08 12.1877C242.587 11.9529 241.757 11.9412 241.208 11.9412C240.679 11.9412 240.44 11.9529 240.14 11.9999L238.875 12.176L238.418 12.129L238.014 12.2112L237.755 12.2112C237.651 12.2347 237.651 12.2582 237.496 12.3286L238.014 12.223L238.667 12.223L238.875 12.1877L241.032 12.3991C241.871 12.5048 242.66 12.6457 243.292 12.9275C243.499 13.268 242.877 13.3267 241.82 13.268C240.752 13.221 239.684 13.1623 238.615 13.1154L237.008 13.0684L235.836 13.0684C234.343 13.1154 232.84 13.1154 231.367 13.0684C226.068 12.904 220.873 13.1741 215.73 13.1506C215.087 13.5616 214.548 13.9021 213.926 14.3013C217.192 14.9119 223.994 14.8767 230.506 14.818C233.908 14.818 236.459 14.6418 240.658 14.9823C242.494 15.0411 244.111 15.4873 245.47 15.7573C246.144 15.91 246.745 16.0509 247.264 16.2035C247.772 16.3797 248.218 16.5675 248.57 16.7319C248.197 16.7084 247.844 16.7554 247.492 16.6615C243.842 15.9922 242.224 15.7104 239.715 15.6399C236.811 15.4403 234.737 15.546 229.397 15.5342L147.156 15.5342C141.318 16.2153 141.826 16.3796 133.924 16.4618L118.007 17.3542L117.852 17.3073L117.582 17.3425L115.715 17.0842C103.459 16.9667 103.344 17.0372 100.057 17.319C99.7048 17.3542 99.4559 17.5421 99.1241 17.6713C101.571 17.7535 103.987 17.8709 106.424 17.9296C111.122 18.0353 109.867 17.4247 115.187 17.6713L117.592 17.3307L117.748 17.3542L118.028 17.3307L119.085 17.6126C121.75 18.2231 127.506 17.8004 228.837 17.9413L233.472 18.3993L233.41 18.4228L232.736 18.4228C232.103 18.4228 232.259 18.458 231.543 18.6224C232 18.7281 232.249 18.7515 232.508 18.7163L233.4 18.4345L233.68 18.4345L233.462 18.411L233.534 18.3875C235.733 18.1644 235.733 18.0705 236.749 18.0353C237.309 18.0118 238.398 18.0822 240.212 18.1879C240.679 18.2231 241.197 18.2466 241.768 18.2936C242.348 18.3758 242.981 18.4932 243.686 18.6106C245.096 18.869 246.818 19.1038 248.788 19.7496C249.161 20.5246 246.444 19.3856 245.895 19.7614C247.585 20.3015 249.255 21.0765 250.831 21.7692C251.64 22.1685 251.266 22.556 249.96 22.2624C249.638 22.1802 249.016 22.0158 248.166 21.7927C247.305 21.5579 246.206 21.2526 244.879 21.053C243.551 20.8651 242.017 20.4776 240.306 20.4541C239.445 20.4072 238.543 20.3485 237.61 20.3015C237.392 20.278 237.153 20.278 236.915 20.2663L235.152 20.2663C228.723 20.2663 220.614 20.2545 212.806 20.2545C197.158 20.231 182.713 20.2663 185.306 20.6068C187.659 20.9356 190.988 21.1117 193.269 21.0765C206.211 20.9003 202.571 20.9943 203.68 21.1352C204.251 21.2056 205.982 21.2996 211.592 21.3583C214.392 21.37 218.167 21.4052 223.227 21.4405C225.757 21.4639 228.619 21.4639 231.834 21.4757L236.946 21.4757C239.144 21.6049 241.509 21.5931 243.935 22.1215C250.043 23.2253 253.911 25.0688 256.42 26.3956C257.675 27.0884 258.649 27.5815 259.365 28.063C260.07 28.5444 260.589 28.8967 260.993 29.1667C262.538 30.2705 262.268 29.9534 264.985 32.4662C264.301 32.0083 263.108 30.8341 261.221 29.6481C259.396 28.333 256.949 26.8888 254.056 25.5267C251.142 24.2468 247.751 23.0139 244.091 22.4268C243.178 22.2741 242.255 22.0745 241.312 21.9806C240.368 21.9219 239.424 21.8632 238.47 21.8045L237.029 21.734L233.462 21.734C220.863 21.734 208.43 21.7458 206.605 22.051C205.64 22.2154 205.194 22.4738 205.92 22.92C207.59 23.0139 206.221 23.0374 212.681 23.0726C215.906 23.0726 221.101 23.0961 229.625 23.1078C231.761 23.1313 234.084 23.1313 236.656 23.1313C238.087 23.1783 239.756 23.2957 241.394 23.3896C243.043 23.6715 244.785 23.9063 246.559 24.3642C248.321 24.9161 250.178 25.3623 252.023 26.2077C252.946 26.6187 253.911 26.9475 254.833 27.4641C255.756 27.9808 256.7 28.4974 257.654 29.0258C261.408 31.339 265.203 34.4037 268.687 38.4077C273.177 43.7034 274.836 47.3669 276.267 50.2319C276.889 51.7466 277.408 53.1087 277.916 54.6352C278.289 56.2086 278.777 57.923 279.129 60.1305C279.264 61.105 278.673 60.013 278.518 59.5903C278.03 58.4866 277.532 57.0658 276.993 55.3515C276.692 54.4943 276.298 53.6136 275.925 52.6273C275.541 51.6527 275.158 50.5724 274.587 49.5274C272.565 45.2063 269.299 39.9459 263.896 35.5426C262.777 34.6855 262.341 34.1688 261.211 33.1825C259.997 32.3488 258.141 30.8576 253.869 29.1432C251.505 27.9221 250.509 27.4289 249.752 27.0649C248.964 26.7831 248.415 26.5952 246.859 26.1373C246.455 26.0316 246.009 25.879 245.47 25.7615C244.92 25.6676 244.288 25.5502 243.551 25.421C242.825 25.3036 241.986 25.1275 241.021 25.0218C240.057 24.9631 238.958 24.8926 237.713 24.8104C237.05 24.7635 236.49 24.7635 235.899 24.7635L234.001 24.7635C232.653 24.7635 231.17 24.7635 229.532 24.74C226.245 24.7282 222.314 24.693 217.607 24.6578C216.259 24.8809 215.17 25.0688 213.915 25.2801C210.555 25.2097 207.082 25.1157 203.463 25.3388C205.06 25.8085 206.905 25.5149 208.554 25.5971C215.761 25.9964 213.459 25.2449 215.958 26.3604C214.185 26.56 212.567 26.7361 210.981 26.9122C210.182 26.9944 211.064 27.4289 211.354 27.4524C217.15 28.063 223.113 27.699 223.974 27.7459C227.468 27.9455 230.963 27.9455 234.468 27.9221L237.101 27.9221L239.943 28.0512C240.897 28.0512 241.83 28.2274 242.763 28.4035C243.707 28.5796 244.661 28.6853 245.563 28.9788C250.323 30.2235 254.885 32.3723 259.147 35.4252C259.759 35.4957 260.298 35.6718 260.91 35.8245C260.143 34.8733 259.178 34.251 258.235 33.5817C257.778 33.2412 257.291 32.9242 256.835 32.5954C256.358 32.2784 255.881 32.02 255.424 31.6913C254.553 31.1276 253.599 30.4701 252.542 30.0239C251.484 29.566 250.406 29.108 249.379 28.6266C248.508 28.2978 247.575 28.063 246.621 27.8399C246.133 27.7342 245.656 27.605 245.179 27.5111C244.702 27.4406 244.215 27.3584 243.738 27.288C240.907 26.7713 240.285 26.0081 241.467 26.1255C243.116 26.4191 244.671 26.5835 246.092 26.9592C247.502 27.3819 248.85 27.6755 250.053 28.1569C251.266 28.6618 252.365 29.0963 253.392 29.5307C254.377 30.0709 255.29 30.5523 256.13 31.0102C259.438 32.9359 261.387 34.5798 262.538 35.707C263.129 36.2472 263.523 36.6699 263.772 36.9752C264 37.3157 264.093 37.5388 264.083 37.6797C264.052 37.9732 263.627 37.9967 263.067 38.0437C264.436 40.0633 265.68 41.4724 266.758 43.0341C267.318 43.809 267.941 44.4783 268.48 45.3003C269.029 46.1222 269.62 46.9794 270.253 47.907C271.435 49.8562 272.773 52.2046 273.986 55.5628C275.116 58.921 276.361 63.2656 276.454 68.9722C276.122 68.3616 276.112 68.6317 275.977 67.9389C275.915 67.5866 275.811 67.0113 275.624 65.978C275.469 64.9212 274.992 63.5004 274.422 61.3869C274.339 61.0581 274.09 60.9289 273.924 60.8115C273.841 60.7645 274.038 60.7058 273.913 62.6433C273.239 61.2812 272.482 59.3555 272.047 57.4885C270.917 54.0246 269.382 51.0656 267.495 48.4824C267.018 47.8248 266.582 47.1555 266.095 46.5214C265.597 45.8991 265.079 45.2885 264.57 44.6545L263.813 43.6916C263.544 43.3981 263.274 43.081 262.994 42.7757C262.424 42.1534 261.874 41.5076 261.325 40.8266C259.832 39.6171 258.722 38.7013 257.851 38.0789C256.949 37.5036 256.337 37.1278 255.891 36.846C255.02 36.2824 254.813 36.2237 254.377 36.1532L253.693 36.3059L257.851 38.8891C267.785 46.5919 274.328 59.6373 274.328 74.444L274.328 106.101L274.805 103.083C274.857 99.0553 274.743 94.7812 274.992 90.5071C275.645 99.889 274.795 102.367 275.853 105.455C276.226 103.271 276.412 100.723 276.288 98.3155C276.081 94.0297 276.288 89.8378 276.236 85.5989C277.201 102.378 276.578 107.31 278.206 115.788C279.389 116.069 278.59 115.647 279.15 118.16C279.575 120.085 279.824 118.5 279.876 123.573C279.99 132.708 280.021 131.099 280.508 132.497C281.006 129.491 280.54 126.121 280.892 123.303C281.39 123.678 281.348 126.074 281.701 126.966C282.292 125.909 282.313 122.481 282.987 121.776C283.868 122.61 283.422 126.156 283.775 128.211C284.314 125.698 283.578 116.903 284.739 118.101C285.144 125.921 284.781 132.72 285.092 141.162C285.403 134.117 285.019 127.671 285.496 121.189C285.921 124.148 285.6 127.213 285.87 129.96C286.129 129.808 286.056 128.962 286.067 128.387C286.201 119.028 286.025 122.258 286.523 118.735C287.228 118.265 288.296 116.903 288.337 120.578C288.4 127.142 288.296 159.703 288.223 193.074C288.192 209.759 288.172 226.656 288.151 240.617L288.151 245.713C288.14 246.57 288.151 247.263 288.14 248.226C288.099 249.306 288.047 250.375 288.006 251.432C287.964 253.522 287.695 255.53 287.425 257.455C287.207 259.381 286.813 261.189 286.419 262.892C284.843 269.714 282.676 274.657 281.182 277.581C280.436 279.014 279.793 280.305 279.119 281.374C278.445 282.442 277.833 283.346 277.335 284.133C276.371 285.73 275.656 286.681 275.593 287.433C277.211 286.082 278.652 284.438 280.363 282.56C282.79 278.65 286.015 272.602 288.058 264.371C288.535 262.305 289.084 260.168 289.343 257.866C289.499 256.716 289.654 255.553 289.81 254.367C289.914 253.181 289.966 251.983 290.028 250.739C290.059 250.14 290.08 249.506 290.1 248.884L290.142 247.944L290.142 247.275C290.142 246.383 290.152 245.467 290.152 244.551C290.163 242.707 290.163 240.817 290.183 238.891C290.194 223.427 290.204 205.285 290.214 187.731C290.194 152.611 290.131 119.815 290.349 115.388C291.479 115.236 291.5 116.21 291.552 111.326C291.759 80.1624 291.417 89.0393 291.666 79.0821C292.205 76.4401 291.956 80.0684 292.081 109.33C292.091 110.081 292.185 110.821 292.236 111.561C292.589 111.197 292.713 109.999 292.765 108.954C292.921 105.596 292.817 88.734 292.765 86.5735C292.713 84.3425 292.848 82.0176 292.9 79.7397C292.931 79.0234 293.19 78.8238 293.398 79.3639C295.41 84.2369 295.047 60.5649 295.067 154.795C295.067 163.096 295.119 165.374 295.731 166.572C296.602 163.566 296.042 159.621 296.104 156.227C296.415 155.57 296.571 156.415 296.581 157.108C296.654 160.736 296.913 170.365 296.426 178.572C295.814 188.588 296.426 190.913 296.26 193.943C295.918 200.495 296.405 208.749 296.218 213.681C296.001 219.599 295.959 227.584 295.949 235.345C295.949 239.22 295.949 243.06 295.949 246.559L295.949 247.85C295.918 248.496 295.907 249.142 295.887 249.776C295.824 251.068 295.752 252.348 295.69 253.557C295.555 255.976 295.14 258.207 294.87 260.203C294.673 261.694 294.3 263.044 294.02 264.36C293.709 265.675 293.408 266.908 293.118 268.082C292.413 270.372 291.739 272.415 291.117 274.27C289.696 277.851 288.524 280.704 287.301 283.029C286.709 284.215 286.201 285.331 285.631 286.329C285.05 287.327 284.501 288.29 283.962 289.253C282.904 291.214 281.67 292.987 280.218 295.065C274.857 301.312 271.642 303.367 270.491 304.47C269.247 305.445 269.797 305.187 270.626 305.046C272.98 303.155 274.753 301.781 275.987 300.572C277.221 299.374 278.072 298.541 278.715 297.871C280.021 296.58 280.405 295.922 281.452 294.525C283.08 292.259 283.225 292.223 284.397 290.615C285.475 288.983 288.182 286.129 292.174 276.372C292.745 275.104 293.159 273.706 293.626 272.309C294.061 270.9 294.559 269.467 294.933 267.976C295.638 264.982 296.415 261.87 296.778 258.641C297.286 255.424 297.421 252.148 297.535 248.872L297.566 248.25L297.566 247.745L297.577 245.478C297.577 244.48 297.587 243.471 297.587 242.484C297.618 234.558 297.639 227.278 297.649 222.887C297.68 212.378 297.235 212.096 297.577 203.207C297.981 192.663 297.172 98.4682 298.603 89.92C298.831 92.8085 298.707 95.3683 298.759 97.8576C299.029 109.823 299.257 107.31 299.246 114.884C299.143 153.233 299.06 182.435 299.008 205.191C298.956 216.57 298.914 226.327 298.873 234.805C298.863 239.056 298.831 242.966 298.821 246.606C298.811 247.064 298.811 247.522 298.811 247.979C298.78 248.719 298.759 249.435 298.738 250.163C298.655 251.608 298.583 253.029 298.52 254.402C298.272 257.162 297.877 259.839 297.473 262.375C295.555 272.544 292.153 280.622 288.42 287.08C284.625 293.515 280.508 298.411 276.34 302.521C275.272 303.508 274.193 304.435 273.136 305.351C272.607 305.809 272.068 306.267 271.539 306.713C270.989 307.112 270.44 307.523 269.88 307.923C268.78 308.721 267.671 309.484 266.551 310.247C265.41 310.94 264.239 311.61 263.077 312.267C260.765 313.653 258.255 314.615 255.704 315.719C254.429 316.212 253.081 316.612 251.723 317.034L250.696 317.34L247.502 318.126C248.218 317.974 248.944 317.833 249.649 317.657L250.696 317.34L254.035 316.518C255.984 315.907 257.716 315.238 259.261 314.569C260.029 314.24 260.775 313.946 261.47 313.617C262.154 313.265 262.808 312.925 263.43 312.596C264.664 311.938 265.784 311.339 266.79 310.752C268.76 309.472 270.388 308.369 271.922 307.324C273.395 306.173 274.764 305.093 276.278 303.918C277.564 302.862 279.969 300.513 281.939 298.282C283.847 295.957 285.455 293.985 285.496 293.949C285.496 293.949 285.413 294.079 285.206 294.36C284.998 294.631 284.667 295.065 284.2 295.687C283.246 296.897 281.805 298.928 279.306 301.476C278.694 302.122 277.999 302.826 277.284 303.566C276.537 304.283 275.697 305.01 274.805 305.797C273.903 306.572 272.949 307.429 271.881 308.228C270.803 309.026 269.641 309.86 268.407 310.705C263.409 313.993 256.783 317.481 248.155 319.301C246.901 319.535 245.48 319.723 244.433 319.993C243.126 320.357 241.809 320.428 240.461 320.592L238.429 320.757L237.413 320.815L236.936 320.839L236.635 320.839C235.017 320.815 233.389 320.803 231.772 320.792C229.127 320.768 223.507 320.827 221.257 320.745C204.292 320.24 196.639 320.334 133.354 320.322C124.115 320.322 115.446 320.31 107.316 320.31C103.251 320.31 99.3211 320.299 95.5051 320.299C93.6075 320.275 91.7305 320.275 89.8848 320.275L85.7784 320.275C85.0215 320.228 84.2749 320.193 83.4349 320.111C77.4724 319.958 71.7069 318.549 66.377 316.67C63.7327 315.59 61.13 314.545 58.7242 313.124C57.511 312.443 56.2978 311.809 55.1467 311.046C54.0165 310.271 52.8965 309.496 51.787 308.721C50.6671 307.969 49.6405 307.077 48.6243 306.208C47.6081 305.316 46.6022 304.459 45.6275 303.566C44.6839 302.627 43.7713 301.687 42.8692 300.725C41.967 299.785 41.0856 298.834 40.2872 297.801C38.6695 295.77 37.0622 293.785 35.7245 291.613C35.0505 290.556 34.3661 289.488 33.6921 288.442C33.0803 287.35 32.4996 286.235 31.9189 285.155C27.3771 276.419 24.8054 267.26 23.7062 258.688C23.5714 257.608 23.4574 256.551 23.3226 255.506C23.2396 254.449 23.1981 253.416 23.1463 252.383C23.1048 251.361 23.0737 250.328 23.0322 249.33C23.0218 248.825 23.0011 248.343 22.9907 247.862L22.9181 247.839ZM21.4664 216.616C21.5183 213.575 21.7049 210.734 22.1715 209.066C22.2338 215.02 22.2752 220.703 22.099 226.856C21.8604 226.233 21.6116 225.904 21.5908 225.423C21.5079 222.922 21.4249 219.658 21.4768 216.616L21.4664 216.616Z" fill="#E7BD11"/>
</g>
<defs>
<clipPath id="clip0_4259_4087">
<rect width="406" height="330" fill="white" transform="translate(0.265625 0.15332)"/>
</clipPath>
</defs>
</svg>
