<svg width="280" height="323" viewBox="0 0 280 323" fill="none" xmlns="http://www.w3.org/2000/svg">
<path d="M279.045 164C279.045 136.559 279.107 109.224 279.18 103.999C279.408 104.421 279.563 104.738 279.719 104.997C279.719 105.044 279.325 224.566 279.325 224.613C279.117 218.977 279.045 191.43 279.045 163.989L279.045 164ZM278.848 236.19L278.889 235.392C278.993 235.592 279.117 235.721 279.18 236.05C279.366 237.459 279.097 238.915 278.858 236.179L278.848 236.19ZM277.551 262.199L277.759 260.743C277.904 259.639 278.028 258.536 278.174 257.444C278.495 255.213 278.547 252.958 278.713 250.539C278.796 251.631 278.868 252.207 278.848 252.723C278.785 253.663 278.765 254.614 278.671 255.565C278.557 256.516 278.443 257.467 278.319 258.43L277.572 262.199L277.551 262.199ZM277.189 264.031L277.551 262.199L277.531 262.399C277.417 262.939 277.313 263.491 277.189 264.031ZM274.907 133.107C274.907 123.761 274.98 114.132 275.073 112.359C275.872 111.619 275.872 117.572 275.758 120.872C275.457 129.925 275.861 129.549 275.726 134.551C275.581 140.235 275.861 145.953 275.592 151.577C275.446 151.789 275.332 151.965 275.208 152.141C274.99 151.507 274.907 142.442 274.897 133.095L274.907 133.107ZM274.244 174.768C273.984 177.48 273.974 180.216 274.254 182.823C275.135 183.633 275.001 178.009 274.607 174.65C274.472 174.674 274.254 174.568 274.244 174.768ZM273.86 276.125C274.669 273.19 274.285 274.329 275.312 271.792C274.565 274.716 274.938 273.612 273.86 276.125ZM272.522 105.854C272.46 106.758 272.875 106.875 272.937 106.077C273.176 102.519 273.144 106.089 273.072 85.6341C271.942 95.4035 273.041 99.4897 272.533 105.854L272.522 105.854ZM270.386 149.593C270.459 148.959 270.469 149.112 270.386 148.971L270.386 149.593ZM270.334 190.925C270.448 190.96 270.407 191.324 270.469 188.87C270.355 188.835 270.397 188.53 270.334 190.925ZM270.314 154.677C270.314 154.865 270.334 155.241 270.376 156.274C270.583 155.593 270.49 154.983 270.428 154.302C270.355 154.513 270.324 154.489 270.314 154.677ZM270.293 174.815C270.262 175.531 270.324 175.954 270.438 175.801C270.479 175.742 270.479 175.308 270.5 175.085L270.407 174.369C270.376 174.521 270.303 174.65 270.293 174.827L270.293 174.815ZM269.961 216.887C270.096 216.957 270.065 217.11 270.023 216.252L269.961 216.887ZM268.084 130.9C268.105 129.89 268.198 128.422 268.406 125.498C268.406 134.469 268.437 132.825 268.271 133.636C268.126 132.497 268.063 131.921 268.084 130.9ZM267.814 138.767C267.814 138.649 267.846 138.555 267.908 138.191C267.98 139.025 267.991 138.708 267.866 139.448C267.835 139.025 267.804 138.884 267.814 138.767ZM264.061 166.278C264.164 166.231 264.133 166.56 264.144 164.717C264.03 164.764 264.061 164.435 264.061 166.278ZM264.05 180.005C264.061 180.157 264.092 180.087 264.175 180.087C264.175 179.547 264.372 178.76 264.061 178.572C264.061 179.465 264.04 179.84 264.05 179.993L264.05 180.005ZM264.019 146.035C264.019 146.211 264.04 146.564 264.071 147.538C264.206 147.127 264.206 147.609 264.113 145.671C264.05 145.883 264.019 145.871 264.019 146.047L264.019 146.035ZM263.967 154.384C263.967 155.112 264.019 155.769 264.164 156.486C264.32 153.163 264.32 154.419 264.081 151.918C264.019 152.869 263.978 153.656 263.978 154.384L263.967 154.384ZM263.947 191.442C264.092 193.074 264.216 194.682 264.351 196.491C264.185 198.017 263.978 199.015 263.967 200.072C263.926 203.184 263.781 206.354 264.071 209.407C264.361 212.413 263.853 215.172 264.019 216.992C264.403 221.149 263.459 224.155 264.444 229.427C264.714 230.824 264.579 232.844 264.942 234.006C265.253 231.529 265.098 138.861 264.838 135.033C264.507 201.939 265.077 179.606 263.957 191.442L263.947 191.442ZM255.879 282.959C256.584 282.102 256.636 281.62 255.962 282.677C255.91 282.759 255.91 282.877 255.879 282.959ZM253.816 75.0898C253.816 74.8902 253.857 74.8432 253.909 74.4557C254.013 74.7493 254.064 74.4557 254.023 76.3814C254.013 76.4871 253.95 76.5576 253.909 76.6398C253.847 75.6417 253.816 75.2777 253.816 75.0898ZM253.059 284.474C253.225 284.345 253.463 284.192 253.546 284.074L253.733 283.335L253.888 283.076L253.816 283.1L254.407 281.785C254.438 281.62 254.241 281.761 253.722 282.184C253.67 282.231 253.017 283.229 253.307 283.217L253.805 283.112L253.764 283.206L253.722 283.346L253.038 284.474L253.059 284.474ZM252.685 300.455C252.685 300.455 252.934 300.243 253.432 299.832L253.38 299.774C252.924 300.231 252.685 300.455 252.685 300.455ZM246.629 35.1199C251.254 39.5349 254.22 44.1378 256.698 49.9032C253.867 44.3139 250.881 39.9694 246.629 35.1199ZM240.003 39.4175C240.968 40.2512 241.631 41.2258 242.388 42.0008C243.156 42.7875 243.83 43.5742 244.587 44.3844C243.996 43.445 243.363 42.5879 242.565 41.8364C241.777 41.0849 241.02 40.1807 239.993 39.4175L240.003 39.4175ZM237.338 298.74C238.106 298.271 238.894 297.871 239.64 297.39L241.88 295.887C243.394 294.924 244.763 293.715 246.08 292.447C246.028 292.376 246.059 292.247 245.966 292.294C245.53 292.564 245.043 292.834 244.628 293.186C244.162 293.586 243.716 293.961 243.27 294.302C242.824 294.619 242.378 294.901 241.932 295.135C241.071 295.64 240.273 296.004 239.557 296.227C238.863 297.132 236.82 298.259 237.328 298.74L237.338 298.74ZM228.472 302.204C229.292 302.098 229.167 302.369 231.324 301.464C231.583 301.359 231.801 301.206 232.029 301.053C231.386 301.159 231.303 301.112 230.982 301.218C230.671 301.347 230.111 301.594 228.462 302.204L228.472 302.204ZM218.476 18.775C219.005 18.9746 218.642 18.9512 219.835 18.8455C219.005 18.7163 219.295 18.7281 218.476 18.775ZM209.475 316.271C211.622 316.4 213.654 316.4 215.593 316.447L215.946 316.471L216.506 316.447C216.879 316.424 217.263 316.424 217.636 316.412C218.383 316.389 219.129 316.365 219.855 316.353C220.581 316.342 221.307 316.306 222.022 316.295C222.738 316.236 223.453 316.165 224.159 316.095C224.843 316.036 225.807 315.86 226.502 315.684C232.755 313.899 237.826 312.854 241.227 309.707C235.565 312.584 230.36 314.31 224.77 315.226C221.981 315.825 219.078 315.919 215.946 316.095C213.965 316.142 211.829 316.201 209.455 316.259L209.475 316.271ZM201.128 11.8472C203.388 12.2582 203.772 12.3521 204.073 12.3404C204.747 12.2934 204.902 11.8825 203.834 11.8472L201.138 11.8472L201.128 11.8472ZM198.39 26.4778C200.744 26.1725 202.839 26.3017 204.456 25.9024C207.101 25.832 209.766 25.7733 212.4 25.9846C212.801 26.0159 212.825 26.2273 212.472 26.6187C208.003 26.7361 203.482 26.6422 198.39 26.4778ZM195.57 8.82952C195.632 8.59468 196.285 8.35984 197.747 8.37158C197.986 8.47726 198.546 8.61817 198.66 8.7943C198.867 9.11133 198.048 9.31095 196.897 9.29921C196.016 9.2992 195.497 9.06436 195.57 8.82952ZM186.486 14.3013C186.413 14.36 186.6 14.4187 187.181 14.4187C187.253 14.4187 187.347 14.3483 187.419 14.3013C186.911 14.2191 186.559 14.2426 186.476 14.3013L186.486 14.3013ZM183.188 318.655C183.178 318.76 182.805 318.713 185.833 318.772C185.625 318.608 186.05 318.655 183.188 318.655ZM180.679 4.16794C182.442 4.01529 179.31 4.03877 195.539 4.09749L195.311 4.27362C179.186 4.27362 181.301 4.30884 180.689 4.16794L180.679 4.16794ZM180.326 321.907C192.438 321.215 198.183 322.072 214.608 321.508C214.774 321.508 215.075 321.719 215.179 321.849C215.313 322.001 213.934 322.201 213.436 322.224C212.451 322.283 186.445 322.389 180.482 322.142L180.326 321.907ZM178.014 13.4207C179.497 13.4441 179.3 13.4559 179.3 13.3385L178.014 13.3385L178.014 13.4207ZM175.152 322.001C175.318 321.966 175.494 321.907 175.66 321.907C176.739 321.919 176.106 322.189 175.442 322.13C175.308 322.107 175.235 322.036 175.142 322.001L175.152 322.001ZM173.192 27.3467C176.345 27.6285 182.794 27.9808 185.48 26.9475C184.433 26.7126 183.209 26.5952 182.079 26.7713C179.175 27.2175 177.796 26.877 173.182 27.3467L173.192 27.3467ZM159.733 18.7046C159.733 18.7046 159.909 18.6928 160.23 18.6693L159.753 18.5871C159.722 18.6693 159.681 18.6928 159.722 18.6928L159.733 18.7046ZM157.348 322.001C160.313 321.438 163.517 321.532 166.525 321.555C168.733 322.365 163.051 322.025 157.866 322.154C157.71 322.154 157.524 322.048 157.358 321.989L157.348 322.001ZM153.21 20.5598C154.651 20.7594 154.04 20.7594 155.637 20.595C154.164 20.4072 154.786 20.4189 153.21 20.5598ZM152.505 321.602C152.505 321.602 152.66 321.59 152.992 321.578L152.961 321.661C152.66 321.625 152.505 321.602 152.495 321.602L152.505 321.602ZM146.771 316.682C149.135 316.976 176.085 316.905 180.389 316.905C176.106 315.625 156.85 315.931 150.037 315.989C149.083 316.013 148.119 316.154 147.237 316.283C146.947 316.33 146.916 316.541 146.781 316.682L146.771 316.682ZM145.599 318.573C148.44 318.831 173.566 318.995 178.284 318.608C166.815 318.502 157.099 318.69 145.599 318.573ZM136.028 321.614C138.402 321.426 142.737 321.391 145.163 321.614C145.661 321.649 145.796 321.79 145.568 322.036C142.944 322.201 140.227 322.248 137.531 322.083C137.023 322.048 136.619 321.802 136.028 321.614ZM134.13 14.5831C134.213 14.6888 134.462 14.7592 134.804 14.7592C141.555 14.6771 139.014 15.0176 141.7 14.7358L143.027 14.5949L143.11 14.6418L143.525 14.6418L144.769 14.8649L146.045 14.6066L146.408 14.6066L146.48 14.5714L150.587 14.9471C154.382 15.0176 157.119 14.3131 163.113 14.8767C165.363 15.0763 167.572 14.9471 169.853 14.5831C171.844 14.7827 174.032 15.088 176.262 14.8062C178.284 14.5596 180.762 14.9002 182.587 14.3013C181.996 14.2191 181.529 14.1369 181.073 14.1369C154.62 14.1839 148.876 14.1017 147.268 14.3013L146.48 14.5714L146.283 14.5479L146.045 14.5949L143.525 14.6183L143.235 14.5596L143.038 14.5831L142.467 14.313C141.575 14.1017 139.699 14.1487 134.524 14.1487C134.172 14.313 134.068 14.4657 134.151 14.5714L134.13 14.5831ZM127.369 14.4892C126.944 14.6418 127.608 14.9002 128.468 14.9119C129.142 14.9354 129.806 14.8649 130.47 14.8297C130.2 14.2543 128.354 14.1487 127.369 14.4774L127.369 14.4892ZM127.058 4.25013C126.488 4.12097 129.972 3.96832 138.942 3.89787C152.795 3.79219 166.369 4.00355 174.768 4.10923C149.27 4.80201 128.333 4.55542 127.058 4.26187L127.058 4.25013ZM122.081 316.447C123.315 316.647 121.811 316.729 130.698 316.482C131.05 316.482 131.393 316.353 132.087 316.189C128.842 315.978 125.928 315.966 122.993 316.13C122.651 316.154 122.381 316.342 122.081 316.459L122.081 316.447ZM121.552 321.719C124.061 321.402 124.061 321.391 126.249 321.684C124.694 322.013 123.138 321.919 121.552 321.719ZM119.042 13.4207C119.094 13.4207 119.25 13.4207 119.602 13.3972L119.042 13.3385C119.042 13.3385 118.98 13.4089 119.032 13.4207L119.042 13.4207ZM115.766 26.9592C116.523 27.0179 116.305 27.0414 116.554 26.9122C115.797 26.8535 116.014 26.8301 115.766 26.9592ZM108.465 4.73155C108.994 4.82549 109.492 4.93117 110.062 4.67284C108.403 4.5789 108.828 4.5789 108.465 4.73155ZM95.3168 0.516162C97.5152 0.0934487 99.7446 0.0582228 107.439 0.316548C103.25 0.692293 99.4439 0.433968 95.3168 0.516162ZM81.1727 20.8064C89.9557 20.9356 89.8313 20.7125 94.0621 20.7712C128.313 21.2408 133.995 20.4776 130.511 20.4776C77.5537 20.3602 83.6303 20.231 81.1727 20.8064ZM79.8454 0.85668C79.8351 0.727518 79.7002 0.751002 80.4572 0.809712L79.8454 0.85668ZM73.9348 0.79797C75.625 0.680549 75.1065 0.692291 75.7909 0.79797C75.5524 0.903648 75.7805 0.9741 74.194 0.927132C74.0903 0.927132 74.0177 0.833196 73.9348 0.79797ZM62.6423 5.77659C64.0837 5.62394 64.0941 5.65917 62.6423 5.67091L62.6423 5.77659ZM55.2177 6.59853C55.3007 6.58679 55.5599 6.53982 56.1717 6.4224L55.2281 6.52808C55.2281 6.52808 55.1244 6.62202 55.2177 6.61027L55.2177 6.59853ZM50.2196 3.43993C52.2624 2.60624 54.0667 2.24224 56.8768 1.71385C58.2767 1.4203 59.9462 1.34984 62.0305 1.22068C62.5594 1.20894 63.0986 1.17371 63.6793 1.15023C63.9593 1.12675 64.26 1.12675 64.5607 1.115L65.214 1.115C65.9606 1.13849 66.7901 1.15023 67.6819 1.16197C67.4745 1.26765 66.7487 1.3381 65.7532 1.38507C65.0895 1.4203 64.3637 1.44378 63.586 1.49075C62.5594 1.54946 61.4809 1.61991 60.3714 1.69036C58.1834 1.7843 55.9539 2.2305 54.1289 2.54753C52.2831 2.84108 50.8625 3.24031 50.2196 3.43993ZM46.4762 27.0062C48.3116 26.2664 47.8035 26.5835 48.3945 26.0903C46.5176 26.6891 47.088 26.5013 46.4762 27.0062ZM35.9407 9.82759L36.9569 9.08784C37.3095 8.91171 37.7554 8.64164 37.9524 8.58293C38.3672 8.46551 37.9628 8.74732 36.9673 9.28746L35.9407 9.81585L35.9407 9.82759ZM28.9931 42.7522C29.9989 41.4019 31.1499 40.0398 32.3425 38.4664C32.2802 38.4194 32.3839 38.2433 32.0106 38.6895C31.824 38.9126 31.5336 39.3001 31.0359 39.9107C30.5485 40.5447 29.8227 41.4019 28.9931 42.7522ZM23.5076 304.388C24.0883 304.987 24.9801 305.68 26.0896 306.643C27.2199 307.558 28.5161 308.768 30.1752 309.883C31.0048 310.447 31.8758 311.046 32.7987 311.68C33.255 311.997 33.7527 312.314 34.2401 312.643C34.7482 312.936 35.2563 313.23 35.8059 313.523C36.8739 314.134 38.0042 314.733 39.176 315.355C40.3477 315.989 41.6336 316.459 42.909 317.023C45.491 318.185 48.3427 318.995 51.3499 319.817C52.8534 320.193 54.4089 320.428 55.9747 320.71C56.7628 320.827 57.5612 320.956 58.3597 321.074C59.1685 321.132 59.9773 321.191 60.7861 321.25C61.6157 321.297 62.4349 321.332 63.2541 321.379L64.5296 321.426L68.3663 321.426C70.3676 321.426 72.4208 321.426 74.474 321.402C90.9097 321.379 108.051 321.449 114.428 321.532C114.023 321.872 112.966 322.13 112.074 322.072C106.889 321.825 91.6978 321.79 76.2161 321.79L64.6644 321.79C58.2456 321.684 52.0239 320.604 46.5073 318.725C45.1178 318.314 43.8112 317.692 42.5253 317.175C41.2499 316.612 39.9744 316.118 38.813 315.461C36.4695 314.181 34.2401 313.03 32.3632 311.633C28.485 309.038 25.5711 306.337 23.5076 304.376L23.5076 304.388ZM21.8692 53.2848C22.8232 51.0773 23.4868 49.3865 24.1712 48.2123C24.8349 47.0146 25.3119 46.1927 25.6645 45.6056C26.3592 44.4079 26.6392 44.1613 27.0125 43.5859C27.4169 43.0458 27.8732 42.1417 29.3353 39.9811L31.9691 36.5642L38.5538 29.8243C37.268 31.0102 36.1273 32.0553 35.08 33.0064C34.126 34.0631 33.2861 35.0025 32.5395 35.8244L31.9691 36.5642L28.4435 40.169C25.6644 44.1965 23.4246 48.6233 21.8692 53.2848ZM21.0396 61.7861C21.3507 60.4123 21.6307 59.1793 21.527 59.6138C21.5788 59.1559 21.0396 60.4123 21.0396 61.7861ZM19.5153 118.547C19.5153 118.723 19.5464 118.711 19.5983 118.935C19.6916 116.915 19.6916 117.408 19.5775 116.985C19.5257 117.995 19.5049 118.371 19.5153 118.547ZM19.2975 74.5027C19.2975 75.1955 19.3079 75.9 19.3079 76.6163C19.3597 79.4461 19.3909 82.4638 19.4531 85.8103C19.6397 84.5069 19.7331 83.638 19.7745 81.4188C19.7849 80.315 19.7849 78.8472 19.7745 76.8276C19.7745 76.3227 19.7642 75.7708 19.7642 75.1955C19.7642 74.9019 19.7538 74.6319 19.7642 74.2678C19.7745 73.9039 19.7953 73.5164 19.8057 73.1171C19.8368 72.3187 19.8679 71.4615 19.8886 70.5691C19.899 70.1112 19.9197 69.6532 19.9405 69.1718C20.0027 68.7021 20.0545 68.1972 20.1167 67.6923C20.1271 67.4927 19.9508 67.3518 19.8368 67.0935C19.7331 67.9037 19.5775 68.7256 19.5153 69.5241C19.4738 70.346 19.4323 71.1797 19.3805 72.0016C19.3494 72.8236 19.3183 73.6573 19.2975 74.5027ZM18.2087 74.1857C18.2087 75.4186 18.2606 76.4754 18.3124 77.6261L18.4265 74.35L18.6443 70.3108C19.2768 64.2871 19.3805 63.6178 19.4012 62.8076L19.4012 62.0796L19.5153 61.5747L19.5671 61.2577L19.7331 60.741C19.8782 60.2948 20.0338 59.7899 20.1686 59.3202C20.4071 58.3691 20.6663 57.6529 20.2827 57.9934C20.1271 58.1108 20.0234 58.4279 19.9197 59.0032L19.5775 61.2577L19.422 61.7391L19.422 62.0796L19.0798 63.6413L18.7998 65.7314C18.6443 67.1404 18.3747 68.5377 18.3435 69.9468C18.2813 71.3558 18.2295 72.7884 18.1984 74.1857L18.2087 74.1857ZM17.7732 206.53C17.7732 209.289 17.8251 211.908 17.908 214.738C18.1292 210.096 18.1292 204.338 17.908 197.465C17.8147 200.87 17.7732 203.771 17.7732 206.53ZM13.9261 292.717C14.486 293.351 14.9527 293.996 15.3986 294.666C15.8756 295.3 16.3318 295.957 16.7777 296.674C16.1867 296.098 15.6578 295.488 15.1808 294.842C14.7349 294.173 14.3201 293.456 13.9261 292.717ZM11.4996 43.175C11.5307 43.2806 11.5826 43.3159 11.6448 43.3863C11.7174 43.4803 12.1011 42.6466 12.7958 41.3549C13.5009 40.0751 14.4861 38.2903 15.5438 36.3528C16.7155 34.5093 17.9702 32.5014 19.2042 30.7401C20.5004 29.0493 21.6722 27.5228 22.4914 26.466C23.4972 25.2566 24.5342 24.1646 25.4571 23.1196C25.9652 22.6029 26.4422 22.0628 26.9295 21.5814C27.4273 21.1117 27.9354 20.6537 28.4331 20.2075C29.439 19.3151 30.4137 18.4697 31.3885 17.636C32.4047 16.8611 33.4209 16.1448 34.4371 15.4168C36.4384 13.9138 38.6264 12.7866 40.8766 11.5184C42.0069 10.8844 43.2305 10.4147 44.4541 9.85107C45.7088 9.31094 46.9946 8.72384 48.3945 8.31287C46.8391 8.72384 45.377 9.36965 43.9667 9.92153C42.5565 10.4734 41.1877 11.037 39.933 11.7533C38.6575 12.4226 37.4339 13.0801 36.2725 13.7494C35.1319 14.4657 34.0431 15.2054 33.0061 15.9217C28.8583 18.7985 25.6644 21.8397 23.1135 24.5873C21.7862 25.9142 20.7596 27.335 19.7538 28.5561C19.2768 29.1785 18.7998 29.789 18.3643 30.3409C17.9495 30.9398 17.5658 31.5034 17.2133 32.0553C15.7719 34.2393 14.652 35.9771 13.9261 37.4683C12.4018 40.3921 11.7796 41.7894 11.6033 42.5291C11.4996 42.8931 11.4893 43.0693 11.5204 43.175L11.4996 43.175ZM9.28054 284.415C9.81975 285.049 9.58126 284.591 10.3382 286.552C10.1827 286.364 10.0271 286.223 9.89235 285.977C9.39461 285.108 9.19759 284.568 9.28054 284.415ZM3.92987 101.85C3.92987 103.294 3.95059 103.517 4.04391 104.01L4.20983 104.856L4.20983 105.314L4.27203 105.69L4.27203 108.261L4.27203 108.613L4.23056 108.907L4.23056 109.106L4.19943 109.048C4.16833 109.001 4.13726 109.013 4.09576 109.283C3.83654 110.762 3.90911 112.312 4.09576 113.78C4.13726 114.073 4.29278 114.156 4.40686 114.238C4.50018 114.308 4.50015 113.721 4.45867 112.746L4.25131 109.118L4.27203 109.142L4.27203 108.625L4.46905 107.028L4.28241 105.69L4.28241 105.173L4.22021 104.868L4.17871 101.439C4.14761 98.8204 4.13723 99.4545 3.94021 98.5973C3.94021 100.112 3.94021 101.145 3.94021 101.862L3.92987 101.85ZM3.77432 145.178C3.72247 149.84 3.73281 154.677 3.98168 159.891C4.36535 149.487 4.43795 140.516 3.97131 131.557C3.95056 136.031 3.82617 140.516 3.77432 145.178ZM3.61874 58.7449L3.77432 57.3828C3.81579 56.9484 3.86764 56.6313 3.99206 56.0325C4.10614 55.4219 4.30316 54.553 4.67648 53.0383C5.12234 51.547 5.76526 49.3982 6.83331 46.2749C6.4704 48.4471 5.46454 50.772 4.91495 52.8739C4.4172 55.1753 3.99206 57.0188 3.74319 58.1813L3.62912 58.7449L3.61874 58.7449ZM3.48395 59.379L3.61874 58.7449L3.5462 59.3907C3.46322 59.6021 3.45282 59.5903 3.48395 59.379ZM3.48394 200.636C3.48394 202.409 3.48394 204.921 3.48394 208.514C3.70168 204.311 3.74319 199.837 3.64986 194.847C3.49432 196.573 3.47359 195.305 3.47359 200.636L3.48394 200.636ZM3.401 60.6588L3.4321 59.6725L3.5462 59.379L3.401 60.6588ZM3.14175 62.7724L3.401 60.6588L3.38028 61.1168C3.3388 62.0796 3.33877 61.8448 3.14175 62.7724ZM2.37442 71.9547C2.37442 71.9547 2.37439 71.6376 2.38476 70.9566L2.46774 71.0388C2.40551 71.6494 2.38479 71.9664 2.37442 71.9664L2.37442 71.9547ZM1.91814 247.839L1.91814 246.946C1.92852 244.563 1.94927 242.308 1.95965 240.159C2.02184 231.529 2.09441 224.437 2.12551 218.566C2.34328 195.093 2.49883 190.948 2.30181 183.422C2.16701 178.549 2.11517 183.774 2.11517 173.394C2.62328 167.241 2.78918 166.548 2.80993 161.488C2.8514 140.751 3.07955 149.816 2.9551 141.726C2.82031 133.612 3.22473 132.637 3.08993 128.892C2.98623 125.968 2.97586 123.197 3.08993 120.355C3.19363 117.784 2.83068 115.318 3.08993 112.676C3.4425 108.883 2.55069 102.742 2.87213 88.6988C2.97583 84.5774 3.10028 82.546 3.1936 80.6438C3.24545 79.6927 3.28692 78.7768 3.30767 77.6378C3.31805 77.0625 3.31805 76.4519 3.33877 75.7473L3.33877 74.6319C3.33877 74.3735 3.34915 74.0917 3.34915 73.7982C3.34915 73.4577 3.35952 73.1054 3.38028 72.7296C3.42175 66.3772 4.38611 58.0873 7.22738 49.1751C10.079 40.3099 14.8905 30.8106 22.0455 22.9317C29.1175 15.0058 38.3672 8.45377 48.7367 5.25994C53.88 3.51038 59.2411 2.80586 64.5192 2.58276C67.7234 2.50056 70.8965 2.41837 74.0177 2.34792C98.7388 1.7843 119.426 1.53772 116.927 2.68844C115.33 3.42819 111.514 2.77063 105.137 3.20509C105.8 3.4047 106.205 3.67477 106.744 3.70999C110.467 3.93309 116.211 3.67477 121.873 4.00355C121.614 4.12097 121.458 4.26187 121.272 4.26187C117.487 4.39103 113.93 4.76678 110.767 5.40085C103.758 5.11904 103.716 4.96639 104.162 5.63569C159.411 5.80008 187.284 5.64743 201.771 5.63569C209.019 5.63569 212.918 5.67092 215.22 5.80008C215.531 5.82356 215.811 5.84705 216.081 5.85879C216.464 5.89402 216.807 5.94098 217.138 5.96447C217.771 6.03492 218.289 6.11712 218.746 6.19931C219.648 6.3637 220.249 6.56331 220.903 6.8099C219.886 6.88035 218.051 6.83338 215.822 6.78641C214.37 6.83338 212.597 6.84512 210.689 6.84512C206.883 6.84512 202.569 6.84512 199.199 7.00951C196.69 7.13867 187.596 6.61028 179.746 7.13867C178.792 7.19738 177.693 7.18564 176.78 7.0917C173.317 6.73944 148.834 6.89209 146.812 7.05647C140.777 7.56138 138.433 6.44589 131.258 7.22086C124.155 7.97235 121.562 7.5379 118.327 8.30113C118.316 9.56927 139.17 8.51249 147.248 8.97043C148.689 9.04088 150.255 8.98217 151.738 8.92346C156.953 8.7121 158.841 9.49882 161.941 9.87456C166.286 9.87456 170.963 10.2151 175.536 10.0507C175.847 9.75714 176.127 9.6045 176.127 9.45185C176.158 8.61817 176.915 8.18371 178.823 8.01932C181.073 7.84319 183.292 7.79622 185.449 8.33636C186.393 8.7943 186.082 9.5223 188.01 10.0507C191.121 10.2151 194.585 10.2268 198.204 9.80411C201.149 10.1681 203.316 10.2151 206.624 10.2268C208.272 10.2503 210.201 10.2621 212.659 10.2855C213.271 10.2973 213.913 10.309 214.608 10.3325C214.95 10.356 215.303 10.356 215.656 10.3677C215.884 10.3677 216.122 10.3912 216.35 10.403C216.641 10.4382 216.9 10.4499 217.18 10.4617C218.31 10.5439 219.482 10.6261 220.726 10.7435C221.981 10.8374 223.267 11.1779 224.636 11.4245C225.693 11.6594 226.616 11.8707 227.373 12.1408C228.13 12.4343 228.742 12.7161 229.188 12.9392C230.069 13.3972 230.339 13.6555 229.903 13.5498C226.772 12.6222 224.584 12.4343 223.08 12.1877C221.587 11.9529 220.757 11.9412 220.208 11.9412C219.679 11.9412 219.44 11.9529 219.14 11.9999L217.875 12.176L217.418 12.129L217.014 12.2112L216.755 12.2112C216.651 12.2347 216.651 12.2582 216.496 12.3286L217.014 12.223L217.667 12.223L217.875 12.1877L220.032 12.3991C220.871 12.5048 221.66 12.6457 222.292 12.9275C222.499 13.268 221.877 13.3267 220.82 13.268C219.752 13.221 218.684 13.1623 217.615 13.1154L216.008 13.0684L214.836 13.0684C213.343 13.1154 211.84 13.1154 210.367 13.0684C205.068 12.904 199.873 13.1741 194.73 13.1506C194.087 13.5616 193.548 13.9021 192.926 14.3013C196.192 14.9119 202.994 14.8767 209.506 14.818C212.908 14.818 215.459 14.6418 219.658 14.9823C221.494 15.0411 223.111 15.4873 224.47 15.7573C225.144 15.91 225.745 16.0509 226.264 16.2035C226.772 16.3797 227.218 16.5675 227.57 16.7319C227.197 16.7084 226.844 16.7554 226.492 16.6615C222.842 15.9922 221.224 15.7104 218.715 15.6399C215.811 15.4403 213.737 15.546 208.397 15.5342L126.156 15.5342C120.318 16.2153 120.826 16.3796 112.924 16.4618L97.007 17.3542L96.8515 17.3073L96.5819 17.3425L94.7154 17.0842C82.4585 16.9667 82.3445 17.0372 79.0573 17.319C78.7048 17.3542 78.4559 17.5421 78.1241 17.6713C80.5713 17.7535 82.9874 17.8709 85.4243 17.9296C90.1217 18.0353 88.8669 17.4247 94.1865 17.6713L96.5923 17.3307L96.7478 17.3542L97.0278 17.3307L98.0855 17.6126C100.75 18.2231 106.506 17.8004 207.837 17.9413L212.472 18.3993L212.41 18.4228L211.736 18.4228C211.103 18.4228 211.259 18.458 210.543 18.6224C211 18.7281 211.249 18.7515 211.508 18.7163L212.4 18.4345L212.68 18.4345L212.462 18.411L212.534 18.3875C214.733 18.1644 214.733 18.0705 215.749 18.0353C216.309 18.0118 217.398 18.0822 219.212 18.1879C219.679 18.2231 220.197 18.2466 220.768 18.2936C221.348 18.3758 221.981 18.4932 222.686 18.6106C224.096 18.869 225.818 19.1038 227.788 19.7496C228.161 20.5246 225.444 19.3856 224.895 19.7614C226.585 20.3015 228.255 21.0765 229.831 21.7692C230.64 22.1685 230.266 22.556 228.96 22.2624C228.638 22.1802 228.016 22.0158 227.166 21.7927C226.305 21.5579 225.206 21.2526 223.879 21.053C222.551 20.8651 221.017 20.4776 219.306 20.4541C218.445 20.4072 217.543 20.3485 216.61 20.3015C216.392 20.278 216.153 20.278 215.915 20.2663L214.152 20.2663C207.723 20.2663 199.614 20.2545 191.806 20.2545C176.158 20.231 161.713 20.2663 164.306 20.6068C166.659 20.9356 169.988 21.1117 172.269 21.0765C185.211 20.9003 181.571 20.9943 182.68 21.1352C183.251 21.2056 184.982 21.2996 190.592 21.3583C193.392 21.37 197.167 21.4052 202.227 21.4405C204.757 21.4639 207.619 21.4639 210.834 21.4757L215.946 21.4757C218.144 21.6049 220.509 21.5931 222.935 22.1215C229.043 23.2253 232.911 25.0688 235.42 26.3956C236.675 27.0884 237.649 27.5815 238.365 28.063C239.07 28.5444 239.589 28.8967 239.993 29.1667C241.538 30.2705 241.268 29.9534 243.985 32.4662C243.301 32.0083 242.108 30.8341 240.221 29.6481C238.396 28.333 235.949 26.8888 233.056 25.5267C230.142 24.2468 226.751 23.0139 223.091 22.4268C222.178 22.2741 221.255 22.0745 220.312 21.9806C219.368 21.9219 218.424 21.8632 217.47 21.8045L216.029 21.734L212.462 21.734C199.863 21.734 187.43 21.7458 185.605 22.051C184.64 22.2154 184.194 22.4738 184.92 22.92C186.59 23.0139 185.221 23.0374 191.681 23.0726C194.906 23.0726 200.101 23.0961 208.625 23.1078C210.761 23.1313 213.084 23.1313 215.656 23.1313C217.087 23.1783 218.756 23.2957 220.394 23.3896C222.043 23.6715 223.785 23.9063 225.559 24.3642C227.321 24.9161 229.178 25.3623 231.023 26.2077C231.946 26.6187 232.911 26.9475 233.833 27.4641C234.756 27.9808 235.7 28.4974 236.654 29.0258C240.408 31.339 244.203 34.4037 247.687 38.4077C252.177 43.7034 253.836 47.3669 255.267 50.2319C255.889 51.7466 256.408 53.1087 256.916 54.6352C257.289 56.2086 257.777 57.923 258.129 60.1305C258.264 61.105 257.673 60.013 257.518 59.5903C257.03 58.4866 256.532 57.0658 255.993 55.3515C255.692 54.4943 255.298 53.6136 254.925 52.6273C254.541 51.6527 254.158 50.5724 253.587 49.5274C251.565 45.2063 248.299 39.9459 242.896 35.5426C241.777 34.6855 241.341 34.1688 240.211 33.1825C238.997 32.3488 237.141 30.8576 232.869 29.1432C230.505 27.9221 229.509 27.4289 228.752 27.0649C227.964 26.7831 227.415 26.5952 225.859 26.1373C225.455 26.0316 225.009 25.879 224.47 25.7615C223.92 25.6676 223.288 25.5502 222.551 25.421C221.825 25.3036 220.986 25.1275 220.021 25.0218C219.057 24.9631 217.958 24.8926 216.713 24.8104C216.05 24.7635 215.49 24.7635 214.899 24.7635L213.001 24.7635C211.653 24.7635 210.17 24.7635 208.532 24.74C205.245 24.7282 201.314 24.693 196.607 24.6578C195.259 24.8809 194.17 25.0688 192.915 25.2801C189.555 25.2097 186.082 25.1157 182.463 25.3388C184.06 25.8085 185.905 25.5149 187.554 25.5971C194.761 25.9964 192.459 25.2449 194.958 26.3604C193.185 26.56 191.567 26.7361 189.981 26.9122C189.182 26.9944 190.064 27.4289 190.354 27.4524C196.15 28.063 202.113 27.699 202.974 27.7459C206.468 27.9455 209.963 27.9455 213.468 27.9221L216.101 27.9221L218.943 28.0512C219.897 28.0512 220.83 28.2274 221.763 28.4035C222.707 28.5796 223.661 28.6853 224.563 28.9788C229.323 30.2235 233.885 32.3723 238.147 35.4252C238.759 35.4957 239.298 35.6718 239.91 35.8245C239.143 34.8733 238.178 34.251 237.235 33.5817C236.778 33.2412 236.291 32.9242 235.835 32.5954C235.358 32.2784 234.881 32.02 234.424 31.6913C233.553 31.1276 232.599 30.4701 231.542 30.0239C230.484 29.566 229.406 29.108 228.379 28.6266C227.508 28.2978 226.575 28.063 225.621 27.8399C225.133 27.7342 224.656 27.605 224.179 27.5111C223.702 27.4406 223.215 27.3584 222.738 27.288C219.907 26.7713 219.285 26.0081 220.467 26.1255C222.116 26.4191 223.671 26.5835 225.092 26.9592C226.502 27.3819 227.85 27.6755 229.053 28.1569C230.266 28.6618 231.365 29.0963 232.392 29.5307C233.377 30.0709 234.29 30.5523 235.13 31.0102C238.438 32.9359 240.387 34.5798 241.538 35.707C242.129 36.2472 242.523 36.6699 242.772 36.9752C243 37.3157 243.093 37.5388 243.083 37.6797C243.052 37.9732 242.627 37.9967 242.067 38.0437C243.436 40.0633 244.68 41.4724 245.758 43.0341C246.318 43.809 246.941 44.4783 247.48 45.3003C248.029 46.1222 248.62 46.9794 249.253 47.907C250.435 49.8562 251.773 52.2046 252.986 55.5628C254.116 58.921 255.361 63.2656 255.454 68.9722C255.122 68.3616 255.112 68.6317 254.977 67.9389C254.915 67.5866 254.811 67.0113 254.624 65.978C254.469 64.9212 253.992 63.5004 253.422 61.3869C253.339 61.0581 253.09 60.9289 252.924 60.8115C252.841 60.7645 253.038 60.7058 252.913 62.6433C252.239 61.2812 251.482 59.3555 251.047 57.4885C249.917 54.0246 248.382 51.0656 246.495 48.4824C246.018 47.8248 245.582 47.1555 245.095 46.5214C244.597 45.8991 244.079 45.2885 243.57 44.6545L242.813 43.6916C242.544 43.3981 242.274 43.081 241.994 42.7757C241.424 42.1534 240.874 41.5076 240.325 40.8266C238.832 39.6171 237.722 38.7013 236.851 38.0789C235.949 37.5036 235.337 37.1278 234.891 36.846C234.02 36.2824 233.813 36.2237 233.377 36.1532L232.693 36.3059L236.851 38.8891C246.785 46.5919 253.328 59.6373 253.328 74.444L253.328 106.101L253.805 103.083C253.857 99.0553 253.743 94.7812 253.992 90.5071C254.645 99.889 253.795 102.367 254.853 105.455C255.226 103.271 255.412 100.723 255.288 98.3155C255.081 94.0297 255.288 89.8378 255.236 85.5989C256.201 102.378 255.578 107.31 257.206 115.788C258.389 116.069 257.59 115.647 258.15 118.16C258.575 120.085 258.824 118.5 258.876 123.573C258.99 132.708 259.021 131.099 259.508 132.497C260.006 129.491 259.54 126.121 259.892 123.303C260.39 123.678 260.348 126.074 260.701 126.966C261.292 125.909 261.313 122.481 261.987 121.776C262.868 122.61 262.422 126.156 262.775 128.211C263.314 125.698 262.578 116.903 263.739 118.101C264.144 125.921 263.781 132.72 264.092 141.162C264.403 134.117 264.019 127.671 264.496 121.189C264.921 124.148 264.6 127.213 264.87 129.96C265.129 129.808 265.056 128.962 265.067 128.387C265.201 119.028 265.025 122.258 265.523 118.735C266.228 118.265 267.296 116.903 267.337 120.578C267.4 127.142 267.296 159.703 267.223 193.074C267.192 209.759 267.172 226.656 267.151 240.617L267.151 245.713C267.14 246.57 267.151 247.263 267.14 248.226C267.099 249.306 267.047 250.375 267.006 251.432C266.964 253.522 266.695 255.53 266.425 257.455C266.207 259.381 265.813 261.189 265.419 262.892C263.843 269.714 261.676 274.657 260.182 277.581C259.436 279.014 258.793 280.305 258.119 281.374C257.445 282.442 256.833 283.346 256.335 284.133C255.371 285.73 254.656 286.681 254.593 287.433C256.211 286.082 257.652 284.438 259.363 282.56C261.79 278.65 265.015 272.602 267.058 264.371C267.535 262.305 268.084 260.168 268.343 257.866C268.499 256.716 268.654 255.553 268.81 254.367C268.914 253.181 268.966 251.983 269.028 250.739C269.059 250.14 269.08 249.506 269.1 248.884L269.142 247.944L269.142 247.275C269.142 246.383 269.152 245.467 269.152 244.551C269.163 242.707 269.163 240.817 269.183 238.891C269.194 223.427 269.204 205.285 269.214 187.731C269.194 152.611 269.131 119.815 269.349 115.388C270.479 115.236 270.5 116.21 270.552 111.326C270.759 80.1624 270.417 89.0393 270.666 79.0821C271.205 76.4401 270.956 80.0684 271.081 109.33C271.091 110.081 271.185 110.821 271.236 111.561C271.589 111.197 271.713 109.999 271.765 108.954C271.921 105.596 271.817 88.734 271.765 86.5735C271.713 84.3425 271.848 82.0176 271.9 79.7397C271.931 79.0234 272.19 78.8238 272.398 79.3639C274.41 84.2369 274.047 60.5649 274.067 154.795C274.067 163.096 274.119 165.374 274.731 166.572C275.602 163.566 275.042 159.621 275.104 156.227C275.415 155.57 275.571 156.415 275.581 157.108C275.654 160.736 275.913 170.365 275.426 178.572C274.814 188.588 275.426 190.913 275.26 193.943C274.918 200.495 275.405 208.749 275.218 213.681C275.001 219.599 274.959 227.584 274.949 235.345C274.949 239.22 274.949 243.06 274.949 246.559L274.949 247.85C274.918 248.496 274.907 249.142 274.887 249.776C274.824 251.068 274.752 252.348 274.69 253.557C274.555 255.976 274.14 258.207 273.87 260.203C273.673 261.694 273.3 263.044 273.02 264.36C272.709 265.675 272.408 266.908 272.118 268.082C271.413 270.372 270.739 272.415 270.117 274.27C268.696 277.851 267.524 280.704 266.301 283.029C265.709 284.215 265.201 285.331 264.631 286.329C264.05 287.327 263.501 288.29 262.962 289.253C261.904 291.214 260.67 292.987 259.218 295.065C253.857 301.312 250.642 303.367 249.491 304.47C248.247 305.445 248.797 305.187 249.626 305.046C251.98 303.155 253.753 301.781 254.987 300.572C256.221 299.374 257.072 298.541 257.715 297.871C259.021 296.58 259.405 295.922 260.452 294.525C262.08 292.259 262.225 292.223 263.397 290.615C264.475 288.983 267.182 286.129 271.174 276.372C271.745 275.104 272.159 273.706 272.626 272.309C273.061 270.9 273.559 269.467 273.933 267.976C274.638 264.982 275.415 261.87 275.778 258.641C276.286 255.424 276.421 252.148 276.535 248.872L276.566 248.25L276.566 247.745L276.577 245.478C276.577 244.48 276.587 243.471 276.587 242.484C276.618 234.558 276.639 227.278 276.649 222.887C276.68 212.378 276.235 212.096 276.577 203.207C276.981 192.663 276.172 98.4682 277.603 89.92C277.831 92.8085 277.707 95.3683 277.759 97.8576C278.029 109.823 278.257 107.31 278.246 114.884C278.143 153.233 278.06 182.435 278.008 205.191C277.956 216.57 277.914 226.327 277.873 234.805C277.863 239.056 277.831 242.966 277.821 246.606C277.811 247.064 277.811 247.522 277.811 247.979C277.78 248.719 277.759 249.435 277.738 250.163C277.655 251.608 277.583 253.029 277.52 254.402C277.272 257.162 276.877 259.839 276.473 262.375C274.555 272.544 271.153 280.622 267.42 287.08C263.625 293.515 259.508 298.411 255.34 302.521C254.272 303.508 253.193 304.435 252.136 305.351C251.607 305.809 251.068 306.267 250.539 306.713C249.989 307.112 249.44 307.523 248.88 307.923C247.78 308.721 246.671 309.484 245.551 310.247C244.41 310.94 243.239 311.61 242.077 312.267C239.765 313.653 237.255 314.615 234.704 315.719C233.429 316.212 232.081 316.612 230.723 317.034L229.696 317.34L226.502 318.126C227.218 317.974 227.944 317.833 228.649 317.657L229.696 317.34L233.035 316.518C234.984 315.907 236.716 315.238 238.261 314.569C239.029 314.24 239.775 313.946 240.47 313.617C241.154 313.265 241.808 312.925 242.43 312.596C243.664 311.938 244.784 311.339 245.79 310.752C247.76 309.472 249.388 308.369 250.922 307.324C252.395 306.173 253.764 305.093 255.278 303.918C256.564 302.862 258.969 300.513 260.939 298.282C262.847 295.957 264.455 293.985 264.496 293.949C264.496 293.949 264.413 294.079 264.206 294.36C263.998 294.631 263.667 295.065 263.2 295.687C262.246 296.897 260.805 298.928 258.306 301.476C257.694 302.122 256.999 302.826 256.284 303.566C255.537 304.283 254.697 305.01 253.805 305.797C252.903 306.572 251.949 307.429 250.881 308.228C249.803 309.026 248.641 309.86 247.407 310.705C242.409 313.993 235.783 317.481 227.155 319.301C225.901 319.535 224.48 319.723 223.433 319.993C222.126 320.357 220.809 320.428 219.461 320.592L217.429 320.757L216.413 320.815L215.936 320.839L215.635 320.839C214.017 320.815 212.389 320.803 210.772 320.792C208.127 320.768 202.507 320.827 200.257 320.745C183.292 320.24 175.639 320.334 112.354 320.322C103.115 320.322 94.4458 320.31 86.316 320.31C82.2511 320.31 78.3211 320.299 74.5051 320.299C72.6075 320.275 70.7305 320.275 68.8848 320.275L64.7784 320.275C64.0215 320.228 63.2749 320.193 62.4349 320.111C56.4724 319.958 50.7069 318.549 45.377 316.67C42.7327 315.59 40.13 314.545 37.7242 313.124C36.511 312.443 35.2978 311.809 34.1467 311.046C33.0165 310.271 31.8965 309.496 30.787 308.721C29.6671 307.969 28.6405 307.077 27.6243 306.208C26.6081 305.316 25.6022 304.459 24.6275 303.566C23.6839 302.627 22.7713 301.687 21.8692 300.725C20.967 299.785 20.0856 298.834 19.2872 297.801C17.6695 295.77 16.0622 293.785 14.7245 291.613C14.0505 290.556 13.3661 289.488 12.6921 288.442C12.0803 287.35 11.4996 286.235 10.9189 285.155C6.37706 276.419 3.80538 267.26 2.70623 258.688C2.5714 257.608 2.45736 256.551 2.32256 255.506C2.23958 254.449 2.19814 253.416 2.14629 252.383C2.10482 251.361 2.07369 250.328 2.03219 249.33C2.02184 248.825 2.00112 248.343 1.99074 247.862L1.91814 247.839ZM0.466421 216.616C0.518271 213.575 0.704916 210.734 1.17153 209.066C1.23376 215.02 1.27523 220.703 1.09896 226.856C0.860433 226.233 0.611593 225.904 0.590841 225.423C0.507894 222.922 0.424917 219.658 0.476767 216.616L0.466421 216.616Z" fill="#E7BD11"/>
</svg>
