<svg width="274" height="57" viewBox="0 0 274 57" fill="none" xmlns="http://www.w3.org/2000/svg">
<path d="M266.534 55.5047C270.405 54.0597 271.511 50.4881 267.47 46.2077C272.574 42.9633 269.639 40.5641 273.34 37.3742C273.34 33.2301 265.599 30.8581 269.512 27.4502C272.064 18.344 268.236 12.5641 269.214 8.66535C270.703 2.99446 267.853 0.104492 269.554 0.104492C254.242 0.104492 2.77768 0.104492 7.54155 0.104492C9.28546 0.104492 8.81758 6.72961 4.94694 8.63809C5.67003 13.1912 5.11708 17.1171 8.98772 17.4716C7.07367 19.1074 5.67003 20.3616 5.67003 20.3616C5.67003 20.3616 6.0103 25.7053 7.58408 27.4229C4.94694 29.1133 1.41657 30.531 0.736022 32.1941C0.0554696 33.8844 4.47906 36.3109 2.39487 37.9195C2.39487 40.7822 3.50077 44.381 4.94694 46.1804C7.32887 51.3061 11.7525 54.714 7.62662 54.714C6.26551 54.714 261.813 57.2496 266.534 55.5047Z" fill="#E96024"/>
</svg>
