<svg width="24" height="25" viewBox="0 0 24 25" fill="none" xmlns="http://www.w3.org/2000/svg">
<rect x="24" y="0.505859" width="24" height="24" rx="12" transform="rotate(90 24 0.505859)" fill="#E7BD11"/>
<path d="M17.2883 9.57174C17.1958 9.47904 17.0859 9.40549 16.9649 9.35531C16.8439 9.30513 16.7142 9.2793 16.5833 9.2793C16.4523 9.2793 16.3226 9.30513 16.2016 9.35531C16.0807 9.40549 15.9708 9.47904 15.8783 9.57174L11.9983 13.4517L8.11827 9.57174C7.93129 9.38476 7.6777 9.27972 7.41327 9.27972C7.14884 9.27972 6.89525 9.38476 6.70827 9.57174C6.52129 9.75872 6.41625 10.0123 6.41625 10.2767C6.41625 10.5412 6.52129 10.7948 6.70827 10.9817L11.2983 15.5717C11.3908 15.6644 11.5007 15.738 11.6216 15.7882C11.7426 15.8384 11.8723 15.8642 12.0033 15.8642C12.1342 15.8642 12.2639 15.8384 12.3849 15.7882C12.5059 15.738 12.6158 15.6644 12.7083 15.5717L17.2983 10.9817C17.6783 10.6017 17.6783 9.96174 17.2883 9.57174Z" fill="#104751"/>
</svg>
