<svg width="121" height="62" viewBox="0 0 121 62" fill="none" xmlns="http://www.w3.org/2000/svg">
<path d="M15.141 48.384C16.6157 48.7443 17.9848 49.1155 19.374 49.4162C20.7632 49.7168 21.9409 50.5279 23.0882 51.4055C23.9021 52.0316 24.259 52.9592 24.0639 54.0906C23.9399 54.829 23.7949 55.5931 23.5699 56.3023C22.7392 58.8809 20.9483 59.9573 18.5938 59.5934C15.5306 59.1207 14.4547 57.9286 13.4045 53.8282C13.182 52.964 13.1608 52.0403 13.0267 50.9938C12.5269 51.1502 11.9996 51.2435 11.5177 51.4646C9.62167 52.3271 7.85174 53.3778 6.49061 55.23C6.01885 55.8708 5.28384 56.2773 4.62788 56.694C4.19669 56.9689 4.03579 56.7749 4.1224 56.1996C4.33304 54.7343 4.96163 53.3837 5.91116 52.3764C7.93478 50.1964 10.2019 48.5515 13.0703 48.2624C13.2289 48.249 13.4662 48.0154 13.5008 47.8303C14.4659 43.4948 16.293 39.705 18.5184 36.0666C21.0528 31.9196 24.2948 28.4039 28.0398 25.7425C31.2919 23.405 34.5625 20.9467 38.1875 19.4331C43.7503 17.1181 49.5349 16.1167 55.5014 16.3455C61.711 16.5757 67.8783 17.3855 74.0479 18.0995C78.1422 18.5803 82.2461 19.0989 86.3441 18.7364C89.4965 18.4649 92.6375 17.9143 95.7523 17.3116C98.2324 16.8358 100.697 16.205 103.13 15.4332C106.043 14.5079 108.588 12.6456 111.166 10.9242C114.529 8.69308 117.092 5.59781 118.73 1.51151C118.908 1.07935 119.095 0.645709 119.585 0.794119C120.076 0.942528 120.09 1.47394 120.055 1.91764C119.966 3.23477 119.574 4.49799 118.921 5.5772C117.072 8.58956 114.953 11.2788 112.125 13.1345C109.369 14.9454 106.683 16.9196 103.597 17.9446C101.597 18.5986 99.562 19.1737 97.5109 19.6221C94.484 20.2673 91.4503 20.8967 88.3836 21.3066C83.8598 21.9095 79.3201 21.4025 74.7914 20.9444C69.7376 20.4444 64.6869 19.7417 59.6265 19.3045C55.475 18.945 51.3038 18.7739 47.1602 19.5761C44.2406 20.1484 41.2275 20.5218 38.5674 21.9807C33.1118 24.9813 27.503 27.8091 23.1482 32.8406C19.6945 36.8274 16.8772 41.3444 15.4549 46.852C15.3229 47.3388 15.2531 47.8553 15.141 48.384ZM14.9273 51.1138C14.8017 52.7119 15.2258 54.0504 15.782 55.357C16.5101 57.0582 18.0987 57.929 19.7975 57.5747C21.2691 57.267 22.0181 56.173 22.1694 54.0933C22.1761 54.0698 22.1869 54.0401 22.18 54.0243C22.0535 53.7575 21.985 53.3749 21.7876 53.2371C19.6992 51.7644 17.369 51.363 14.9273 51.1138Z" fill="#E96024"/>
</svg>
