<svg width="146" height="183" viewBox="0 0 146 183" fill="none" xmlns="http://www.w3.org/2000/svg">
<g clip-path="url(#clip0_3220_8741)">
<path d="M96.1544 23.1368L94.6738 22.5798C93.8685 22.2714 93.3838 21.4326 93.5892 20.7111C93.7945 19.9896 94.6587 19.5347 95.4952 19.6936L97.0472 19.9997C97.8942 20.1616 98.8315 19.6484 99.1294 18.8401L99.6864 17.3595C99.9947 16.5543 100.836 16.0591 101.568 16.2674C102.29 16.4727 102.745 17.337 102.586 18.1735L102.28 19.7255C102.118 20.5724 102.642 21.5127 103.439 21.8076L104.92 22.3646C105.725 22.6729 106.21 23.5117 106.005 24.2333C105.799 24.9548 104.935 25.4097 104.099 25.2508L102.547 24.9447C101.7 24.7828 100.759 25.3065 100.465 26.1043L99.9075 27.5848C99.5992 28.3901 98.7604 28.8748 98.0388 28.6695C97.3173 28.4641 96.8624 27.5999 97.0213 26.7634L97.3274 25.2114C97.4863 24.375 96.9627 23.4346 96.1544 23.1368Z" fill="#E96024"/>
<path d="M50.9316 74.5297L51.789 74.6946C52.2505 74.7807 52.7715 74.4994 52.9308 74.0587L53.2421 73.243C53.4119 72.8052 53.8746 72.5299 54.2719 72.643C54.6693 72.7561 54.9207 73.2233 54.8316 73.6953L54.6667 74.5527C54.5805 75.0143 54.8618 75.5352 55.3026 75.6945L56.1183 76.0058C56.5561 76.1756 56.8313 76.6383 56.7182 77.0357C56.6051 77.4331 56.138 77.6844 55.6659 77.5953L54.8085 77.4304C54.347 77.3443 53.826 77.6256 53.6667 78.0663L53.3554 78.882C53.1856 79.3198 52.7229 79.5951 52.3256 79.482C51.9282 79.3689 51.6768 78.9017 51.7659 78.4297L51.9308 77.5723C52.017 77.1107 51.7357 76.5898 51.295 76.4304L50.4792 76.1192C50.0415 75.9494 49.7662 75.4867 49.8793 75.0893C49.9924 74.6919 50.47 74.4435 50.9316 74.5297Z" fill="#E96024"/>
<path d="M34.9194 53.6501C37.8788 54.4923 39.5919 57.5685 38.7497 60.5279C37.9074 63.4872 34.8312 65.2004 31.8719 64.3581C28.9125 63.5159 27.1994 60.4397 28.0416 57.4803C28.8913 54.5344 31.9675 52.8213 34.9194 53.6501ZM30.4538 60.6424C30.8727 61.3947 31.5737 61.9898 32.4731 62.2458C33.3724 62.5017 34.2817 62.3649 35.034 61.946C35.7862 61.527 36.3814 60.826 36.6373 59.9267C36.8933 59.0274 36.7565 58.118 36.3375 57.3658C35.9186 56.6135 35.2176 56.0183 34.3182 55.7624C33.4189 55.5065 32.5096 55.6433 31.7573 56.0622C31.0051 56.4812 30.4099 57.1822 30.1539 58.0815C29.9085 58.9838 30.0348 59.8902 30.4538 60.6424Z" fill="#E96024"/>
<path d="M49.3475 92.6056C50.6651 92.9806 51.4386 94.3537 51.0607 95.6818C50.6857 96.9994 49.3125 97.7729 47.9845 97.3949C46.6669 97.0199 45.8933 95.6468 46.2713 94.3187C46.6568 93.0041 48.0299 92.2306 49.3475 92.6056ZM47.36 95.7364C47.547 96.0722 47.8654 96.3437 48.2628 96.4568C48.6601 96.5699 49.0708 96.5172 49.4096 96.3197C49.7454 96.1327 50.0139 95.8247 50.13 95.4169C50.2431 95.0195 50.1904 94.6089 49.9929 94.2701C49.8059 93.9343 49.4979 93.6658 49.0901 93.5497C48.6928 93.4366 48.2821 93.4893 47.9433 93.6868C47.6075 93.8738 47.3494 94.1847 47.2229 94.5896C47.1098 94.9869 47.1655 95.3871 47.36 95.7364Z" fill="#41B4B4"/>
<path d="M71.7316 36.7139C73.0597 37.0919 73.8302 38.4755 73.4522 39.8036C73.0743 41.1316 71.6906 41.9022 70.3626 41.5242C69.0345 41.1462 68.264 39.7626 68.642 38.4346C69.0199 37.1065 70.4036 36.336 71.7316 36.7139ZM69.7202 39.8492C69.9072 40.1851 70.2256 40.4565 70.623 40.5696C71.0308 40.6857 71.4339 40.6196 71.7698 40.4325C72.1056 40.2455 72.3771 39.9271 72.4902 39.5298C72.6062 39.1219 72.5401 38.7188 72.3531 38.383C72.1661 38.0471 71.8477 37.7756 71.4503 37.6626C71.0425 37.5465 70.6393 37.6126 70.3035 37.7996C69.9677 37.9867 69.6962 38.305 69.5831 38.7024C69.4805 39.1028 69.5332 39.5134 69.7202 39.8492Z" fill="#E96024"/>
<path d="M116.737 186.313C115.159 185.582 114.471 183.713 115.202 182.135C115.934 180.557 117.803 179.868 119.381 180.6C120.959 181.331 121.647 183.2 120.916 184.778C120.184 186.356 118.315 187.045 116.737 186.313ZM119.85 182.802C119.675 182.345 119.334 181.954 118.856 181.728C118.375 181.512 117.858 181.5 117.402 181.676C116.945 181.851 116.554 182.192 116.327 182.67C116.111 183.151 116.1 183.668 116.275 184.124C116.45 184.581 116.791 184.972 117.269 185.199C117.75 185.415 118.267 185.426 118.724 185.251C119.181 185.076 119.572 184.735 119.798 184.257C120.014 183.776 120.015 183.256 119.85 182.802Z" fill="#E96024"/>
</g>
<defs>
<clipPath id="clip0_3220_8741">
<rect width="105.204" height="159.432" fill="white" transform="matrix(-0.961806 -0.273732 -0.273732 0.961806 145.598 28.7979)"/>
</clipPath>
</defs>
</svg>
