<svg width="260" height="133" viewBox="0 0 260 133" fill="none" xmlns="http://www.w3.org/2000/svg">
<path d="M25.0205 107.279C28.3118 108.089 31.3676 108.923 34.4684 109.599C37.5691 110.275 40.1977 112.099 42.7586 114.072C44.5752 115.48 45.3718 117.566 44.9364 120.11C44.6595 121.77 44.3359 123.488 43.8338 125.083C41.9795 130.881 37.9822 133.301 32.727 132.483C25.8899 131.42 23.4886 128.739 21.1445 119.52C20.6479 117.577 20.6007 115.5 20.3013 113.147C19.1857 113.498 18.0087 113.708 16.9332 114.205C12.7012 116.144 8.75069 118.507 5.71264 122.672C4.65966 124.112 3.01913 125.026 1.55503 125.963C0.592608 126.582 0.233461 126.145 0.426793 124.852C0.896928 121.557 2.29996 118.52 4.41932 116.255C8.93605 111.354 13.9962 107.655 20.3985 107.005C20.7525 106.975 21.2822 106.45 21.3593 106.034C23.5136 96.2855 27.5916 87.7642 32.5588 79.5835C38.2155 70.2589 45.4517 62.354 53.8106 56.37C61.0693 51.1142 68.3694 45.5867 76.4602 42.1836C88.8764 36.9782 101.788 34.7267 115.105 35.241C128.965 35.7587 142.73 37.5796 156.501 39.185C165.639 40.266 174.799 41.432 183.946 40.6171C190.982 40.0066 197.993 38.7686 204.945 37.4134C210.481 36.3435 215.983 34.9252 221.412 33.1898C227.914 31.1094 233.596 26.922 239.35 23.0516C246.856 18.0349 252.575 11.0753 256.232 1.88735C256.628 0.91567 257.047 -0.059361 258.141 0.274337C259.235 0.60803 259.268 1.80289 259.189 2.80054C258.991 5.76207 258.116 8.60236 256.657 11.0289C252.53 17.8021 247.801 23.8487 241.489 28.0213C235.338 32.093 229.342 36.5319 222.456 38.8367C217.991 40.3072 213.449 41.6003 208.87 42.6085C202.114 44.0592 195.343 45.4744 188.498 46.3959C178.401 47.7515 168.268 46.6116 158.16 45.5815C146.88 44.4573 135.607 42.8773 124.312 41.8943C115.046 41.086 105.736 40.7014 96.4873 42.5049C89.9708 43.7918 83.2457 44.6313 77.3081 47.9116C65.1314 54.6584 52.6124 61.0167 42.8926 72.3298C35.1838 81.294 28.8955 91.4502 25.721 103.834C25.4264 104.929 25.2705 106.09 25.0205 107.279ZM24.5433 113.416C24.263 117.01 25.2097 120.019 26.451 122.957C28.0762 126.782 31.622 128.74 35.4138 127.944C38.6984 127.252 40.37 124.792 40.7078 120.116C40.7228 120.063 40.7468 119.996 40.7314 119.961C40.4491 119.361 40.2963 118.5 39.8556 118.191C35.1942 114.879 29.9934 113.977 24.5433 113.416Z" fill="#E96024"/>
</svg>
