<svg width="51" height="51" viewBox="0 0 51 51" fill="none" xmlns="http://www.w3.org/2000/svg">
<mask id="mask0_650_12504" style="mask-type:luminance" maskUnits="userSpaceOnUse" x="0" y="0" width="51" height="51">
<path d="M0 0H51V51H0V0Z" fill="white"/>
</mask>
<g mask="url(#mask0_650_12504)">
<path d="M50.9822 29.1086C50.721 30.9293 47.288 31.9092 46.6553 33.5577C46.0006 35.2599 47.8847 38.264 46.8875 39.7426C45.8721 41.2456 42.3537 40.6486 41.041 41.8763C39.7221 43.1111 40.1092 46.634 38.5492 47.5469C36.9958 48.4569 34.0852 46.4105 32.3494 46.9584C30.6429 47.4974 29.4566 50.8459 27.6287 50.9937C25.8594 51.1389 24.1374 48.0409 22.3024 47.7816C20.47 47.5222 17.9465 50.0161 16.2873 49.3876C14.5745 48.7366 14.3761 45.196 12.8881 44.2029C11.3756 43.1939 8.00542 44.3503 6.7697 43.0461C5.52692 41.7356 6.89119 38.4587 5.97276 36.9085C5.05656 35.3652 1.51102 34.9602 0.95929 33.2356C0.414622 31.5401 3.07108 29.1781 2.92024 27.3617C2.77386 25.6038 -0.244849 23.7092 0.015967 21.8884C0.277155 20.0677 3.71012 19.0879 4.34284 17.4393C4.99786 15.7371 3.11381 12.733 4.11101 11.2544C5.12641 9.75138 8.64483 10.3488 9.95708 9.1207C11.2764 7.88594 10.8893 4.36305 12.4493 3.45046C14.0027 2.54009 16.9133 4.58658 18.6491 4.03866C20.353 3.50182 21.5415 0.155539 23.3694 0.00553422C25.139 -0.13745 26.8611 2.95833 28.6957 3.2177C30.5281 3.47706 33.0516 0.980932 34.7109 1.61162C36.424 2.26262 36.622 5.80361 38.11 6.79674C39.6229 7.80539 42.9927 6.64895 44.2288 7.95318C45.4716 9.26368 44.1073 12.5409 45.0257 14.0908C45.9419 15.6341 49.4875 16.039 50.0388 17.7637C50.5839 19.4592 47.9274 21.8212 48.0783 23.6375C48.2246 25.3958 51.2433 27.2901 50.9822 29.1108" fill="#E7BD11"/>
</g>
<mask id="mask1_650_12504" style="mask-type:luminance" maskUnits="userSpaceOnUse" x="30" y="23" width="11" height="14">
<path d="M30.0332 23.6462H40.4142V36.172H30.0332V23.6462Z" fill="white"/>
</mask>
<g mask="url(#mask1_650_12504)">
<path d="M40.1575 27.6583C39.9401 26.9607 39.595 26.3216 39.1317 25.7589C38.6517 25.1758 38.0658 24.7011 37.3903 24.3475C36.7149 23.9935 35.9896 23.7822 35.2351 23.7187C34.5061 23.6573 33.7809 23.736 33.0794 23.9525C32.8996 24.0076 32.7239 24.0715 32.5518 24.1435C32.6187 24.3353 32.677 24.5293 32.7268 24.7251C32.8992 24.6501 33.0768 24.5847 33.2592 24.5285C33.753 24.3759 34.2587 24.3006 34.7613 24.3006C35.5698 24.3006 36.3719 24.4956 37.1076 24.8814C39.5716 26.1712 40.5209 29.2141 39.2235 31.6641C38.1289 33.732 35.692 34.7861 33.4287 34.1713C33.3428 34.148 33.2507 34.1635 33.1771 34.2138L31.5937 35.2967L31.5951 33.3854C31.5951 33.2968 31.5561 33.2125 31.4878 33.1553C31.1014 32.8301 30.7755 32.454 30.5117 32.0439C30.3605 32.1806 30.2034 32.311 30.041 32.4352C30.3089 32.8375 30.6262 33.2018 30.9884 33.5225L30.9862 35.8701C30.9862 35.9821 31.0486 36.0851 31.1482 36.1372C31.1928 36.1605 31.2414 36.172 31.2897 36.172C31.3499 36.172 31.4101 36.1542 31.4618 36.1188L33.4067 34.7887C33.9808 34.9295 34.5704 34.9786 35.1626 34.9357C35.7901 34.8903 36.402 34.7421 36.9813 34.4961C37.5657 34.2478 38.0992 33.9068 38.567 33.483C39.0507 33.0441 39.4523 32.5264 39.7603 31.9453C40.1163 31.2732 40.3288 30.552 40.3927 29.802C40.4543 29.0771 40.3752 28.3559 40.1575 27.6583Z" fill="#104751"/>
</g>
<mask id="mask2_650_12504" style="mask-type:luminance" maskUnits="userSpaceOnUse" x="10" y="23" width="12" height="14">
<path d="M10.5938 23.6462H21.0297V36.172H10.5938V23.6462Z" fill="white"/>
</mask>
<g mask="url(#mask2_650_12504)">
<path d="M19.5189 33.155C19.451 33.2123 19.4116 33.2965 19.4116 33.3852L19.4134 35.2965L17.8296 34.2135C17.7787 34.1784 17.7185 34.1603 17.6579 34.1603C17.6312 34.1603 17.6044 34.164 17.5781 34.1711C15.3147 34.7859 12.8778 33.7318 11.7833 31.6638C10.4859 29.2139 11.4351 26.1709 13.8988 24.8811C15.0925 24.256 16.4594 24.1307 17.7475 24.5283C17.9299 24.5844 18.1071 24.6498 18.2795 24.7248C18.3297 24.529 18.388 24.3351 18.4549 24.1433C18.2829 24.0713 18.1071 24.0073 17.9273 23.9523C17.2258 23.7358 16.5006 23.6571 15.772 23.7184C15.0171 23.782 14.2918 23.9933 13.6164 24.3472C12.9409 24.7008 12.355 25.1756 11.8754 25.7586C11.4121 26.3213 11.0666 26.9605 10.8488 27.6581C10.6315 28.3556 10.5524 29.0768 10.614 29.8017C10.6779 30.5517 10.8908 31.2729 11.2464 31.945C11.5544 32.5262 11.9556 33.0438 12.4398 33.4827C12.9075 33.9065 13.441 34.2475 14.0255 34.4958C14.605 34.7419 15.2166 34.89 15.8441 34.9355C16.4363 34.9783 17.026 34.9292 17.6 34.7884L19.5453 36.1185C19.5966 36.154 19.6568 36.1717 19.717 36.1717C19.7653 36.1717 19.8139 36.1603 19.8582 36.137C19.9581 36.0849 20.0201 35.9818 20.0201 35.8699L20.0183 33.5223C20.3805 33.2016 20.6978 32.8373 20.9657 32.4349C20.8033 32.3108 20.6465 32.1804 20.495 32.0437C20.2315 32.4538 19.9053 32.8299 19.5189 33.155Z" fill="#104751"/>
</g>
<mask id="mask3_650_12504" style="mask-type:luminance" maskUnits="userSpaceOnUse" x="18" y="19" width="15" height="17">
<path d="M18.6562 19.7664H32.3525V35.904H18.6562V19.7664Z" fill="white"/>
</mask>
<g mask="url(#mask3_650_12504)">
<path d="M26.6504 32.7362L25.505 34.9035L24.3599 32.7362C24.3183 32.6579 24.244 32.6013 24.157 32.5821C21.3416 31.9622 19.2981 29.4276 19.2981 26.5557C19.2981 23.1522 22.0824 20.3834 25.505 20.3834C28.9275 20.3834 31.7118 23.1522 31.7118 26.5557C31.7118 29.4276 29.6684 31.9622 26.8529 32.5821C26.7659 32.6013 26.6916 32.6579 26.6504 32.7362ZM29.1055 32.3091C29.7482 31.9104 30.3171 31.4113 30.7956 30.8253C31.2786 30.2345 31.6546 29.5735 31.9139 28.8605C32.1822 28.1226 32.3185 27.3471 32.3185 26.5557C32.3185 25.6413 32.1383 24.7538 31.7828 23.9181C31.4398 23.1115 30.9483 22.3866 30.3226 21.7648C29.6973 21.1426 28.9684 20.6538 28.1573 20.3128C27.3169 19.9596 26.4245 19.78 25.505 19.78C24.5854 19.78 23.693 19.9596 22.8526 20.3128C22.0415 20.6538 21.3126 21.1426 20.6873 21.7648C20.0616 22.3866 19.5701 23.1115 19.2272 23.9181C18.872 24.7538 18.6914 25.6413 18.6914 26.5557C18.6914 27.3471 18.8278 28.1226 19.096 28.8605C19.3553 29.5735 19.7313 30.2345 20.2143 30.8253C20.6929 31.4113 21.2617 31.9104 21.9044 32.3091C22.5193 32.6904 23.1858 32.9693 23.8877 33.1393L25.2363 35.6923C25.2891 35.7913 25.3924 35.8538 25.505 35.8538C25.6179 35.8538 25.7212 35.7913 25.7732 35.6923L27.1222 33.1393C27.8237 32.9693 28.4906 32.6904 29.1055 32.3091Z" fill="#104751"/>
</g>
<path d="M28.1798 27.2889L25.5594 29.9435C25.5234 29.979 25.4936 29.979 25.4576 29.9435L22.8372 27.2889C21.5253 25.8605 23.4001 23.7608 24.9858 25.2058L25.5085 25.7364L26.0316 25.2058C27.6251 23.7575 29.4843 25.8616 28.1798 27.2889ZM28.5324 24.5031C27.669 23.7812 26.3348 23.8898 25.5085 24.7263C23.1835 22.6085 20.3862 25.6677 22.3263 27.7895L24.9467 30.4445C25.241 30.7564 25.7764 30.7575 26.0703 30.4456L28.6907 27.791C29.4899 26.9782 29.657 25.4453 28.5324 24.5031Z" fill="#E96024"/>
<path d="M36.0883 29.8538L36.3309 31.2634L35.058 30.5983L33.7848 31.2634L34.0278 29.8538L32.9975 28.8555L34.4209 28.6497L35.058 27.3666L35.6952 28.6497L37.1186 28.8555L36.0883 29.8538ZM37.5168 28.4196L36.0207 28.2027L35.3519 26.8545C35.2319 26.614 34.8849 26.6106 34.7642 26.8545L34.095 28.2027L32.5989 28.4196C32.3306 28.4584 32.2232 28.7876 32.4176 28.976L33.5002 30.0249L33.2442 31.5068C33.1981 31.7747 33.4816 31.9753 33.7194 31.8501L35.058 31.1503L36.3967 31.8501C36.6341 31.9742 36.9179 31.7747 36.8719 31.5068L36.6155 30.0249L37.6985 28.976C37.8928 28.7876 37.7851 28.4584 37.5168 28.4196Z" fill="#E96024"/>
<path d="M14.5556 31.1205C14.5556 31.2557 14.4457 31.3651 14.3097 31.3651C13.9838 31.3521 13.9838 30.8888 14.3097 30.8762C14.4457 30.8762 14.5556 30.9856 14.5556 31.1205ZM17.7973 30.189C17.9262 30.4041 17.8103 30.6919 17.6546 30.7754C17.7334 31.2719 17.474 31.4463 17.1107 31.4463H16.7235C15.9898 31.4463 15.5142 31.061 14.9654 31.061V29.1652H15.0769C15.3678 29.1652 15.7735 28.4429 16.0455 28.1725C16.336 27.8835 16.2391 27.4021 16.4326 27.2093C16.9167 27.2093 16.9167 27.5455 16.9167 27.7875C16.9167 28.1865 16.6266 28.365 16.6266 28.7503H17.6917C17.9076 28.7503 18.0778 28.9428 18.0789 29.1353C18.0796 29.3282 17.9474 29.5203 17.8508 29.5203C17.989 29.6688 18.0187 29.981 17.7973 30.189ZM18.43 29.6407C18.7907 29.0718 18.4222 28.2726 17.6917 28.2611H17.3176C17.3685 28.1311 17.4083 27.9748 17.4083 27.7875C17.4083 27.046 17.0226 26.7205 16.4326 26.7205C15.8018 26.7205 15.8378 27.6874 15.6977 27.8266C15.4648 28.0583 15.1898 28.5035 14.9937 28.6761H13.982C13.8011 28.6761 13.6543 28.8224 13.6543 29.0023V31.4463C13.6543 31.6266 13.8011 31.7726 13.982 31.7726H14.6377C14.7901 31.7726 14.9183 31.6688 14.9547 31.5284C15.4105 31.5387 15.7237 31.9351 16.7759 31.9351C16.8499 31.9351 16.9316 31.9355 17.0033 31.9355C17.7935 31.9355 18.1502 31.5339 18.1603 30.9645C18.2966 30.7769 18.3679 30.5252 18.3378 30.2821C18.4385 30.0944 18.4775 29.8713 18.43 29.6407Z" fill="#E96024"/>
<path d="M10.7553 16.6194L11.1595 17.2578L12.286 16.5529L12.5699 17.0022L11.4434 17.7071L12.0007 18.5894L11.4374 18.9411L9.9082 16.5219L11.748 15.3721L12.0319 15.8213L10.7553 16.6194Z" fill="#FFFCF0"/>
<path d="M14.9673 16.2751L13.7665 16.8544L13.8066 17.515L13.1943 17.8106L13.0918 14.6834L13.6833 14.3982L16.0938 16.4111L15.4652 16.714L14.9673 16.2751ZM14.5586 15.913L13.6669 15.1253L13.7398 16.3091L14.5586 15.913Z" fill="#FFFCF0"/>
<path d="M17.7867 12.8289L18.7155 15.5334L18.1998 15.7078L16.2798 14.5269L16.843 16.1689L16.2218 16.3802L15.293 13.6757L15.8146 13.4983L17.7287 14.6806L17.1655 13.0387L17.7867 12.8289Z" fill="#FFFCF0"/>
<path d="M20.5464 12.752L20.6771 13.4968L21.9879 13.2692L22.0786 13.7909L20.7678 14.0185L20.9476 15.0456L20.2922 15.1594L19.7988 12.3441L21.9389 11.9731L22.031 12.4948L20.5464 12.752Z" fill="#FFFCF0"/>
<path d="M24.5773 14.0232L23.2457 14.106L23.0303 14.7326L22.3496 14.7755L23.4479 11.8419L24.1032 11.802L25.5671 14.573L24.8701 14.6174L24.5773 14.0232ZM24.3366 13.5326L23.812 12.47L23.4285 13.5902L24.3366 13.5326Z" fill="#FFFCF0"/>
<path d="M28.6177 11.896L27.2178 14.6818L26.5624 14.6449L25.4805 11.7246L26.1983 11.763L26.9577 13.8483L27.9579 11.8591L28.6177 11.896Z" fill="#FFFCF0"/>
<path d="M29.944 15.0676C29.6505 15.0151 29.3975 14.905 29.1846 14.7365C28.9713 14.5692 28.8182 14.3634 28.7254 14.1188C28.6321 13.8734 28.6109 13.6126 28.6615 13.3355C28.712 13.0599 28.8238 12.8234 28.9973 12.6261C29.1705 12.4292 29.3867 12.2892 29.6453 12.2064C29.9039 12.1229 30.1795 12.107 30.473 12.1591C30.7673 12.2123 31.0199 12.3228 31.231 12.4902C31.4428 12.6579 31.5958 12.8641 31.6902 13.1094C31.7853 13.3547 31.8076 13.6156 31.7571 13.8912C31.7065 14.1683 31.5936 14.4051 31.4182 14.602C31.2436 14.7979 31.0277 14.9379 30.7703 15.0218C30.5135 15.1053 30.2382 15.1208 29.944 15.0676ZM30.045 14.5148C30.2122 14.5455 30.3705 14.5348 30.5191 14.4823C30.6677 14.4291 30.7926 14.3416 30.8936 14.2193C30.9954 14.0973 31.0623 13.9484 31.0943 13.773C31.1258 13.5986 31.1154 13.4367 31.063 13.2867C31.0114 13.1371 30.9252 13.0118 30.8045 12.9114C30.6833 12.8101 30.5392 12.744 30.372 12.7133C30.2055 12.6838 30.048 12.6956 29.8994 12.7488C29.7508 12.8012 29.6252 12.8884 29.5234 13.0104C29.4224 13.1327 29.3558 13.2808 29.3243 13.4552C29.2923 13.6307 29.3023 13.7933 29.354 13.9429C29.4064 14.0929 29.4929 14.2185 29.6141 14.3198C29.7348 14.4203 29.8786 14.4853 30.045 14.5148Z" fill="#FFFCF0"/>
<path d="M33.5617 15.9429L33.2704 15.0178L33.2392 15.0074L32.6849 14.836L32.4471 15.5971L31.8125 15.4005L32.667 12.6709L33.8559 13.0389C34.0974 13.1139 34.2951 13.2199 34.4489 13.3566C34.6035 13.4926 34.7053 13.65 34.755 13.8281C34.8056 14.0054 34.7989 14.1961 34.7357 14.4C34.6722 14.6021 34.5685 14.7614 34.4251 14.8774C34.2813 14.9937 34.1075 15.0632 33.9035 15.0857L34.2423 16.1528L33.5617 15.9429ZM34.0922 14.2005C34.1405 14.0468 34.1279 13.9138 34.0536 13.8015C33.98 13.6884 33.8485 13.6027 33.6583 13.5443L33.1396 13.3832L32.8424 14.3335L33.3611 14.4946C33.5513 14.553 33.7088 14.5559 33.8336 14.5035C33.9592 14.4514 34.0454 14.3505 34.0922 14.2005Z" fill="#FFFCF0"/>
<path d="M35.6414 13.6619L36.2597 13.9101L35.1807 16.56L34.5625 16.3117L35.6414 13.6619Z" fill="#FFFCF0"/>
<path d="M37.2794 14.9583L36.4546 14.5533L36.6954 14.0701L38.9409 15.1711L38.7002 15.6544L37.8768 15.2509L36.8455 17.3303L36.248 17.0376L37.2794 14.9583Z" fill="#FFFCF0"/>
<path d="M40.0213 18.5705L39.739 19.0198L37.8516 17.8463L39.3748 15.4226L41.2177 16.568L40.9353 17.0187L39.6542 16.2221L39.3228 16.7483L40.4538 17.4517L40.1803 17.8877L39.0494 17.1842L38.6957 17.7458L40.0213 18.5705Z" fill="#FFFCF0"/>
</svg>
