<svg width="62" height="69" viewBox="0 0 62 69" fill="none" xmlns="http://www.w3.org/2000/svg">
<g clip-path="url(#clip0_570_23678)">
<mask id="mask0_570_23678" style="mask-type:luminance" maskUnits="userSpaceOnUse" x="32" y="55" width="5" height="6">
<path d="M33.9199 55.0429L36.6172 55.5962L35.6252 60.4317L32.9279 59.8784L33.9199 55.0429Z" fill="white"/>
</mask>
<g mask="url(#mask0_570_23678)">
<mask id="mask1_570_23678" style="mask-type:luminance" maskUnits="userSpaceOnUse" x="10" y="8" width="42" height="53">
<path d="M51.0374 8.48356L51.543 60.3196L10.6821 60.6586L10.1766 8.82259L51.0374 8.48356Z" fill="white"/>
</mask>
<g mask="url(#mask1_570_23678)">
<mask id="mask2_570_23678" style="mask-type:luminance" maskUnits="userSpaceOnUse" x="10" y="8" width="42" height="53">
<path d="M51.0374 8.4838L51.543 60.3198L10.6821 60.6589L10.1766 8.82284L51.0374 8.4838Z" fill="white"/>
</mask>
<g mask="url(#mask2_570_23678)">
<path d="M35.4268 56.075C34.3854 56.9196 33.91 58.128 33.8922 59.4471C33.7299 59.355 33.5676 59.2629 33.4044 59.1749C34.2903 58.7183 34.7652 58.232 35.2085 57.3446C35.3934 57.4497 35.5824 57.5556 35.7665 57.6648C35.6742 57.8474 35.5492 58.1283 35.3183 58.165C35.1531 58.1898 34.9631 58.1299 34.921 57.9449C34.7891 57.3551 35.1181 56.7171 35.1537 56.1324C35.1749 55.721 35.8218 55.7109 35.7997 56.1263C35.7733 56.6248 35.4378 57.295 35.5426 57.77C35.4102 57.6967 35.2777 57.6233 35.1412 57.5491C35.0497 57.564 35.1864 57.3904 35.2077 57.3486C35.393 56.9793 35.951 57.2995 35.7657 57.6688C35.2774 58.6521 34.7132 59.225 33.7323 59.7334C33.5206 59.8412 33.2386 59.7161 33.2454 59.4572C33.2614 57.9823 33.7943 56.5758 34.9616 55.6311C35.28 55.373 35.7444 55.821 35.4211 56.0822L35.4268 56.075Z" fill="#41B4B4"/>
</g>
</g>
</g>
<path d="M16.9899 9.33417C13.5858 12.6167 11.4049 16.8388 11.1879 21.5939C10.9861 26.0288 12.5688 30.3721 14.9792 34.0496C16.4365 36.2718 18.1561 37.9347 20.1768 39.609C22.5402 41.5635 24.9834 43.4379 27.4682 45.2326C28.1541 45.7302 36.1691 51.5862 36.8062 50.4319C37.0069 50.07 37.5689 50.391 37.3683 50.753C36.7189 51.9257 34.3421 50.4262 33.6403 50.047C31.085 48.6578 28.7027 46.9387 26.3617 45.2239C21.9652 42.0041 17.2986 38.7666 14.2745 34.157C11.7965 30.3775 10.3456 25.8849 10.5543 21.3548C10.7739 16.5455 13.0955 12.1927 16.5256 8.88618C16.8247 8.599 17.2882 9.05103 16.9851 9.33737L16.9899 9.33417Z" fill="#41B4B4"/>
<path d="M35.0494 49.2653C31.123 48.0273 27.4969 45.8389 24.1818 43.4288C20.7319 40.9154 17.462 37.9561 15.0681 34.4037C12.6862 30.8749 12.1038 26.4009 12.0657 22.2317C12.0513 20.6582 12.2011 19.3326 12.8192 17.8805C13.4399 16.4164 14.2772 15.005 15.2443 13.7421C15.5609 13.3284 17.0442 11.3567 17.6229 12.521C17.8083 12.8908 17.2516 13.2217 17.0662 12.8519C17.0453 12.8098 17.0517 12.8196 16.8577 12.9435C16.6483 13.0811 16.4775 13.277 16.31 13.4568C15.77 14.0347 15.3219 14.6987 14.8949 15.3627C14.0344 16.7021 13.2243 18.1862 12.8493 19.7469C12.6573 20.539 12.7086 21.4188 12.7117 22.2256C12.7105 23.4432 12.8025 24.6588 12.9382 25.8666C13.1901 28.1103 13.6365 30.4946 14.6924 32.5168C16.6845 36.3436 20.0962 39.4539 23.4606 42.0757C26.8686 44.7316 30.7108 47.1197 34.8252 48.5096C34.9553 48.5531 35.0855 48.5966 35.2165 48.6361C35.6085 48.7585 35.4464 49.3845 35.0511 49.2572L35.0494 49.2653Z" fill="#41B4B4"/>
<path d="M36.8106 50.6389C34.3524 50.6049 32.2359 49.0076 30.4208 47.5224C28.4832 45.9366 26.6945 43.7682 24.3936 42.6999C24.0164 42.5259 24.3417 41.967 24.7141 42.1442C26.7 43.0638 28.2992 44.8406 29.9179 46.2561C31.8123 47.9087 34.139 49.9607 36.8028 49.999C37.2189 50.0046 37.2259 50.6485 36.8098 50.6429L36.8106 50.6389Z" fill="#41B4B4"/>
<path d="M39.5967 47.8135C39.4706 48.9005 41.0787 50.1206 41.777 50.7635C42.8801 51.7751 44.0774 52.6968 45.3042 53.5573C45.1764 53.7285 45.0454 53.8947 44.9175 54.0659C42.2815 52.0638 39.5835 50.1372 37.6085 47.4393C37.3783 47.1233 37.8475 46.829 38.1105 47.0467C39.5448 48.2102 40.5939 49.7314 41.747 51.1563C41.5805 51.2901 41.4108 51.4191 41.2451 51.5488C40.008 49.4852 38.4341 47.6464 37.3123 45.5141C37.1333 45.175 37.5303 44.9037 37.8143 45.1216C40.0114 46.7984 41.0989 49.3647 42.8589 51.4264C42.6932 51.5562 42.5227 51.6892 42.3529 51.8181C41.0684 49.1233 38.7148 47.1203 37.026 44.6911C36.808 44.3776 37.2683 44.0647 37.5288 44.2945C39.749 46.2491 41.1834 48.9117 43.4036 50.8663C43.2371 51.0001 43.0674 51.129 42.9017 51.2588C41.7848 49.6985 40.2603 48.42 39.0337 46.9422C38.7631 46.6179 39.1573 46.2369 39.4857 46.4848C41.6894 48.1505 43.154 50.5631 45.3536 52.2279C45.1999 52.3812 45.0503 52.5352 44.9007 52.6893C43.4541 51.5653 41.9107 50.5432 40.7162 49.135C40.4512 48.8245 40.8619 48.3838 41.1682 48.6776C42.8758 50.3171 44.8958 51.5629 46.9519 52.7154C46.8071 52.8662 46.6592 53.0122 46.5145 53.1631C45.6229 51.5315 44.0745 50.5336 42.4452 49.7248C42.573 49.5537 42.7049 49.3834 42.8319 49.2163C44.3847 50.6854 46.3786 51.6067 48.3292 52.431L48.0128 52.9876C46.7248 52.2405 45.4026 51.5577 44.1187 50.8114C43.8062 50.6297 44.0067 50.104 44.3624 50.2189C45.9339 50.7345 47.4556 51.328 48.6787 52.4733C48.8835 52.6665 48.7339 53.0263 48.4562 53.024C45.899 53.0201 43.3681 52.5597 40.8887 51.9712C40.9713 51.774 41.0539 51.5768 41.1325 51.3788C41.6763 51.6037 42.2563 51.6933 42.7961 51.9174C42.6909 52.1016 42.5849 52.2898 42.4756 52.4731C40.4904 51.6124 38.7799 50.2747 36.9081 49.2104C37.0568 49.0604 37.2007 48.9135 37.3446 48.7667C37.9855 49.9773 38.8499 50.9399 40.0247 51.6638C39.8977 51.8309 39.7658 52.0012 39.638 52.1724C38.7062 51.0448 37.3252 50.4844 36.0848 49.7722C36.24 49.6528 36.3999 49.5303 36.5559 49.4069C36.7089 49.791 36.8269 50.2016 37.0221 50.565C37.2903 51.0651 37.9123 51.3816 38.3643 51.6843C38.6582 51.8748 38.4884 52.3943 38.1214 52.2728C37.2637 51.996 36.4376 51.709 35.7521 51.1065C35.9058 50.9532 36.0554 50.7992 36.2041 50.6491C37.1976 51.5584 38.3983 51.8887 39.676 52.1928C39.5547 52.3526 39.4334 52.5125 39.3129 52.6684C38.1427 50.6899 36.8046 48.7903 36.1771 46.5493C36.0798 46.2019 36.5867 45.9699 36.7642 46.2961C37.1313 46.9719 37.5803 47.5973 38.1155 48.1522C37.9489 48.286 37.7792 48.4149 37.6135 48.5447C37.0806 47.4654 36.7447 46.3298 36.4396 45.1671C36.3336 44.759 36.9171 44.6058 37.0612 44.9923C37.5853 46.4225 37.3777 47.8454 37.1003 49.3002C37.0439 49.6162 36.5526 49.6078 36.4794 49.3072C36.1875 48.101 36.1692 46.8753 36.1575 45.6383C36.3711 45.6653 36.5806 45.6915 36.7942 45.7185C36.625 46.6664 36.5723 47.6424 36.9019 48.5625C37.3466 49.8253 38.6904 49.6222 39.6758 49.1945C39.8566 49.114 40.096 49.1589 40.1518 49.3803C40.5152 50.9162 42.9052 51.5703 44.2918 51.5902C44.707 51.5998 44.7148 52.2396 44.2988 52.2341C42.6305 52.211 39.9732 51.4013 39.5342 49.556C39.6942 49.6182 39.8493 49.6836 40.0102 49.7418C38.8999 50.2237 37.5971 50.494 36.7021 49.4747C35.8047 48.4466 35.9575 46.7773 36.1757 45.5497C36.2379 45.1845 36.805 45.2756 36.8124 45.6299C36.8236 46.8079 36.8324 47.9771 37.1108 49.126C36.9044 49.1257 36.6971 49.1294 36.4899 49.133C36.7466 47.779 36.9382 46.4955 36.4485 45.1647C36.6543 45.1062 36.8642 45.0484 37.0701 44.9899C37.3576 46.0945 37.6655 47.1822 38.1743 48.2146C38.3292 48.5277 37.9399 48.8846 37.6683 48.6063C37.0945 48.0141 36.6076 47.3473 36.2172 46.6206C36.4119 46.5345 36.6098 46.4533 36.8044 46.3673C37.4135 48.5541 38.7324 50.4035 39.8745 52.3343C40.0216 52.5828 39.7888 52.8752 39.5114 52.8099C38.1173 52.4777 36.8351 52.0929 35.757 51.1033C35.4522 50.8224 35.8985 50.3723 36.209 50.6459C36.805 51.1713 37.5447 51.407 38.2916 51.6484C38.209 51.8456 38.1264 52.0429 38.0479 52.2409C37.5538 51.917 36.9692 51.5829 36.6126 51.1024C36.2826 50.6568 36.1418 50.0904 35.9383 49.5826C35.8262 49.3076 36.1801 49.0821 36.4094 49.2173C37.699 49.9564 39.1285 50.5477 40.0973 51.7207C40.3163 51.9882 40.0432 52.4361 39.7106 52.2293C38.4454 51.4532 37.4914 50.4135 36.7992 49.1041C36.6498 48.8257 36.9459 48.4917 37.2358 48.6604C39.1077 49.7246 40.8181 51.0623 42.8034 51.9231C43.1864 52.0899 42.8586 52.6399 42.482 52.4829C41.9382 52.2579 41.3582 52.1683 40.8184 51.9442C40.4693 51.797 40.716 51.2723 41.0622 51.3517C43.489 51.9294 45.9544 52.3806 48.4573 52.3817C48.3861 52.5645 48.3101 52.7504 48.2348 52.9323C47.0931 51.8625 45.6748 51.3196 44.2051 50.8417C44.2877 50.6445 44.3663 50.4465 44.4489 50.2493C45.7369 50.9964 47.0591 51.6792 48.343 52.4254C48.712 52.6397 48.3942 53.1414 48.0225 52.9812C46.0169 52.1372 43.9884 51.1794 42.3896 49.6672C42.1139 49.4091 42.4548 49.0003 42.7763 49.1587C44.5017 50.0123 46.1371 51.0995 47.0769 52.825C47.2303 53.1042 46.927 53.4325 46.6403 53.2687C44.535 52.0894 42.4722 50.8054 40.7211 49.1318C40.8707 48.9777 41.0243 48.8245 41.1739 48.6704C42.3684 50.0786 43.9118 51.1007 45.3585 52.2247C45.6893 52.4815 45.2308 52.9292 44.9064 52.6821C42.7028 51.0164 41.2382 48.6038 39.0386 46.939C39.1882 46.7849 39.3378 46.6309 39.4906 46.4816C40.7502 48.004 42.3093 49.319 43.4584 50.9279C43.6805 51.2422 43.2162 51.5543 42.9557 51.3245C40.7355 49.3699 39.301 46.7073 37.0808 44.7527L37.5836 44.3562C39.2724 46.7854 41.6219 48.7875 42.9096 51.4872C43.0573 51.7946 42.6622 52.1797 42.4077 51.8797C40.651 49.8229 39.5561 47.2509 37.3671 45.5757C37.5328 45.4459 37.7034 45.313 37.8691 45.1832C38.9949 47.3164 40.5688 49.1552 41.8018 51.2179C41.9834 51.5239 41.535 51.9023 41.2999 51.6105C40.1459 50.1896 39.0928 48.6676 37.6593 47.5001C37.8249 47.3703 37.9955 47.2373 38.1652 47.1084C40.1049 49.7528 42.7892 51.643 45.3744 53.6053C45.6657 53.8288 45.2856 54.3261 44.9878 54.1139C43.5883 53.1297 42.2385 52.0676 40.9896 50.9043C40.2397 50.2046 38.821 48.9856 38.9555 47.8164C39.0001 47.414 39.6478 47.3999 39.6007 47.8144L39.5967 47.8135Z" fill="#41B4B4"/>
<path d="M36.8168 51.0349C35.2454 53.7444 34.1832 56.827 34.4562 59.9946C34.2736 59.9194 34.0861 59.8473 33.9035 59.772C38.1034 54.7674 44.893 54.1068 50.8586 52.6557C50.8586 52.8615 50.8626 53.0681 50.8625 53.2738C44.7578 51.0682 40.195 46.4411 35.9401 41.7302L36.4758 41.584C35.876 44.7951 35.3807 48.3804 36.0218 51.6235C36.1027 52.0306 35.4802 52.2094 35.4002 51.7983C34.7378 48.4332 35.231 44.7552 35.8524 41.4183C35.8995 41.1886 36.2342 41.0977 36.3921 41.2729C40.5608 45.8905 45.0403 50.4921 51.0278 52.6526C51.3067 52.7518 51.368 53.1927 51.0317 53.2707C45.1851 54.6958 38.4807 55.3109 34.3589 60.2224C34.1629 60.4593 33.8302 60.2525 33.8062 59.9998C33.5214 56.7248 34.6263 53.5166 36.2507 50.713C36.4587 50.3568 37.0175 50.673 36.8087 51.0332L36.8168 51.0349Z" fill="#41B4B4"/>
<path d="M40.5203 53.0794C39.0665 53.6546 37.5783 53.9246 36.0126 53.9561C36.1191 53.8478 36.2256 53.7394 36.3321 53.6311L36.3342 53.9087C36.2536 53.8082 36.1739 53.7037 36.0934 53.6032C37.3082 54.0497 38.7556 54.4306 39.998 53.8793C40.0255 54.0739 40.053 54.2685 40.0806 54.4631C38.3389 53.9966 36.8662 55.1978 35.7069 56.3499C35.5521 56.2006 35.3982 56.0472 35.2474 55.8987C35.6983 55.5293 36.2724 55.2985 36.849 55.2405C36.8513 55.4551 36.8536 55.6697 36.856 55.8844C35.2974 55.9426 33.8544 56.6292 33.0037 57.9621C32.9096 57.8043 32.8164 57.6424 32.7191 57.4797C34.3125 57.416 35.6385 56.6424 36.9679 55.8317C37.0237 56.0322 37.0795 56.2326 37.1362 56.429C35.9623 56.4401 34.9986 56.5573 33.9055 56.9966C33.8724 56.7882 33.8441 56.5767 33.8119 56.3643C35.4107 56.3353 36.7892 55.984 38.0627 54.9939L38.1443 55.5818C36.6055 55.3795 35.5464 56.023 34.5968 57.1804C34.5207 56.9968 34.4397 56.8164 34.3636 56.6328C37.6112 56.2703 40.7392 54.7242 43.2951 52.7416C43.3817 52.9357 43.4634 53.133 43.55 53.3272C41.8715 53.6211 40.1963 53.8989 38.4914 53.9313C38.136 53.9382 38.0356 53.3591 38.3977 53.299C39.9538 53.0472 41.5422 53.0077 43.0953 52.709C43.0993 52.9156 43.0992 53.1213 43.1032 53.3279C40.9434 52.5783 38.6477 52.5734 36.7155 53.8987C36.688 53.7041 36.6605 53.5095 36.633 53.3149C39.792 54.3703 43.2305 53.8369 46.4225 53.232C46.4507 53.4435 46.4838 53.6519 46.5161 53.8643C44.5849 53.6235 42.6333 53.6052 40.698 53.3636C40.3 53.3113 40.2604 52.7237 40.691 52.7197C40.9655 52.7172 41.2439 52.7155 41.5184 52.713C41.9401 52.7114 41.9335 53.3189 41.5253 53.3569C38.3703 53.6587 33.6447 54.5495 32.7527 58.1584C32.5921 58.0373 32.4356 57.917 32.275 57.7959C34.5013 56.4133 35.7242 53.2461 36.462 50.8821C37.1382 48.7155 38.066 44.7066 35.734 43.1532L36.2059 42.7839C36.6241 44.9357 38.7161 46.3853 39.8239 48.1956C39.9501 48.4021 39.7919 48.6804 39.5474 48.6806C39.1759 48.6842 38.8124 48.6894 38.4416 48.6889C38.0239 48.6914 38.0169 48.0475 38.4347 48.045C38.8062 48.0415 39.1697 48.0362 39.5405 48.0367C39.4483 48.1984 39.3561 48.36 39.268 48.5225C38.1313 46.6684 36.0167 45.1849 35.5842 42.9587C35.5351 42.7051 35.7962 42.4185 36.0553 42.5935C38.5326 44.2396 37.9062 48.0122 37.2669 50.43C36.8144 52.1428 36.1161 53.801 35.2288 55.3322C34.5707 56.4654 33.7433 57.6436 32.6126 58.348C32.3667 58.4992 32.0666 58.257 32.135 57.9855C33.1101 54.0535 38.0677 53.0382 41.5281 52.7066C41.5304 52.9213 41.5328 53.1359 41.5351 53.3505C41.2566 53.3522 40.9822 53.3547 40.7078 53.3572C40.7054 53.1425 40.7031 52.9279 40.7008 52.7133C42.632 52.9541 44.5836 52.9723 46.5181 53.218C46.8425 53.2593 47.0022 53.775 46.6117 53.8503C43.3031 54.4691 39.7503 55.0252 36.4765 53.9337C36.2041 53.8442 36.1594 53.5075 36.3948 53.3458C38.4554 51.9293 40.9681 51.9031 43.2815 52.7052C43.5531 52.7987 43.6272 53.259 43.2853 53.3233C41.7323 53.6219 40.1447 53.6574 38.5878 53.9133C38.5555 53.7009 38.5264 53.4934 38.4941 53.281C40.144 53.2499 41.7617 52.9855 43.3835 52.7009C43.7545 52.6385 43.9292 53.0606 43.6376 53.2905C40.9867 55.346 37.7445 56.8939 34.3803 57.2703C34.0701 57.3033 33.99 56.9131 34.1471 56.7228C35.257 55.359 36.5477 54.7167 38.3203 54.9502C38.6358 54.9939 38.5871 55.3955 38.4019 55.538C37.0432 56.5946 35.5254 56.9678 33.8245 57.001C33.4359 57.0052 33.413 56.5008 33.7309 56.3687C34.884 55.9039 35.8939 55.7878 37.1308 55.777C37.4563 55.7724 37.5734 56.2079 37.2991 56.3742C35.8682 57.248 34.441 58.0428 32.7246 58.1106C32.4865 58.1206 32.3097 57.8324 32.44 57.6282C33.4147 56.1022 35.0517 55.2917 36.8483 55.2235C37.2684 55.2089 37.2602 55.8245 36.8552 55.8674C36.4592 55.908 36.006 56.0837 35.7021 56.3321C35.3878 56.591 34.937 56.1794 35.2427 55.8809C36.5759 54.5588 38.2601 53.2918 40.2403 53.8282C40.4877 53.8957 40.5912 54.2949 40.322 54.416C38.9027 55.0487 37.3288 54.73 35.9184 54.2097C35.781 54.1605 35.6803 54.0559 35.6785 53.9002C35.6756 53.8114 35.6777 53.7194 35.6756 53.6266C35.6739 53.4499 35.8178 53.3031 35.9951 53.3016C37.5017 53.2706 38.9259 53.0043 40.3295 52.4482C40.7147 52.2962 40.891 52.9161 40.5058 53.068L40.5203 53.0794Z" fill="#41B4B4"/>
</g>
<defs>
<clipPath id="clip0_570_23678">
<rect width="50.867" height="59.2183" fill="white" transform="matrix(-0.9796 -0.200958 -0.200958 0.9796 61.7305 10.6726)"/>
</clipPath>
</defs>
</svg>
