<svg width="61" height="70" viewBox="0 0 61 70" fill="none" xmlns="http://www.w3.org/2000/svg">
<mask id="mask0_3531_46572" style="mask-type:luminance" maskUnits="userSpaceOnUse" x="18" y="57" width="4" height="7">
<path d="M21.829 57.9854H18.5742V63.8203H21.829V57.9854Z" fill="white"/>
</mask>
<g mask="url(#mask0_3531_46572)">
<mask id="mask1_3531_46572" style="mask-type:luminance" maskUnits="userSpaceOnUse" x="0" y="0" width="61" height="71">
<path d="M13.0668 0.00458359L0.167969 59.9082L47.4024 70.0071L60.3012 10.1035L13.0668 0.00458359Z" fill="white"/>
</mask>
<g mask="url(#mask1_3531_46572)">
<mask id="mask2_3531_46572" style="mask-type:luminance" maskUnits="userSpaceOnUse" x="0" y="0" width="61" height="71">
<path d="M13.0668 0.00458359L0.167969 59.9082L47.4024 70.0071L60.3012 10.1035L13.0668 0.00458359Z" fill="white"/>
</mask>
<g mask="url(#mask2_3531_46572)">
<path d="M19.8406 58.8213C20.8458 60.0467 21.1093 61.5589 20.8165 63.0906C21.0264 63.0225 21.2362 62.9544 21.446 62.8912C20.5286 62.1521 20.0943 61.4762 19.7918 60.3433C19.5527 60.4211 19.3087 60.4989 19.0696 60.5815C19.133 60.8149 19.2111 61.1699 19.4697 61.2671C19.6551 61.3352 19.8894 61.3109 19.9821 61.1067C20.2749 60.4551 20.0455 59.6382 20.1431 58.9526C20.2163 58.4712 19.4697 58.3059 19.3965 58.7921C19.3087 59.3756 19.538 60.2314 19.3038 60.7566C19.4746 60.7031 19.6454 60.6496 19.8211 60.5961C19.9235 60.635 19.8064 60.4016 19.7918 60.3481C19.6649 59.8765 18.9427 60.1147 19.0696 60.5864C19.4014 61.8409 19.9186 62.6383 20.9336 63.4601C21.1532 63.6352 21.5094 63.5574 21.5631 63.2559C21.8949 61.5443 21.6119 59.7889 20.4847 58.4177C20.1773 58.0433 19.5332 58.4518 19.8455 58.831L19.8406 58.8213Z" fill="#41B4B4"/>
</g>
</g>
</g>
<path d="M52.2952 9.07851C55.4573 13.6881 56.9798 19.0952 56.1014 24.653C55.2816 29.8364 52.4172 34.4897 48.7525 38.1755C46.5371 40.4025 44.1509 41.9196 41.4134 43.3783C38.2123 45.0802 34.938 46.6702 31.6344 48.1581C30.7219 48.5714 20.0499 53.4485 19.5863 51.9606C19.4399 51.4938 18.7128 51.732 18.8592 52.1988C19.3325 53.711 22.4409 52.5392 23.3437 52.2669C26.6326 51.2652 29.7996 49.8405 32.9177 48.411C38.7734 45.7269 44.9463 43.0866 49.543 38.4672C53.3102 34.6794 56.0575 29.8218 56.8919 24.5265C57.78 18.9055 56.1258 13.3137 52.9393 8.67006C52.6612 8.26648 52.0171 8.67979 52.3001 9.08337L52.2952 9.07851Z" fill="#41B4B4"/>
<path d="M21.8985 51.0269C26.7392 50.5261 31.4579 48.8534 35.8692 46.8501C40.461 44.7592 44.9504 42.1092 48.5663 38.5644C52.1627 35.044 53.8999 30.0016 54.9344 25.1829C55.3247 23.3644 55.4662 21.7938 55.0954 19.9655C54.7245 18.1226 54.0902 16.2895 53.2704 14.5973C53.002 14.043 51.7528 11.4076 50.8061 12.6183C50.5035 13.0025 51.0696 13.5179 51.3721 13.1337C51.4063 13.09 51.3965 13.0997 51.5917 13.2893C51.8016 13.4984 51.9528 13.7659 52.1041 14.0138C52.5921 14.8113 52.9532 15.6865 53.2899 16.5569C53.9682 18.3123 54.5537 20.2232 54.6172 22.1196C54.6513 23.0823 54.3829 24.0889 54.1878 25.0225C53.8999 26.4326 53.5046 27.8184 53.0605 29.1847C52.2359 31.7229 51.1526 34.3778 49.4495 36.4687C46.2338 40.4267 41.5443 43.2178 37.0257 45.4545C32.4485 47.7204 27.4321 49.573 22.3377 50.2052C22.1766 50.2246 22.0156 50.2441 21.8546 50.2586C21.3715 50.3073 21.4105 51.0707 21.8985 51.0172V51.0269Z" fill="#41B4B4"/>
<path d="M19.53 52.1984C22.3846 52.743 25.2149 51.3961 27.6694 50.1075C30.2898 48.7314 32.8761 46.6454 35.7942 45.955C36.2724 45.8431 36.0284 45.1186 35.555 45.2353C33.0371 45.8286 30.7631 47.5061 28.5526 48.7606C25.9664 50.2242 22.7848 52.0476 19.691 51.4593C19.2079 51.3669 19.0469 52.1109 19.53 52.2032V52.1984Z" fill="#41B4B4"/>
<path d="M16.9738 48.2651C16.8615 49.5537 14.7096 50.5845 13.7482 51.1632C12.2306 52.0724 10.6252 52.8553 9.00026 53.5604C9.10761 53.7889 9.21985 54.0126 9.3272 54.2411C12.8553 52.549 16.437 50.9589 19.3648 48.304C19.7064 47.9928 19.2331 47.5406 18.8769 47.7303C16.9396 48.7368 15.3634 50.249 13.6897 51.6251C13.8507 51.8196 14.0166 52.0092 14.1777 52.1989C16.1003 50.1031 18.3596 48.3478 20.1651 46.1451C20.453 45.795 20.0578 45.3866 19.6771 45.5713C16.7347 46.9912 14.8657 49.7044 12.338 51.6737C12.499 51.8634 12.6649 52.0579 12.8309 52.2475C14.9584 49.4321 18.1595 47.6719 20.6921 45.2601C21.0191 44.9489 20.5604 44.4773 20.2041 44.6815C17.1689 46.4174 14.8755 49.1598 11.8403 50.8957C12.0013 51.0902 12.1672 51.2799 12.3282 51.4695C13.9922 49.9281 16.0612 48.8097 17.8326 47.3899C18.223 47.0787 17.857 46.5438 17.4178 46.7529C14.4704 48.1582 12.2014 50.604 9.25888 52.0092C9.4004 52.2232 9.53703 52.4371 9.67366 52.6511C11.6158 51.6932 13.6458 50.8763 15.3634 49.5294C15.7441 49.2328 15.3732 48.625 14.9487 48.8924C12.582 50.3852 9.94693 51.3479 7.29235 52.194C7.4241 52.4031 7.56073 52.6073 7.69249 52.8164C9.11249 51.1389 11.1425 50.3511 13.2212 49.8017C13.1139 49.5731 13.0016 49.3446 12.8943 49.1209C10.7472 50.4532 8.2195 51.0465 5.76499 51.5376L5.99921 52.2572C7.66809 51.698 9.36136 51.2215 11.0254 50.6623C11.4304 50.5262 11.323 49.8698 10.8838 49.9184C8.9417 50.142 7.0386 50.4678 5.35021 51.5035C5.06718 51.6786 5.15502 52.1308 5.47708 52.194C8.43909 52.7969 11.4792 52.865 14.49 52.7726C14.4412 52.5247 14.3924 52.2767 14.3485 52.0287C13.6653 52.16 12.9724 52.1259 12.2941 52.2572C12.3722 52.4955 12.4502 52.7386 12.5332 52.9769C15.0365 52.4517 17.3349 51.309 19.7552 50.5213C19.6186 50.3122 19.4868 50.108 19.3551 49.9038C18.3254 51.1534 17.0958 52.0627 15.5635 52.6219C15.6709 52.8456 15.7831 53.0741 15.8905 53.3026C17.2373 52.2183 18.9696 51.8974 20.575 51.3674C20.4237 51.1923 20.2676 51.0124 20.1163 50.8325C19.8479 51.241 19.6137 51.6883 19.3014 52.0627C18.872 52.5781 18.0766 52.797 17.4813 53.0401C17.0958 53.1908 17.1689 53.8327 17.6228 53.7792C18.6817 53.6625 19.7064 53.5263 20.6433 52.9915C20.5018 52.7775 20.3652 52.5636 20.2285 52.3545C18.8622 53.1714 17.3934 53.2686 15.8417 53.3172C15.9441 53.5312 16.0466 53.7451 16.1491 53.9542C17.9741 51.9412 19.9748 50.0594 21.2338 47.6136C21.429 47.2343 20.8971 46.8453 20.614 47.1808C20.0285 47.8761 19.36 48.4937 18.6085 49.0091C18.7695 49.2036 18.9354 49.3932 19.0964 49.5829C19.9699 48.4596 20.6287 47.2246 21.2582 45.9506C21.4778 45.5033 20.8385 45.1872 20.5799 45.6005C19.6332 47.1322 19.5356 48.8292 19.5112 50.5797C19.5015 50.9589 20.0724 51.0659 20.2285 50.7353C20.8532 49.4078 21.1655 47.9928 21.4729 46.5633C21.2191 46.5438 20.9703 46.5244 20.7165 46.5049C20.6872 47.6427 20.5165 48.7854 19.9162 49.7725C19.1013 51.1291 17.5935 50.5748 16.5541 49.8454C16.3638 49.7093 16.0759 49.7044 15.9588 49.9475C15.1731 51.6397 12.2502 51.8293 10.6399 51.523C10.1568 51.4355 9.99572 52.1746 10.4788 52.2669C12.4161 52.6365 15.6855 52.3302 16.6322 50.2976C16.4321 50.3317 16.2369 50.3706 16.0368 50.3998C17.208 51.2215 18.6524 51.8439 19.9309 50.8763C21.2143 49.8989 21.4338 47.9296 21.4729 46.4563C21.4875 46.0187 20.8092 45.9895 20.7165 46.398C20.4237 47.7594 20.1358 49.1112 19.5405 50.3754C19.7796 50.4241 20.0187 50.4776 20.2578 50.531C20.2822 48.9021 20.3652 47.3704 21.2484 45.9457C21.0239 45.829 20.7946 45.7123 20.5701 45.5956C19.9748 46.8064 19.36 47.9928 18.5255 49.0674C18.2718 49.3932 18.6378 49.8989 19.0184 49.6412C19.8235 49.0918 20.5457 48.4353 21.1703 47.6865C20.9654 47.5406 20.7556 47.3996 20.5506 47.2537C19.3258 49.6412 17.3593 51.4695 15.5782 53.4339C15.3488 53.6868 15.5489 54.0806 15.8856 54.0709C17.5788 54.0174 19.155 53.8764 20.6384 52.9866C21.0581 52.7337 20.6482 52.1065 20.2237 52.3496C19.4087 52.8164 18.4962 52.9136 17.574 53.0158C17.6228 53.2637 17.6716 53.5117 17.7155 53.7597C18.3645 53.502 19.1208 53.254 19.6479 52.7824C20.1358 52.3447 20.4335 51.7223 20.7897 51.1826C20.9849 50.8909 20.6287 50.5456 20.331 50.6477C18.6621 51.1972 16.8664 51.5424 15.4659 52.6705C15.1487 52.9282 15.3586 53.5117 15.7929 53.3513C17.4422 52.7532 18.7939 51.7758 19.9065 50.4241C20.1456 50.1372 19.8821 49.6801 19.5063 49.8065C17.086 50.5943 14.7876 51.7369 12.2843 52.2621C11.8012 52.3642 12.0501 53.079 12.5234 52.9866C13.2066 52.8553 13.8995 52.8893 14.5778 52.7581C15.017 52.6705 14.8559 52.0044 14.4363 52.0141C11.4889 52.1065 8.52692 52.0433 5.62835 51.45C5.66739 51.6786 5.71131 51.912 5.75523 52.1405C7.33138 51.1729 9.10273 50.8811 10.918 50.6769C10.8692 50.4289 10.8253 50.1809 10.7765 49.933C9.10761 50.4921 7.41434 50.9687 5.75035 51.5278C5.27213 51.6883 5.521 52.3447 5.98946 52.2475C8.51228 51.7467 11.0888 51.1194 13.2993 49.7482C13.6799 49.5148 13.3823 48.9605 12.9724 49.0674C10.7716 49.6461 8.61964 50.5165 7.12156 52.2913C6.87757 52.5781 7.15083 53.0303 7.52169 52.9088C10.2397 52.0433 12.9333 51.0465 15.3586 49.5245C15.2219 49.3106 15.0804 49.0966 14.9438 48.8827C13.2261 50.2296 11.1961 51.0465 9.254 52.0044C8.80995 52.2232 9.23448 52.8504 9.66878 52.6414C12.6161 51.2361 14.8852 48.7903 17.8277 47.385C17.6911 47.1711 17.5544 46.9571 17.4129 46.748C15.5928 48.2116 13.475 49.3641 11.7622 50.9541C11.4304 51.2653 11.8939 51.7369 12.2502 51.5327C15.2854 49.7968 17.5788 47.0544 20.614 45.3185L20.1261 44.7399C17.5935 47.1516 14.3973 48.9118 12.2648 51.7321C12.0208 52.053 12.3868 52.5927 12.7528 52.3058C15.2756 50.3414 17.1543 47.6233 20.087 46.2035C19.926 46.0138 19.7601 45.8193 19.5991 45.6297C17.7887 47.8324 15.5294 49.5877 13.6116 51.6834C13.3286 51.9946 13.758 52.5392 14.0996 52.2572C15.7733 50.886 17.3544 49.3738 19.2916 48.3624C19.1306 48.1727 18.9647 47.9783 18.7988 47.7886C15.9246 50.39 12.3673 51.9412 8.90754 53.5993C8.51716 53.7889 8.83923 54.455 9.23448 54.28C11.0888 53.4728 12.9041 52.5636 14.6266 51.5133C15.6611 50.8811 17.5935 49.8065 17.7155 48.4207C17.7594 47.9442 17.0128 47.774 16.9689 48.2651H16.9738Z" fill="#41B4B4"/>
<path d="M19.4286 52.6562C20.6046 56.1669 21.1023 59.9888 20.0336 63.5919C20.263 63.5481 20.4972 63.5092 20.7266 63.4655C17.0521 56.6726 9.347 54.2949 2.78375 51.1975C2.73495 51.4357 2.68127 51.674 2.63248 51.9123C10.2254 50.8085 16.6081 46.5344 22.6541 42.0901L22.0685 41.7935C22.0002 45.6543 21.722 49.9235 20.2093 53.5266C20.019 53.9788 20.6973 54.3338 20.8876 53.8767C22.454 50.1375 22.7565 45.7612 22.8297 41.7497C22.8297 41.4726 22.4638 41.2878 22.2393 41.4531C16.3153 45.8099 10.035 50.0743 2.58856 51.1537C2.2421 51.2023 2.06643 51.6983 2.43729 51.8685C8.86879 54.9075 16.4861 57.2123 20.0922 63.8788C20.263 64.1997 20.6973 64.0392 20.7851 63.7524C21.8928 60.0277 21.3756 56.0502 20.1605 52.418C20.0044 51.956 19.2822 52.1894 19.4383 52.6562H19.4286Z" fill="#41B4B4"/>
<path d="M14.6556 54.1434C16.2025 55.1547 17.8616 55.8209 19.6671 56.2293C19.5695 56.0786 19.4719 55.9279 19.3743 55.7771L19.306 56.0981C19.4231 56.0008 19.5402 55.8987 19.6573 55.8015C18.1446 56.03 16.3781 56.1272 15.0704 55.1936C14.9923 55.4125 14.9142 55.6313 14.8361 55.8501C16.9637 55.7237 18.3837 57.4644 19.4524 59.0739C19.6671 58.9377 19.8818 58.7967 20.0916 58.6606C19.6573 58.1257 19.0474 57.7221 18.3935 57.5179C18.3398 57.7659 18.2861 58.0139 18.2324 58.2619C20.0233 58.6995 21.5312 59.8373 22.1997 61.5829C22.3461 61.4225 22.4925 61.2571 22.6437 61.0918C20.8138 60.6396 19.4621 59.4288 18.1153 58.1743C18.0031 58.3931 17.8909 58.612 17.7786 58.8259C19.1352 59.1177 20.2234 59.4823 21.3848 60.2506C21.4726 60.0172 21.5556 59.7789 21.6434 59.5407C19.7988 59.1274 18.2861 58.3931 17.0467 56.9441L16.8124 57.6054C18.6423 57.7367 19.7159 58.7335 20.5406 60.2992C20.6723 60.1047 20.809 59.9151 20.9407 59.7206C17.2663 58.5293 14.0115 55.996 11.5228 53.0931C11.3764 53.2973 11.2349 53.5064 11.0885 53.7106C12.9623 54.4497 14.8361 55.1693 16.8027 55.6118C17.2126 55.7042 17.4663 55.0575 17.0613 54.9019C15.3192 54.2406 13.4893 53.8176 11.7619 53.1028C11.7082 53.341 11.6594 53.5793 11.6058 53.8176C14.2847 53.4626 16.9442 54.0023 18.8668 55.996C18.9449 55.7771 19.023 55.5583 19.101 55.3395C15.1924 55.8112 11.3374 54.3768 7.78491 52.918C7.70196 53.1563 7.61412 53.3897 7.52629 53.6279C9.81977 53.8078 12.084 54.2503 14.3823 54.4302C14.8557 54.4643 15.0411 53.7933 14.5434 53.6863C14.2262 53.6182 13.9041 53.5501 13.5869 53.4821C13.099 53.3799 12.9623 54.085 13.4259 54.226C17.0076 55.3249 22.268 57.479 22.4437 61.8698C22.6584 61.7677 22.8682 61.6656 23.0829 61.5635C20.8333 59.4337 20.1697 55.4757 19.8769 52.5631C19.6085 49.8936 19.4865 45.0311 22.5559 43.7863L22.0972 43.2466C21.1017 45.6389 18.3349 46.8205 16.6221 48.6536C16.4269 48.8627 16.5441 49.2225 16.8271 49.2809C17.2565 49.3733 17.6762 49.4657 18.1056 49.5532C18.5887 49.6553 18.7497 48.9113 18.2666 48.8092C17.8372 48.7168 17.4175 48.6245 16.9881 48.5369C17.0564 48.746 17.1247 48.9551 17.1882 49.1642C18.9449 47.2873 21.7459 46.0717 22.7755 43.5967C22.8926 43.3147 22.6584 42.9208 22.3168 43.0618C19.0571 44.3795 18.8863 48.8968 19.0522 51.8483C19.1694 53.9391 19.5841 56.0251 20.2478 58.009C20.7406 59.4775 21.4189 61.0383 22.5608 62.1227C22.8096 62.3561 23.2147 62.147 23.2 61.8163C23.0048 57.0317 17.5054 54.6782 13.5772 53.4723C13.5235 53.7203 13.4698 53.9683 13.4161 54.2163C13.7382 54.2844 14.0554 54.3524 14.3726 54.4205C14.4262 54.1725 14.4799 53.9245 14.5336 53.6766C12.2401 53.4966 9.97592 53.0542 7.67756 52.8791C7.29206 52.8499 6.98464 53.4091 7.41893 53.589C11.1031 55.0915 15.085 56.5794 19.1352 56.0932C19.4719 56.0543 19.6037 55.675 19.3694 55.4319C17.3199 53.3021 14.4165 52.6749 11.5472 53.0542C11.2105 53.0979 11.0153 53.6133 11.3959 53.7689C13.1234 54.4837 14.9533 54.9019 16.6953 55.5681C16.7832 55.3298 16.8661 55.0964 16.954 54.8581C15.0509 54.4302 13.2405 53.7398 11.4301 53.025C11.0153 52.8645 10.7128 53.3119 10.9958 53.6474C13.5772 56.6572 16.9637 59.2198 20.7699 60.4548C21.1213 60.5667 21.3067 60.1339 21.1701 59.8762C20.2087 58.0333 18.8668 56.983 16.7588 56.8323C16.383 56.808 16.344 57.2845 16.5245 57.4936C17.8469 59.0399 19.5158 59.8324 21.4775 60.2749C21.9264 60.3722 22.0728 59.7935 21.7361 59.565C20.5113 58.753 19.3694 58.3786 17.9397 58.0722C17.5639 57.9896 17.3248 58.4661 17.603 58.7238C19.0522 60.0756 20.5162 61.3349 22.4876 61.8212C22.7608 61.8893 23.0341 61.5975 22.9316 61.3301C22.1655 59.3316 20.4625 58.0041 18.3984 57.4985C17.9153 57.3818 17.7786 58.0965 18.2373 58.2424C18.6863 58.3834 19.1694 58.6946 19.4621 59.0544C19.7647 59.4288 20.3844 59.0593 20.1014 58.6411C18.8717 56.7934 17.2223 54.9262 14.802 55.0769C14.4994 55.0964 14.2847 55.534 14.5678 55.7382C16.061 56.808 17.9592 56.8128 19.7159 56.5454C19.8867 56.5211 20.0282 56.4238 20.0672 56.2439C20.0916 56.1418 20.1111 56.0348 20.1355 55.9279C20.1795 55.7237 20.0477 55.5194 19.8428 55.4757C18.1056 55.0818 16.5197 54.4351 15.0265 53.4577C14.6166 53.1903 14.2652 53.8662 14.6751 54.1336L14.6556 54.1434Z" fill="#41B4B4"/>
</svg>
