<svg width="53" height="39" viewBox="0 0 53 39" fill="none" xmlns="http://www.w3.org/2000/svg">
<path d="M51.0433 38.0901C51.7787 37.1095 51.9888 34.686 51.2211 31.7814C52.1908 29.5798 51.6332 27.9518 52.3363 25.7872C52.3363 22.9752 50.8655 21.3656 51.609 19.0531C52.0938 12.8739 51.3665 8.95179 51.5524 6.30622C51.8352 2.45812 51.2938 0.49707 51.6171 0.49707C48.7079 0.49707 0.932811 0.49707 1.83789 0.49707C2.16921 0.49707 2.08032 4.99269 1.34494 6.28772C1.48232 9.3773 1.37727 12.0414 2.11264 12.2819C1.749 13.3919 1.48232 14.2429 1.48232 14.2429C1.48232 14.2429 1.54697 17.869 1.84597 19.0346C1.34494 20.1816 0.674218 21.1436 0.544921 22.2721C0.415625 23.4192 1.25605 25.0657 0.860082 26.1572C0.860082 28.0998 1.07019 30.5419 1.34494 31.7629C1.79748 35.241 2.63791 37.5535 1.85405 37.5535C1.59546 37.5535 50.1463 39.2741 51.0433 38.0901Z" fill="#E96024"/>
</svg>
