<svg width="273" height="56" viewBox="0 0 273 56" fill="none" xmlns="http://www.w3.org/2000/svg">
<path d="M266.034 55.4002C269.905 53.9552 271.011 50.3836 266.97 46.1032C272.074 42.8588 269.139 40.4596 272.84 37.2697C272.84 33.1256 265.099 30.7536 269.012 27.3457C271.564 18.2395 267.736 12.4596 268.714 8.56086C270.203 2.88997 267.353 0 269.054 0C253.742 0 2.27768 0 7.04155 0C8.78546 0 8.31758 6.62512 4.44694 8.53359C5.17003 13.0867 4.61708 17.0127 8.48772 17.3671C6.57367 19.0029 5.17003 20.2571 5.17003 20.2571C5.17003 20.2571 5.5103 25.6008 7.08408 27.3184C4.44694 29.0088 0.916575 30.4265 0.236022 32.0896C-0.44453 33.7799 3.97906 36.2064 1.89487 37.815C1.89487 40.6777 3.00077 44.2765 4.44694 46.076C6.82887 51.2016 11.2525 54.6095 7.12662 54.6095C5.76551 54.6095 261.313 57.1451 266.034 55.4002Z" fill="#E96024"/>
</svg>
