<svg width="227" height="68" viewBox="0 0 227 68" fill="none" xmlns="http://www.w3.org/2000/svg">
<g clip-path="url(#clip0_570_24034)">
<path d="M219.227 43.4892C222.281 42.3112 222.983 40.0351 219.48 37.7102C223.435 35.3346 220.93 34.0819 223.752 31.8452C223.527 29.3006 217.134 28.4256 220.116 26.039C221.687 20.2558 218.276 16.9942 218.856 14.5268C219.753 10.9328 217.29 9.37233 218.667 9.24452C206.275 10.3948 2.76524 29.2846 6.62063 28.9267C8.03198 28.7957 8.01256 32.899 4.98354 34.3616C5.81562 37.103 5.581 39.5553 8.73273 39.4822C7.27238 40.6304 6.20442 41.5059 6.20442 41.5059C6.20442 41.5059 6.76956 44.7616 8.13636 45.6981C6.09378 46.9341 3.31353 48.0699 2.85294 49.1422C2.39382 50.2313 6.10541 51.3889 4.50589 52.5332C4.66112 54.291 5.75126 56.4178 7.01922 57.4141C9.22485 60.3824 12.9897 62.1428 9.6506 62.4527C8.54906 62.555 215.501 44.9153 219.227 43.4892Z" fill="#104751"/>
</g>
<path d="M25.5087 47.1129C24.7654 47.1836 24.0612 47.124 23.3963 46.934C22.7406 46.7432 22.1593 46.4469 21.6523 46.0451C21.1445 45.634 20.7318 45.1388 20.4142 44.5596C20.0966 43.9804 19.9038 43.333 19.8358 42.6176C19.7678 41.9022 19.8352 41.2301 20.0379 40.6014C20.2407 39.9727 20.5531 39.4133 20.9753 38.9232C21.3966 38.4237 21.9112 38.0186 22.5192 37.7076C23.1272 37.3967 23.8075 37.2055 24.5601 37.1339C25.3034 37.0633 25.9982 37.1238 26.6446 37.3155C27.2994 37.497 27.8807 37.7933 28.3886 38.2044C28.9048 38.6054 29.3171 39.0959 29.6254 39.676C29.9429 40.2552 30.1362 40.9072 30.2051 41.6319C30.274 42.3566 30.207 43.0333 30.0043 43.662C29.8108 44.2898 29.4988 44.8539 29.0682 45.3542C28.646 45.8443 28.131 46.2449 27.523 46.5558C26.9234 46.8566 26.252 47.0423 25.5087 47.1129ZM25.3908 45.8725C25.9297 45.8213 26.4179 45.6811 26.8555 45.452C27.3025 45.222 27.6773 44.9239 27.9799 44.5576C28.2911 44.1811 28.5179 43.7564 28.6604 43.2835C28.8123 42.8097 28.8626 42.3033 28.8114 41.7644C28.7601 41.2255 28.6153 40.7377 28.3769 40.3009C28.1478 39.8633 27.8455 39.4936 27.4699 39.1918C27.1027 38.8798 26.678 38.653 26.1958 38.5113C25.7228 38.3688 25.2169 38.3231 24.678 38.3743C24.1298 38.4264 23.6322 38.5675 23.1853 38.7975C22.7477 39.0266 22.3734 39.3294 22.0623 39.7058C21.7503 40.073 21.5184 40.4935 21.3665 40.9673C21.224 41.4403 21.1783 41.9462 21.2295 42.4851C21.2808 43.024 21.4209 43.5123 21.65 43.9499C21.8884 44.3866 22.1959 44.7605 22.5723 45.0716C22.9479 45.3735 23.3722 45.5956 23.8451 45.7382C24.3274 45.8799 24.8426 45.9246 25.3908 45.8725ZM35.7198 46.1141C35.088 46.1742 34.5195 46.1111 34.0142 45.9247C33.5183 45.7375 33.113 45.4197 32.7986 44.9715C32.4925 44.513 32.305 43.9215 32.2361 43.1967L31.832 38.9459L33.17 38.8187L33.5595 42.9162C33.6284 43.641 33.8519 44.1682 34.2302 44.4979C34.6177 44.8267 35.1273 44.961 35.7592 44.901C36.2237 44.8568 36.6191 44.7255 36.9452 44.507C37.2704 44.2792 37.5087 43.9753 37.6601 43.5952C37.8106 43.2059 37.8612 42.7511 37.8117 42.2308L37.4487 38.412L38.7867 38.2848L39.4888 45.6715L38.2205 45.7921L38.0311 43.799L38.2905 44.3088C38.0957 44.8242 37.7696 45.2396 37.312 45.555C36.8545 45.8703 36.3237 46.0567 35.7198 46.1141ZM42.0359 45.4294L41.3338 38.0427L42.616 37.9208L42.8068 39.9277L42.6336 39.4379C42.7895 38.9075 43.0962 38.4845 43.5537 38.1692C44.0113 37.8538 44.5931 37.6625 45.2992 37.5954L45.4225 38.8916C45.3658 38.8876 45.3096 38.8882 45.2539 38.8935C45.2074 38.8979 45.161 38.9023 45.1145 38.9068C44.3991 38.9748 43.8526 39.2424 43.4751 39.7095C43.0976 40.1767 42.9473 40.8144 43.0242 41.6228L43.3739 45.3022L42.0359 45.4294ZM54.0398 44.3727C53.2965 44.4433 52.7014 44.2983 52.2546 43.9377C51.8078 43.577 51.5491 43.025 51.4784 42.2817L50.8345 35.5082L52.1725 35.381L52.8111 42.0987C52.8491 42.4983 52.9758 42.7956 53.1912 42.9908C53.4159 43.185 53.7141 43.2645 54.0858 43.2292C54.5039 43.1894 54.8413 43.0402 55.0979 42.7814L55.6075 43.7033C55.4198 43.8993 55.186 44.0528 54.9059 44.1638C54.6351 44.2739 54.3464 44.3435 54.0398 44.3727ZM49.8385 38.3452L49.7339 37.2442L54.4446 36.7964L54.5493 37.8974L49.8385 38.3452ZM60.1928 43.7878C59.4495 43.8584 58.7744 43.7585 58.1674 43.4881C57.5604 43.2177 57.0627 42.815 56.6743 42.28C56.2851 41.7357 56.056 41.1012 55.9871 40.3765C55.9173 39.6424 56.0228 38.9761 56.3034 38.3776C56.584 37.779 56.9973 37.2944 57.5434 36.9237C58.0885 36.5437 58.7328 36.3184 59.4761 36.2478C60.2101 36.178 60.8806 36.2783 61.4876 36.5488C62.103 36.809 62.6002 37.2071 62.9793 37.743C63.3668 38.2686 63.5958 38.9031 63.6665 39.6465C63.7363 40.3805 63.6309 41.0468 63.3502 41.6454C63.0789 42.2431 62.666 42.7323 62.1116 43.1132C61.5664 43.4931 60.9268 43.718 60.1928 43.7878ZM60.0815 42.6171C60.5554 42.572 60.968 42.425 61.3193 42.1759C61.68 41.926 61.9486 41.5958 62.1252 41.1852C62.3009 40.7654 62.3641 40.2953 62.3146 39.775C62.2643 39.2454 62.1141 38.8002 61.8642 38.4396C61.6134 38.0697 61.2874 37.796 60.8861 37.6185C60.4941 37.4401 60.0612 37.3734 59.5874 37.4185C59.1135 37.4635 58.7009 37.6106 58.3496 37.8596C57.9982 38.1086 57.7296 38.4389 57.5437 38.8503C57.3569 39.2525 57.2887 39.7183 57.339 40.2479C57.3885 40.7683 57.5437 41.2176 57.8047 41.5959C58.0648 41.965 58.3908 42.2387 58.7828 42.4171C59.1747 42.5954 59.6077 42.6621 60.0815 42.6171ZM69.7923 42.8753C69.179 42.9336 68.6036 42.8476 68.0661 42.6175C67.537 42.3771 67.0926 41.9928 66.733 41.4644C66.3827 40.9352 66.1678 40.2525 66.0883 39.4163C66.0088 38.58 66.0866 37.8695 66.3216 37.2846C66.566 36.6989 66.9258 36.2428 67.401 35.9163C67.8855 35.589 68.4437 35.3953 69.0755 35.3353C69.8003 35.2664 70.4564 35.3634 71.0439 35.6263C71.6314 35.8892 72.1147 36.2886 72.4938 36.8245C72.872 37.351 73.0969 37.9906 73.1684 38.7432C73.2399 39.4958 73.14 40.171 72.8687 40.7687C72.5974 41.3664 72.198 41.8497 71.6705 42.2186C71.1431 42.5875 70.517 42.8064 69.7923 42.8753ZM66.125 45.8677L65.1658 35.7772L66.448 35.6553L66.6375 37.6483L66.7168 39.3706L67.0191 41.0716L67.463 45.7405L66.125 45.8677ZM69.5695 41.7151C70.0433 41.6701 70.4559 41.5231 70.8073 41.274C71.1679 41.0241 71.4365 40.6939 71.6132 40.2833C71.7982 39.8626 71.8659 39.3921 71.8165 38.8717C71.7661 38.3421 71.6114 37.8974 71.3522 37.5377C71.1014 37.1678 70.7753 36.8941 70.3741 36.7166C69.9821 36.5382 69.5492 36.4715 69.0753 36.5166C68.6107 36.5607 68.1981 36.7078 67.8375 36.9577C67.4862 37.2067 67.2175 37.537 67.0316 37.9484C66.8541 38.3497 66.7906 38.8151 66.8409 39.3447C66.8904 39.865 67.0409 40.3148 67.2926 40.694C67.5527 41.0631 67.8788 41.3368 68.2707 41.5151C68.672 41.6926 69.1049 41.7593 69.5695 41.7151ZM79.111 41.9051L78.4088 34.5184L79.6911 34.3965L79.8818 36.4034L79.7087 35.9136C79.8645 35.3831 80.1712 34.9602 80.6288 34.6448C81.0863 34.3295 81.6682 34.1382 82.3743 34.0711L82.4975 35.3672C82.4409 35.3632 82.3847 35.3639 82.3289 35.3692C82.2825 35.3736 82.236 35.378 82.1896 35.3825C81.4741 35.4505 80.9277 35.718 80.5502 36.1852C80.1727 36.6523 80.0224 37.2901 80.0992 38.0985L80.449 41.7779L79.111 41.9051ZM87.9612 41.1481C87.1714 41.2232 86.4591 41.1269 85.8243 40.8591C85.1987 40.5904 84.6917 40.1886 84.3034 39.6536C83.9243 39.1177 83.6999 38.4828 83.6301 37.7488C83.5603 37.0147 83.6564 36.3493 83.9185 35.7525C84.1898 35.1548 84.5892 34.6715 85.1166 34.3026C85.6525 33.9235 86.2735 33.7004 86.9797 33.6333C87.6951 33.5653 88.3419 33.6632 88.9202 33.927C89.4984 34.1908 89.9682 34.5961 90.3296 35.1431C90.6994 35.6798 90.9205 36.3291 90.9929 37.091C90.9982 37.1468 90.9997 37.2123 90.9975 37.2875C91.0046 37.3618 91.0065 37.4319 91.0034 37.4979L84.7178 38.0954L84.6264 37.1337L90.2152 36.6024L89.7034 36.9886C89.6677 36.5139 89.5299 36.1004 89.2902 35.7481C89.0504 35.3959 88.7397 35.1348 88.3579 34.9649C87.9845 34.7847 87.5608 34.7172 87.087 34.7622C86.6224 34.8064 86.2191 34.9525 85.877 35.2007C85.5341 35.4395 85.2785 35.7592 85.1103 36.1595C84.9413 36.5506 84.8797 36.9878 84.9256 37.4709L84.9468 37.6939C84.9936 38.1863 85.1471 38.6171 85.4072 38.9861C85.6757 39.345 86.0245 39.6119 86.4536 39.7867C86.8828 39.9615 87.3621 40.0238 87.8917 39.9734C88.3284 39.9319 88.7163 39.8201 89.0552 39.6378C89.4034 39.4547 89.6982 39.2017 89.9393 38.8788L90.7602 39.6727C90.4628 40.0947 90.0729 40.4318 89.5906 40.6839C89.1176 40.9351 88.5745 41.0898 87.9612 41.1481ZM96.4253 40.3436C95.6727 40.4151 94.9836 40.3165 94.3581 40.0479C93.7418 39.7783 93.2395 39.376 92.8511 38.841C92.4627 38.3061 92.2337 37.6716 92.1639 36.9375C92.0941 36.2035 92.1995 35.5372 92.4801 34.9386C92.7608 34.3401 93.1787 33.855 93.7341 33.4834C94.2978 33.1017 94.956 32.8751 95.7086 32.8035C96.3776 32.74 96.985 32.8182 97.531 33.0381C98.0853 33.248 98.5312 33.5993 98.8687 34.0923L97.9136 34.844C97.6376 34.5046 97.3151 34.2681 96.9461 34.1344C96.5855 33.9906 96.2055 33.9376 95.8059 33.9756C95.3228 34.0215 94.9009 34.1694 94.5403 34.4194C94.1796 34.6693 93.9063 35 93.7205 35.4114C93.5337 35.8135 93.4654 36.2794 93.5158 36.809C93.5661 37.3386 93.7214 37.788 93.9814 38.157C94.2415 38.5261 94.5722 38.7993 94.9735 38.9768C95.3747 39.1543 95.817 39.2201 96.3001 39.1742C96.6996 39.1362 97.0633 39.0172 97.3912 38.8173C97.7275 38.6072 97.9992 38.3095 98.2064 37.9242L99.2847 38.4685C99.0453 39.007 98.674 39.4407 98.1709 39.7698C97.6762 40.0887 97.0943 40.28 96.4253 40.3436ZM104.223 39.6023C103.48 39.673 102.804 39.5731 102.197 39.3027C101.59 39.0322 101.093 38.6295 100.704 38.0945C100.315 37.5503 100.086 36.9157 100.017 36.191C99.9474 35.457 100.053 34.7907 100.333 34.1921C100.614 33.5935 101.027 33.1089 101.573 32.7383C102.119 32.3583 102.763 32.133 103.506 32.0623C104.24 31.9925 104.911 32.0929 105.518 32.3633C106.133 32.6236 106.63 33.0216 107.009 33.5575C107.397 34.0832 107.626 34.7177 107.697 35.461C107.766 36.195 107.661 36.8613 107.38 37.4599C107.109 38.0576 106.696 38.5469 106.142 38.9277C105.596 39.3077 104.957 39.5326 104.223 39.6023ZM104.112 38.4316C104.585 38.3866 104.998 38.2395 105.349 37.9905C105.71 37.7406 105.979 37.4103 106.155 36.9998C106.331 36.5799 106.394 36.1099 106.345 35.5895C106.294 35.0599 106.144 34.6148 105.894 34.2542C105.643 33.8842 105.317 33.6105 104.916 33.433C104.524 33.2547 104.091 33.188 103.617 33.233C103.144 33.2781 102.731 33.4251 102.38 33.6742C102.028 33.9232 101.76 34.2534 101.574 34.6649C101.387 35.067 101.319 35.5329 101.369 36.0625C101.419 36.5828 101.574 37.0322 101.835 37.4105C102.095 37.7795 102.421 38.0532 102.813 38.2316C103.205 38.41 103.638 38.4767 104.112 38.4316ZM118.43 30.6437C119.024 30.5872 119.56 30.6534 120.038 30.8424C120.515 31.0314 120.902 31.351 121.197 31.801C121.503 32.2501 121.69 32.837 121.759 33.5618L122.163 37.8126L120.825 37.9398L120.435 33.8423C120.367 33.1268 120.149 32.6038 119.78 32.2733C119.411 31.9427 118.924 31.8061 118.32 31.8635C117.875 31.9059 117.493 32.0359 117.176 32.2535C116.859 32.4712 116.625 32.77 116.474 33.15C116.332 33.5292 116.286 33.9882 116.338 34.5271L116.699 38.332L115.361 38.4591L114.972 34.3616C114.904 33.6462 114.685 33.1232 114.316 32.7926C113.957 32.4611 113.47 32.3246 112.857 32.3829C112.42 32.4244 112.044 32.5539 111.727 32.7716C111.41 32.9892 111.176 33.288 111.025 33.668C110.873 34.0481 110.823 34.5075 110.874 35.0464L111.236 38.8513L109.898 38.9785L109.196 31.5918L110.478 31.4699L110.665 33.435L110.408 32.9532C110.594 32.4479 110.916 32.0376 111.374 31.7222C111.831 31.4069 112.381 31.2187 113.022 31.1578C113.728 31.0906 114.353 31.2093 114.898 31.5138C115.442 31.809 115.826 32.3022 116.051 32.9933L115.486 32.822C115.656 32.234 116.003 31.7416 116.527 31.3449C117.052 30.9481 117.686 30.7144 118.43 30.6437ZM133.156 29.2438C133.751 29.1873 134.287 29.2535 134.764 29.4425C135.242 29.6316 135.628 29.9511 135.924 30.4011C136.229 30.8502 136.416 31.4371 136.485 32.1619L136.889 36.4127L135.551 36.5399L135.162 32.4424C135.094 31.7269 134.875 31.2039 134.506 30.8734C134.137 30.5428 133.651 30.4062 133.047 30.4636C132.601 30.506 132.22 30.636 131.903 30.8537C131.586 31.0713 131.352 31.3701 131.201 31.7501C131.058 32.1293 131.013 32.5883 131.064 33.1272L131.426 36.9321L130.088 37.0592L129.698 32.9617C129.63 32.2463 129.412 31.7233 129.043 31.3927C128.683 31.0612 128.197 30.9247 127.584 30.983C127.147 31.0245 126.77 31.154 126.453 31.3717C126.137 31.5893 125.902 31.8881 125.751 32.2682C125.6 32.6482 125.55 33.1077 125.601 33.6466L125.963 37.4514L124.625 37.5786L123.922 30.1919L125.205 30.07L125.391 32.0351L125.135 31.5533C125.321 31.048 125.643 30.6377 126.101 30.3224C126.558 30.007 127.107 29.8188 127.749 29.7579C128.455 29.6907 129.08 29.8094 129.625 30.1139C130.168 30.4091 130.553 30.9023 130.778 31.5934L130.213 31.4221C130.382 30.8341 130.729 30.3418 131.254 29.945C131.779 29.5482 132.413 29.3145 133.156 29.2438ZM142.648 35.9497C141.859 36.0247 141.146 35.9284 140.511 35.6606C139.886 35.3919 139.379 34.9901 138.99 34.4551C138.611 33.9192 138.387 33.2843 138.317 32.5503C138.247 31.8162 138.344 31.1508 138.606 30.554C138.877 29.9563 139.276 29.473 139.804 29.1041C140.34 28.725 140.961 28.5019 141.667 28.4348C142.382 28.3668 143.029 28.4647 143.607 28.7285C144.185 28.9923 144.655 29.3977 145.017 29.9446C145.386 30.4813 145.608 31.1307 145.68 31.8926C145.685 31.9483 145.687 32.0138 145.685 32.089C145.692 32.1633 145.694 32.2335 145.691 32.2994L139.405 32.8969L139.313 31.9352L144.902 31.404L144.39 31.7901C144.355 31.3154 144.217 30.9019 143.977 30.5497C143.738 30.1974 143.427 29.9363 143.045 29.7664C142.672 29.5862 142.248 29.5187 141.774 29.5637C141.309 29.6079 140.906 29.754 140.564 30.0022C140.221 30.2411 139.966 30.5607 139.797 30.9611C139.628 31.3521 139.567 31.7893 139.613 32.2724L139.634 32.4954C139.681 32.9879 139.834 33.4186 140.094 33.7876C140.363 34.1465 140.712 34.4134 141.141 34.5882C141.57 34.7631 142.049 34.8253 142.579 34.775C143.016 34.7334 143.403 34.6216 143.742 34.4394C144.091 34.2562 144.385 34.0032 144.626 33.6803L145.447 34.4742C145.15 34.8962 144.76 35.2333 144.278 35.4854C143.805 35.7366 143.262 35.8914 142.648 35.9497ZM151.12 27.5362C151.724 27.4788 152.265 27.5446 152.742 27.7336C153.229 27.9217 153.625 28.2403 153.93 28.6894C154.235 29.1386 154.422 29.7255 154.491 30.4502L154.895 34.7011L153.557 34.8283L153.168 30.7307C153.1 30.0153 152.872 29.4932 152.485 29.1644C152.106 28.8347 151.601 28.6999 150.97 28.7599C150.496 28.805 150.091 28.9372 149.756 29.1566C149.42 29.376 149.172 29.6761 149.011 30.057C148.86 30.4371 148.81 30.8965 148.861 31.4355L149.223 35.2403L147.885 35.3675L147.183 27.9808L148.465 27.8589L148.654 29.8519L148.395 29.3422C148.591 28.8361 148.927 28.4244 149.403 28.1073C149.879 27.7901 150.451 27.5998 151.12 27.5362ZM160.432 34.2592C159.716 34.3272 159.06 34.2302 158.463 33.9682C157.876 33.7052 157.393 33.3058 157.013 32.77C156.634 32.2341 156.409 31.5899 156.337 30.8373C156.266 30.0847 156.366 29.4142 156.638 28.8258C156.91 28.2281 157.309 27.7448 157.837 27.3759C158.373 27.0061 159 26.7872 159.715 26.7192C160.337 26.66 160.913 26.7459 161.441 26.977C161.969 27.208 162.409 27.5882 162.759 28.1174C163.119 28.6457 163.338 29.328 163.418 30.1642C163.497 31.0005 163.415 31.7115 163.17 32.2972C162.935 32.8821 162.581 33.3424 162.106 33.6781C161.631 34.0046 161.073 34.1982 160.432 34.2592ZM160.432 33.0779C160.896 33.0337 161.304 32.8871 161.656 32.6381C162.016 32.3882 162.285 32.0579 162.462 31.6474C162.647 31.2266 162.714 30.7561 162.665 30.2358C162.615 29.7062 162.46 29.2615 162.201 28.9017C161.95 28.5318 161.624 28.2581 161.223 28.0806C160.831 27.9022 160.402 27.8351 159.938 27.8793C159.464 27.9243 159.051 28.0714 158.7 28.3204C158.349 28.5694 158.08 28.8997 157.894 29.3111C157.707 29.7133 157.639 30.1792 157.689 30.7088C157.739 31.2291 157.894 31.6784 158.155 32.0567C158.415 32.4258 158.741 32.6995 159.133 32.8779C159.525 33.0562 159.958 33.1229 160.432 33.0779ZM163.058 33.9252L162.868 31.9322L162.789 30.2099L162.487 28.5089L162.019 23.5891L163.357 23.4619L164.34 33.8033L163.058 33.9252ZM171.457 33.1268L171.309 31.5658L171.211 31.2797L170.958 28.6177C170.904 28.051 170.695 27.6302 170.332 27.3553C169.977 27.0703 169.469 26.9592 168.809 27.0219C168.373 27.0634 167.952 27.1784 167.548 27.3668C167.143 27.5459 166.809 27.7699 166.543 28.0389L165.891 27.0884C166.242 26.7456 166.676 26.47 167.19 26.2617C167.713 26.0433 168.267 25.9062 168.853 25.8506C169.865 25.7543 170.669 25.9263 171.264 26.3666C171.859 26.807 172.205 27.5335 172.301 28.5463L172.725 33.0062L171.457 33.1268ZM169.04 33.4409C168.492 33.493 168 33.446 167.564 33.2999C167.137 33.153 166.797 32.9275 166.543 32.6235C166.289 32.3102 166.141 31.9445 166.101 31.5264C166.064 31.1268 166.122 30.7556 166.277 30.4128C166.441 30.069 166.728 29.7793 167.136 29.5435C167.555 29.3069 168.131 29.1537 168.865 29.0839L171.206 28.8613L171.298 29.823L169.012 30.0403C168.343 30.1039 167.903 30.2582 167.692 30.5033C167.481 30.7484 167.39 31.0289 167.42 31.3448C167.455 31.7071 167.627 31.9861 167.936 32.1817C168.244 32.3681 168.654 32.4369 169.165 32.3884C169.667 32.3407 170.093 32.1877 170.443 31.9293C170.803 31.6701 171.046 31.3189 171.173 30.8756L171.525 31.7702C171.39 32.2237 171.112 32.6017 170.69 32.9043C170.268 33.1976 169.718 33.3764 169.04 33.4409ZM177.746 32.6133C177.002 32.684 176.407 32.539 175.961 32.1783C175.514 31.8176 175.255 31.2656 175.184 30.5223L174.541 23.7489L175.879 23.6217L176.517 30.3394C176.555 30.7389 176.682 31.0363 176.897 31.2314C177.122 31.4257 177.42 31.5052 177.792 31.4698C178.21 31.4301 178.547 31.2808 178.804 31.0221L179.313 31.944C179.126 32.1399 178.892 32.2934 178.612 32.4044C178.341 32.5145 178.052 32.5842 177.746 32.6133ZM173.545 26.5859L173.44 25.4848L178.151 25.037L178.255 26.1381L173.545 26.5859ZM180.972 32.2223L180.27 24.8356L181.608 24.7084L182.31 32.0951L180.972 32.2223ZM180.804 23.3504C180.544 23.3751 180.317 23.3122 180.125 23.1618C179.942 23.0104 179.839 22.814 179.816 22.5724C179.792 22.3215 179.856 22.1045 180.007 21.9214C180.168 21.7373 180.378 21.633 180.638 21.6082C180.898 21.5835 181.12 21.6468 181.303 21.7982C181.495 21.9393 181.602 22.1307 181.625 22.3723C181.649 22.6231 181.585 22.8448 181.435 23.0372C181.284 23.2204 181.073 23.3248 180.804 23.3504ZM188.036 31.6351C187.293 31.7058 186.618 31.6059 186.011 31.3354C185.404 31.065 184.906 30.6623 184.518 30.1273C184.129 29.583 183.9 28.9485 183.831 28.2238C183.761 27.4898 183.866 26.8235 184.147 26.2249C184.428 25.6263 184.841 25.1417 185.387 24.771C185.932 24.3911 186.576 24.1658 187.32 24.0951C188.054 24.0253 188.724 24.1257 189.331 24.3961C189.947 24.6564 190.444 25.0544 190.823 25.5903C191.21 26.116 191.439 26.7505 191.51 27.4938C191.58 28.2278 191.474 28.8941 191.194 29.4927C190.923 30.0904 190.51 30.5797 189.955 30.9605C189.41 31.3405 188.77 31.5653 188.036 31.6351ZM187.925 30.4644C188.399 30.4193 188.812 30.2723 189.163 30.0233C189.524 29.7734 189.792 29.4431 189.969 29.0326C190.145 28.6127 190.208 28.1426 190.158 27.6223C190.108 27.0927 189.958 26.6476 189.708 26.2869C189.457 25.917 189.131 25.6433 188.73 25.4658C188.338 25.2874 187.905 25.2208 187.431 25.2658C186.957 25.3109 186.545 25.4579 186.193 25.7069C185.842 25.956 185.573 26.2862 185.387 26.6976C185.201 27.0998 185.132 27.5657 185.183 28.0953C185.232 28.6156 185.387 29.0649 185.648 29.4433C185.908 29.8123 186.234 30.086 186.626 30.2644C187.018 30.4428 187.451 30.5094 187.925 30.4644ZM196.947 23.1799C197.551 23.1225 198.092 23.1883 198.569 23.3773C199.056 23.5655 199.452 23.8841 199.757 24.3332C200.062 24.7824 200.249 25.3693 200.318 26.094L200.722 30.3449L199.384 30.472L198.995 26.3745C198.927 25.6591 198.699 25.137 198.311 24.8082C197.933 24.4785 197.428 24.3437 196.796 24.4037C196.322 24.4488 195.918 24.581 195.582 24.8004C195.247 25.0198 194.999 25.3199 194.838 25.7008C194.687 26.0809 194.637 26.5403 194.688 27.0792L195.05 30.8841L193.712 31.0113L193.009 23.6246L194.292 23.5027L194.481 25.4957L194.222 24.9859C194.417 24.4798 194.753 24.0682 195.229 23.7511C195.705 23.4339 196.278 23.2435 196.947 23.1799ZM205.325 29.9917C204.711 30.05 204.118 30.022 203.545 29.9078C202.98 29.7927 202.529 29.6293 202.19 29.4178L202.647 28.3055C202.983 28.4892 203.391 28.6333 203.869 28.7378C204.348 28.8423 204.829 28.8716 205.312 28.8257C205.935 28.7665 206.372 28.6358 206.625 28.4337C206.887 28.2306 207.003 27.9712 206.973 27.6553C206.951 27.423 206.85 27.2497 206.67 27.1356C206.491 27.0214 206.258 26.945 205.973 26.9065C205.698 26.867 205.391 26.84 205.052 26.8253C204.712 26.8014 204.371 26.7681 204.03 26.7256C203.687 26.6738 203.37 26.5914 203.078 26.4786C202.785 26.3564 202.543 26.1778 202.352 25.9429C202.16 25.6986 202.044 25.3628 202.003 24.9353C201.961 24.4894 202.049 24.0872 202.268 23.7289C202.487 23.3705 202.816 23.0814 203.254 22.8616C203.701 22.6316 204.241 22.4866 204.873 22.4265C205.356 22.3806 205.849 22.3946 206.353 22.4686C206.866 22.5324 207.29 22.6562 207.626 22.8398L207.155 23.9534C206.8 23.7622 206.437 23.642 206.066 23.5928C205.696 23.5436 205.33 23.5363 204.967 23.5707C204.382 23.6264 203.954 23.7654 203.685 23.9879C203.415 24.2011 203.294 24.4564 203.322 24.7537C203.346 25.0046 203.448 25.1918 203.628 25.3153C203.817 25.4286 204.05 25.5096 204.326 25.5583C204.612 25.6061 204.925 25.642 205.265 25.666C205.604 25.6806 205.944 25.7139 206.287 25.7657C206.628 25.8082 206.941 25.8864 207.223 26.0001C207.515 26.113 207.757 26.2869 207.948 26.5219C208.148 26.756 208.268 27.0821 208.308 27.5002C208.351 27.9462 208.257 28.3442 208.028 28.6941C207.799 29.044 207.456 29.3344 207 29.5653C206.543 29.7869 205.984 29.929 205.325 29.9917Z" fill="#FFFCF0"/>
<defs>
<clipPath id="clip0_570_24034">
<rect width="221.686" height="34.4221" fill="white" transform="matrix(0.99572 -0.0924229 0.0879642 0.996124 1.48828 29.4032)"/>
</clipPath>
</defs>
</svg>
