<svg width="69" height="69" viewBox="0 0 69 69" fill="none" xmlns="http://www.w3.org/2000/svg">
<path d="M65.0723 16.0127C65.2731 16.4277 65.4646 16.8524 65.6484 17.2861L65.3271 17.4238C65.5049 17.8432 65.6747 18.2715 65.8359 18.709L66.1631 18.5879C66.3227 19.021 66.475 19.4624 66.6182 19.9131L66.2852 20.0195C66.4229 20.4533 66.5528 20.8959 66.6748 21.3467L67.0117 21.2549C67.1316 21.698 67.2433 22.1491 67.3477 22.6084L67.0078 22.6865C67.1086 23.1304 67.2023 23.5824 67.2881 24.042L67.6318 23.9775C67.7164 24.4305 67.7915 24.8913 67.8613 25.3594L67.5176 25.4111C67.585 25.8633 67.6451 26.3232 67.6982 26.79L68.0459 26.75C68.0977 27.2051 68.1416 27.667 68.1797 28.1357L67.832 28.1641C67.8509 28.3959 67.8684 28.63 67.8838 28.8652V28.873L67.8848 28.8809C67.9108 29.1131 67.9356 29.3451 67.958 29.5762L68.3047 29.542C68.35 30.0087 68.3884 30.4728 68.4189 30.9346L68.0703 30.958C68.1011 31.4232 68.1247 31.8858 68.1406 32.3457L68.4893 32.334C68.5055 32.8036 68.5156 33.2704 68.5166 33.7344L68.166 33.7354C68.167 34.2008 68.1608 34.6637 68.1465 35.123L68.4951 35.1328C68.4806 35.6012 68.4589 36.0663 68.4287 36.5283L68.0801 36.5068C68.0497 36.9714 68.0109 37.4329 67.9648 37.8906L68.3125 37.9248C68.2655 38.392 68.2106 38.8555 68.1475 39.3154L67.8008 39.2686C67.7376 39.729 67.6662 40.1859 67.5869 40.6387L67.9326 40.6982C67.8517 41.1601 67.7604 41.6175 67.6631 42.0713L67.3223 41.999C67.225 42.4525 67.1195 42.9017 67.0059 43.3467L67.3457 43.4326C67.2296 43.8875 67.1036 44.3374 66.9707 44.7832L66.6367 44.6836C66.5042 45.1284 66.363 45.5686 66.2139 46.0039L66.5439 46.1162C66.3921 46.5595 66.2332 46.9983 66.0645 47.4316L65.7383 47.3047C65.5702 47.7362 65.3937 48.1628 65.209 48.584L65.5283 48.7236C65.3404 49.1522 65.1443 49.5754 64.9395 49.9932L64.626 49.8398C64.4223 50.2551 64.2105 50.6653 63.9902 51.0693L64.2979 51.2363C64.0739 51.6472 63.8394 52.0511 63.5986 52.4502L63.3008 52.2705C63.0621 52.6662 62.8147 53.0559 62.5596 53.4395L62.8506 53.6318C62.5918 54.0209 62.3261 54.4047 62.0508 54.7812L61.7676 54.5742C61.4951 54.9467 61.2144 55.3131 60.9258 55.6729L61.1982 55.8916C60.9065 56.2553 60.6057 56.6115 60.2979 56.9619L60.0361 56.7324C59.7319 57.0787 59.4196 57.4182 59.0996 57.751L59.3516 57.9932C59.0284 58.3293 58.6981 58.6592 58.3594 58.9814L58.1182 58.7275C57.7846 59.0449 57.4434 59.3558 57.0947 59.6592L57.3232 59.9219C56.9721 60.2273 56.6141 60.5262 56.248 60.8174L56.0312 60.5439C55.6713 60.8303 55.3041 61.1098 54.9297 61.3818L55.1348 61.665C54.7588 61.9382 54.3745 62.2024 53.9844 62.4609L53.792 62.1709C53.4087 62.4249 53.0181 62.6717 52.6211 62.9111L52.8008 63.21C52.4029 63.45 51.9991 63.684 51.5879 63.9092L51.4199 63.6025C51.0172 63.823 50.6078 64.0363 50.1924 64.2422L50.3477 64.5537C49.9317 64.7598 49.5104 64.9601 49.082 65.1514L48.9395 64.832C48.52 65.0194 48.0945 65.1993 47.6631 65.3721L47.793 65.6953C47.3618 65.8679 46.9251 66.0335 46.4824 66.1914L46.3652 65.8623C45.9324 66.0166 45.4937 66.1638 45.0498 66.3037L45.1543 66.6377C44.713 66.7767 44.2663 66.9077 43.8145 67.0322L43.7217 66.6963C43.2792 66.8183 42.8316 66.9332 42.3789 67.041L42.459 67.3818C42.0079 67.4892 41.5517 67.5885 41.0908 67.6816L41.0215 67.3398C40.5709 67.4309 40.1152 67.5147 39.6553 67.5918L39.7129 67.9365C39.2571 68.013 38.7968 68.0819 38.332 68.1445L38.2861 67.7988C38.0643 67.8287 37.8411 67.8561 37.6172 67.8828C37.3928 67.8827 37.1678 67.8815 36.9424 67.876L36.9336 68.2256C36.4676 68.2142 35.9998 68.1899 35.5303 68.1562L35.5557 67.8086C35.0962 67.7756 34.6351 67.7319 34.1729 67.6777L34.1318 68.0244C33.6686 67.9702 33.2041 67.9078 32.7393 67.833L32.7949 67.4863C32.3401 67.4132 31.8845 67.3299 31.4287 67.2373L31.3584 67.5791C30.9021 67.4863 30.4455 67.385 29.9893 67.2734L30.0723 66.9336C29.6238 66.8239 29.1753 66.7049 28.7275 66.5771L28.6309 66.9141C28.1821 66.7861 27.7343 66.6484 27.2871 66.5029L27.3965 66.1709C26.9565 66.0278 26.5169 65.8766 26.0791 65.7168L25.959 66.0459C25.5206 65.8859 25.0838 65.7172 24.6484 65.541L24.7803 65.2168C24.3515 65.0433 23.9241 64.8618 23.499 64.6729L23.3555 64.9922C22.9289 64.8026 22.5042 64.606 22.082 64.4014L22.2354 64.0859C21.8183 63.8838 21.4033 63.6746 20.9912 63.458L20.8281 63.7666C20.4144 63.5492 20.0027 63.3261 19.5947 63.0947L19.7676 62.7891C19.3645 62.5604 18.9642 62.3251 18.5674 62.083L18.3838 62.3809C17.9848 62.1374 17.5892 61.8874 17.1973 61.6309L17.3896 61.3389C17.0013 61.0847 16.6161 60.8234 16.2354 60.5566L16.0342 60.8428C15.6508 60.5742 15.2715 60.2994 14.8965 60.0186L15.1074 59.7393C14.7357 59.4609 14.3677 59.1769 14.0049 58.8867L13.7852 59.1592C13.4199 58.867 13.0598 58.5684 12.7041 58.2646L12.9316 57.999C12.5784 57.6973 12.2297 57.3899 11.8867 57.0771L11.6494 57.3359C11.3033 57.0203 10.964 56.6976 10.6289 56.3711L10.873 56.1211C10.5403 55.7969 10.2127 55.4674 9.8916 55.1328L9.63867 55.375C9.31406 55.0367 8.99572 54.6932 8.68359 54.3447L8.94531 54.1123C8.63515 53.7661 8.33116 53.4145 8.03418 53.0586L7.76465 53.2822C7.46431 52.9223 7.17015 52.558 6.88379 52.1885L7.16113 51.9736C6.87669 51.6066 6.59983 51.2344 6.33008 50.8584L6.04492 51.0615C5.77184 50.6808 5.50461 50.2968 5.24707 49.9072L5.54102 49.7139C5.28478 49.3263 5.0368 48.934 4.79688 48.5381L4.49707 48.7188C4.25411 48.3178 4.01873 47.9131 3.79297 47.5039L4.09961 47.335C3.87548 46.9287 3.66032 46.5184 3.4541 46.1045L3.14062 46.2598C2.93156 45.8401 2.73219 45.4165 2.54199 44.9893L2.86133 44.8477C2.67288 44.4244 2.49412 43.9976 2.3252 43.5674L1.99805 43.6953C1.82667 43.2589 1.66744 42.8182 1.5166 42.375L1.84766 42.2637C1.69852 41.8255 1.55969 41.3838 1.43164 40.9395L1.0957 41.0361C0.966084 40.5863 0.846834 40.1336 0.739258 39.6777L1.08008 39.5977C0.973967 39.148 0.878563 38.6952 0.794922 38.2402L0.452148 38.3037C0.367508 37.8433 0.291681 37.3807 0.230469 36.915L0.579102 36.8701C0.519025 36.4133 0.470095 35.9536 0.433594 35.4922L0.0859375 35.5195C0.0491647 35.0545 0.0231806 34.5875 0.0107422 34.1182L0.361328 34.1094C0.355197 33.8782 0.351579 33.6462 0.351562 33.4141C0.351566 33.1864 0.354823 32.9586 0.360352 32.7314L0.00976562 32.7236C0.0209784 32.2626 0.0438537 31.8026 0.0771484 31.3438L0.425781 31.3691C0.458707 30.9154 0.502355 30.4628 0.556641 30.0117L0.209961 29.9697C0.265034 29.5121 0.328036 29.0557 0.404297 28.6016L0.405273 28.6025L0.751953 28.6611C0.827284 28.2124 0.913024 27.7652 1.00879 27.3203L0.666016 27.2461C0.762855 26.7962 0.870353 26.3487 0.987305 25.9033L1.3252 25.9922C1.44073 25.5522 1.56627 25.1147 1.70117 24.6797L1.36621 24.5752C1.50247 24.1359 1.64846 23.6993 1.80371 23.2656L2.13379 23.3838C2.28713 22.9554 2.45047 22.5297 2.62207 22.1074L2.29785 21.9766C2.47113 21.5501 2.6526 21.1267 2.84375 20.707L3.16211 20.8525C3.3508 20.4383 3.54809 20.0272 3.75391 19.6201L3.44043 19.4619C3.64794 19.0515 3.86564 18.6458 4.08984 18.2432L4.39551 18.4131C4.61695 18.0155 4.84657 17.6218 5.08398 17.2324L4.78418 17.0508C5.0164 16.6699 5.2551 16.2925 5.50195 15.9199L5.52539 15.8848L5.81836 16.0791C6.07031 15.6999 6.32986 15.325 6.59668 14.9551L6.3125 14.75C6.5817 14.3767 6.85891 14.0088 7.14258 13.6455L7.41797 13.8604C7.69832 13.5013 7.98613 13.1476 8.28027 12.7988L8.01172 12.5713C8.30809 12.2199 8.61214 11.8746 8.92188 11.5342L9.18164 11.7695C9.48829 11.4325 9.80171 11.1011 10.1211 10.7754L9.87012 10.5293C10.1922 10.2009 10.5211 9.87893 10.8555 9.5625L11.0967 9.81641C11.4276 9.50323 11.7647 9.19629 12.1074 8.89551L11.876 8.63086C12.2219 8.32722 12.5744 8.03083 12.9316 7.74023L13.1523 8.0127C13.506 7.72504 13.8651 7.44315 14.2295 7.16895L14.0186 6.88867C14.3864 6.61184 14.7595 6.34183 15.1377 6.0791L15.3379 6.36816C15.7122 6.10817 16.0916 5.85487 16.4756 5.60938L16.2871 5.31445C16.6749 5.0665 17.0667 4.8246 17.4639 4.5918L17.6426 4.89453C18.0356 4.66416 18.4332 4.44138 18.835 4.22656L18.6689 3.91699C19.0749 3.69995 19.4861 3.49282 19.9004 3.29199L20.0537 3.60645C20.4636 3.40776 20.8772 3.21627 21.2949 3.03418L21.1543 2.71387C21.3477 2.62954 21.5413 2.54558 21.7363 2.46484L22.4316 2.18652L22.5586 2.51367C22.9831 2.34887 23.4115 2.19309 23.8428 2.0459L23.7295 1.71582C24.1649 1.56721 24.6031 1.42625 25.0449 1.2959L25.1445 1.63184C25.5809 1.5031 26.0208 1.38362 26.4629 1.27344L26.377 0.932617C26.8233 0.821366 27.2728 0.720946 27.7246 0.628906L27.7949 0.97168C28.2404 0.880941 28.6884 0.799843 29.1387 0.728516L29.084 0.382812C29.5379 0.310905 29.9938 0.247207 30.4521 0.195312L30.4922 0.544922C30.9431 0.493877 31.3959 0.452821 31.8506 0.421875L31.8271 0.0732422C32.2851 0.0420771 32.7447 0.0192987 33.2061 0.00878906L33.2139 0.359375C33.4415 0.354191 33.6701 0.351567 33.8984 0.351562C34.1309 0.351564 34.363 0.352766 34.5947 0.355469L34.5977 0.00488281C35.0652 0.0103262 35.5314 0.0215125 35.9961 0.0380859L35.9844 0.388672C36.4488 0.405248 36.9122 0.42705 37.373 0.455078L37.3936 0.105469C37.8603 0.13385 38.3253 0.1667 38.7881 0.207031L38.7578 0.557617C39.2209 0.597984 39.6823 0.644587 40.1406 0.697266L40.1797 0.347656C40.6449 0.401112 41.1074 0.461971 41.5674 0.52832L41.5186 0.875977C41.9785 0.942341 42.4357 1.01511 42.8896 1.09473L42.9492 0.749023C43.4105 0.82991 43.8685 0.917905 44.3232 1.0127L44.2529 1.35547C44.7074 1.45022 45.1583 1.55212 45.6055 1.66113L45.6885 1.32031C46.1432 1.43118 46.5942 1.54895 47.041 1.6748L46.9463 2.01367C47.3928 2.13947 47.8357 2.27291 48.2734 2.41406L48.3799 2.08008C48.8257 2.22384 49.2667 2.37619 49.7031 2.53613L49.583 2.86426C50.0178 3.02363 50.4476 3.19135 50.8721 3.36719L51.0059 3.04395C51.438 3.22297 51.865 3.41009 52.2861 3.60645L52.1387 3.9248C52.5577 4.12017 52.9709 4.32417 53.3779 4.53711L53.54 4.22656C53.9538 4.44303 54.3615 4.66843 54.7627 4.90332L54.5869 5.20605C54.9849 5.43912 55.3762 5.68193 55.7607 5.93359L55.9531 5.64062C56.3435 5.89612 56.7273 6.16065 57.1035 6.43555L56.8965 6.71875C57.268 6.99021 57.6326 7.2716 57.9893 7.5625L58.21 7.29004C58.5711 7.58453 58.9249 7.88851 59.2705 8.20312L59.0342 8.46289C59.3734 8.77173 59.705 9.09113 60.0283 9.41992L60.2783 9.17285C60.604 9.50409 60.9213 9.84565 61.2305 10.1973L60.9678 10.4297C61.2696 10.773 61.5634 11.1268 61.8486 11.4902L62.123 11.2734C62.4091 11.6379 62.6861 12.0127 62.9551 12.3975L62.6689 12.5977C62.9303 12.9715 63.1833 13.3554 63.4277 13.749L63.7236 13.5645C63.9675 13.9573 64.2041 14.359 64.4307 14.7715L64.124 14.9395C64.3433 15.3387 64.5544 15.7477 64.7568 16.166L65.0723 16.0127Z" fill="#D9D9D9" fill-opacity="0.5" stroke="white" stroke-width="0.703463" stroke-dasharray="1.41 1.41"/>
<path d="M23.5283 41.9759C22.5564 41.9878 21.6486 41.8429 20.8048 41.5412C19.9729 41.2274 19.2474 40.7802 18.6282 40.1997C18.0091 39.6193 17.5207 38.9352 17.163 38.1475C16.8173 37.3597 16.6387 36.4918 16.6271 35.5439C16.6155 34.5959 16.7728 33.724 17.0991 32.9279C17.4374 32.1317 17.9089 31.4359 18.5137 30.8404C19.1304 30.2448 19.8509 29.786 20.675 29.4639C21.499 29.1298 22.4029 28.9567 23.3868 28.9447C24.4788 28.9313 25.465 29.1112 26.3457 29.4845C27.2381 29.8456 27.9888 30.3884 28.5978 31.113L26.747 32.8638C26.3091 32.3771 25.8246 32.0171 25.2937 31.7835C24.7627 31.538 24.1852 31.4191 23.5612 31.4267C22.9733 31.4339 22.4345 31.5365 21.9449 31.7345C21.4553 31.9325 21.0327 32.2137 20.6771 32.5781C20.3215 32.9425 20.0448 33.3719 19.8468 33.8663C19.6608 34.3607 19.5715 34.9078 19.5789 35.5077C19.5862 36.1077 19.6889 36.6525 19.8869 37.1421C20.0969 37.6316 20.3841 38.0541 20.7485 38.4097C21.1128 38.7652 21.5422 39.036 22.0365 39.222C22.5308 39.4079 23.072 39.4973 23.6599 39.4901C24.2839 39.4825 24.8584 39.3554 25.3834 39.109C25.9083 38.8505 26.3836 38.4667 26.8094 37.9574L28.7024 39.6624C28.1114 40.4017 27.3743 40.9688 26.491 41.3636C25.6198 41.7583 24.6322 41.9624 23.5283 41.9759ZM28.8784 41.6944L28.715 28.3394L31.5228 28.305L31.6862 41.66L28.8784 41.6944ZM32.6722 41.648L32.5537 31.9647L35.3615 31.9303L35.48 41.6136L32.6722 41.648ZM33.9411 30.5976C33.4251 30.6039 33.0033 30.4591 32.6757 30.1631C32.348 29.8671 32.1815 29.4971 32.1761 29.0531C32.1706 28.6091 32.3281 28.2352 32.6484 27.9312C32.9687 27.6273 33.3868 27.4722 33.9028 27.4658C34.4187 27.4595 34.8404 27.5984 35.1679 27.8824C35.4953 28.1544 35.6617 28.5124 35.6671 28.9564C35.6729 29.4243 35.5156 29.8163 35.1955 30.1322C34.8872 30.436 34.469 30.5912 33.9411 30.5976ZM41.1474 41.6883C40.1035 41.701 39.171 41.5024 38.3499 41.0924C37.5287 40.6705 36.8795 40.0844 36.4023 39.3342C35.937 38.5838 35.6985 37.7286 35.6868 36.7687C35.6749 35.7968 35.8924 34.9361 36.3392 34.1865C36.798 33.4249 37.4327 32.8291 38.2435 32.3991C39.0542 31.9571 39.9815 31.7298 41.0254 31.717C42.0453 31.7045 42.9359 31.9096 43.6971 32.3324C44.4582 32.7431 45.0236 33.3422 45.3932 34.1297L43.2297 35.3263C42.9722 34.8734 42.6501 34.5413 42.2634 34.33C41.8888 34.1186 41.4795 34.0156 41.0356 34.021C40.5556 34.0269 40.125 34.1402 39.7436 34.3609C39.3623 34.5816 39.0601 34.8913 38.8369 35.2901C38.6258 35.6887 38.5237 36.17 38.5306 36.7339C38.5375 37.2979 38.6514 37.7765 38.8722 38.1698C39.105 38.563 39.4147 38.8652 39.8014 39.0765C40.188 39.2878 40.6213 39.3905 41.1012 39.3846C41.5452 39.3792 41.9519 39.2722 42.3214 39.0637C42.7027 38.843 43.0165 38.4971 43.2628 38.0261L45.4551 39.1873C45.1047 39.9717 44.5542 40.5845 43.8035 41.0257C43.0527 41.4549 42.1673 41.6758 41.1474 41.6883ZM47.725 39.4836L47.7551 36.063L52.2203 31.724L55.5681 31.683L51.2844 36.1458L49.841 37.3515L47.725 39.4836ZM45.4274 41.4919L45.2639 28.1369L48.0717 28.1025L48.2352 41.4575L45.4274 41.4919ZM52.6448 41.4035L49.3193 37.3759L51.0565 35.1765L56.0466 41.3619L52.6448 41.4035Z" fill="white"/>
</svg>
