<svg width="115" height="112" viewBox="0 0 115 112" fill="none" xmlns="http://www.w3.org/2000/svg">
<g clip-path="url(#clip0_570_24884)">
<path d="M20.5182 74.0488L21.2801 75.0549C21.6922 75.6058 21.6622 76.3781 21.2165 76.7775C20.7707 77.177 19.994 77.116 19.4972 76.6527L18.5803 75.7855C18.0777 75.3156 17.2268 75.2629 16.6817 75.6815L15.6756 76.4433C15.1247 76.8555 14.3459 76.8312 13.9407 76.379C13.5412 75.9333 13.6022 75.1565 14.0656 74.6598L14.9328 73.7428C15.4026 73.2403 15.4495 72.3829 15.0368 71.8443L14.2749 70.8381C13.8628 70.2873 13.8928 69.5149 14.3385 69.1155C14.7842 68.716 15.561 68.777 16.0578 69.2404L16.9747 70.1076C17.4773 70.5774 18.3347 70.6243 18.8733 70.2116L19.8794 69.4497C20.4303 69.0376 21.2026 69.0676 21.6021 69.5133C22.0015 69.9591 21.9405 70.7358 21.4772 71.2326L20.61 72.1495C20.1466 72.6463 20.0997 73.5037 20.5182 74.0488Z" fill="#EA5F3F"/>
<path d="M72.911 58.6254L72.4027 58.1491C72.1279 57.8945 71.6567 57.8626 71.3615 58.0921L70.8042 58.51C70.5033 58.7331 70.0739 58.7219 69.8539 58.4764C69.634 58.2309 69.6632 57.8087 69.9243 57.5281L70.4006 57.0198C70.6552 56.745 70.6871 56.2738 70.4576 55.9786L70.0397 55.4213C69.8166 55.1204 69.8278 54.691 70.0733 54.471C70.3188 54.251 70.741 54.2803 71.0216 54.5414L71.5299 55.0177C71.8047 55.2723 72.2759 55.3042 72.5711 55.0747L73.1284 54.6568C73.4293 54.4337 73.8587 54.4449 74.0787 54.6904C74.2987 54.9359 74.2694 55.3581 74.0083 55.6387L73.5321 56.147C73.2774 56.4218 73.2455 56.893 73.475 57.1882L73.8929 57.7455C74.116 58.0464 74.1048 58.4758 73.8593 58.6958C73.6138 58.9157 73.1858 58.88 72.911 58.6254Z" fill="#EA5F3F"/>
<path d="M74.8272 79.5297C73.189 77.7016 73.3426 74.8966 75.1707 73.2583C76.9989 71.6201 79.8039 71.7737 81.4421 73.6018C83.0804 75.43 82.9268 78.235 81.0986 79.8732C79.2712 81.4993 76.4662 81.3456 74.8272 79.5297ZM80.8172 76.7127C80.8548 76.0268 80.6351 75.3268 80.1372 74.7712C79.6394 74.2157 78.9675 73.9209 78.2816 73.8833C77.5957 73.8457 76.8957 74.0654 76.3401 74.5632C75.7846 75.0611 75.4898 75.7329 75.4522 76.4189C75.4146 77.1048 75.6343 77.8048 76.1321 78.3604C76.63 78.9159 77.3018 79.2107 77.9878 79.2483C78.6737 79.2859 79.3737 79.0662 79.9293 78.5683C80.479 78.064 80.7796 77.3986 80.8172 76.7127Z" fill="#F47653"/>
<path d="M81.6772 47.1025C80.9478 46.2885 81.0105 45.0327 81.8309 44.2975C82.6448 43.5681 83.9007 43.6307 84.6359 44.4511C85.3653 45.2651 85.3026 46.5209 84.4822 47.2561C83.6625 47.9791 82.4067 47.9164 81.6772 47.1025ZM84.3511 45.8361C84.3679 45.5299 84.2687 45.2112 84.0487 44.9657C83.8287 44.7202 83.5292 44.5809 83.2165 44.57C82.9103 44.5532 82.598 44.6467 82.3461 44.8724C82.1006 45.0924 81.9614 45.3919 81.9504 45.7046C81.9336 46.0108 82.0271 46.3231 82.2528 46.575C82.4728 46.8205 82.7723 46.9598 83.085 46.9707C83.3912 46.9875 83.6977 46.8876 83.9554 46.6683C84.2009 46.4483 84.3337 46.1546 84.3511 45.8361Z" fill="#27B3C1"/>
<path d="M42.7768 75.2864C42.0416 74.466 42.1107 73.2044 42.9311 72.4692C43.7515 71.734 45.0131 71.8031 45.7483 72.6235C46.4835 73.4439 46.4144 74.7055 45.594 75.4407C44.7736 76.1759 43.512 76.1068 42.7768 75.2864ZM45.4687 74.0272C45.4855 73.7209 45.3862 73.4022 45.1663 73.1568C44.9405 72.9048 44.6403 72.7778 44.3341 72.761C44.0279 72.7443 43.7091 72.8435 43.4637 73.0635C43.2117 73.2893 43.0847 73.5894 43.0679 73.8957C43.0512 74.2019 43.1504 74.5206 43.3704 74.7661C43.5962 75.018 43.8964 75.145 44.2026 75.1618C44.5088 75.1786 44.8275 75.0793 45.073 74.8593C45.3127 74.6329 45.4519 74.3334 45.4687 74.0272Z" fill="#EA5F3F"/>
<path d="M37.967 55.4137L40.0508 54.8276L41.719 56.2212L41.8133 54.0518L43.6455 52.899L41.6168 52.1429L41.081 50.0373L39.7408 51.7392L37.5741 51.5959L38.7714 53.3999L37.967 55.4137Z" fill="#FFCE00"/>
</g>
<defs>
<clipPath id="clip0_570_24884">
<rect width="66.8247" height="92.2792" fill="white" transform="matrix(0.667377 0.74472 0.74472 -0.667377 0.984375 61.923)"/>
</clipPath>
</defs>
</svg>
