<svg width="270" height="243" viewBox="0 0 270 243" fill="none" xmlns="http://www.w3.org/2000/svg">
<g clip-path="url(#clip0_3458_15561)">
<path d="M153.331 213.129L154.947 213.858C155.825 214.26 156.307 215.232 156.026 216.024C155.745 216.817 154.746 217.263 153.823 217.026L152.109 216.573C151.174 216.332 150.089 216.839 149.698 217.721L148.97 219.337C148.568 220.215 147.591 220.709 146.788 220.423C145.996 220.142 145.549 219.144 145.786 218.22L146.239 216.506C146.481 215.571 145.962 214.482 145.091 214.096L143.476 213.367C142.597 212.965 142.115 211.993 142.396 211.201C142.677 210.408 143.676 209.962 144.6 210.199L146.313 210.652C147.249 210.893 148.337 210.375 148.724 209.504L149.452 207.888C149.855 207.01 150.827 206.528 151.619 206.809C152.411 207.09 152.858 208.089 152.621 209.013L152.168 210.726C151.93 211.65 152.449 212.739 153.331 213.129Z" fill="#EA5F3F"/>
<path d="M207.565 158.897L206.618 158.651C206.108 158.522 205.505 158.799 205.296 159.281L204.889 160.17C204.668 160.648 204.131 160.922 203.695 160.768C203.259 160.613 203.011 160.073 203.145 159.551L203.39 158.604C203.519 158.094 203.242 157.492 202.761 157.282L201.871 156.876C201.393 156.655 201.119 156.118 201.273 155.682C201.428 155.246 201.969 154.998 202.49 155.131L203.437 155.377C203.947 155.506 204.549 155.229 204.759 154.747L205.165 153.857C205.386 153.38 205.923 153.105 206.359 153.26C206.796 153.415 207.043 153.955 206.91 154.477L206.664 155.423C206.535 155.933 206.812 156.536 207.294 156.745L208.184 157.152C208.661 157.373 208.936 157.91 208.781 158.346C208.626 158.782 208.074 159.026 207.565 158.897Z" fill="#EA5F3F"/>
<path d="M223.975 183.384C220.726 182.231 219.031 178.669 220.183 175.42C221.336 172.172 224.898 170.476 228.146 171.629C231.395 172.781 233.091 176.343 231.938 179.592C230.778 182.825 227.216 184.521 223.975 183.384ZM229.467 175.884C229.052 175.013 228.311 174.298 227.324 173.947C226.336 173.597 225.31 173.685 224.439 174.1C223.568 174.515 222.853 175.256 222.502 176.243C222.152 177.231 222.24 178.257 222.655 179.128C223.069 179.999 223.811 180.714 224.798 181.065C225.785 181.415 226.812 181.327 227.683 180.912C228.554 180.497 229.269 179.756 229.619 178.769C229.958 177.778 229.882 176.755 229.467 175.884Z" fill="#F47653"/>
<path d="M210.625 138.798C209.178 138.285 208.412 136.694 208.929 135.236C209.442 133.79 211.033 133.023 212.491 133.541C213.937 134.054 214.704 135.644 214.187 137.102C213.662 138.545 212.071 139.311 210.625 138.798ZM213.07 135.439C212.885 135.051 212.549 134.724 212.112 134.57C211.676 134.415 211.213 134.444 210.82 134.641C210.432 134.826 210.109 135.151 209.951 135.599C209.796 136.035 209.825 136.498 210.022 136.891C210.207 137.28 210.532 137.602 210.98 137.761C211.416 137.916 211.879 137.886 212.272 137.689C212.661 137.504 212.972 137.175 213.142 136.731C213.297 136.295 213.263 135.844 213.07 135.439Z" fill="#27B3C1"/>
<path d="M181.609 199.693C180.151 199.175 179.388 197.573 179.906 196.116C180.423 194.658 182.025 193.895 183.483 194.412C184.941 194.93 185.704 196.532 185.186 197.989C184.669 199.447 183.067 200.21 181.609 199.693ZM184.082 196.331C183.896 195.942 183.56 195.616 183.124 195.461C182.676 195.302 182.22 195.347 181.832 195.532C181.443 195.718 181.117 196.054 180.962 196.49C180.803 196.938 180.848 197.394 181.033 197.782C181.218 198.171 181.555 198.497 181.991 198.652C182.439 198.811 182.894 198.766 183.283 198.581C183.672 198.396 183.998 198.059 184.153 197.623C184.296 197.183 184.267 196.72 184.082 196.331Z" fill="#EA5F3F"/>
<path d="M162.321 178.425L164.496 176.302L167.489 176.899L166.147 174.161L167.632 171.508L164.622 171.939L162.546 169.703L162.038 172.702L159.27 173.982L161.959 175.402L162.321 178.425Z" fill="#FFCE00"/>
</g>
<defs>
<clipPath id="clip0_3458_15561">
<rect width="222.335" height="178.619" fill="white" transform="matrix(0.94242 0.334432 0.334432 -0.94242 0 168.334)"/>
</clipPath>
</defs>
</svg>
