<svg width="86" height="85" viewBox="0 0 86 85" fill="none" xmlns="http://www.w3.org/2000/svg">
<mask id="mask0_3531_47602" style="mask-type:luminance" maskUnits="userSpaceOnUse" x="0" y="0" width="86" height="85">
<path d="M85.6198 7.10928L7.23828 0.729492L0.976338 77.6631L79.3579 84.0429L85.6198 7.10928Z" fill="white"/>
</mask>
<g mask="url(#mask0_3531_47602)">
<mask id="mask1_3531_47602" style="mask-type:luminance" maskUnits="userSpaceOnUse" x="-3" y="-5" width="94" height="94">
<path d="M16.112 -4.94749L-2.94922 69.4893L71.4875 88.5505L90.5488 14.1138L16.112 -4.94749Z" fill="white"/>
</mask>
<g mask="url(#mask1_3531_47602)">
<mask id="mask2_3531_47602" style="mask-type:luminance" maskUnits="userSpaceOnUse" x="5" y="3" width="77" height="78">
<path d="M53.3357 4.59093L56.7879 14.0113L66.1956 10.5799L66.0027 20.6241L76.0124 20.8361L72.2198 30.1379L81.4746 33.9705L74.5905 41.2674L81.8294 48.1906L72.7872 52.5174L77.0443 61.6088L67.0546 62.3627L67.7514 72.3807L58.1801 69.4757L55.2289 79.0761L47.3492 72.8898L41.1402 80.7786L36.0341 72.1551L27.3998 77.2603L25.7507 67.3621L15.8761 68.9912L17.8935 59.1503L8.0988 57.1038L13.5212 48.6469L5.14403 43.1872L13.2426 37.2603L7.39546 29.1244L17.0742 26.537L14.5556 16.8201L24.4935 17.9139L25.6562 7.93775L34.5179 12.5602L39.1875 3.65852L45.7954 11.1988L53.3357 4.59093Z" fill="white"/>
</mask>
<g mask="url(#mask2_3531_47602)">
<path d="M16.1283 -4.94636L90.5514 14.1189L71.4852 88.5529L-2.94878 69.4867L16.1283 -4.94636Z" fill="#FFD636"/>
</g>
</g>
</g>
<mask id="mask3_3531_47602" style="mask-type:luminance" maskUnits="userSpaceOnUse" x="31" y="24" width="27" height="37">
<path d="M57.7166 26.7543L34.4961 24.8643L31.7785 58.2526L54.999 60.1426L57.7166 26.7543Z" fill="white"/>
</mask>
<g mask="url(#mask3_3531_47602)">
<mask id="mask4_3531_47602" style="mask-type:luminance" maskUnits="userSpaceOnUse" x="29" y="23" width="29" height="37">
<path d="M37.7126 23.5884L29.7305 54.7598L49.5697 59.8401L57.5518 28.6687L37.7126 23.5884Z" fill="white"/>
</mask>
<g mask="url(#mask4_3531_47602)">
<mask id="mask5_3531_47602" style="mask-type:luminance" maskUnits="userSpaceOnUse" x="29" y="23" width="29" height="37">
<path d="M37.7126 23.5884L29.7305 54.7598L49.5697 59.8401L57.5518 28.6687L37.7126 23.5884Z" fill="white"/>
</mask>
<g mask="url(#mask5_3531_47602)">
<path d="M47.8592 26.1823C42.3208 24.7562 36.6554 28.1196 35.2402 33.659C32.8022 43.1478 38.5587 56.0322 38.8101 56.5787C39.005 57.011 39.3848 57.3268 39.8467 57.4411C40.3086 57.5554 40.7982 57.4638 41.1723 57.1764C41.6505 56.8209 52.8979 48.2901 55.325 38.8004C56.7511 33.262 53.3977 27.6084 47.8592 26.1823ZM43.8575 41.823C40.7657 41.0344 38.8965 37.8797 39.6951 34.7996C40.4838 31.7078 43.6376 29.8495 46.7186 30.6372C49.8104 31.4258 51.6687 34.5797 50.8801 37.6716C50.0915 40.7634 46.9376 42.6217 43.8566 41.8339L43.8575 41.823Z" fill="white"/>
</g>
</g>
</g>
</svg>
