<svg width="79" height="120" viewBox="0 0 79 120" fill="none" xmlns="http://www.w3.org/2000/svg">
<g clip-path="url(#clip0_570_23706)">
<g clip-path="url(#clip1_570_23706)">
<path d="M39.063 69.8803L39.5581 70.3703C39.8258 70.6324 40.296 70.6773 40.5973 70.4559L41.1659 70.0534C41.4728 69.8387 41.9017 69.8617 42.1149 70.1131C42.328 70.3645 42.2872 70.7858 42.0185 71.0591L41.5285 71.5542C41.2664 71.8219 41.2216 72.2921 41.4429 72.5934L41.8454 73.1619C42.0601 73.4689 42.0371 73.8978 41.7857 74.111C41.5343 74.3241 41.113 74.2833 40.8397 74.0146L40.3446 73.5246C40.077 73.2625 39.6068 73.2176 39.3054 73.439L38.7369 73.8415C38.4299 74.0562 38.001 74.0332 37.7879 73.7818C37.5747 73.5304 37.6155 73.1091 37.8842 72.8358L38.3742 72.3407C38.6363 72.073 38.6812 71.6029 38.4598 71.3015L38.0574 70.733C37.8426 70.426 37.8656 69.9971 38.117 69.784C38.3684 69.5708 38.7953 69.6182 39.063 69.8803Z" fill="#EA5F3F"/>
<path d="M37.7216 48.9312C39.3092 50.8036 39.0786 53.6033 37.2062 55.1908C35.3339 56.7784 32.5341 56.5479 30.9466 54.6755C29.3591 52.8031 29.5896 50.0034 31.462 48.4158C33.3334 46.8406 36.1331 47.0711 37.7216 48.9312ZM31.6567 51.5829C31.6003 52.2675 31.8007 52.9733 32.2831 53.5423C32.7655 54.1113 33.429 54.4244 34.1137 54.4808C34.7983 54.5372 35.5041 54.3368 36.0731 53.8544C36.6421 53.3719 36.9552 52.7084 37.0116 52.0238C37.068 51.3391 36.8676 50.6334 36.3852 50.0644C35.9027 49.4954 35.2392 49.1823 34.5546 49.1259C33.8699 49.0695 33.1641 49.2699 32.5951 49.7523C32.0318 50.2414 31.713 50.8983 31.6567 51.5829Z" fill="#F47653"/>
<path d="M29.9888 81.1587C30.6956 81.9924 30.5986 83.246 29.7583 83.9584C28.9247 84.6652 27.671 84.5682 26.9586 83.7279C26.2518 82.8943 26.3489 81.6406 27.1891 80.9282C28.0284 80.228 29.282 80.3251 29.9888 81.1587ZM27.2812 82.3513C27.256 82.6569 27.3465 82.9783 27.5597 83.2297C27.7728 83.4811 28.0684 83.6285 28.3807 83.6481C28.6863 83.6732 29.001 83.5884 29.2591 83.3696C29.5105 83.1564 29.6579 82.8608 29.6775 82.5486C29.7026 82.2429 29.6178 81.9282 29.399 81.6702C29.1858 81.4188 28.8902 81.2713 28.578 81.2518C28.2723 81.2266 27.9632 81.3181 27.6996 81.5303C27.4482 81.7434 27.3074 82.0334 27.2812 82.3513Z" fill="#27B3C1"/>
<path d="M69.6434 54.0521C70.3558 54.8924 70.2521 56.1516 69.4119 56.8641C68.5716 57.5765 67.3124 57.4728 66.5999 56.6326C65.8875 55.7923 65.9912 54.533 66.8314 53.8206C67.6717 53.1082 68.931 53.2119 69.6434 54.0521ZM66.9179 55.2371C66.8928 55.5427 66.9832 55.864 67.1964 56.1155C67.4152 56.3735 67.7118 56.5087 68.0174 56.5339C68.3231 56.559 68.6444 56.4685 68.8958 56.2554C69.1538 56.0366 69.289 55.74 69.3142 55.4344C69.3393 55.1287 69.2489 54.8074 69.0357 54.556C68.8169 54.298 68.5203 54.1628 68.2147 54.1376C67.909 54.1124 67.5877 54.2029 67.3363 54.4161C67.0905 54.6358 66.9431 54.9314 66.9179 55.2371Z" fill="#EA5F3F"/>
<path d="M73.9097 74.0496L71.8106 74.5784L70.1813 73.1395L70.0276 75.3055L68.1644 76.4076L70.1716 77.219L70.6494 79.3386L72.0358 77.6741L74.1978 77.8767L73.0504 76.0406L73.9097 74.0496Z" fill="#FFCE00"/>
</g>
</g>
<defs>
<clipPath id="clip0_570_23706">
<rect width="65" height="113" fill="white" transform="translate(13.6641 0.10083) rotate(6.76879)"/>
</clipPath>
<clipPath id="clip1_570_23706">
<rect width="66.8247" height="92.2792" fill="white" transform="matrix(-0.646699 -0.762745 -0.762745 0.646699 111.055 68.5569)"/>
</clipPath>
</defs>
</svg>
