<svg width="191" height="223" viewBox="0 0 191 223" fill="none" xmlns="http://www.w3.org/2000/svg">
<g clip-path="url(#clip0_3233_8560)">
<path d="M173.079 80.6039L173.47 79.0702C173.689 78.2354 174.47 77.6612 175.21 77.7864C175.95 77.9115 176.498 78.7213 176.431 79.5707L176.297 81.1481C176.229 82.0082 176.842 82.8843 177.679 83.092L179.213 83.4837C180.047 83.7021 180.632 84.4851 180.505 85.236C180.38 85.9763 179.57 86.5235 178.721 86.4571L177.144 86.3229C176.283 86.2547 175.405 86.8787 175.2 87.7046L174.808 89.2383C174.59 90.0731 173.808 90.6473 173.068 90.5221C172.328 90.397 171.781 89.5872 171.847 88.7378L171.981 87.1605C172.049 86.3003 171.425 85.4223 170.6 85.2165L169.066 84.8248C168.231 84.6064 167.657 83.8252 167.782 83.085C167.907 82.3448 168.717 81.7975 169.566 81.8639L171.144 81.9982C171.993 82.0645 172.871 81.4406 173.079 80.6039Z" fill="#EA5F3F"/>
<path d="M116.999 41.2542L116.929 42.1251C116.894 42.5937 117.23 43.081 117.686 43.1911L118.532 43.4113C118.986 43.5322 119.31 43.9623 119.242 44.3699C119.173 44.7776 118.735 45.0789 118.256 45.042L117.385 44.972C116.917 44.9369 116.429 45.2738 116.319 45.7297L116.099 46.5752C115.978 47.0292 115.548 47.3538 115.14 47.2848C114.733 47.2159 114.432 46.7788 114.468 46.2995L114.538 45.4286C114.573 44.96 114.237 44.4727 113.781 44.3625L112.935 44.1424C112.481 44.0215 112.157 43.5914 112.226 43.1838C112.294 42.7761 112.732 42.4748 113.211 42.5117L114.082 42.5817C114.55 42.6168 115.038 42.2799 115.148 41.824L115.368 40.9785C115.489 40.5245 115.919 40.1999 116.327 40.2688C116.734 40.3378 117.034 40.7856 116.999 41.2542Z" fill="#EA5F3F"/>
<path d="M136.015 23.0406C135.501 26.0765 132.629 28.1179 129.593 27.6046C126.557 27.0913 124.516 24.2193 125.029 21.1833C125.543 18.1473 128.415 16.106 131.451 16.6193C134.474 17.1415 136.515 20.0135 136.015 23.0406ZM128.57 19.3653C127.867 19.8645 127.352 20.6271 127.196 21.5497C127.04 22.4723 127.276 23.3618 127.775 24.0641C128.274 24.7665 129.037 25.2816 129.96 25.4376C130.882 25.5935 131.772 25.3577 132.474 24.8585C133.176 24.3593 133.692 23.5968 133.848 22.6742C134.004 21.7516 133.768 20.8621 133.269 20.1597C132.769 19.4574 132.007 18.9423 131.084 18.7863C130.16 18.641 129.272 18.8661 128.57 19.3653Z" fill="#F47653"/>
<path d="M98.845 41.6586C98.6165 43.0103 97.3354 43.9302 95.973 43.6999C94.6213 43.4714 93.7013 42.1903 93.9317 40.8279C94.1602 39.4762 95.4413 38.5562 96.8037 38.7865C98.1536 39.0258 99.0736 40.3068 98.845 41.6586ZM95.513 40.0249C95.1994 40.2477 94.9643 40.5942 94.8954 41.0018C94.8264 41.4095 94.9239 41.8122 95.1575 42.1275C95.3803 42.4411 95.716 42.6744 96.1344 42.7451C96.5421 42.814 96.9448 42.7166 97.2601 42.483C97.5737 42.2602 97.807 41.9244 97.8777 41.5061C97.9466 41.0984 97.8492 40.6957 97.6156 40.3804C97.3928 40.0668 97.0552 39.8442 96.6386 39.7628C96.231 39.6939 95.839 39.7931 95.513 40.0249Z" fill="#27B3C1"/>
<path d="M156.898 57.7977C156.667 59.1602 155.376 60.0783 154.013 59.848C152.651 59.6176 151.732 58.3259 151.963 56.9634C152.193 55.601 153.485 54.6828 154.847 54.9132C156.21 55.1435 157.128 56.4353 156.898 57.7977ZM153.558 56.1408C153.245 56.3636 153.01 56.7101 152.941 57.1177C152.87 57.5361 152.98 57.9299 153.203 58.2435C153.426 58.557 153.772 58.7921 154.18 58.861C154.598 58.9318 154.992 58.8218 155.306 58.5989C155.619 58.3761 155.854 58.0296 155.923 57.622C155.994 57.2036 155.884 56.8098 155.661 56.4963C155.438 56.1827 155.092 55.9476 154.684 55.8787C154.275 55.8205 153.872 55.9179 153.558 56.1408Z" fill="#EA5F3F"/>
<path d="M141.157 78.0457L138.954 76.4593L139.017 73.7335L136.815 75.3364L134.252 74.4397L135.096 77.0209L133.449 79.1921L136.166 79.177L137.719 81.4147L138.553 78.8302L141.157 78.0457Z" fill="#FFCE00"/>
</g>
<defs>
<clipPath id="clip0_3233_8560">
<rect width="198.594" height="159.545" fill="white" transform="matrix(0.1667 -0.986008 -0.986008 -0.1667 157.312 222.412)"/>
</clipPath>
</defs>
</svg>
