<svg width="166" height="199" viewBox="0 0 166 199" fill="none" xmlns="http://www.w3.org/2000/svg">
<g clip-path="url(#clip0_4434_19643)">
<path d="M20.6889 145.493L20.7063 146.963C20.7111 147.764 20.1485 148.466 19.4547 148.532C18.7608 148.598 18.0755 148.003 17.9309 147.225L17.6722 145.779C17.5266 144.991 16.7661 144.353 15.9659 144.368L14.4964 144.385C13.6954 144.39 12.9827 143.828 12.9161 143.124C12.8504 142.43 13.445 141.745 14.2227 141.6L15.6694 141.342C16.4571 141.196 17.0944 140.426 17.0805 139.635L17.0631 138.166C17.0583 137.365 17.6208 136.662 18.3147 136.597C19.0085 136.531 19.6939 137.126 19.8385 137.903L20.0972 139.35C20.2428 140.138 21.0133 140.775 21.8034 140.761L23.2729 140.744C24.074 140.739 24.7766 141.301 24.8423 141.995C24.908 142.689 24.3134 143.374 23.5357 143.519L22.089 143.778C21.3113 143.922 20.674 144.693 20.6889 145.493Z" fill="#EA5F3F"/>
<path d="M80.4347 167.302L80.2881 166.505C80.207 166.076 79.7877 165.72 79.3525 165.731L78.5413 165.737C78.1051 165.737 77.7107 165.43 77.6746 165.048C77.6384 164.665 77.958 164.29 78.3966 164.208L79.1944 164.062C79.623 163.98 79.979 163.561 79.9683 163.126L79.9625 162.315C79.9618 161.879 80.2694 161.484 80.6515 161.448C81.0337 161.412 81.4089 161.731 81.491 162.17L81.6375 162.968C81.7187 163.396 82.1379 163.752 82.5732 163.742L83.3843 163.736C83.8205 163.735 84.2149 164.043 84.2511 164.425C84.2873 164.807 83.9677 165.182 83.529 165.264L82.7312 165.411C82.3026 165.492 81.9466 165.911 81.9574 166.347L81.9632 167.158C81.9639 167.594 81.6562 167.988 81.2741 168.024C80.892 168.061 80.5158 167.731 80.4347 167.302Z" fill="#EA5F3F"/>
<path d="M67.7608 188.205C67.4914 185.359 69.5762 182.839 72.422 182.569C75.2678 182.3 77.7886 184.385 78.058 187.23C78.3274 190.076 76.2426 192.597 73.3968 192.866C70.5601 193.125 68.0393 191.04 67.7608 188.205ZM75.3201 189.712C75.8299 189.095 76.1086 188.288 76.0267 187.423C75.9449 186.558 75.5196 185.817 74.9032 185.307C74.2867 184.797 73.4791 184.519 72.6143 184.601C71.7495 184.682 71.0085 185.108 70.4987 185.724C69.9889 186.341 69.7102 187.148 69.7921 188.013C69.874 188.878 70.2992 189.619 70.9157 190.129C71.5321 190.638 72.3397 190.917 73.2045 190.835C74.0684 190.743 74.8103 190.328 75.3201 189.712Z" fill="#F47653"/>
<path d="M96.6125 162.574C96.4926 161.307 97.4202 160.174 98.6973 160.053C99.9644 159.934 101.097 160.861 101.218 162.138C101.338 163.405 100.41 164.538 99.1333 164.659C97.8653 164.769 96.7325 163.841 96.6125 162.574ZM99.9931 163.238C100.221 162.963 100.348 162.596 100.312 162.214C100.276 161.832 100.092 161.494 99.8065 161.267C99.5313 161.04 99.1742 160.911 98.782 160.948C98.3999 160.985 98.0622 161.169 97.8356 161.454C97.608 161.729 97.4795 162.086 97.5166 162.479C97.5528 162.861 97.7369 163.198 98.0222 163.425C98.2974 163.653 98.6536 163.771 99.0467 163.744C99.4288 163.708 99.7564 163.525 99.9931 163.238Z" fill="#27B3C1"/>
<path d="M40.6799 162.055C40.559 160.778 41.4967 159.644 42.7738 159.523C44.0509 159.402 45.1847 160.34 45.3056 161.617C45.4265 162.894 44.4888 164.028 43.2117 164.149C41.9346 164.27 40.8008 163.332 40.6799 162.055ZM44.0724 162.738C44.3 162.463 44.4276 162.096 44.3914 161.714C44.3543 161.322 44.1611 160.995 43.8859 160.767C43.6107 160.54 43.2435 160.412 42.8614 160.448C42.4692 160.485 42.1425 160.679 41.9149 160.954C41.6873 161.229 41.5597 161.596 41.5959 161.978C41.633 162.371 41.8263 162.697 42.1015 162.925C42.3767 163.152 42.7439 163.28 43.126 163.244C43.5072 163.198 43.8448 163.014 44.0724 162.738Z" fill="#EA5F3F"/>
<path d="M49.9228 140.115L52.28 141.008L52.8781 143.467L54.4675 141.501L56.9812 141.689L55.6044 139.577L56.5595 137.234L54.1267 137.901L52.1965 136.267L52.0697 138.785L49.9228 140.115Z" fill="#FFCE00"/>
</g>
<defs>
<clipPath id="clip0_4434_19643">
<rect width="184.37" height="148.118" fill="white" transform="matrix(0.0942452 0.995549 0.995549 -0.0942452 0.742188 14.5405)"/>
</clipPath>
</defs>
</svg>
