<svg width="115" height="112" viewBox="0 0 115 112" fill="none" xmlns="http://www.w3.org/2000/svg">
<g clip-path="url(#clip0_570_23698)">
<path d="M20.5182 74.2107L21.2801 75.2169C21.6922 75.7678 21.6622 76.5401 21.2165 76.9395C20.7707 77.339 19.994 77.278 19.4972 76.8147L18.5803 75.9474C18.0777 75.4776 17.2268 75.4249 16.6817 75.8435L15.6756 76.6053C15.1247 77.0174 14.3459 76.9932 13.9407 76.541C13.5412 76.0953 13.6022 75.3185 14.0656 74.8217L14.9328 73.9048C15.4026 73.4023 15.4495 72.5449 15.0368 72.0063L14.2749 71.0001C13.8628 70.4493 13.8928 69.6769 14.3385 69.2775C14.7842 68.878 15.561 68.939 16.0578 69.4024L16.9747 70.2696C17.4773 70.7394 18.3347 70.7863 18.8733 70.3736L19.8794 69.6117C20.4303 69.1996 21.2026 69.2296 21.6021 69.6753C22.0015 70.121 21.9405 70.8978 21.4772 71.3946L20.61 72.3115C20.1466 72.8083 20.0997 73.6657 20.5182 74.2107Z" fill="#EA5F3F"/>
<path d="M72.911 58.7874L72.4027 58.3111C72.1279 58.0565 71.6567 58.0246 71.3615 58.2541L70.8042 58.672C70.5033 58.8951 70.0739 58.8839 69.8539 58.6384C69.634 58.3929 69.6632 57.9706 69.9243 57.6901L70.4006 57.1818C70.6552 56.907 70.6871 56.4357 70.4576 56.1406L70.0397 55.5833C69.8166 55.2824 69.8278 54.853 70.0733 54.633C70.3188 54.413 70.741 54.4423 71.0216 54.7034L71.5299 55.1796C71.8047 55.4343 72.2759 55.4662 72.5711 55.2367L73.1284 54.8188C73.4293 54.5957 73.8587 54.6069 74.0787 54.8524C74.2987 55.0979 74.2694 55.5201 74.0083 55.8007L73.5321 56.309C73.2774 56.5838 73.2455 57.055 73.475 57.3502L73.8929 57.9075C74.116 58.2084 74.1048 58.6378 73.8593 58.8578C73.6138 59.0777 73.1858 59.042 72.911 58.7874Z" fill="#EA5F3F"/>
<path d="M74.8272 79.6917C73.189 77.8636 73.3426 75.0586 75.1707 73.4203C76.9989 71.782 79.8039 71.9357 81.4421 73.7638C83.0804 75.592 82.9268 78.3969 81.0986 80.0352C79.2712 81.6612 76.4662 81.5076 74.8272 79.6917ZM80.8172 76.8747C80.8548 76.1888 80.6351 75.4887 80.1372 74.9332C79.6394 74.3776 78.9675 74.0828 78.2816 74.0453C77.5957 74.0077 76.8957 74.2274 76.3401 74.7252C75.7846 75.2231 75.4898 75.8949 75.4522 76.5808C75.4146 77.2668 75.6343 77.9668 76.1321 78.5224C76.63 79.0779 77.3018 79.3727 77.9878 79.4103C78.6737 79.4478 79.3737 79.2282 79.9293 78.7303C80.479 78.226 80.7796 77.5606 80.8172 76.8747Z" fill="#F47653"/>
<path d="M81.6772 47.2645C80.9478 46.4505 81.0105 45.1947 81.8309 44.4595C82.6448 43.7301 83.9007 43.7927 84.6359 44.6131C85.3653 45.4271 85.3026 46.6829 84.4822 47.4181C83.6625 48.1411 82.4067 48.0784 81.6772 47.2645ZM84.3511 45.9981C84.3679 45.6919 84.2687 45.3731 84.0487 45.1277C83.8287 44.8822 83.5292 44.7429 83.2165 44.7319C82.9103 44.7152 82.598 44.8086 82.3461 45.0344C82.1006 45.2544 81.9614 45.5539 81.9504 45.8666C81.9336 46.1728 82.0271 46.4851 82.2528 46.737C82.4728 46.9825 82.7723 47.1217 83.085 47.1327C83.3912 47.1495 83.6977 47.0496 83.9554 46.8303C84.2009 46.6103 84.3337 46.3166 84.3511 45.9981Z" fill="#27B3C1"/>
<path d="M42.7768 75.4484C42.0416 74.628 42.1107 73.3664 42.9311 72.6312C43.7515 71.896 45.0131 71.9651 45.7483 72.7855C46.4835 73.6059 46.4144 74.8675 45.594 75.6027C44.7736 76.3379 43.512 76.2688 42.7768 75.4484ZM45.4687 74.1892C45.4855 73.8829 45.3862 73.5642 45.1663 73.3187C44.9405 73.0668 44.6403 72.9398 44.3341 72.923C44.0279 72.9062 43.7091 73.0055 43.4637 73.2255C43.2117 73.4513 43.0847 73.7514 43.0679 74.0577C43.0512 74.3639 43.1504 74.6826 43.3704 74.9281C43.5962 75.18 43.8964 75.307 44.2026 75.3238C44.5088 75.3406 44.8275 75.2413 45.073 75.0213C45.3127 74.7949 45.4519 74.4954 45.4687 74.1892Z" fill="#EA5F3F"/>
<path d="M37.967 55.5757L40.0508 54.9896L41.719 56.3832L41.8133 54.2138L43.6455 53.061L41.6168 52.3049L41.081 50.1993L39.7408 51.9012L37.5741 51.7579L38.7714 53.5619L37.967 55.5757Z" fill="#FFCE00"/>
</g>
<defs>
<clipPath id="clip0_570_23698">
<rect width="66.8247" height="92.2792" fill="white" transform="matrix(0.667377 0.74472 0.74472 -0.667377 0.984375 62.085)"/>
</clipPath>
</defs>
</svg>
