<svg width="136" height="159" viewBox="0 0 136 159" fill="none" xmlns="http://www.w3.org/2000/svg">
<g clip-path="url(#clip0_4434_18207)">
<path d="M31.6986 132.565L33.1417 133.215C33.9262 133.575 34.3569 134.443 34.1058 135.151C33.8547 135.858 32.9627 136.258 32.1374 136.045L30.607 135.641C29.7715 135.425 28.8027 135.878 28.4537 136.666L27.803 138.109C27.4438 138.894 26.5716 139.335 25.8538 139.08C25.1463 138.829 24.7471 137.937 24.9591 137.112L25.3637 135.581C25.5794 134.746 25.1163 133.773 24.3384 133.428L22.8953 132.777C22.1107 132.418 21.6801 131.549 21.9312 130.842C22.1822 130.134 23.0743 129.735 23.8995 129.947L25.43 130.352C26.2655 130.568 27.2379 130.104 27.5833 129.327L28.2339 127.883C28.5931 127.099 29.4617 126.668 30.1692 126.919C30.8767 127.17 31.276 128.062 31.0639 128.888L30.6594 130.418C30.4473 131.243 30.9104 132.216 31.6986 132.565Z" fill="#EA5F3F"/>
<path d="M80.1411 84.1231L79.2954 83.9037C78.8399 83.7883 78.3018 84.036 78.1146 84.466L77.7517 85.2608C77.5542 85.6872 77.0746 85.9326 76.685 85.7943C76.2953 85.6561 76.074 85.1735 76.1931 84.7078L76.4125 83.862C76.5279 83.4065 76.2802 82.8684 75.8502 82.6812L75.0554 82.3183C74.629 82.1208 74.3836 81.6412 74.5219 81.2516C74.6601 80.8619 75.1427 80.6407 75.6084 80.7597L76.4542 80.9791C76.9097 81.0945 77.4478 80.8468 77.635 80.4168L77.9979 79.622C78.1954 79.1956 78.675 78.9502 79.0646 79.0885C79.4543 79.2267 79.6755 79.7093 79.5564 80.175L79.3371 81.0208C79.2217 81.4763 79.4694 82.0144 79.8994 82.2016L80.6942 82.5645C81.1206 82.762 81.366 83.2416 81.2277 83.6312C81.0894 84.0209 80.5966 84.2385 80.1411 84.1231Z" fill="#EA5F3F"/>
<path d="M94.7967 105.996C91.8949 104.966 90.3801 101.785 91.4099 98.883C92.4396 95.9812 95.6209 94.4664 98.5227 95.4961C101.424 96.5258 102.939 99.7072 101.91 102.609C100.873 105.497 97.6919 107.012 94.7967 105.996ZM99.7021 99.2973C99.3317 98.5193 98.6695 97.8803 97.7877 97.5673C96.9059 97.2544 95.989 97.3331 95.211 97.7035C94.4331 98.074 93.794 98.7362 93.4811 99.618C93.1682 100.5 93.2469 101.417 93.6173 102.195C93.9877 102.973 94.6499 103.612 95.5317 103.925C96.4135 104.237 97.3304 104.159 98.1084 103.788C98.8863 103.418 99.5254 102.756 99.8383 101.874C100.141 100.988 100.073 100.075 99.7021 99.2973Z" fill="#F47653"/>
<path d="M82.8754 66.1711C81.5835 65.7127 80.8985 64.292 81.3606 62.9898C81.8191 61.6979 83.2397 61.0129 84.5419 61.475C85.8339 61.9335 86.5188 63.3541 86.0567 64.6563C85.588 65.9446 84.1674 66.6296 82.8754 66.1711ZM85.0599 63.1712C84.8945 62.8239 84.5938 62.5324 84.2042 62.3942C83.8145 62.2559 83.4011 62.2824 83.0501 62.458C82.7028 62.6234 82.4151 62.9138 82.2732 63.3137C82.1349 63.7033 82.1613 64.1168 82.337 64.4677C82.5023 64.815 82.7928 65.1028 83.1926 65.2447C83.5823 65.3829 83.9957 65.3565 84.3467 65.1809C84.694 65.0155 84.9715 64.7214 85.1237 64.3252C85.2619 63.9356 85.2318 63.5324 85.0599 63.1712Z" fill="#27B3C1"/>
<path d="M56.956 120.563C55.6538 120.101 54.9724 118.67 55.4345 117.368C55.8967 116.066 57.3275 115.385 58.6297 115.847C59.932 116.309 60.6133 117.74 60.1512 119.042C59.6891 120.344 58.2582 121.026 56.956 120.563ZM59.1646 117.56C58.9992 117.213 58.6985 116.922 58.3089 116.784C57.909 116.642 57.5022 116.682 57.1548 116.847C56.8075 117.013 56.5161 117.313 56.3779 117.703C56.236 118.103 56.2763 118.51 56.4417 118.857C56.607 119.204 56.9077 119.496 57.2974 119.634C57.6972 119.776 58.1041 119.736 58.4514 119.57C58.7987 119.405 59.0901 119.104 59.2284 118.715C59.3564 118.321 59.3299 117.908 59.1646 117.56Z" fill="#EA5F3F"/>
<path d="M39.7294 101.566L41.6723 99.6698L44.3462 100.203L43.1476 97.7573L44.4733 95.3877L41.7852 95.773L39.931 93.7758L39.4768 96.4547L37.0046 97.5977L39.4063 98.8656L39.7294 101.566Z" fill="#FFCE00"/>
</g>
<defs>
<clipPath id="clip0_4434_18207">
<rect width="86.7633" height="159.545" fill="white" transform="matrix(0.94242 0.334432 0.334432 -0.94242 0.132812 129.953)"/>
</clipPath>
</defs>
</svg>
