<svg width="165" height="199" viewBox="0 0 165 199" fill="none" xmlns="http://www.w3.org/2000/svg">
<g clip-path="url(#clip0_3531_45523)">
<path d="M19.9467 145.544L19.9641 147.013C19.9689 147.814 19.4064 148.517 18.7125 148.583C18.0187 148.648 17.3333 148.054 17.1887 147.276L16.93 145.829C16.7844 145.042 16.0239 144.403 15.2238 144.418L13.7542 144.436C12.9532 144.441 12.2405 143.879 12.1739 143.175C12.1082 142.481 12.7028 141.796 13.4805 141.651L14.9272 141.392C15.7149 141.247 16.3522 140.476 16.3383 139.686L16.3209 138.217C16.3161 137.416 16.8786 136.713 17.5725 136.647C18.2663 136.582 18.9517 137.176 19.0963 137.954L19.355 139.401C19.5006 140.188 20.2712 140.826 21.0612 140.812L22.5307 140.794C23.3318 140.79 24.0344 141.352 24.1001 142.046C24.1658 142.74 23.5712 143.425 22.7935 143.57L21.3468 143.829C20.5691 143.973 19.9318 144.744 19.9467 145.544Z" fill="#EA5F3F"/>
<path d="M79.6886 167.354L79.542 166.556C79.4609 166.127 79.0416 165.771 78.6064 165.782L77.7952 165.788C77.359 165.789 76.9647 165.481 76.9285 165.099C76.8923 164.717 77.2119 164.341 77.6505 164.259L78.4483 164.113C78.8769 164.032 79.2329 163.612 79.2222 163.177L79.2164 162.366C79.2157 161.93 79.5233 161.535 79.9054 161.499C80.2876 161.463 80.6628 161.783 80.7449 162.221L80.8914 163.019C80.9726 163.448 81.3918 163.804 81.8271 163.793L82.6382 163.787C83.0744 163.786 83.4688 164.094 83.505 164.476C83.5412 164.858 83.2216 165.234 82.7829 165.316L81.9851 165.462C81.5565 165.543 81.2005 165.963 81.2113 166.398L81.2171 167.209C81.2178 167.645 80.9101 168.04 80.528 168.076C80.1459 168.112 79.7697 167.782 79.6886 167.354Z" fill="#EA5F3F"/>
<path d="M67.0186 188.257C66.7492 185.411 68.834 182.89 71.6798 182.621C74.5256 182.352 77.0464 184.436 77.3158 187.282C77.5852 190.128 75.5004 192.649 72.6546 192.918C69.8179 193.177 67.2972 191.092 67.0186 188.257ZM74.5779 189.763C75.0878 189.147 75.3664 188.339 75.2845 187.474C75.2027 186.61 74.7774 185.869 74.161 185.359C73.5445 184.849 72.7369 184.57 71.8721 184.652C71.0073 184.734 70.2663 185.159 69.7565 185.776C69.2467 186.392 68.9681 187.2 69.0499 188.065C69.1318 188.929 69.557 189.67 70.1735 190.18C70.7899 190.69 71.5975 190.969 72.4623 190.887C73.3262 190.795 74.0681 190.38 74.5779 189.763Z" fill="#F47653"/>
<path d="M95.8703 162.625C95.7504 161.358 96.678 160.225 97.9551 160.104C99.2222 159.984 100.355 160.912 100.476 162.189C100.596 163.456 99.6682 164.589 98.3911 164.71C97.1231 164.82 95.9903 163.892 95.8703 162.625ZM99.2509 163.289C99.4785 163.014 99.6061 162.647 99.5699 162.265C99.5338 161.883 99.3496 161.545 99.0644 161.318C98.7892 161.091 98.432 160.962 98.0399 160.999C97.6577 161.035 97.3201 161.22 97.0934 161.505C96.8658 161.78 96.7373 162.137 96.7744 162.529C96.8106 162.911 96.9947 163.249 97.28 163.476C97.5552 163.703 97.9114 163.822 98.3045 163.795C98.6866 163.759 99.0142 163.575 99.2509 163.289Z" fill="#27B3C1"/>
<path d="M39.9377 162.107C39.8168 160.83 40.7545 159.696 42.0316 159.575C43.3087 159.454 44.4425 160.392 44.5634 161.669C44.6843 162.946 43.7466 164.08 42.4695 164.201C41.1924 164.322 40.0586 163.384 39.9377 162.107ZM43.3303 162.79C43.5578 162.515 43.6854 162.148 43.6493 161.766C43.6121 161.373 43.4189 161.047 43.1437 160.819C42.8685 160.592 42.5013 160.464 42.1192 160.5C41.727 160.537 41.4003 160.731 41.1727 161.006C40.9451 161.281 40.8176 161.648 40.8537 162.03C40.8909 162.422 41.0841 162.749 41.3593 162.977C41.6345 163.204 42.0017 163.332 42.3838 163.296C42.765 163.249 43.1027 163.065 43.3303 162.79Z" fill="#EA5F3F"/>
<path d="M49.1806 140.166L51.5379 141.059L52.136 143.519L53.7253 141.552L56.239 141.74L54.8622 139.629L55.8173 137.286L53.3845 137.952L51.4544 136.319L51.3275 138.837L49.1806 140.166Z" fill="#FFCE00"/>
</g>
<defs>
<clipPath id="clip0_3531_45523">
<rect width="184.37" height="148.118" fill="white" transform="matrix(0.0942452 0.995549 0.995549 -0.0942452 0 14.5918)"/>
</clipPath>
</defs>
</svg>
