<svg width="182" height="118" viewBox="0 0 182 118" fill="none" xmlns="http://www.w3.org/2000/svg">
<path d="M60.7135 84.0999C59.8602 84.0999 59.0709 83.9612 58.3455 83.6839C57.6309 83.3959 57.0069 82.9959 56.4735 82.4839C55.9509 81.9719 55.5402 81.3692 55.2415 80.6759C54.9535 79.9826 54.8095 79.2252 54.8095 78.4039C54.8095 77.5826 54.9535 76.8252 55.2415 76.1319C55.5402 75.4386 55.9562 74.8359 56.4895 74.3239C57.0229 73.8119 57.6469 73.4172 58.3615 73.1399C59.0869 72.8519 59.8762 72.7079 60.7295 72.7079C61.5829 72.7079 62.3615 72.8412 63.0655 73.1079C63.7802 73.3746 64.3882 73.7799 64.8895 74.3239L64.1535 75.0759C63.6842 74.6066 63.1669 74.2706 62.6015 74.0679C62.0362 73.8652 61.4282 73.7639 60.7775 73.7639C60.0842 73.7639 59.4442 73.8812 58.8575 74.1159C58.2815 74.3399 57.7749 74.6652 57.3375 75.0919C56.9109 75.5079 56.5749 75.9986 56.3295 76.5639C56.0949 77.1186 55.9775 77.7319 55.9775 78.4039C55.9775 79.0652 56.0949 79.6786 56.3295 80.2439C56.5749 80.8092 56.9109 81.3052 57.3375 81.7319C57.7749 82.1479 58.2815 82.4732 58.8575 82.7079C59.4442 82.9319 60.0789 83.0439 60.7615 83.0439C61.4015 83.0439 62.0042 82.9479 62.5695 82.7559C63.1455 82.5639 63.6735 82.2386 64.1535 81.7799L64.8255 82.6759C64.2922 83.1452 63.6682 83.5026 62.9535 83.7479C62.2389 83.9826 61.4922 84.0999 60.7135 84.0999ZM63.6895 82.5319V78.4039H64.8255V82.6759L63.6895 82.5319ZM71.1365 84.0839C70.2619 84.0839 69.4939 83.9026 68.8325 83.5399C68.1712 83.1666 67.6539 82.6599 67.2805 82.0199C66.9072 81.3692 66.7205 80.6279 66.7205 79.7959C66.7205 78.9639 66.8965 78.2279 67.2485 77.5879C67.6112 76.9479 68.1019 76.4466 68.7205 76.0839C69.3499 75.7106 70.0539 75.5239 70.8325 75.5239C71.6219 75.5239 72.3205 75.7052 72.9285 76.0679C73.5472 76.4199 74.0325 76.9212 74.3845 77.5719C74.7365 78.2119 74.9125 78.9532 74.9125 79.7959C74.9125 79.8492 74.9072 79.9079 74.8965 79.9719C74.8965 80.0252 74.8965 80.0839 74.8965 80.1479H67.5845V79.2999H74.2885L73.8405 79.6359C73.8405 79.0279 73.7072 78.4892 73.4405 78.0199C73.1845 77.5399 72.8325 77.1666 72.3845 76.8999C71.9365 76.6332 71.4192 76.4999 70.8325 76.4999C70.2565 76.4999 69.7392 76.6332 69.2805 76.8999C68.8219 77.1666 68.4645 77.5399 68.2085 78.0199C67.9525 78.4999 67.8245 79.0492 67.8245 79.6679V79.8439C67.8245 80.4839 67.9632 81.0492 68.2405 81.5399C68.5285 82.0199 68.9232 82.3986 69.4245 82.6759C69.9365 82.9426 70.5179 83.0759 71.1685 83.0759C71.6805 83.0759 72.1552 82.9852 72.5925 82.8039C73.0405 82.6226 73.4245 82.3452 73.7445 81.9719L74.3845 82.7079C74.0112 83.1559 73.5419 83.4972 72.9765 83.7319C72.4219 83.9666 71.8085 84.0839 71.1365 84.0839ZM79.5128 84.0839C78.7234 84.0839 78.1154 83.8706 77.6888 83.4439C77.2621 83.0172 77.0488 82.4146 77.0488 81.6359V73.7479H78.1848V81.5719C78.1848 82.0626 78.3074 82.4412 78.5528 82.7079C78.8088 82.9746 79.1714 83.1079 79.6408 83.1079C80.1421 83.1079 80.5581 82.9639 80.8888 82.6759L81.2888 83.4919C81.0648 83.6946 80.7928 83.8439 80.4728 83.9399C80.1634 84.0359 79.8434 84.0839 79.5128 84.0839ZM75.5448 76.5479V75.6039H80.7448V76.5479H75.5448ZM86.8083 84.0039V75.6039H87.9443V84.0039H86.8083ZM87.3843 73.7479C87.1496 73.7479 86.9523 73.6679 86.7923 73.5079C86.6323 73.3479 86.5523 73.1559 86.5523 72.9319C86.5523 72.7079 86.6323 72.5212 86.7923 72.3719C86.9523 72.2119 87.1496 72.1319 87.3843 72.1319C87.6189 72.1319 87.8163 72.2066 87.9763 72.3559C88.1363 72.5052 88.2163 72.6919 88.2163 72.9159C88.2163 73.1506 88.1363 73.3479 87.9763 73.5079C87.8269 73.6679 87.6296 73.7479 87.3843 73.7479ZM95.0252 75.5239C95.7078 75.5239 96.3052 75.6572 96.8172 75.9239C97.3398 76.1799 97.7452 76.5746 98.0332 77.1079C98.3318 77.6412 98.4812 78.3132 98.4812 79.1239V84.0039H97.3452V79.2359C97.3452 78.3506 97.1212 77.6839 96.6732 77.2359C96.2358 76.7772 95.6172 76.5479 94.8172 76.5479C94.2198 76.5479 93.6972 76.6706 93.2492 76.9159C92.8118 77.1506 92.4705 77.4972 92.2252 77.9559C91.9905 78.4039 91.8732 78.9479 91.8732 79.5879V84.0039H90.7372V75.6039H91.8252V77.9079L91.6492 77.4759C91.9158 76.8679 92.3425 76.3932 92.9292 76.0519C93.5158 75.6999 94.2145 75.5239 95.0252 75.5239ZM103.438 84.0839C102.744 84.0839 102.088 83.9879 101.47 83.7959C100.851 83.5932 100.366 83.3426 100.014 83.0439L100.526 82.1479C100.867 82.4039 101.304 82.6279 101.838 82.8199C102.371 83.0012 102.931 83.0919 103.518 83.0919C104.318 83.0919 104.894 82.9692 105.246 82.7239C105.598 82.4679 105.774 82.1319 105.774 81.7159C105.774 81.4066 105.672 81.1666 105.47 80.9959C105.278 80.8146 105.022 80.6812 104.702 80.5959C104.382 80.4999 104.024 80.4199 103.63 80.3559C103.235 80.2919 102.84 80.2172 102.446 80.1319C102.062 80.0466 101.71 79.9239 101.39 79.7639C101.07 79.5932 100.808 79.3639 100.606 79.0759C100.414 78.7879 100.318 78.4039 100.318 77.9239C100.318 77.4652 100.446 77.0546 100.702 76.6919C100.958 76.3292 101.331 76.0466 101.822 75.8439C102.323 75.6306 102.931 75.5239 103.646 75.5239C104.19 75.5239 104.734 75.5986 105.278 75.7479C105.822 75.8866 106.27 76.0732 106.622 76.3079L106.126 77.2199C105.752 76.9639 105.352 76.7826 104.926 76.6759C104.499 76.5586 104.072 76.4999 103.646 76.4999C102.888 76.4999 102.328 76.6332 101.966 76.8999C101.614 77.1559 101.438 77.4866 101.438 77.8919C101.438 78.2119 101.534 78.4626 101.726 78.6439C101.928 78.8252 102.19 78.9692 102.51 79.0759C102.84 79.1719 103.198 79.2519 103.582 79.3159C103.976 79.3799 104.366 79.4599 104.75 79.5559C105.144 79.6412 105.502 79.7639 105.822 79.9239C106.152 80.0732 106.414 80.2919 106.606 80.5799C106.808 80.8572 106.91 81.2252 106.91 81.6839C106.91 82.1746 106.771 82.6012 106.494 82.9639C106.227 83.3159 105.832 83.5932 105.31 83.7959C104.798 83.9879 104.174 84.0839 103.438 84.0839ZM112.962 84.0839C112.237 84.0839 111.581 83.9186 110.994 83.5879C110.407 83.2466 109.938 82.7612 109.586 82.1319C109.245 81.4919 109.074 80.7132 109.074 79.7959C109.074 78.8786 109.245 78.1052 109.586 77.4759C109.927 76.8359 110.391 76.3506 110.978 76.0199C111.565 75.6892 112.226 75.5239 112.962 75.5239C113.762 75.5239 114.477 75.7052 115.106 76.0679C115.746 76.4199 116.247 76.9212 116.61 77.5719C116.973 78.2119 117.154 78.9532 117.154 79.7959C117.154 80.6492 116.973 81.3959 116.61 82.0359C116.247 82.6759 115.746 83.1772 115.106 83.5399C114.477 83.9026 113.762 84.0839 112.962 84.0839ZM108.626 87.1079V75.6039H109.714V78.1319L109.602 79.8119L109.762 81.5079V87.1079H108.626ZM112.882 83.0759C113.479 83.0759 114.013 82.9426 114.482 82.6759C114.951 82.3986 115.325 82.0146 115.602 81.5239C115.879 81.0226 116.018 80.4466 116.018 79.7959C116.018 79.1452 115.879 78.5746 115.602 78.0839C115.325 77.5932 114.951 77.2092 114.482 76.9319C114.013 76.6546 113.479 76.5159 112.882 76.5159C112.285 76.5159 111.746 76.6546 111.266 76.9319C110.797 77.2092 110.423 77.5932 110.146 78.0839C109.879 78.5746 109.746 79.1452 109.746 79.7959C109.746 80.4466 109.879 81.0226 110.146 81.5239C110.423 82.0146 110.797 82.3986 111.266 82.6759C111.746 82.9426 112.285 83.0759 112.882 83.0759ZM119.102 84.0039V75.6039H120.238V84.0039H119.102ZM119.678 73.7479C119.443 73.7479 119.246 73.6679 119.086 73.5079C118.926 73.3479 118.846 73.1559 118.846 72.9319C118.846 72.7079 118.926 72.5212 119.086 72.3719C119.246 72.2119 119.443 72.1319 119.678 72.1319C119.913 72.1319 120.11 72.2066 120.27 72.3559C120.43 72.5052 120.51 72.6919 120.51 72.9159C120.51 73.1506 120.43 73.3479 120.27 73.5079C120.121 73.6679 119.923 73.7479 119.678 73.7479ZM123.031 84.0039V75.6039H124.119V77.8919L124.007 77.4919C124.241 76.8519 124.636 76.3666 125.191 76.0359C125.745 75.6946 126.433 75.5239 127.255 75.5239V76.6279C127.212 76.6279 127.169 76.6279 127.127 76.6279C127.084 76.6172 127.041 76.6119 126.999 76.6119C126.113 76.6119 125.42 76.8839 124.919 77.4279C124.417 77.9612 124.167 78.7239 124.167 79.7159V84.0039H123.031ZM132.45 84.0839C131.575 84.0839 130.807 83.9026 130.146 83.5399C129.484 83.1666 128.967 82.6599 128.594 82.0199C128.22 81.3692 128.034 80.6279 128.034 79.7959C128.034 78.9639 128.21 78.2279 128.562 77.5879C128.924 76.9479 129.415 76.4466 130.034 76.0839C130.663 75.7106 131.367 75.5239 132.146 75.5239C132.935 75.5239 133.634 75.7052 134.242 76.0679C134.86 76.4199 135.346 76.9212 135.698 77.5719C136.05 78.2119 136.226 78.9532 136.226 79.7959C136.226 79.8492 136.22 79.9079 136.21 79.9719C136.21 80.0252 136.21 80.0839 136.21 80.1479H128.898V79.2999H135.602L135.154 79.6359C135.154 79.0279 135.02 78.4892 134.754 78.0199C134.498 77.5399 134.146 77.1666 133.698 76.8999C133.25 76.6332 132.732 76.4999 132.146 76.4999C131.57 76.4999 131.052 76.6332 130.594 76.8999C130.135 77.1666 129.778 77.5399 129.522 78.0199C129.266 78.4999 129.138 79.0492 129.138 79.6679V79.8439C129.138 80.4839 129.276 81.0492 129.554 81.5399C129.842 82.0199 130.236 82.3986 130.738 82.6759C131.25 82.9426 131.831 83.0759 132.482 83.0759C132.994 83.0759 133.468 82.9852 133.906 82.8039C134.354 82.6226 134.738 82.3452 135.058 81.9719L135.698 82.7079C135.324 83.1559 134.855 83.4972 134.29 83.7319C133.735 83.9666 133.122 84.0839 132.45 84.0839ZM141.514 84.0839C140.714 84.0839 139.994 83.9026 139.354 83.5399C138.724 83.1772 138.228 82.6759 137.866 82.0359C137.503 81.3852 137.322 80.6386 137.322 79.7959C137.322 78.9426 137.503 78.1959 137.866 77.5559C138.228 76.9159 138.724 76.4199 139.354 76.0679C139.994 75.7052 140.714 75.5239 141.514 75.5239C142.25 75.5239 142.906 75.6892 143.482 76.0199C144.068 76.3506 144.532 76.8359 144.874 77.4759C145.226 78.1052 145.402 78.8786 145.402 79.7959C145.402 80.7026 145.231 81.4759 144.89 82.1159C144.548 82.7559 144.084 83.2466 143.498 83.5879C142.922 83.9186 142.26 84.0839 141.514 84.0839ZM141.594 83.0759C142.191 83.0759 142.724 82.9426 143.194 82.6759C143.674 82.3986 144.047 82.0146 144.314 81.5239C144.591 81.0226 144.73 80.4466 144.73 79.7959C144.73 79.1346 144.591 78.5586 144.314 78.0679C144.047 77.5772 143.674 77.1986 143.194 76.9319C142.724 76.6546 142.191 76.5159 141.594 76.5159C141.007 76.5159 140.479 76.6546 140.01 76.9319C139.54 77.1986 139.167 77.5772 138.89 78.0679C138.612 78.5586 138.474 79.1346 138.474 79.7959C138.474 80.4466 138.612 81.0226 138.89 81.5239C139.167 82.0146 139.54 82.3986 140.01 82.6759C140.479 82.9426 141.007 83.0759 141.594 83.0759ZM144.762 84.0039V81.4759L144.874 79.7799L144.714 78.0839V72.1319H145.85V84.0039H144.762ZM148.694 80.6439L148.47 72.8039H149.814L149.574 80.6439H148.694ZM149.142 84.0839C148.907 84.0839 148.704 84.0039 148.534 83.8439C148.374 83.6732 148.294 83.4759 148.294 83.2519C148.294 83.0172 148.374 82.8252 148.534 82.6759C148.704 82.5159 148.907 82.4359 149.142 82.4359C149.387 82.4359 149.584 82.5159 149.734 82.6759C149.894 82.8252 149.974 83.0172 149.974 83.2519C149.974 83.4759 149.894 83.6732 149.734 83.8439C149.584 84.0039 149.387 84.0839 149.142 84.0839Z" fill="#E7BD11"/>
<path d="M39.3405 104.829L47.1623 90.9622C47.3801 90.5739 47.2549 90.0832 46.8825 89.8375C46.4912 89.5852 45.9588 89.7156 45.6995 90.1002L38.7414 100.882C38.9484 92.4465 40.9174 84.0436 44.5551 76.4193C45.0815 75.3864 45.5796 74.3279 46.1595 73.3401L47.0137 71.8345C47.3167 71.3265 47.6194 70.8344 47.9156 70.3453C49.1327 68.3737 50.4386 66.4381 51.8604 64.6276C54.6888 60.959 57.9988 57.6803 61.7139 54.9464C65.4291 52.2125 69.5738 50.0903 73.9428 48.6316C75.0287 48.2661 76.1394 47.9358 77.2623 47.6469C78.3755 47.3547 79.5009 47.104 80.6382 46.8947C81.7596 46.6853 82.8994 46.5142 84.058 46.3655C85.2034 46.2389 86.339 46.1249 87.4894 46.0747C88.0327 46.0492 88.5631 46.0299 89.1089 46.0425C88.7424 47.0613 88.4616 48.1097 88.2508 49.1716C87.9128 50.9087 87.7756 52.6672 87.8557 54.4155C87.9358 56.1638 88.201 57.9175 88.7384 59.6266C89.2635 61.3101 90.0443 62.9807 91.1898 64.4363C91.3272 64.6063 91.4868 64.7892 91.6401 64.9594C91.7966 65.1359 91.9564 65.303 92.1129 65.4795C92.2791 65.6435 92.4549 65.8107 92.6279 65.9557C92.7127 66.0329 92.8009 66.1006 92.8827 66.1715L93.1374 66.3873C93.8422 66.9609 94.609 67.4654 95.4251 67.891C97.0478 68.7389 98.8936 69.259 100.793 69.2651L101.496 69.2414C101.618 69.2301 101.733 69.2219 101.835 69.204C101.957 69.1927 102.059 69.1748 102.178 69.173C102.648 69.1117 103.1 69.028 103.568 68.9126C104.017 68.7907 104.483 68.6373 104.924 68.4485C105.365 68.2598 105.8 68.0425 106.216 67.7867C106.407 67.6555 106.627 67.5341 106.818 67.3552L107.1 67.1329L107.369 66.9009L107.512 66.785L107.645 66.6499L107.902 66.3924C107.98 66.3075 108.068 66.21 108.146 66.1252L108.381 65.8387C108.989 65.0737 109.446 64.2085 109.736 63.3127C110.366 61.5218 110.428 59.6575 110.262 57.9273L110.255 57.9463C110.259 57.8891 110.244 57.8254 110.254 57.8446L110.248 57.7842L110.219 57.6567L110.182 57.4149C110.159 57.2526 110.127 57.087 110.094 56.9373C110.062 56.7717 110.03 56.622 109.998 56.4723C109.965 56.3226 109.936 56.1634 109.885 56.0072C109.804 55.7076 109.714 55.4047 109.614 55.0986C109.504 54.805 109.42 54.499 109.294 54.2212C108.836 53.0563 108.228 51.9405 107.505 50.9186C107.321 50.6687 107.119 50.4122 106.931 50.1718L106.312 49.4466L105.638 48.7716L104.915 48.1597C103.923 47.354 102.827 46.725 101.706 46.21C100.578 45.6982 99.4009 45.2971 98.2123 44.9879C97.0206 44.6723 95.8238 44.4615 94.6259 44.3143C94.2403 44.2717 93.8387 44.2289 93.4531 44.1864L93.5383 44.0666C93.6401 43.9153 93.7485 43.745 93.8628 43.6033C94.0979 43.3169 94.3207 43.005 94.5684 42.7282C94.7082 42.5901 94.8225 42.4484 94.9368 42.3068L95.3271 41.9141C95.4605 41.7791 95.6031 41.6632 95.7364 41.5281C95.8888 41.3996 96.0124 41.2771 96.1648 41.1486C96.4567 40.8978 96.7357 40.6532 97.0526 40.4376C97.6453 39.9711 98.2913 39.5655 98.956 39.1824C100.285 38.4162 101.708 37.8099 103.169 37.3343C106.096 36.326 109.242 35.9365 112.37 36.0203C115.498 36.104 118.62 36.6388 121.627 37.5758L121.646 37.5824L121.665 37.589C122.612 37.8572 123.599 37.319 123.88 36.404C124.166 35.4479 123.631 34.4695 122.685 34.2012C119.372 33.2226 115.93 32.6682 112.463 32.6219C108.993 32.585 105.485 33.0624 102.147 34.174C100.473 34.7361 98.8539 35.4768 97.3306 36.3678C96.5779 36.8484 95.8286 37.3195 95.1193 37.8737C94.7534 38.1522 94.429 38.4344 94.0724 38.7321C93.9006 38.8699 93.7412 39.0333 93.5821 39.1808C93.4162 39.3473 93.2445 39.4851 93.0977 39.6581L92.6225 40.1546C92.4757 40.3277 92.3322 40.4912 92.1854 40.6643C91.8982 41.0072 91.6233 41.3758 91.3423 41.7316C91.2145 41.9112 91.0864 42.1067 90.9586 42.2863L90.7619 42.57L90.2289 43.4407L89.9545 43.9586C89.0956 43.955 88.2202 43.983 87.3761 44.0432C86.1775 44.1088 84.9968 44.2445 83.8063 44.3928C82.625 44.5603 81.4401 44.7531 80.2672 44.9874C79.1007 45.2186 77.9303 45.491 76.7747 45.8272C75.6259 46.1443 74.4826 46.506 73.3519 46.8774C68.8308 48.4488 64.5555 50.7282 60.7386 53.6135C56.9187 56.4923 53.577 59.9358 50.7208 63.7281C49.2881 65.6146 47.9844 67.6043 46.779 69.6333C46.476 70.1413 46.1826 70.6526 45.8922 71.1703L45.0528 72.7396C44.4754 73.7655 43.9831 74.8527 43.4657 75.9206C39.8498 83.7549 37.9764 92.34 37.885 100.917L31.4747 89.5517C31.252 89.1552 30.7628 89.013 30.3505 89.2115C29.9189 89.4194 29.7501 89.9258 29.9532 90.3475L36.9913 104.78C37.1051 105.016 37.2932 105.209 37.5239 105.342C38.2009 105.693 38.9965 105.483 39.3561 104.845L39.3405 104.829ZM100.703 48.1492C101.694 48.6245 102.616 49.172 103.444 49.852L104.031 50.3798L104.583 50.9485L105.096 51.5517L105.569 52.2053C106.183 53.0829 106.67 54.0448 107.054 55.0563C107.161 55.3117 107.226 55.5635 107.334 55.8189C107.415 56.0867 107.481 56.3384 107.549 56.5966C107.589 56.7273 107.615 56.8483 107.638 56.9789C107.665 57.0999 107.704 57.2306 107.727 57.377C107.747 57.5012 107.767 57.6412 107.79 57.7717L107.812 57.9499L107.823 58.0707C107.82 58.0326 107.82 57.8991 107.824 57.842C107.832 57.7277 107.875 57.6361 107.906 57.5506L107.816 58.1056C107.847 58.4999 107.859 58.8718 107.859 59.2498C107.856 59.4404 107.852 59.631 107.855 59.8185C107.833 60.0025 107.829 60.1931 107.813 60.374C107.739 61.1102 107.595 61.817 107.35 62.4782C106.876 63.8008 106.004 64.89 104.841 65.6073C103.685 66.3215 102.233 66.6352 100.787 66.6153C99.3729 66.5958 97.9594 66.1824 96.6789 65.4845C96.0403 65.1309 95.4185 64.7298 94.8556 64.2531L94.6417 64.0727C94.5695 64.0051 94.5068 63.9409 94.4279 63.8923C94.312 63.767 94.1608 63.6509 94.0449 63.5257C93.9226 63.4035 93.8037 63.2719 93.6912 63.1372L93.3508 62.7107C92.4614 61.5726 91.851 60.1899 91.4266 58.7648C90.9865 57.3237 90.7811 55.7932 90.7418 54.2614C90.6896 52.7358 90.8516 51.1936 91.1503 49.6879C91.4152 48.4583 91.8045 47.2396 92.3072 46.108C92.9703 46.1665 93.6334 46.225 94.3085 46.3249C95.4294 46.4935 96.5307 46.6873 97.614 46.9921C98.7066 47.316 99.7409 47.6838 100.732 48.1591L100.703 48.1492Z" fill="#E7BD11"/>
</svg>
