<svg width="80" height="81" viewBox="0 0 80 81" fill="none" xmlns="http://www.w3.org/2000/svg">
<g clip-path="url(#clip0_3531_45530)">
<path d="M79.8162 46.0877C79.4117 48.9234 74.0939 50.4493 73.114 53.0168C72.0993 55.6679 75.018 60.3465 73.4732 62.6492C71.9005 64.9902 66.4502 64.0601 64.4173 65.9726C62.3738 67.8956 62.9736 73.3824 60.557 74.8038C58.151 76.2217 53.6421 73.0341 50.9536 73.8876C48.3104 74.7271 46.4727 79.9422 43.6412 80.1722C40.9003 80.3986 38.2327 75.5737 35.3907 75.1696C32.5522 74.7655 28.6432 78.6498 26.0732 77.6709C23.4195 76.6571 23.1127 71.1424 20.8077 69.5957C18.4644 68.0245 13.2442 69.8256 11.3298 67.7946C9.40493 65.7532 11.5181 60.6496 10.0954 58.2354C8.67613 55.8316 3.18397 55.2011 2.32963 52.5151C1.48576 49.8745 5.60052 46.1957 5.36689 43.367C5.14022 40.6288 0.464039 37.6781 0.868541 34.8424C1.27304 32.0066 6.59085 30.4808 7.57073 27.9133C8.58547 25.2622 5.66678 20.5836 7.21156 18.2809C8.78423 15.9398 14.2346 16.87 16.2675 14.9574C18.311 13.0344 17.7112 7.54763 20.1277 6.12629C22.5338 4.70843 27.0426 7.896 29.7312 7.0425C32.3709 6.20641 34.2121 0.99481 37.0436 0.761402C39.7845 0.538446 42.4521 5.35988 45.2941 5.76398C48.1325 6.16809 52.0416 2.28029 54.6116 3.26269C57.2652 4.27645 57.5721 9.79113 59.8771 11.3379C62.2204 12.909 67.4406 11.108 69.355 13.139C71.2798 15.1804 69.1667 20.284 70.5894 22.6982C72.0086 25.102 77.5008 25.7325 78.3551 28.4184C79.199 31.0591 75.0843 34.7379 75.3179 37.5666C75.5445 40.3048 80.2207 43.2555 79.8162 46.0912" fill="#E96024"/>
<mask id="mask0_3531_45530" style="mask-type:luminance" maskUnits="userSpaceOnUse" x="55" y="18" width="13" height="13">
<path d="M67.328 18.8906H55.2383V30.5018H67.328V18.8906Z" fill="white"/>
</mask>
<g mask="url(#mask0_3531_45530)">
<mask id="mask1_3531_45530" style="mask-type:luminance" maskUnits="userSpaceOnUse" x="53" y="16" width="17" height="17">
<path d="M57.9652 16.6559L53.1367 28.0586L64.5505 32.8823L69.379 21.4796L57.9652 16.6559Z" fill="white"/>
</mask>
<g mask="url(#mask1_3531_45530)">
<mask id="mask2_3531_45530" style="mask-type:luminance" maskUnits="userSpaceOnUse" x="53" y="16" width="17" height="17">
<path d="M57.9652 16.6559L53.1367 28.0586L64.5505 32.8823L69.379 21.4796L57.9652 16.6559Z" fill="white"/>
</mask>
<g mask="url(#mask2_3531_45530)">
<path d="M58.8412 30.3763C61.066 25.1229 60.8288 24.5411 55.5703 22.3185C60.8288 24.5411 61.4112 24.3042 63.636 19.0508C61.4112 24.3007 61.6483 24.8825 66.9068 27.1086C61.6518 24.886 61.0695 25.1229 58.8447 30.3763H58.8412Z" fill="#E7BD11"/>
</g>
</g>
</g>
<mask id="mask3_3531_45530" style="mask-type:luminance" maskUnits="userSpaceOnUse" x="15" y="48" width="12" height="12">
<path d="M26.8803 48.1533H15.2578V59.7645H26.8803V48.1533Z" fill="white"/>
</mask>
<g mask="url(#mask3_3531_45530)">
<mask id="mask4_3531_45530" style="mask-type:luminance" maskUnits="userSpaceOnUse" x="13" y="46" width="16" height="16">
<path d="M25.533 46.484L13.625 49.9268L17.0711 61.8232L28.9791 58.3804L25.533 46.484Z" fill="white"/>
</mask>
<g mask="url(#mask4_3531_45530)">
<mask id="mask5_3531_45530" style="mask-type:luminance" maskUnits="userSpaceOnUse" x="13" y="46" width="16" height="16">
<path d="M25.533 46.484L13.625 49.9268L17.0711 61.8232L28.9791 58.3804L25.533 46.484Z" fill="white"/>
</mask>
<g mask="url(#mask5_3531_45530)">
<path d="M22.6634 59.7129C21.1256 54.4072 20.5921 54.1146 15.2812 55.6474C20.5921 54.1111 20.885 53.5781 19.3507 48.2725C20.8885 53.5781 21.422 53.8708 26.7329 52.3379C21.422 53.8742 21.1291 54.4072 22.6634 59.7129Z" fill="#E7BD11"/>
</g>
</g>
</g>
<mask id="mask6_3531_45530" style="mask-type:luminance" maskUnits="userSpaceOnUse" x="13" y="43" width="9" height="9">
<path d="M21.2998 43.9727H13.3945V51.4034H21.2998V43.9727Z" fill="white"/>
</mask>
<g mask="url(#mask6_3531_45530)">
<mask id="mask7_3531_45530" style="mask-type:luminance" maskUnits="userSpaceOnUse" x="12" y="42" width="11" height="11">
<path d="M14.9162 42.6156L12.2617 49.7617L19.4115 52.4124L22.0661 45.2663L14.9162 42.6156Z" fill="white"/>
</mask>
<g mask="url(#mask7_3531_45530)">
<mask id="mask8_3531_45530" style="mask-type:luminance" maskUnits="userSpaceOnUse" x="12" y="42" width="11" height="11">
<path d="M14.9162 42.6156L12.2617 49.7617L19.4115 52.4124L22.0661 45.2663L14.9162 42.6156Z" fill="white"/>
</mask>
<g mask="url(#mask8_3531_45530)">
<path d="M15.864 51.2849C17.1228 47.8918 16.9589 47.5295 13.5625 46.2719C16.9589 47.5295 17.3216 47.3658 18.5804 43.9727C17.3216 47.3623 17.4855 47.7281 20.8819 48.9857C17.489 47.7281 17.1228 47.8918 15.864 51.2849Z" fill="#E7BD11"/>
</g>
</g>
</g>
<mask id="mask9_3531_45530" style="mask-type:luminance" maskUnits="userSpaceOnUse" x="49" y="16" width="9" height="9">
<path d="M57.1005 16.5664H49.1953V24.4639H57.1005V16.5664Z" fill="white"/>
</mask>
<g mask="url(#mask9_3531_45530)">
<mask id="mask10_3531_45530" style="mask-type:luminance" maskUnits="userSpaceOnUse" x="48" y="15" width="10" height="11">
<path d="M55.6153 15.507L48.3594 17.8525L50.7072 25.1014L57.963 22.7559L55.6153 15.507Z" fill="white"/>
</mask>
<g mask="url(#mask10_3531_45530)">
<mask id="mask11_3531_45530" style="mask-type:luminance" maskUnits="userSpaceOnUse" x="48" y="15" width="10" height="11">
<path d="M55.6153 15.507L48.3594 17.8525L50.7072 25.1014L57.963 22.7559L55.6153 15.507Z" fill="white"/>
</mask>
<g mask="url(#mask11_3531_45530)">
<path d="M54.5468 24.1441C53.4205 20.6639 53.0613 20.4792 49.5742 21.6045C53.0578 20.4792 53.2426 20.1204 52.1163 16.6367C53.2426 20.1169 53.6053 20.3016 57.0889 19.1763C53.6053 20.3016 53.4205 20.6604 54.5468 24.1441Z" fill="#E7BD11"/>
</g>
</g>
</g>
<path d="M23.0981 22.6076L23.112 23.785L24.4406 25.1576L22.9063 26.6382L17.6094 21.1583L19.1437 19.6778L21.3371 21.9491L21.2708 17.6224L22.9795 15.9746L23.0806 20.5626L28.3915 21.3465L26.5886 23.0813L23.0946 22.611L23.0981 22.6076Z" fill="white"/>
<path d="M25.2812 14.9857L27.234 14.0625L30.4875 20.9498L28.5347 21.8729L25.2812 14.9857Z" fill="white"/>
<path d="M30.3359 12.7383L33.9242 12.4039C34.7576 12.3272 35.5073 12.4143 36.1768 12.6651C36.8498 12.9125 37.3903 13.3027 37.7983 13.8426C38.2098 14.3791 38.4539 15.0306 38.5236 15.7935C38.5969 16.5634 38.4783 17.2497 38.1749 17.8558C37.875 18.462 37.4147 18.9497 36.801 19.3225C36.1908 19.6917 35.4689 19.9147 34.6355 19.9913L31.0473 20.3258L30.3359 12.7418V12.7383ZM34.3914 18.2843C35.047 18.2216 35.5491 17.9917 35.9083 17.5876C36.2675 17.18 36.4139 16.6505 36.3512 15.999C36.2884 15.3511 36.0408 14.8633 35.6189 14.5324C35.1935 14.198 34.653 14.0656 33.9974 14.1248L32.6374 14.2467L33.0315 18.4063L34.3914 18.2843Z" fill="white"/>
<path d="M30.9233 63.6979L30.5467 65.0704L32.9458 65.7323L32.6842 66.6903L30.2851 66.0284L29.7621 67.9166L28.5625 67.5822L29.9922 62.3984L33.9082 63.4784L33.6397 64.4434L30.9233 63.6944V63.6979Z" fill="white"/>
<path d="M37.0623 69.157L36.1557 67.5823L36.0964 67.5754L35.0154 67.4813L34.8829 68.9688L33.6484 68.8608L34.1052 63.5029L36.4242 63.705C36.8984 63.7433 37.3064 63.8583 37.6446 64.0464C37.9829 64.2345 38.234 64.4853 38.3944 64.7954C38.5548 65.1019 38.6175 65.4538 38.5827 65.8475C38.5478 66.2446 38.4258 66.579 38.213 66.8508C38.0003 67.1225 37.7074 67.3211 37.3413 67.4465L38.3944 69.2684L37.0658 69.1604L37.0623 69.157ZM37.3308 65.7395C37.3552 65.4399 37.275 65.203 37.0902 65.0288C36.9089 64.8511 36.6369 64.7431 36.2707 64.7083L35.2525 64.6212L35.0921 66.485L36.1103 66.5721C36.4765 66.6069 36.7659 66.5477 36.9751 66.3979C37.1878 66.2481 37.3064 66.0286 37.3308 65.736V65.7395Z" fill="white"/>
<path d="M39.2344 63.7782L40.4758 63.7051L40.7826 69.0769L39.5412 69.1501L39.2344 63.7782Z" fill="white"/>
<path d="M46.1976 67.2028L46.3859 68.1887L42.2956 68.9725L41.2773 63.6877L45.2666 62.9248L45.4549 63.9107L42.6792 64.4402L42.9058 65.5863L45.3607 65.116L45.5421 66.0671L43.0871 66.5374L43.3208 67.7497L46.1976 67.1993V67.2028Z" fill="white"/>
<path d="M50.2317 60.9873L52.2647 65.9655L51.3197 66.3592L47.599 64.3421L48.8334 67.3694L47.6931 67.8328L45.6602 62.8546L46.6191 62.4609L50.3329 64.478L49.0984 61.4506L50.2317 60.9873Z" fill="white"/>
<path d="M50.6797 60.7541L52.6917 59.3676C53.173 59.0331 53.6577 58.8311 54.1528 58.7579C54.6515 58.6813 55.1188 58.7405 55.5546 58.9391C55.9905 59.1342 56.3602 59.4512 56.667 59.8901C56.9774 60.3326 57.1413 60.7889 57.1692 61.2627C57.1936 61.733 57.0855 62.1894 56.8414 62.6283C56.5973 63.0707 56.2381 63.4574 55.7604 63.7884L53.7483 65.1749L50.6832 60.7541H50.6797ZM55.1257 62.9767C55.5651 62.6701 55.8336 62.3078 55.9243 61.8793C56.0219 61.4543 55.9208 61.0293 55.6279 60.6078C55.3384 60.1862 54.9723 59.9459 54.5364 59.8832C54.1005 59.817 53.6612 59.9354 53.2218 60.2385L52.2838 60.8934L54.1877 63.6281L55.1257 62.9732V62.9767Z" fill="white"/>
<path d="M55.2617 57.4161L56.1265 56.5312L59.2509 59.5795L61.1409 57.6495L61.8663 58.3602L59.1115 61.175L55.2617 57.4161Z" fill="white"/>
<path d="M62.3861 54.3577L63.9553 55.4377L63.2509 56.4619L61.6748 55.3715L57.6367 55.1242L58.3934 54.0338L61.1761 54.201L60.0219 51.6683L60.7193 50.665L62.3896 54.3508L62.3861 54.3577Z" fill="white"/>
<mask id="mask12_3531_45530" style="mask-type:luminance" maskUnits="userSpaceOnUse" x="33" y="18" width="2" height="2">
<path d="M34.3178 18.4238H33.3867V19.354H34.3178V18.4238Z" fill="white"/>
</mask>
<g mask="url(#mask12_3531_45530)">
<mask id="mask13_3531_45530" style="mask-type:luminance" maskUnits="userSpaceOnUse" x="11" y="10" width="59" height="60">
<path d="M46.6875 10.601L11.0078 32.6416L34.073 69.9073L69.7527 47.8668L46.6875 10.601Z" fill="white"/>
</mask>
<g mask="url(#mask13_3531_45530)">
<mask id="mask14_3531_45530" style="mask-type:luminance" maskUnits="userSpaceOnUse" x="11" y="10" width="59" height="60">
<path d="M46.6875 10.601L11.0078 32.6416L34.073 69.9073L69.7527 47.8668L46.6875 10.601Z" fill="white"/>
</mask>
<g mask="url(#mask14_3531_45530)">
<path d="M33.9066 19.2735C33.9066 19.2735 33.9101 19.3013 33.9066 19.3118C34.0252 19.2769 34.1437 19.2421 34.2658 19.2107C34.2484 19.1968 34.2309 19.1829 34.217 19.1655C34.1472 19.0888 34.0566 18.9042 34.067 18.8066C33.9171 18.8484 33.7671 18.8902 33.6172 18.939C33.6416 18.9948 33.6451 19.0853 33.7183 19.1585C33.8194 19.2665 33.8787 19.1132 33.9066 19.2735Z" fill="white"/>
</g>
</g>
</g>
<mask id="mask15_3531_45530" style="mask-type:luminance" maskUnits="userSpaceOnUse" x="33" y="17" width="9" height="3">
<path d="M41.7568 17.96H33.8516V19.3534H41.7568V17.96Z" fill="white"/>
</mask>
<g mask="url(#mask15_3531_45530)">
<mask id="mask16_3531_45530" style="mask-type:luminance" maskUnits="userSpaceOnUse" x="11" y="10" width="59" height="60">
<path d="M46.6875 10.601L11.0078 32.6416L34.073 69.9073L69.7527 47.8668L46.6875 10.601Z" fill="white"/>
</mask>
<g mask="url(#mask16_3531_45530)">
<mask id="mask17_3531_45530" style="mask-type:luminance" maskUnits="userSpaceOnUse" x="11" y="10" width="59" height="60">
<path d="M46.6875 10.601L11.0078 32.6416L34.073 69.9073L69.7527 47.8668L46.6875 10.601Z" fill="white"/>
</mask>
<g mask="url(#mask17_3531_45530)">
<path d="M34.576 19.0157C34.691 19.0087 34.6597 18.6813 34.8201 18.7196C34.9072 18.7405 34.9003 18.9704 34.8794 19.0087C34.8654 19.0331 34.8445 19.0505 34.8166 19.0645C35.0886 18.9983 35.3606 18.9356 35.6326 18.8798C35.5663 18.8485 35.5001 18.7788 35.5175 18.7161C35.5524 18.6081 35.793 18.744 35.7686 18.8555C36.4974 18.7091 37.2297 18.6046 37.9654 18.5384C37.9236 18.5001 37.941 18.42 38.1433 18.3329C38.1747 18.427 38.1607 18.4862 38.1293 18.5245C39.1266 18.4409 40.1274 18.427 41.1247 18.4792C41.1108 18.3956 41.184 18.2528 41.2468 18.1587C41.2712 18.1274 41.2851 18.0856 41.3026 18.0472C40.8109 18.0159 40.3192 18.002 39.824 18.002C39.8415 18.0856 39.8729 18.1692 39.824 18.2458C39.7473 18.2075 39.7404 18.0925 39.7787 18.002C39.3149 18.0054 38.8477 18.0263 38.3839 18.0577C38.3351 18.1518 38.1781 18.2458 38.2165 18.0681C38.1328 18.0751 38.0456 18.0856 37.9585 18.0925C37.9445 18.2145 37.8469 18.3329 37.7876 18.4165C37.798 18.3259 37.7597 18.2179 37.7423 18.1134C37.6132 18.1274 37.4877 18.1413 37.3587 18.1552C37.3447 18.1622 37.3308 18.1622 37.3133 18.1622C37.2575 18.1692 37.2018 18.1761 37.1494 18.1831C37.2122 18.2806 37.2331 18.3852 37.139 18.4095C37.0727 18.427 36.9821 18.3259 36.9367 18.211C36.4102 18.2841 35.8836 18.3747 35.3606 18.4897C35.3815 18.5419 35.4164 18.5907 35.4791 18.629C35.3257 18.7405 35.3222 18.6081 35.3013 18.5001C34.9561 18.5768 34.6074 18.6604 34.2656 18.7509C34.3877 18.7858 34.5341 18.8833 34.576 19.0157Z" fill="white"/>
</g>
</g>
</g>
<mask id="mask18_3531_45530" style="mask-type:luminance" maskUnits="userSpaceOnUse" x="33" y="18" width="1" height="2">
<path d="M33.8505 18.8906H33.3867V19.8208H33.8505V18.8906Z" fill="white"/>
</mask>
<g mask="url(#mask18_3531_45530)">
<mask id="mask19_3531_45530" style="mask-type:luminance" maskUnits="userSpaceOnUse" x="11" y="10" width="59" height="60">
<path d="M46.6875 10.601L11.0078 32.6416L34.073 69.9073L69.7527 47.8668L46.6875 10.601Z" fill="white"/>
</mask>
<g mask="url(#mask19_3531_45530)">
<mask id="mask20_3531_45530" style="mask-type:luminance" maskUnits="userSpaceOnUse" x="11" y="10" width="59" height="60">
<path d="M46.6875 10.601L11.0078 32.6416L34.073 69.9073L69.7527 47.8668L46.6875 10.601Z" fill="white"/>
</mask>
<g mask="url(#mask20_3531_45530)">
<path d="M33.6953 19.3535C33.6953 19.3535 33.6953 19.364 33.6953 19.3709C33.7023 19.3709 33.7127 19.3674 33.7197 19.364C33.7093 19.3605 33.7023 19.357 33.6953 19.3535Z" fill="white"/>
</g>
</g>
</g>
<mask id="mask21_3531_45530" style="mask-type:luminance" maskUnits="userSpaceOnUse" x="33" y="60" width="6" height="3">
<path d="M38.0361 60.6943H33.8516V62.0878H38.0361V60.6943Z" fill="white"/>
</mask>
<g mask="url(#mask21_3531_45530)">
<mask id="mask22_3531_45530" style="mask-type:luminance" maskUnits="userSpaceOnUse" x="11" y="10" width="59" height="60">
<path d="M46.6875 10.601L11.0078 32.6416L34.073 69.9073L69.7527 47.8668L46.6875 10.601Z" fill="white"/>
</mask>
<g mask="url(#mask22_3531_45530)">
<mask id="mask23_3531_45530" style="mask-type:luminance" maskUnits="userSpaceOnUse" x="11" y="10" width="59" height="60">
<path d="M46.6875 10.601L11.0078 32.6416L34.073 69.9073L69.7527 47.8668L46.6875 10.601Z" fill="white"/>
</mask>
<g mask="url(#mask23_3531_45530)">
<path d="M37.6603 61.6671C37.6394 61.6393 37.6568 61.4964 37.6882 61.3501C37.4546 61.3257 37.221 61.2979 36.9873 61.2665C37.0257 61.3222 37.0675 61.3884 37.1094 61.4372C36.9699 61.5591 36.7014 61.3571 36.7223 61.2247C36.5201 61.1933 36.3178 61.1585 36.119 61.1237C36.1888 61.169 36.2341 61.2595 36.1992 61.3397C36.1051 61.5591 35.711 61.4059 35.8993 61.162C35.9272 61.1272 35.9586 61.1097 35.9935 61.1028C35.4146 60.9913 34.8393 60.8589 34.2744 60.7021C34.3057 60.7997 34.386 60.7997 34.3546 60.9042C34.3441 60.939 34.2116 61.0157 34.2081 61.0575C34.2011 61.0958 34.229 61.1202 34.2604 61.155C35.4844 61.486 36.7362 61.7089 38.0021 61.8239C37.9846 61.7682 37.9672 61.7264 37.9393 61.7055C37.9149 61.688 37.7057 61.7194 37.6603 61.6671Z" fill="white"/>
</g>
</g>
</g>
<mask id="mask24_3531_45530" style="mask-type:luminance" maskUnits="userSpaceOnUse" x="60" y="34" width="2" height="3">
<path d="M61.7475 34.6826H60.8164V36.5394H61.7475V34.6826Z" fill="white"/>
</mask>
<g mask="url(#mask24_3531_45530)">
<mask id="mask25_3531_45530" style="mask-type:luminance" maskUnits="userSpaceOnUse" x="11" y="10" width="59" height="60">
<path d="M46.6875 10.601L11.0078 32.6416L34.073 69.9073L69.7527 47.8668L46.6875 10.601Z" fill="white"/>
</mask>
<g mask="url(#mask25_3531_45530)">
<mask id="mask26_3531_45530" style="mask-type:luminance" maskUnits="userSpaceOnUse" x="11" y="10" width="59" height="60">
<path d="M46.6875 10.601L11.0078 32.6416L34.073 69.9073L69.7527 47.8668L46.6875 10.601Z" fill="white"/>
</mask>
<g mask="url(#mask26_3531_45530)">
<path d="M60.9648 35.0963C61.059 35.4969 61.1357 35.8975 61.2055 36.3016C61.2857 36.319 61.3589 36.2807 61.3763 36.1832C61.3903 36.11 61.2438 36.0787 61.2264 36.002C61.195 35.8836 61.3693 35.8209 61.2891 35.6745C61.2647 35.6293 61.1741 35.6014 61.1357 35.5282C61.0729 35.4098 61.1148 35.2565 61.0346 35.152C61.0171 35.1311 60.9927 35.1137 60.9648 35.0928V35.0963Z" fill="white"/>
</g>
</g>
</g>
<mask id="mask27_3531_45530" style="mask-type:luminance" maskUnits="userSpaceOnUse" x="44" y="37" width="19" height="25">
<path d="M62.216 37.0059H44.5469V61.6251H62.216V37.0059Z" fill="white"/>
</mask>
<g mask="url(#mask27_3531_45530)">
<mask id="mask28_3531_45530" style="mask-type:luminance" maskUnits="userSpaceOnUse" x="11" y="10" width="59" height="60">
<path d="M46.6875 10.601L11.0078 32.6416L34.073 69.9073L69.7527 47.8668L46.6875 10.601Z" fill="white"/>
</mask>
<g mask="url(#mask28_3531_45530)">
<mask id="mask29_3531_45530" style="mask-type:luminance" maskUnits="userSpaceOnUse" x="11" y="10" width="59" height="60">
<path d="M46.6875 10.601L11.0078 32.6416L34.073 69.9073L69.7527 47.8668L46.6875 10.601Z" fill="white"/>
</mask>
<g mask="url(#mask29_3531_45530)">
<path d="M61.475 37.3295C61.4158 37.3086 61.4402 37.1588 61.4088 37.1414C61.3879 37.1274 61.36 37.1344 61.3356 37.1484C61.36 37.3434 61.3844 37.535 61.4053 37.7301C61.4611 37.7859 61.5273 37.8277 61.5448 37.8869C61.5657 37.974 61.4994 38.0785 61.4436 38.1656C61.8203 42.7641 60.7079 47.3904 58.2774 51.3165C58.4901 51.4036 58.5528 51.8286 58.2425 51.8948C58.1867 51.7311 58.2565 51.5743 58.2181 51.4106C58.1344 51.5465 58.0472 51.6788 57.96 51.8112C57.9705 51.8182 57.9775 51.8252 57.9775 51.8356C57.9879 51.8704 57.9321 51.9122 57.9008 51.9053C57.8345 52.0028 57.7683 52.1004 57.702 52.1944C57.8694 52.1631 58.0019 52.386 57.8833 52.5289C57.8485 52.5741 57.716 52.6194 57.6009 52.6194C57.6079 52.6787 57.4963 52.7414 57.5032 52.6403C57.5032 52.6264 57.5102 52.6194 57.5137 52.609C57.4823 52.5985 57.4614 52.5811 57.4474 52.5567C56.9558 53.236 56.4257 53.891 55.8504 54.518C55.8469 54.6365 55.7911 54.7584 55.6969 54.7654C55.6725 54.7654 55.6586 54.7549 55.6446 54.741C54.3997 56.0578 52.97 57.2353 51.3625 58.2351C51.3834 58.3466 51.3137 58.5034 51.2544 58.5069C51.1811 58.5173 51.1498 58.4407 51.1637 58.3536C49.3923 59.4266 47.5267 60.2174 45.6192 60.733C45.6436 60.8827 45.6541 60.8235 45.5879 60.9873C45.5321 61.1196 45.5879 61.1998 45.5007 61.2137C45.3054 61.2416 45.2775 61.0151 45.3054 60.8166C45.0962 60.8723 44.8835 60.9211 44.6707 60.9664C44.6533 60.9873 44.6394 61.0116 44.6289 61.05C44.8277 61.1893 44.7719 61.3112 44.6498 61.4227C47.0245 60.9106 49.3539 59.9909 51.5403 58.6427C51.6414 58.5835 51.7356 58.5208 51.8332 58.4581C51.8507 58.364 51.8263 58.2038 52.039 58.1271C52.039 58.2003 51.9832 58.2247 52.0076 58.2735C52.018 58.2944 52.032 58.3083 52.0425 58.3188C53.9673 57.0577 55.6272 55.5422 57.0116 53.8457C56.9871 53.7238 57.0116 53.5914 57.0952 53.6192C57.1197 53.6262 57.1336 53.6471 57.1441 53.6785C60.8683 49.0138 62.5281 43.0149 61.7749 37.1379C61.7156 37.2598 61.5657 37.3609 61.4681 37.326L61.475 37.3295Z" fill="white"/>
</g>
</g>
</g>
<mask id="mask30_3531_45530" style="mask-type:luminance" maskUnits="userSpaceOnUse" x="38" y="61" width="3" height="2">
<path d="M40.8248 61.1582H38.0352V62.0883H40.8248V61.1582Z" fill="white"/>
</mask>
<g mask="url(#mask30_3531_45530)">
<mask id="mask31_3531_45530" style="mask-type:luminance" maskUnits="userSpaceOnUse" x="11" y="10" width="59" height="60">
<path d="M46.6875 10.601L11.0078 32.6416L34.073 69.9073L69.7527 47.8668L46.6875 10.601Z" fill="white"/>
</mask>
<g mask="url(#mask31_3531_45530)">
<mask id="mask32_3531_45530" style="mask-type:luminance" maskUnits="userSpaceOnUse" x="11" y="10" width="59" height="60">
<path d="M46.6875 10.601L11.0078 32.6416L34.073 69.9073L69.7527 47.8668L46.6875 10.601Z" fill="white"/>
</mask>
<g mask="url(#mask32_3531_45530)">
<path d="M38.6897 61.4375C38.7245 61.535 38.6269 61.6848 38.5955 61.866C38.4177 61.7057 38.3898 61.758 38.3828 61.8555C39.0872 61.9078 39.7951 61.9252 40.503 61.9113C40.639 61.7615 40.754 61.6291 40.7471 61.5734C40.7401 61.542 40.6529 61.5176 40.5971 61.4689C39.959 61.4863 39.3243 61.4758 38.6932 61.4375H38.6897Z" fill="white"/>
</g>
</g>
</g>
<mask id="mask33_3531_45530" style="mask-type:luminance" maskUnits="userSpaceOnUse" x="17" y="36" width="2" height="8">
<path d="M18.973 36.0752H17.5781V43.0426H18.973V36.0752Z" fill="white"/>
</mask>
<g mask="url(#mask33_3531_45530)">
<mask id="mask34_3531_45530" style="mask-type:luminance" maskUnits="userSpaceOnUse" x="11" y="10" width="59" height="60">
<path d="M46.6875 10.601L11.0078 32.6416L34.073 69.9073L69.7527 47.8668L46.6875 10.601Z" fill="white"/>
</mask>
<g mask="url(#mask34_3531_45530)">
<mask id="mask35_3531_45530" style="mask-type:luminance" maskUnits="userSpaceOnUse" x="11" y="10" width="59" height="60">
<path d="M46.6875 10.601L11.0078 32.6416L34.073 69.9073L69.7527 47.8668L46.6875 10.601Z" fill="white"/>
</mask>
<g mask="url(#mask35_3531_45530)">
<path d="M18.2789 42.7856C18.3382 42.6358 18.3835 42.4755 18.3731 42.4337C18.3312 42.2665 18.1673 42.2839 18.244 42.1725C18.2719 42.1341 18.4428 42.1864 18.5544 42.2491C18.3766 40.5595 18.401 38.8595 18.6207 37.1908C18.5474 36.8389 18.4533 36.501 18.3312 36.1631C17.9442 38.3613 17.8884 40.6222 18.1848 42.8622L18.2789 42.7856Z" fill="white"/>
</g>
</g>
</g>
<mask id="mask36_3531_45530" style="mask-type:luminance" maskUnits="userSpaceOnUse" x="61" y="36" width="1" height="2">
<path d="M61.7489 36.5391H61.2852V37.0024H61.7489V36.5391Z" fill="white"/>
</mask>
<g mask="url(#mask36_3531_45530)">
<mask id="mask37_3531_45530" style="mask-type:luminance" maskUnits="userSpaceOnUse" x="11" y="10" width="59" height="60">
<path d="M46.6875 10.601L11.0078 32.6416L34.073 69.9073L69.7527 47.8668L46.6875 10.601Z" fill="white"/>
</mask>
<g mask="url(#mask37_3531_45530)">
<mask id="mask38_3531_45530" style="mask-type:luminance" maskUnits="userSpaceOnUse" x="11" y="10" width="59" height="60">
<path d="M46.6875 10.601L11.0078 32.6416L34.073 69.9073L69.7527 47.8668L46.6875 10.601Z" fill="white"/>
</mask>
<g mask="url(#mask38_3531_45530)">
<path d="M61.7452 36.8979C61.7312 36.7934 61.7173 36.6889 61.6998 36.5879C61.6789 36.5879 61.658 36.5949 61.6371 36.6088C61.515 36.6959 61.658 36.7795 61.7452 36.8979Z" fill="white"/>
</g>
</g>
</g>
<mask id="mask39_3531_45530" style="mask-type:luminance" maskUnits="userSpaceOnUse" x="43" y="60" width="2" height="2">
<path d="M44.5482 60.6943H43.6172V61.6245H44.5482V60.6943Z" fill="white"/>
</mask>
<g mask="url(#mask39_3531_45530)">
<mask id="mask40_3531_45530" style="mask-type:luminance" maskUnits="userSpaceOnUse" x="11" y="10" width="59" height="60">
<path d="M46.6875 10.601L11.0078 32.6416L34.073 69.9073L69.7527 47.8668L46.6875 10.601Z" fill="white"/>
</mask>
<g mask="url(#mask40_3531_45530)">
<mask id="mask41_3531_45530" style="mask-type:luminance" maskUnits="userSpaceOnUse" x="11" y="10" width="59" height="60">
<path d="M46.6875 10.601L11.0078 32.6416L34.073 69.9073L69.7527 47.8668L46.6875 10.601Z" fill="white"/>
</mask>
<g mask="url(#mask41_3531_45530)">
<path d="M44.136 61.0785C44.1046 61.1517 44.2092 61.2179 44.1918 61.298C44.1639 61.4025 44.0139 61.4164 44 61.5453C44 61.5488 44.0035 61.5488 44.007 61.5523C44.0837 61.5349 44.1639 61.5209 44.2406 61.507V61.5C44.2476 61.3607 44.4045 61.1238 44.2336 61.0576C44.2023 61.0646 44.1709 61.0715 44.136 61.075V61.0785Z" fill="white"/>
</g>
</g>
</g>
<mask id="mask42_3531_45530" style="mask-type:luminance" maskUnits="userSpaceOnUse" x="41" y="61" width="2" height="1">
<path d="M42.6889 61.1582H41.7578V61.6215H42.6889V61.1582Z" fill="white"/>
</mask>
<g mask="url(#mask42_3531_45530)">
<mask id="mask43_3531_45530" style="mask-type:luminance" maskUnits="userSpaceOnUse" x="11" y="10" width="59" height="60">
<path d="M46.6875 10.601L11.0078 32.6416L34.073 69.9073L69.7527 47.8668L46.6875 10.601Z" fill="white"/>
</mask>
<g mask="url(#mask43_3531_45530)">
<mask id="mask44_3531_45530" style="mask-type:luminance" maskUnits="userSpaceOnUse" x="11" y="10" width="59" height="60">
<path d="M46.6875 10.601L11.0078 32.6416L34.073 69.9073L69.7527 47.8668L46.6875 10.601Z" fill="white"/>
</mask>
<g mask="url(#mask44_3531_45530)">
<path d="M42.0709 61.3817C42.0709 61.3817 42.0639 61.3886 42.0604 61.3956C42.0499 61.413 42.0465 61.427 42.043 61.4444C42.0883 61.4339 42.1511 61.4339 42.1476 61.5245C42.1476 61.5315 42.1441 61.535 42.1371 61.5384C42.1999 61.5454 42.2766 61.521 42.2871 61.4792C42.301 61.4304 42.2731 61.3886 42.2313 61.3643C42.179 61.3712 42.1267 61.3747 42.0709 61.3817Z" fill="white"/>
</g>
</g>
</g>
<mask id="mask45_3531_45530" style="mask-type:luminance" maskUnits="userSpaceOnUse" x="42" y="61" width="2" height="2">
<path d="M43.6146 61.1582H42.6836V62.0883H43.6146V61.1582Z" fill="white"/>
</mask>
<g mask="url(#mask45_3531_45530)">
<mask id="mask46_3531_45530" style="mask-type:luminance" maskUnits="userSpaceOnUse" x="11" y="10" width="59" height="60">
<path d="M46.6875 10.601L11.0078 32.6416L34.073 69.9073L69.7527 47.8668L46.6875 10.601Z" fill="white"/>
</mask>
<g mask="url(#mask46_3531_45530)">
<mask id="mask47_3531_45530" style="mask-type:luminance" maskUnits="userSpaceOnUse" x="11" y="10" width="59" height="60">
<path d="M46.6875 10.601L11.0078 32.6416L34.073 69.9073L69.7527 47.8668L46.6875 10.601Z" fill="white"/>
</mask>
<g mask="url(#mask47_3531_45530)">
<path d="M43.0664 61.5654C43.0664 61.5967 43.0804 61.649 43.1257 61.6386C43.2512 61.6037 43.0664 61.4191 43.0664 61.5654Z" fill="white"/>
</g>
</g>
</g>
<mask id="mask48_3531_45530" style="mask-type:luminance" maskUnits="userSpaceOnUse" x="42" y="61" width="2" height="2">
<path d="M43.1537 61.1582H42.2227V62.0883H43.1537V61.1582Z" fill="white"/>
</mask>
<g mask="url(#mask48_3531_45530)">
<mask id="mask49_3531_45530" style="mask-type:luminance" maskUnits="userSpaceOnUse" x="11" y="10" width="59" height="60">
<path d="M46.6875 10.601L11.0078 32.6416L34.073 69.9073L69.7527 47.8668L46.6875 10.601Z" fill="white"/>
</mask>
<g mask="url(#mask49_3531_45530)">
<mask id="mask50_3531_45530" style="mask-type:luminance" maskUnits="userSpaceOnUse" x="11" y="10" width="59" height="60">
<path d="M46.6875 10.601L11.0078 32.6416L34.073 69.9073L69.7527 47.8668L46.6875 10.601Z" fill="white"/>
</mask>
<g mask="url(#mask50_3531_45530)">
<path d="M42.6786 61.611C42.6159 61.7295 42.7763 61.6459 42.7763 61.6215C42.7867 61.5204 42.6751 61.6215 42.6786 61.611Z" fill="white"/>
</g>
</g>
</g>
<mask id="mask51_3531_45530" style="mask-type:luminance" maskUnits="userSpaceOnUse" x="60" y="34" width="2" height="2">
<path d="M61.7503 34.2188H60.3555V35.1489H61.7503V34.2188Z" fill="white"/>
</mask>
<g mask="url(#mask51_3531_45530)">
<mask id="mask52_3531_45530" style="mask-type:luminance" maskUnits="userSpaceOnUse" x="11" y="10" width="59" height="60">
<path d="M46.6875 10.601L11.0078 32.6416L34.073 69.9073L69.7527 47.8668L46.6875 10.601Z" fill="white"/>
</mask>
<g mask="url(#mask52_3531_45530)">
<mask id="mask53_3531_45530" style="mask-type:luminance" maskUnits="userSpaceOnUse" x="11" y="10" width="59" height="60">
<path d="M46.6875 10.601L11.0078 32.6416L34.073 69.9073L69.7527 47.8668L46.6875 10.601Z" fill="white"/>
</mask>
<g mask="url(#mask53_3531_45530)">
<path d="M60.8648 34.4351C60.8439 34.449 60.8299 34.4665 60.8125 34.4874C60.8439 34.6093 60.8753 34.7382 60.9067 34.8601C60.9345 34.8113 60.9659 34.7695 60.9834 34.7626C61.1054 34.7138 61.1473 34.8148 61.2484 34.9716C61.3286 34.9716 61.3146 34.9089 61.3565 34.8497C61.3321 34.7382 61.3042 34.6267 61.2763 34.5152C61.1682 34.4804 60.9136 34.4038 60.8613 34.4351H60.8648Z" fill="white"/>
</g>
</g>
</g>
<mask id="mask54_3531_45530" style="mask-type:luminance" maskUnits="userSpaceOnUse" x="41" y="17" width="7" height="3">
<path d="M47.3322 17.96H41.2891V19.8168H47.3322V17.96Z" fill="white"/>
</mask>
<g mask="url(#mask54_3531_45530)">
<mask id="mask55_3531_45530" style="mask-type:luminance" maskUnits="userSpaceOnUse" x="11" y="10" width="59" height="60">
<path d="M46.6875 10.601L11.0078 32.6416L34.073 69.9073L69.7527 47.8668L46.6875 10.601Z" fill="white"/>
</mask>
<g mask="url(#mask55_3531_45530)">
<mask id="mask56_3531_45530" style="mask-type:luminance" maskUnits="userSpaceOnUse" x="11" y="10" width="59" height="60">
<path d="M46.6875 10.601L11.0078 32.6416L34.073 69.9073L69.7527 47.8668L46.6875 10.601Z" fill="white"/>
</mask>
<g mask="url(#mask56_3531_45530)">
<path d="M46.7136 19.5316L47.1181 19.2007C45.3153 18.5841 43.4392 18.1974 41.5353 18.0615C41.5248 18.1382 41.5353 18.2287 41.4725 18.3089C41.4446 18.3472 41.3714 18.4273 41.3086 18.4865C43.1498 18.6015 44.9631 18.9568 46.7136 19.5282V19.5316Z" fill="white"/>
</g>
</g>
</g>
<mask id="mask57_3531_45530" style="mask-type:luminance" maskUnits="userSpaceOnUse" x="25" y="56" width="7" height="5">
<path d="M31.9884 56.5146H25.9453V60.6951H31.9884V56.5146Z" fill="white"/>
</mask>
<g mask="url(#mask57_3531_45530)">
<mask id="mask58_3531_45530" style="mask-type:luminance" maskUnits="userSpaceOnUse" x="11" y="10" width="59" height="60">
<path d="M46.6875 10.601L11.0078 32.6416L34.073 69.9073L69.7527 47.8668L46.6875 10.601Z" fill="white"/>
</mask>
<g mask="url(#mask58_3531_45530)">
<mask id="mask59_3531_45530" style="mask-type:luminance" maskUnits="userSpaceOnUse" x="11" y="10" width="59" height="60">
<path d="M46.6875 10.601L11.0078 32.6416L34.073 69.9073L69.7527 47.8668L46.6875 10.601Z" fill="white"/>
</mask>
<g mask="url(#mask59_3531_45530)">
<path d="M26.0742 56.9741C27.8213 58.3955 29.7601 59.5277 31.8175 60.3464C31.8105 60.3359 31.807 60.3255 31.8035 60.3115C31.7442 60.1548 31.8419 60.0259 31.8732 59.8935C29.9275 59.1062 28.0898 58.0297 26.4264 56.6885L26.0742 56.9741Z" fill="white"/>
</g>
</g>
</g>
<mask id="mask60_3531_45530" style="mask-type:luminance" maskUnits="userSpaceOnUse" x="18" y="28" width="4" height="8">
<path d="M21.3003 28.6445H18.0469V35.6119H21.3003V28.6445Z" fill="white"/>
</mask>
<g mask="url(#mask60_3531_45530)">
<mask id="mask61_3531_45530" style="mask-type:luminance" maskUnits="userSpaceOnUse" x="11" y="10" width="59" height="60">
<path d="M46.6875 10.601L11.0078 32.6416L34.073 69.9073L69.7527 47.8668L46.6875 10.601Z" fill="white"/>
</mask>
<g mask="url(#mask61_3531_45530)">
<mask id="mask62_3531_45530" style="mask-type:luminance" maskUnits="userSpaceOnUse" x="11" y="10" width="59" height="60">
<path d="M46.6875 10.601L11.0078 32.6416L34.073 69.9073L69.7527 47.8668L46.6875 10.601Z" fill="white"/>
</mask>
<g mask="url(#mask62_3531_45530)">
<path d="M18.5039 35.2884C18.5423 35.2814 18.5806 35.3128 18.612 35.3999C18.7027 35.3406 18.7829 35.3406 18.8701 35.3371C18.7689 35.1978 18.8979 34.947 19.013 35.0306C19.4733 33.0797 20.2091 31.1881 21.1959 29.4253C21.1192 29.2546 21.046 29.0804 20.9832 28.9062C19.8255 30.8989 18.9956 33.0553 18.5074 35.2849L18.5039 35.2884ZM19.2292 32.801C19.3025 32.6965 19.5814 32.4979 19.6546 32.5363C19.8464 32.6408 19.3792 32.9613 19.2292 32.801Z" fill="white"/>
</g>
</g>
</g>
<mask id="mask63_3531_45530" style="mask-type:luminance" maskUnits="userSpaceOnUse" x="32" y="18" width="2" height="2">
<path d="M33.8519 18.8906H32.457V19.8208H33.8519V18.8906Z" fill="white"/>
</mask>
<g mask="url(#mask63_3531_45530)">
<mask id="mask64_3531_45530" style="mask-type:luminance" maskUnits="userSpaceOnUse" x="11" y="10" width="59" height="60">
<path d="M46.6875 10.601L11.0078 32.6416L34.073 69.9073L69.7527 47.8668L46.6875 10.601Z" fill="white"/>
</mask>
<g mask="url(#mask64_3531_45530)">
<mask id="mask65_3531_45530" style="mask-type:luminance" maskUnits="userSpaceOnUse" x="11" y="10" width="59" height="60">
<path d="M46.6875 10.601L11.0078 32.6416L34.073 69.9073L69.7527 47.8668L46.6875 10.601Z" fill="white"/>
</mask>
<g mask="url(#mask65_3531_45530)">
<path d="M33.4754 19.4412C33.4754 19.4412 33.465 19.4133 33.4545 19.3994C33.4266 19.3611 33.2732 19.3123 33.2662 19.2844C33.2383 19.2043 33.2941 19.0963 33.3673 19.0127C33.1477 19.0789 32.9349 19.152 32.7188 19.2287C32.8722 19.3297 33.0256 19.4307 33.1756 19.5422C33.2767 19.5109 33.3743 19.476 33.4754 19.4412Z" fill="white"/>
</g>
</g>
</g>
<mask id="mask66_3531_45530" style="mask-type:luminance" maskUnits="userSpaceOnUse" x="60" y="32" width="2" height="2">
<path d="M61.2865 32.3584H60.3555V33.2885H61.2865V32.3584Z" fill="white"/>
</mask>
<g mask="url(#mask66_3531_45530)">
<mask id="mask67_3531_45530" style="mask-type:luminance" maskUnits="userSpaceOnUse" x="11" y="10" width="59" height="60">
<path d="M46.6875 10.601L11.0078 32.6416L34.073 69.9073L69.7527 47.8668L46.6875 10.601Z" fill="white"/>
</mask>
<g mask="url(#mask67_3531_45530)">
<mask id="mask68_3531_45530" style="mask-type:luminance" maskUnits="userSpaceOnUse" x="11" y="10" width="59" height="60">
<path d="M46.6875 10.601L11.0078 32.6416L34.073 69.9073L69.7527 47.8668L46.6875 10.601Z" fill="white"/>
</mask>
<g mask="url(#mask68_3531_45530)">
<path d="M60.6444 32.7798C60.5433 32.8773 60.5467 33.0968 60.5642 33.1212C60.6269 33.2187 60.742 33.1282 60.8501 33.0515C60.8152 32.9435 60.7769 32.8355 60.7385 32.7275C60.7072 32.7415 60.6723 32.7554 60.6444 32.7798Z" fill="white"/>
</g>
</g>
</g>
<mask id="mask69_3531_45530" style="mask-type:luminance" maskUnits="userSpaceOnUse" x="60" y="33" width="2" height="2">
<path d="M61.2865 33.2881H60.3555V34.6816H61.2865V33.2881Z" fill="white"/>
</mask>
<g mask="url(#mask69_3531_45530)">
<mask id="mask70_3531_45530" style="mask-type:luminance" maskUnits="userSpaceOnUse" x="11" y="10" width="59" height="60">
<path d="M46.6875 10.601L11.0078 32.6416L34.073 69.9073L69.7527 47.8668L46.6875 10.601Z" fill="white"/>
</mask>
<g mask="url(#mask70_3531_45530)">
<mask id="mask71_3531_45530" style="mask-type:luminance" maskUnits="userSpaceOnUse" x="11" y="10" width="59" height="60">
<path d="M46.6875 10.601L11.0078 32.6416L34.073 69.9073L69.7527 47.8668L46.6875 10.601Z" fill="white"/>
</mask>
<g mask="url(#mask71_3531_45530)">
<path d="M60.9653 33.8637C60.8049 33.7906 60.7282 33.6861 60.5957 33.5293C60.5817 33.5363 60.5678 33.5467 60.5469 33.5606C60.6096 33.7627 60.6689 33.9613 60.7247 34.1633C60.8607 34.3131 61.0804 34.4142 61.2269 34.3271C61.1885 34.1807 61.1501 34.0379 61.1083 33.8916C61.063 33.8916 61.0141 33.8846 60.9653 33.8637Z" fill="white"/>
</g>
</g>
</g>
<mask id="mask72_3531_45530" style="mask-type:luminance" maskUnits="userSpaceOnUse" x="18" y="42" width="1" height="2">
<path d="M18.5107 42.5801H18.0469V43.0434H18.5107V42.5801Z" fill="white"/>
</mask>
<g mask="url(#mask72_3531_45530)">
<mask id="mask73_3531_45530" style="mask-type:luminance" maskUnits="userSpaceOnUse" x="11" y="10" width="59" height="60">
<path d="M46.6875 10.601L11.0078 32.6416L34.073 69.9073L69.7527 47.8668L46.6875 10.601Z" fill="white"/>
</mask>
<g mask="url(#mask73_3531_45530)">
<mask id="mask74_3531_45530" style="mask-type:luminance" maskUnits="userSpaceOnUse" x="11" y="10" width="59" height="60">
<path d="M46.6875 10.601L11.0078 32.6416L34.073 69.9073L69.7527 47.8668L46.6875 10.601Z" fill="white"/>
</mask>
<g mask="url(#mask74_3531_45530)">
<path d="M18.198 42.9663C18.2259 42.9141 18.2538 42.8513 18.2782 42.7852L18.1875 42.8618C18.191 42.8966 18.1945 42.9315 18.198 42.9663Z" fill="white"/>
</g>
</g>
</g>
<mask id="mask75_3531_45530" style="mask-type:luminance" maskUnits="userSpaceOnUse" x="30" y="55" width="2" height="2">
<path d="M31.0639 55.1211H30.1328V56.0512H31.0639V55.1211Z" fill="white"/>
</mask>
<g mask="url(#mask75_3531_45530)">
<mask id="mask76_3531_45530" style="mask-type:luminance" maskUnits="userSpaceOnUse" x="11" y="10" width="59" height="60">
<path d="M46.6875 10.601L11.0078 32.6416L34.073 69.9073L69.7527 47.8668L46.6875 10.601Z" fill="white"/>
</mask>
<g mask="url(#mask76_3531_45530)">
<mask id="mask77_3531_45530" style="mask-type:luminance" maskUnits="userSpaceOnUse" x="11" y="10" width="59" height="60">
<path d="M46.6875 10.601L11.0078 32.6416L34.073 69.9073L69.7527 47.8668L46.6875 10.601Z" fill="white"/>
</mask>
<g mask="url(#mask77_3531_45530)">
<path d="M30.1758 55.501C30.378 55.6612 30.5942 55.8075 30.8174 55.9434L30.8279 55.9504L30.8174 55.9678L30.8069 55.9608C30.5873 55.8215 30.3745 55.6717 30.1758 55.5045V55.501Z" fill="#E7BD11"/>
</g>
</g>
</g>
<mask id="mask78_3531_45530" style="mask-type:luminance" maskUnits="userSpaceOnUse" x="31" y="56" width="2" height="1">
<path d="M32.4573 56.0479H31.0625V56.978H32.4573V56.0479Z" fill="white"/>
</mask>
<g mask="url(#mask78_3531_45530)">
<mask id="mask79_3531_45530" style="mask-type:luminance" maskUnits="userSpaceOnUse" x="11" y="10" width="59" height="60">
<path d="M46.6875 10.601L11.0078 32.6416L34.073 69.9073L69.7527 47.8668L46.6875 10.601Z" fill="white"/>
</mask>
<g mask="url(#mask79_3531_45530)">
<mask id="mask80_3531_45530" style="mask-type:luminance" maskUnits="userSpaceOnUse" x="11" y="10" width="59" height="60">
<path d="M46.6875 10.601L11.0078 32.6416L34.073 69.9073L69.7527 47.8668L46.6875 10.601Z" fill="white"/>
</mask>
<g mask="url(#mask80_3531_45530)">
<path d="M31.5075 56.3019L32.2259 56.6119L32.2503 56.6224L32.2294 56.6746L32.2015 56.6642L31.4901 56.3402L31.4727 56.3298L31.4901 56.2949L31.5075 56.3019Z" fill="#E7BD11"/>
</g>
</g>
</g>
<mask id="mask81_3531_45530" style="mask-type:luminance" maskUnits="userSpaceOnUse" x="32" y="56" width="2" height="2">
<path d="M33.8519 56.5146H32.457V57.4448H33.8519V56.5146Z" fill="white"/>
</mask>
<g mask="url(#mask81_3531_45530)">
<mask id="mask82_3531_45530" style="mask-type:luminance" maskUnits="userSpaceOnUse" x="11" y="10" width="59" height="60">
<path d="M46.6875 10.601L11.0078 32.6416L34.073 69.9073L69.7527 47.8668L46.6875 10.601Z" fill="white"/>
</mask>
<g mask="url(#mask82_3531_45530)">
<mask id="mask83_3531_45530" style="mask-type:luminance" maskUnits="userSpaceOnUse" x="11" y="10" width="59" height="60">
<path d="M46.6875 10.601L11.0078 32.6416L34.073 69.9073L69.7527 47.8668L46.6875 10.601Z" fill="white"/>
</mask>
<g mask="url(#mask83_3531_45530)">
<path d="M32.9581 56.8732L33.7044 57.0996L33.7462 57.1136L33.7218 57.1972L33.6835 57.1832L32.9372 56.9428L32.9023 56.9324L32.9268 56.8662L32.9616 56.8767L32.9581 56.8732Z" fill="#E7BD11"/>
</g>
</g>
</g>
<mask id="mask84_3531_45530" style="mask-type:luminance" maskUnits="userSpaceOnUse" x="34" y="56" width="2" height="2">
<path d="M35.7112 56.9775H34.3164V57.9077H35.7112V56.9775Z" fill="white"/>
</mask>
<g mask="url(#mask84_3531_45530)">
<mask id="mask85_3531_45530" style="mask-type:luminance" maskUnits="userSpaceOnUse" x="11" y="10" width="59" height="60">
<path d="M46.6875 10.601L11.0078 32.6416L34.073 69.9073L69.7527 47.8668L46.6875 10.601Z" fill="white"/>
</mask>
<g mask="url(#mask85_3531_45530)">
<mask id="mask86_3531_45530" style="mask-type:luminance" maskUnits="userSpaceOnUse" x="11" y="10" width="59" height="60">
<path d="M46.6875 10.601L11.0078 32.6416L34.073 69.9073L69.7527 47.8668L46.6875 10.601Z" fill="white"/>
</mask>
<g mask="url(#mask86_3531_45530)">
<path d="M34.456 57.2952L35.2162 57.4624L35.2755 57.4763L35.2511 57.5913L35.1953 57.5774L34.4351 57.3927L34.3828 57.3788L34.4072 57.2812L34.456 57.2952Z" fill="#E7BD11"/>
</g>
</g>
</g>
<mask id="mask87_3531_45530" style="mask-type:luminance" maskUnits="userSpaceOnUse" x="35" y="57" width="3" height="1">
<path d="M37.1058 57.4414H35.7109V57.9047H37.1058V57.4414Z" fill="white"/>
</mask>
<g mask="url(#mask87_3531_45530)">
<mask id="mask88_3531_45530" style="mask-type:luminance" maskUnits="userSpaceOnUse" x="11" y="10" width="59" height="60">
<path d="M46.6875 10.601L11.0078 32.6416L34.073 69.9073L69.7527 47.8668L46.6875 10.601Z" fill="white"/>
</mask>
<g mask="url(#mask88_3531_45530)">
<mask id="mask89_3531_45530" style="mask-type:luminance" maskUnits="userSpaceOnUse" x="11" y="10" width="59" height="60">
<path d="M46.6875 10.601L11.0078 32.6416L34.073 69.9073L69.7527 47.8668L46.6875 10.601Z" fill="white"/>
</mask>
<g mask="url(#mask89_3531_45530)">
<path d="M35.9813 57.6077L36.7519 57.7296L36.8252 57.7435L36.8008 57.8899L36.7275 57.8759L35.9569 57.7366L35.8906 57.7226L35.915 57.5938L35.9778 57.6042L35.9813 57.6077Z" fill="#E7BD11"/>
</g>
</g>
</g>
<mask id="mask90_3531_45530" style="mask-type:luminance" maskUnits="userSpaceOnUse" x="37" y="57" width="2" height="2">
<path d="M38.5003 57.4414H37.1055V58.3716H38.5003V57.4414Z" fill="white"/>
</mask>
<g mask="url(#mask90_3531_45530)">
<mask id="mask91_3531_45530" style="mask-type:luminance" maskUnits="userSpaceOnUse" x="11" y="10" width="59" height="60">
<path d="M46.6875 10.601L11.0078 32.6416L34.073 69.9073L69.7527 47.8668L46.6875 10.601Z" fill="white"/>
</mask>
<g mask="url(#mask91_3531_45530)">
<mask id="mask92_3531_45530" style="mask-type:luminance" maskUnits="userSpaceOnUse" x="11" y="10" width="59" height="60">
<path d="M46.6875 10.601L11.0078 32.6416L34.073 69.9073L69.7527 47.8668L46.6875 10.601Z" fill="white"/>
</mask>
<g mask="url(#mask92_3531_45530)">
<path d="M37.5234 57.8419L38.2976 57.9325L38.3778 57.943L38.3603 58.1067L38.2766 58.0962L37.5025 57.9987L37.4258 57.9882L37.4467 57.835L37.5234 57.8419Z" fill="#E7BD11"/>
</g>
</g>
</g>
<mask id="mask93_3531_45530" style="mask-type:luminance" maskUnits="userSpaceOnUse" x="38" y="57" width="3" height="2">
<path d="M40.3636 57.9082H38.9688V58.3715H40.3636V57.9082Z" fill="white"/>
</mask>
<g mask="url(#mask93_3531_45530)">
<mask id="mask94_3531_45530" style="mask-type:luminance" maskUnits="userSpaceOnUse" x="11" y="10" width="59" height="60">
<path d="M46.6875 10.601L11.0078 32.6416L34.073 69.9073L69.7527 47.8668L46.6875 10.601Z" fill="white"/>
</mask>
<g mask="url(#mask94_3531_45530)">
<mask id="mask95_3531_45530" style="mask-type:luminance" maskUnits="userSpaceOnUse" x="11" y="10" width="59" height="60">
<path d="M46.6875 10.601L11.0078 32.6416L34.073 69.9073L69.7527 47.8668L46.6875 10.601Z" fill="white"/>
</mask>
<g mask="url(#mask95_3531_45530)">
<path d="M39.0742 57.999L39.8518 58.0513L39.946 58.0582L39.9355 58.2429L39.8448 58.2359L39.0637 58.1767L38.9766 58.1697L38.9905 57.999H39.0777H39.0742Z" fill="#E7BD11"/>
</g>
</g>
</g>
<mask id="mask96_3531_45530" style="mask-type:luminance" maskUnits="userSpaceOnUse" x="40" y="57" width="2" height="2">
<path d="M41.7581 57.9082H40.3633V58.3715H41.7581V57.9082Z" fill="white"/>
</mask>
<g mask="url(#mask96_3531_45530)">
<mask id="mask97_3531_45530" style="mask-type:luminance" maskUnits="userSpaceOnUse" x="11" y="10" width="59" height="60">
<path d="M46.6875 10.601L11.0078 32.6416L34.073 69.9073L69.7527 47.8668L46.6875 10.601Z" fill="white"/>
</mask>
<g mask="url(#mask97_3531_45530)">
<mask id="mask98_3531_45530" style="mask-type:luminance" maskUnits="userSpaceOnUse" x="11" y="10" width="59" height="60">
<path d="M46.6875 10.601L11.0078 32.6416L34.073 69.9073L69.7527 47.8668L46.6875 10.601Z" fill="white"/>
</mask>
<g mask="url(#mask98_3531_45530)">
<path d="M40.6285 58.0752H41.4061H41.5072V58.2773H41.4096L40.625 58.2668H40.5273L40.5308 58.0752H40.6285Z" fill="#E7BD11"/>
</g>
</g>
</g>
<mask id="mask99_3531_45530" style="mask-type:luminance" maskUnits="userSpaceOnUse" x="41" y="57" width="3" height="2">
<path d="M43.1526 57.9082H41.7578V58.3715H43.1526V57.9082Z" fill="white"/>
</mask>
<g mask="url(#mask99_3531_45530)">
<mask id="mask100_3531_45530" style="mask-type:luminance" maskUnits="userSpaceOnUse" x="11" y="10" width="59" height="60">
<path d="M46.6875 10.601L11.0078 32.6416L34.073 69.9073L69.7527 47.8668L46.6875 10.601Z" fill="white"/>
</mask>
<g mask="url(#mask100_3531_45530)">
<mask id="mask101_3531_45530" style="mask-type:luminance" maskUnits="userSpaceOnUse" x="11" y="10" width="59" height="60">
<path d="M46.6875 10.601L11.0078 32.6416L34.073 69.9073L69.7527 47.8668L46.6875 10.601Z" fill="white"/>
</mask>
<g mask="url(#mask101_3531_45530)">
<path d="M42.1827 58.0434L42.9569 57.9772L43.065 57.9668L43.0859 58.1863L42.9778 58.1967L42.1932 58.2525L42.0886 58.2629L42.0781 58.0539L42.1827 58.0434Z" fill="#E7BD11"/>
</g>
</g>
</g>
<mask id="mask102_3531_45530" style="mask-type:luminance" maskUnits="userSpaceOnUse" x="43" y="57" width="3" height="2">
<path d="M45.011 57.4414H43.1523V58.3716H45.011V57.4414Z" fill="white"/>
</mask>
<g mask="url(#mask102_3531_45530)">
<mask id="mask103_3531_45530" style="mask-type:luminance" maskUnits="userSpaceOnUse" x="11" y="10" width="59" height="60">
<path d="M46.6875 10.601L11.0078 32.6416L34.073 69.9073L69.7527 47.8668L46.6875 10.601Z" fill="white"/>
</mask>
<g mask="url(#mask103_3531_45530)">
<mask id="mask104_3531_45530" style="mask-type:luminance" maskUnits="userSpaceOnUse" x="11" y="10" width="59" height="60">
<path d="M46.6875 10.601L11.0078 32.6416L34.073 69.9073L69.7527 47.8668L46.6875 10.601Z" fill="white"/>
</mask>
<g mask="url(#mask104_3531_45530)">
<path d="M43.7253 57.8762L44.4855 57.7299L44.604 57.709L44.6563 57.9424L44.5378 57.9633L43.7636 58.1026L43.6521 58.1201L43.6172 57.8936L43.7288 57.8727L43.7253 57.8762Z" fill="#E7BD11"/>
</g>
</g>
</g>
<mask id="mask105_3531_45530" style="mask-type:luminance" maskUnits="userSpaceOnUse" x="45" y="56" width="2" height="2">
<path d="M46.4066 56.9775H45.0117V57.9077H46.4066V56.9775Z" fill="white"/>
</mask>
<g mask="url(#mask105_3531_45530)">
<mask id="mask106_3531_45530" style="mask-type:luminance" maskUnits="userSpaceOnUse" x="11" y="10" width="59" height="60">
<path d="M46.6875 10.601L11.0078 32.6416L34.073 69.9073L69.7527 47.8668L46.6875 10.601Z" fill="white"/>
</mask>
<g mask="url(#mask106_3531_45530)">
<mask id="mask107_3531_45530" style="mask-type:luminance" maskUnits="userSpaceOnUse" x="11" y="10" width="59" height="60">
<path d="M46.6875 10.601L11.0078 32.6416L34.073 69.9073L69.7527 47.8668L46.6875 10.601Z" fill="white"/>
</mask>
<g mask="url(#mask107_3531_45530)">
<path d="M45.2357 57.5424L45.968 57.302L46.0866 57.2637L46.1738 57.5006L46.0552 57.5389L45.302 57.7827L45.1834 57.8211L45.1172 57.5842L45.2323 57.5459L45.2357 57.5424Z" fill="#E7BD11"/>
</g>
</g>
</g>
<mask id="mask108_3531_45530" style="mask-type:luminance" maskUnits="userSpaceOnUse" x="46" y="56" width="2" height="2">
<path d="M47.8011 56.5146H46.4062V57.4448H47.8011V56.5146Z" fill="white"/>
</mask>
<g mask="url(#mask108_3531_45530)">
<mask id="mask109_3531_45530" style="mask-type:luminance" maskUnits="userSpaceOnUse" x="11" y="10" width="59" height="60">
<path d="M46.6875 10.601L11.0078 32.6416L34.073 69.9073L69.7527 47.8668L46.6875 10.601Z" fill="white"/>
</mask>
<g mask="url(#mask109_3531_45530)">
<mask id="mask110_3531_45530" style="mask-type:luminance" maskUnits="userSpaceOnUse" x="11" y="10" width="59" height="60">
<path d="M46.6875 10.601L11.0078 32.6416L34.073 69.9073L69.7527 47.8668L46.6875 10.601Z" fill="white"/>
</mask>
<g mask="url(#mask110_3531_45530)">
<path d="M46.6776 57.0022C46.9112 56.8942 47.1379 56.7757 47.3576 56.6433L47.4691 56.5771L47.6017 56.8001L47.4901 56.8663C47.2599 57.0022 47.0263 57.1206 46.7857 57.2321L46.6706 57.2843L46.5625 57.0544L46.6776 56.9987V57.0022Z" fill="#E7BD11"/>
</g>
</g>
</g>
<mask id="mask111_3531_45530" style="mask-type:luminance" maskUnits="userSpaceOnUse" x="47" y="55" width="3" height="2">
<path d="M49.1956 55.584H47.8008V56.5141H49.1956V55.584Z" fill="white"/>
</mask>
<g mask="url(#mask111_3531_45530)">
<mask id="mask112_3531_45530" style="mask-type:luminance" maskUnits="userSpaceOnUse" x="11" y="10" width="59" height="60">
<path d="M46.6875 10.601L11.0078 32.6416L34.073 69.9073L69.7527 47.8668L46.6875 10.601Z" fill="white"/>
</mask>
<g mask="url(#mask112_3531_45530)">
<mask id="mask113_3531_45530" style="mask-type:luminance" maskUnits="userSpaceOnUse" x="11" y="10" width="59" height="60">
<path d="M46.6875 10.601L11.0078 32.6416L34.073 69.9073L69.7527 47.8668L46.6875 10.601Z" fill="white"/>
</mask>
<g mask="url(#mask113_3531_45530)">
<path d="M47.9991 56.2213C48.2049 56.068 48.4036 55.9078 48.5919 55.7336L48.6896 55.6465L48.8674 55.8416L48.7698 55.9287C48.5745 56.1063 48.3653 56.2735 48.1526 56.4303L48.048 56.507L47.8945 56.2979L47.9991 56.2213Z" fill="#E7BD11"/>
</g>
</g>
</g>
<mask id="mask114_3531_45530" style="mask-type:luminance" maskUnits="userSpaceOnUse" x="48" y="54" width="3" height="2">
<path d="M50.1253 54.1904H48.7305V55.5839H50.1253V54.1904Z" fill="white"/>
</mask>
<g mask="url(#mask114_3531_45530)">
<mask id="mask115_3531_45530" style="mask-type:luminance" maskUnits="userSpaceOnUse" x="11" y="10" width="59" height="60">
<path d="M46.6875 10.601L11.0078 32.6416L34.073 69.9073L69.7527 47.8668L46.6875 10.601Z" fill="white"/>
</mask>
<g mask="url(#mask115_3531_45530)">
<mask id="mask116_3531_45530" style="mask-type:luminance" maskUnits="userSpaceOnUse" x="11" y="10" width="59" height="60">
<path d="M46.6875 10.601L11.0078 32.6416L34.073 69.9073L69.7527 47.8668L46.6875 10.601Z" fill="white"/>
</mask>
<g mask="url(#mask116_3531_45530)">
<path d="M49.1301 55.1941C49.2975 55.0025 49.4579 54.8039 49.6079 54.5949L49.6846 54.4834L49.9043 54.6402L49.8276 54.7516C49.6741 54.9641 49.5068 55.1732 49.3289 55.3717L49.2417 55.4728L49.043 55.2951L49.1336 55.1941H49.1301Z" fill="#E7BD11"/>
</g>
</g>
</g>
<mask id="mask117_3531_45530" style="mask-type:luminance" maskUnits="userSpaceOnUse" x="49" y="52" width="3" height="3">
<path d="M51.055 52.7969H49.6602V54.6537H51.055V52.7969Z" fill="white"/>
</mask>
<g mask="url(#mask117_3531_45530)">
<mask id="mask118_3531_45530" style="mask-type:luminance" maskUnits="userSpaceOnUse" x="11" y="10" width="59" height="60">
<path d="M46.6875 10.601L11.0078 32.6416L34.073 69.9073L69.7527 47.8668L46.6875 10.601Z" fill="white"/>
</mask>
<g mask="url(#mask118_3531_45530)">
<mask id="mask119_3531_45530" style="mask-type:luminance" maskUnits="userSpaceOnUse" x="11" y="10" width="59" height="60">
<path d="M46.6875 10.601L11.0078 32.6416L34.073 69.9073L69.7527 47.8668L46.6875 10.601Z" fill="white"/>
</mask>
<g mask="url(#mask119_3531_45530)">
<path d="M50.0311 53.947L50.4112 53.2747L50.4774 53.1562L50.7215 53.2851L50.6553 53.4036L50.2612 54.0864L50.195 54.2048L49.9648 54.062L50.0311 53.9436V53.947Z" fill="#E7BD11"/>
</g>
</g>
</g>
<mask id="mask120_3531_45530" style="mask-type:luminance" maskUnits="userSpaceOnUse" x="50" y="51" width="2" height="3">
<path d="M51.5209 51.4043H50.5898V53.2611H51.5209V51.4043Z" fill="white"/>
</mask>
<g mask="url(#mask120_3531_45530)">
<mask id="mask121_3531_45530" style="mask-type:luminance" maskUnits="userSpaceOnUse" x="11" y="10" width="59" height="60">
<path d="M46.6875 10.601L11.0078 32.6416L34.073 69.9073L69.7527 47.8668L46.6875 10.601Z" fill="white"/>
</mask>
<g mask="url(#mask121_3531_45530)">
<mask id="mask122_3531_45530" style="mask-type:luminance" maskUnits="userSpaceOnUse" x="11" y="10" width="59" height="60">
<path d="M46.6875 10.601L11.0078 32.6416L34.073 69.9073L69.7527 47.8668L46.6875 10.601Z" fill="white"/>
</mask>
<g mask="url(#mask122_3531_45530)">
<path d="M50.7398 52.581C50.8409 52.3442 50.9351 52.1073 51.0153 51.8634L51.0606 51.7275L51.3291 51.8181L51.2838 51.954C51.2001 52.2048 51.1025 52.4521 50.9979 52.6925L50.9421 52.8179L50.6875 52.7065L50.7433 52.581H50.7398Z" fill="#E7BD11"/>
</g>
</g>
</g>
<mask id="mask123_3531_45530" style="mask-type:luminance" maskUnits="userSpaceOnUse" x="51" y="50" width="1" height="2">
<path d="M51.9857 50.0107H51.0547V51.4042H51.9857V50.0107Z" fill="white"/>
</mask>
<g mask="url(#mask123_3531_45530)">
<mask id="mask124_3531_45530" style="mask-type:luminance" maskUnits="userSpaceOnUse" x="11" y="10" width="59" height="60">
<path d="M46.6875 10.601L11.0078 32.6416L34.073 69.9073L69.7527 47.8668L46.6875 10.601Z" fill="white"/>
</mask>
<g mask="url(#mask124_3531_45530)">
<mask id="mask125_3531_45530" style="mask-type:luminance" maskUnits="userSpaceOnUse" x="11" y="10" width="59" height="60">
<path d="M46.6875 10.601L11.0078 32.6416L34.073 69.9073L69.7527 47.8668L46.6875 10.601Z" fill="white"/>
</mask>
<g mask="url(#mask125_3531_45530)">
<path d="M51.2189 51.1287C51.2712 50.8779 51.3095 50.6271 51.327 50.3762L51.3374 50.2334L51.6234 50.2543L51.6129 50.3971C51.592 50.6654 51.5502 50.9301 51.4944 51.1879L51.463 51.3273L51.1875 51.2681L51.2154 51.1287H51.2189Z" fill="#E7BD11"/>
</g>
</g>
</g>
<mask id="mask126_3531_45530" style="mask-type:luminance" maskUnits="userSpaceOnUse" x="51" y="48" width="1" height="3">
<path d="M51.9857 48.6172H51.0547V50.0107H51.9857V48.6172Z" fill="white"/>
</mask>
<g mask="url(#mask126_3531_45530)">
<mask id="mask127_3531_45530" style="mask-type:luminance" maskUnits="userSpaceOnUse" x="11" y="10" width="59" height="60">
<path d="M46.6875 10.601L11.0078 32.6416L34.073 69.9073L69.7527 47.8668L46.6875 10.601Z" fill="white"/>
</mask>
<g mask="url(#mask127_3531_45530)">
<mask id="mask128_3531_45530" style="mask-type:luminance" maskUnits="userSpaceOnUse" x="11" y="10" width="59" height="60">
<path d="M46.6875 10.601L11.0078 32.6416L34.073 69.9073L69.7527 47.8668L46.6875 10.601Z" fill="white"/>
</mask>
<g mask="url(#mask128_3531_45530)">
<path d="M51.3108 49.6242C51.2968 49.5022 51.2794 49.3768 51.248 49.2549C51.2341 49.1922 51.2201 49.133 51.2027 49.0737C51.1853 49.0145 51.1643 48.9588 51.1469 48.8961L51.1016 48.7567L51.3736 48.6592L51.4224 48.7985C51.4677 48.9309 51.5061 49.0598 51.534 49.1922C51.5619 49.3246 51.5863 49.4569 51.6002 49.5928L51.6177 49.7391L51.3282 49.7705L51.3108 49.6276V49.6242Z" fill="#E7BD11"/>
</g>
</g>
</g>
<mask id="mask129_3531_45530" style="mask-type:luminance" maskUnits="userSpaceOnUse" x="49" y="47" width="3" height="2">
<path d="M51.5188 47.2236H49.6602V48.6171H51.5188V47.2236Z" fill="white"/>
</mask>
<g mask="url(#mask129_3531_45530)">
<mask id="mask130_3531_45530" style="mask-type:luminance" maskUnits="userSpaceOnUse" x="11" y="10" width="59" height="60">
<path d="M46.6875 10.601L11.0078 32.6416L34.073 69.9073L69.7527 47.8668L46.6875 10.601Z" fill="white"/>
</mask>
<g mask="url(#mask130_3531_45530)">
<mask id="mask131_3531_45530" style="mask-type:luminance" maskUnits="userSpaceOnUse" x="11" y="10" width="59" height="60">
<path d="M46.6875 10.601L11.0078 32.6416L34.073 69.9073L69.7527 47.8668L46.6875 10.601Z" fill="white"/>
</mask>
<g mask="url(#mask131_3531_45530)">
<path d="M50.787 48.2787C50.6266 48.108 50.4173 47.9861 50.1942 47.9443L50.0547 47.9164L50.107 47.6377L50.25 47.6621C50.5394 47.7178 50.8009 47.8746 50.9962 48.0801L51.0973 48.1846L50.8881 48.3832L50.787 48.2787Z" fill="#E7BD11"/>
</g>
</g>
</g>
<mask id="mask132_3531_45530" style="mask-type:luminance" maskUnits="userSpaceOnUse" x="48" y="47" width="2" height="2">
<path d="M49.6605 47.6865H48.2656V48.6167H49.6605V47.6865Z" fill="white"/>
</mask>
<g mask="url(#mask132_3531_45530)">
<mask id="mask133_3531_45530" style="mask-type:luminance" maskUnits="userSpaceOnUse" x="11" y="10" width="59" height="60">
<path d="M46.6875 10.601L11.0078 32.6416L34.073 69.9073L69.7527 47.8668L46.6875 10.601Z" fill="white"/>
</mask>
<g mask="url(#mask133_3531_45530)">
<mask id="mask134_3531_45530" style="mask-type:luminance" maskUnits="userSpaceOnUse" x="11" y="10" width="59" height="60">
<path d="M46.6875 10.601L11.0078 32.6416L34.073 69.9073L69.7527 47.8668L46.6875 10.601Z" fill="white"/>
</mask>
<g mask="url(#mask134_3531_45530)">
<path d="M49.5185 48.0284C49.2988 48.1224 49.1036 48.2722 48.9327 48.4499L48.8351 48.5509L48.6328 48.3558L48.7305 48.2548C48.9222 48.0597 49.1454 47.8855 49.4069 47.7706L49.536 47.7148L49.6476 47.9726L49.5185 48.0284Z" fill="#E7BD11"/>
</g>
</g>
</g>
<mask id="mask135_3531_45530" style="mask-type:luminance" maskUnits="userSpaceOnUse" x="47" y="48" width="2" height="3">
<path d="M48.7318 48.6172H47.8008V50.0107H48.7318V48.6172Z" fill="white"/>
</mask>
<g mask="url(#mask135_3531_45530)">
<mask id="mask136_3531_45530" style="mask-type:luminance" maskUnits="userSpaceOnUse" x="11" y="10" width="59" height="60">
<path d="M46.6875 10.601L11.0078 32.6416L34.073 69.9073L69.7527 47.8668L46.6875 10.601Z" fill="white"/>
</mask>
<g mask="url(#mask136_3531_45530)">
<mask id="mask137_3531_45530" style="mask-type:luminance" maskUnits="userSpaceOnUse" x="11" y="10" width="59" height="60">
<path d="M46.6875 10.601L11.0078 32.6416L34.073 69.9073L69.7527 47.8668L46.6875 10.601Z" fill="white"/>
</mask>
<g mask="url(#mask137_3531_45530)">
<path d="M48.5074 49.0486C48.3993 49.2715 48.3226 49.5084 48.2808 49.7523L48.2564 49.8881L47.9844 49.8428L48.0088 49.707C48.0541 49.4387 48.1378 49.174 48.2564 48.9301L48.3156 48.8047L48.5667 48.9266L48.504 49.0486H48.5074Z" fill="#E7BD11"/>
</g>
</g>
</g>
<mask id="mask138_3531_45530" style="mask-type:luminance" maskUnits="userSpaceOnUse" x="47" y="50" width="2" height="2">
<path d="M48.7318 50.0107H47.8008V51.8676H48.7318V50.0107Z" fill="white"/>
</mask>
<g mask="url(#mask138_3531_45530)">
<mask id="mask139_3531_45530" style="mask-type:luminance" maskUnits="userSpaceOnUse" x="11" y="10" width="59" height="60">
<path d="M46.6875 10.601L11.0078 32.6416L34.073 69.9073L69.7527 47.8668L46.6875 10.601Z" fill="white"/>
</mask>
<g mask="url(#mask139_3531_45530)">
<mask id="mask140_3531_45530" style="mask-type:luminance" maskUnits="userSpaceOnUse" x="11" y="10" width="59" height="60">
<path d="M46.6875 10.601L11.0078 32.6416L34.073 69.9073L69.7527 47.8668L46.6875 10.601Z" fill="white"/>
</mask>
<g mask="url(#mask140_3531_45530)">
<path d="M48.2586 50.4909C48.2865 50.7348 48.3527 50.9751 48.4608 51.1911L48.5201 51.3096L48.283 51.428L48.2237 51.3096C48.0982 51.0622 48.0215 50.794 47.9901 50.5188L47.9727 50.3829L48.2412 50.3516L48.2586 50.4874V50.4909Z" fill="#E7BD11"/>
</g>
</g>
</g>
<mask id="mask141_3531_45530" style="mask-type:luminance" maskUnits="userSpaceOnUse" x="48" y="51" width="3" height="2">
<path d="M50.1242 51.4043H48.2656V52.7978H50.1242V51.4043Z" fill="white"/>
</mask>
<g mask="url(#mask141_3531_45530)">
<mask id="mask142_3531_45530" style="mask-type:luminance" maskUnits="userSpaceOnUse" x="11" y="10" width="59" height="60">
<path d="M46.6875 10.601L11.0078 32.6416L34.073 69.9073L69.7527 47.8668L46.6875 10.601Z" fill="white"/>
</mask>
<g mask="url(#mask142_3531_45530)">
<mask id="mask143_3531_45530" style="mask-type:luminance" maskUnits="userSpaceOnUse" x="11" y="10" width="59" height="60">
<path d="M46.6875 10.601L11.0078 32.6416L34.073 69.9073L69.7527 47.8668L46.6875 10.601Z" fill="white"/>
</mask>
<g mask="url(#mask143_3531_45530)">
<path d="M48.9083 51.759C49.0931 51.9157 49.3128 52.0342 49.5429 52.1213L49.665 52.1666L49.5708 52.4104L49.4488 52.3616C49.1942 52.2676 48.9467 52.1352 48.7339 51.9575L48.6328 51.8739L48.8037 51.6719L48.9048 51.7555L48.9083 51.759Z" fill="#E7BD11"/>
</g>
</g>
</g>
<mask id="mask144_3531_45530" style="mask-type:luminance" maskUnits="userSpaceOnUse" x="49" y="51" width="3" height="2">
<path d="M51.5188 51.8672H49.6602V52.7973H51.5188V51.8672Z" fill="white"/>
</mask>
<g mask="url(#mask144_3531_45530)">
<mask id="mask145_3531_45530" style="mask-type:luminance" maskUnits="userSpaceOnUse" x="11" y="10" width="59" height="60">
<path d="M46.6875 10.601L11.0078 32.6416L34.073 69.9073L69.7527 47.8668L46.6875 10.601Z" fill="white"/>
</mask>
<g mask="url(#mask145_3531_45530)">
<mask id="mask146_3531_45530" style="mask-type:luminance" maskUnits="userSpaceOnUse" x="11" y="10" width="59" height="60">
<path d="M46.6875 10.601L11.0078 32.6416L34.073 69.9073L69.7527 47.8668L46.6875 10.601Z" fill="white"/>
</mask>
<g mask="url(#mask146_3531_45530)">
<path d="M50.2741 52.2923C50.5252 52.3236 50.7797 52.3306 51.0308 52.3201L51.1598 52.3132L51.1738 52.5675L51.0448 52.5744C50.7797 52.5884 50.5112 52.5814 50.2427 52.55L50.1172 52.5361L50.1486 52.2783L50.2741 52.2957V52.2923Z" fill="#E7BD11"/>
</g>
</g>
</g>
<mask id="mask147_3531_45530" style="mask-type:luminance" maskUnits="userSpaceOnUse" x="51" y="51" width="2" height="2">
<path d="M52.9144 51.8672H51.5195V52.7973H52.9144V51.8672Z" fill="white"/>
</mask>
<g mask="url(#mask147_3531_45530)">
<mask id="mask148_3531_45530" style="mask-type:luminance" maskUnits="userSpaceOnUse" x="11" y="10" width="59" height="60">
<path d="M46.6875 10.601L11.0078 32.6416L34.073 69.9073L69.7527 47.8668L46.6875 10.601Z" fill="white"/>
</mask>
<g mask="url(#mask148_3531_45530)">
<mask id="mask149_3531_45530" style="mask-type:luminance" maskUnits="userSpaceOnUse" x="11" y="10" width="59" height="60">
<path d="M46.6875 10.601L11.0078 32.6416L34.073 69.9073L69.7527 47.8668L46.6875 10.601Z" fill="white"/>
</mask>
<g mask="url(#mask149_3531_45530)">
<path d="M51.7861 52.226C52.0337 52.1772 52.2813 52.1075 52.5149 52.017L52.6335 51.9717L52.7241 52.2051L52.6091 52.2504C52.358 52.3479 52.0999 52.4211 51.8384 52.4768L51.7164 52.5012L51.6641 52.2539L51.7861 52.2295V52.226Z" fill="#E7BD11"/>
</g>
</g>
</g>
<mask id="mask150_3531_45530" style="mask-type:luminance" maskUnits="userSpaceOnUse" x="52" y="50" width="3" height="3">
<path d="M54.3128 50.9404H52.918V52.3339H54.3128V50.9404Z" fill="white"/>
</mask>
<g mask="url(#mask150_3531_45530)">
<mask id="mask151_3531_45530" style="mask-type:luminance" maskUnits="userSpaceOnUse" x="11" y="10" width="59" height="60">
<path d="M46.6875 10.601L11.0078 32.6416L34.073 69.9073L69.7527 47.8668L46.6875 10.601Z" fill="white"/>
</mask>
<g mask="url(#mask151_3531_45530)">
<mask id="mask152_3531_45530" style="mask-type:luminance" maskUnits="userSpaceOnUse" x="11" y="10" width="59" height="60">
<path d="M46.6875 10.601L11.0078 32.6416L34.073 69.9073L69.7527 47.8668L46.6875 10.601Z" fill="white"/>
</mask>
<g mask="url(#mask152_3531_45530)">
<path d="M53.1945 51.6827C53.4107 51.5503 53.6164 51.404 53.8082 51.2368L53.8989 51.1602L54.0558 51.3378L53.9651 51.4145C53.7663 51.5921 53.5501 51.7524 53.3235 51.8952L53.2189 51.9579L53.0898 51.7489L53.1945 51.6862V51.6827Z" fill="#E7BD11"/>
</g>
</g>
</g>
<mask id="mask153_3531_45530" style="mask-type:luminance" maskUnits="userSpaceOnUse" x="53" y="49" width="3" height="2">
<path d="M55.2386 49.5469H53.8438V50.9404H55.2386V49.5469Z" fill="white"/>
</mask>
<g mask="url(#mask153_3531_45530)">
<mask id="mask154_3531_45530" style="mask-type:luminance" maskUnits="userSpaceOnUse" x="11" y="10" width="59" height="60">
<path d="M46.6875 10.601L11.0078 32.6416L34.073 69.9073L69.7527 47.8668L46.6875 10.601Z" fill="white"/>
</mask>
<g mask="url(#mask154_3531_45530)">
<mask id="mask155_3531_45530" style="mask-type:luminance" maskUnits="userSpaceOnUse" x="11" y="10" width="59" height="60">
<path d="M46.6875 10.601L11.0078 32.6416L34.073 69.9073L69.7527 47.8668L46.6875 10.601Z" fill="white"/>
</mask>
<g mask="url(#mask155_3531_45530)">
<path d="M54.3432 50.6897C54.5071 50.4947 54.657 50.2856 54.793 50.0696L54.8523 49.9756L55.0371 50.0905L54.9813 50.1846C54.8418 50.411 54.6884 50.627 54.521 50.8326L54.4513 50.9197L54.2734 50.7734L54.3467 50.6863L54.3432 50.6897Z" fill="#E7BD11"/>
</g>
</g>
</g>
<mask id="mask156_3531_45530" style="mask-type:luminance" maskUnits="userSpaceOnUse" x="54" y="48" width="3" height="3">
<path d="M56.1683 48.1533H54.7734V50.0101H56.1683V48.1533Z" fill="white"/>
</mask>
<g mask="url(#mask156_3531_45530)">
<mask id="mask157_3531_45530" style="mask-type:luminance" maskUnits="userSpaceOnUse" x="11" y="10" width="59" height="60">
<path d="M46.6875 10.601L11.0078 32.6416L34.073 69.9073L69.7527 47.8668L46.6875 10.601Z" fill="white"/>
</mask>
<g mask="url(#mask157_3531_45530)">
<mask id="mask158_3531_45530" style="mask-type:luminance" maskUnits="userSpaceOnUse" x="11" y="10" width="59" height="60">
<path d="M46.6875 10.601L11.0078 32.6416L34.073 69.9073L69.7527 47.8668L46.6875 10.601Z" fill="white"/>
</mask>
<g mask="url(#mask158_3531_45530)">
<path d="M55.1707 49.4046L55.4916 48.7009L55.5334 48.6104L55.7182 48.6835L55.6764 48.7776L55.3591 49.4987L55.3172 49.5928L55.1289 49.4987L55.1707 49.4046Z" fill="#E7BD11"/>
</g>
</g>
</g>
<mask id="mask159_3531_45530" style="mask-type:luminance" maskUnits="userSpaceOnUse" x="55" y="46" width="2" height="3">
<path d="M56.6381 46.7598H55.707V48.1532H56.6381V46.7598Z" fill="white"/>
</mask>
<g mask="url(#mask159_3531_45530)">
<mask id="mask160_3531_45530" style="mask-type:luminance" maskUnits="userSpaceOnUse" x="11" y="10" width="59" height="60">
<path d="M46.6875 10.601L11.0078 32.6416L34.073 69.9073L69.7527 47.8668L46.6875 10.601Z" fill="white"/>
</mask>
<g mask="url(#mask160_3531_45530)">
<mask id="mask161_3531_45530" style="mask-type:luminance" maskUnits="userSpaceOnUse" x="11" y="10" width="59" height="60">
<path d="M46.6875 10.601L11.0078 32.6416L34.073 69.9073L69.7527 47.8668L46.6875 10.601Z" fill="white"/>
</mask>
<g mask="url(#mask161_3531_45530)">
<path d="M55.7701 47.9764L55.8956 47.6107C55.9375 47.4887 55.9793 47.3668 56.0212 47.2414L56.0491 47.1543L56.2199 47.21L56.1955 47.2971C56.1572 47.4225 56.1153 47.5445 56.0735 47.6699L55.9514 48.0426L55.9235 48.1332L55.7422 48.0705L55.7736 47.9799L55.7701 47.9764Z" fill="#E7BD11"/>
</g>
</g>
</g>
<mask id="mask162_3531_45530" style="mask-type:luminance" maskUnits="userSpaceOnUse" x="56" y="45" width="1" height="2">
<path d="M56.6318 45.3672H56.168V46.7607H56.6318V45.3672Z" fill="white"/>
</mask>
<g mask="url(#mask162_3531_45530)">
<mask id="mask163_3531_45530" style="mask-type:luminance" maskUnits="userSpaceOnUse" x="11" y="10" width="59" height="60">
<path d="M46.6875 10.601L11.0078 32.6416L34.073 69.9073L69.7527 47.8668L46.6875 10.601Z" fill="white"/>
</mask>
<g mask="url(#mask163_3531_45530)">
<mask id="mask164_3531_45530" style="mask-type:luminance" maskUnits="userSpaceOnUse" x="11" y="10" width="59" height="60">
<path d="M46.6875 10.601L11.0078 32.6416L34.073 69.9073L69.7527 47.8668L46.6875 10.601Z" fill="white"/>
</mask>
<g mask="url(#mask164_3531_45530)">
<path d="M56.2471 46.4951L56.4458 45.7427L56.4668 45.666L56.6237 45.7009L56.6027 45.7775L56.411 46.5369L56.39 46.6205L56.2227 46.5718L56.2436 46.4916L56.2471 46.4951Z" fill="#E7BD11"/>
</g>
</g>
</g>
<mask id="mask165_3531_45530" style="mask-type:luminance" maskUnits="userSpaceOnUse" x="56" y="43" width="2" height="3">
<path d="M57.099 43.9727H56.168V45.3661H57.099V43.9727Z" fill="white"/>
</mask>
<g mask="url(#mask165_3531_45530)">
<mask id="mask166_3531_45530" style="mask-type:luminance" maskUnits="userSpaceOnUse" x="11" y="10" width="59" height="60">
<path d="M46.6875 10.601L11.0078 32.6416L34.073 69.9073L69.7527 47.8668L46.6875 10.601Z" fill="white"/>
</mask>
<g mask="url(#mask166_3531_45530)">
<mask id="mask167_3531_45530" style="mask-type:luminance" maskUnits="userSpaceOnUse" x="11" y="10" width="59" height="60">
<path d="M46.6875 10.601L11.0078 32.6416L34.073 69.9073L69.7527 47.8668L46.6875 10.601Z" fill="white"/>
</mask>
<g mask="url(#mask167_3531_45530)">
<path d="M56.6116 44.9865L56.7476 44.2201L56.7615 44.1504L56.901 44.1713L56.8906 44.241L56.765 45.0143L56.7511 45.0875L56.5977 45.0596L56.6116 44.9865Z" fill="#E7BD11"/>
</g>
</g>
</g>
<mask id="mask168_3531_45530" style="mask-type:luminance" maskUnits="userSpaceOnUse" x="56" y="42" width="2" height="2">
<path d="M57.0966 42.5801H56.6328V43.9736H57.0966V42.5801Z" fill="white"/>
</mask>
<g mask="url(#mask168_3531_45530)">
<mask id="mask169_3531_45530" style="mask-type:luminance" maskUnits="userSpaceOnUse" x="11" y="10" width="59" height="60">
<path d="M46.6875 10.601L11.0078 32.6416L34.073 69.9073L69.7527 47.8668L46.6875 10.601Z" fill="white"/>
</mask>
<g mask="url(#mask169_3531_45530)">
<mask id="mask170_3531_45530" style="mask-type:luminance" maskUnits="userSpaceOnUse" x="11" y="10" width="59" height="60">
<path d="M46.6875 10.601L11.0078 32.6416L34.073 69.9073L69.7527 47.8668L46.6875 10.601Z" fill="white"/>
</mask>
<g mask="url(#mask170_3531_45530)">
<path d="M56.8507 43.4502L56.91 42.6768V42.6211L57.0251 42.6281V42.6838L56.9763 43.4641V43.5269L56.8438 43.5129L56.8507 43.4502Z" fill="#E7BD11"/>
</g>
</g>
</g>
<mask id="mask171_3531_45530" style="mask-type:luminance" maskUnits="userSpaceOnUse" x="56" y="40" width="2" height="3">
<path d="M57.0966 40.7197H56.6328V42.1132H57.0966V40.7197Z" fill="white"/>
</mask>
<g mask="url(#mask171_3531_45530)">
<mask id="mask172_3531_45530" style="mask-type:luminance" maskUnits="userSpaceOnUse" x="11" y="10" width="59" height="60">
<path d="M46.6875 10.601L11.0078 32.6416L34.073 69.9073L69.7527 47.8668L46.6875 10.601Z" fill="white"/>
</mask>
<g mask="url(#mask172_3531_45530)">
<mask id="mask173_3531_45530" style="mask-type:luminance" maskUnits="userSpaceOnUse" x="11" y="10" width="59" height="60">
<path d="M46.6875 10.601L11.0078 32.6416L34.073 69.9073L69.7527 47.8668L46.6875 10.601Z" fill="white"/>
</mask>
<g mask="url(#mask173_3531_45530)">
<path d="M56.9242 41.9008L56.8789 41.124V41.0856L56.9591 41.0752V41.117L57.0184 41.8973V41.9461H56.9242V41.8973V41.9008Z" fill="#E7BD11"/>
</g>
</g>
</g>
<mask id="mask174_3531_45530" style="mask-type:luminance" maskUnits="userSpaceOnUse" x="56" y="39" width="2" height="2">
<path d="M57.099 39.3262H56.168V40.7196H57.099V39.3262Z" fill="white"/>
</mask>
<g mask="url(#mask174_3531_45530)">
<mask id="mask175_3531_45530" style="mask-type:luminance" maskUnits="userSpaceOnUse" x="11" y="10" width="59" height="60">
<path d="M46.6875 10.601L11.0078 32.6416L34.073 69.9073L69.7527 47.8668L46.6875 10.601Z" fill="white"/>
</mask>
<g mask="url(#mask175_3531_45530)">
<mask id="mask176_3531_45530" style="mask-type:luminance" maskUnits="userSpaceOnUse" x="11" y="10" width="59" height="60">
<path d="M46.6875 10.601L11.0078 32.6416L34.073 69.9073L69.7527 47.8668L46.6875 10.601Z" fill="white"/>
</mask>
<g mask="url(#mask176_3531_45530)">
<path d="M56.7751 40.3534C56.7297 40.0991 56.6705 39.8448 56.6007 39.594L56.5938 39.5696L56.6426 39.5557L56.6495 39.58C56.7263 39.8309 56.789 40.0852 56.8413 40.3395L56.8483 40.3708L56.7821 40.3813L56.7751 40.3499V40.3534Z" fill="#E7BD11"/>
</g>
</g>
</g>
<mask id="mask177_3531_45530" style="mask-type:luminance" maskUnits="userSpaceOnUse" x="55" y="37" width="2" height="3">
<path d="M56.6381 37.9326H55.707V39.3261H56.6381V37.9326Z" fill="white"/>
</mask>
<g mask="url(#mask177_3531_45530)">
<mask id="mask178_3531_45530" style="mask-type:luminance" maskUnits="userSpaceOnUse" x="11" y="10" width="59" height="60">
<path d="M46.6875 10.601L11.0078 32.6416L34.073 69.9073L69.7527 47.8668L46.6875 10.601Z" fill="white"/>
</mask>
<g mask="url(#mask178_3531_45530)">
<mask id="mask179_3531_45530" style="mask-type:luminance" maskUnits="userSpaceOnUse" x="11" y="10" width="59" height="60">
<path d="M46.6875 10.601L11.0078 32.6416L34.073 69.9073L69.7527 47.8668L46.6875 10.601Z" fill="white"/>
</mask>
<g mask="url(#mask179_3531_45530)">
<path d="M56.3543 38.8622C56.2567 38.6218 56.1451 38.3849 56.0195 38.1585V38.1515L56.0265 38.1445V38.1515C56.1625 38.3779 56.2776 38.6113 56.3822 38.8517L56.3892 38.8657L56.3613 38.8761L56.3543 38.8622Z" fill="#E7BD11"/>
</g>
</g>
</g>
<mask id="mask180_3531_45530" style="mask-type:luminance" maskUnits="userSpaceOnUse" x="22" y="30" width="2" height="3">
<path d="M23.6264 30.9648H22.6953V32.3583H23.6264V30.9648Z" fill="white"/>
</mask>
<g mask="url(#mask180_3531_45530)">
<mask id="mask181_3531_45530" style="mask-type:luminance" maskUnits="userSpaceOnUse" x="11" y="10" width="59" height="60">
<path d="M46.6875 10.601L11.0078 32.6416L34.073 69.9073L69.7527 47.8668L46.6875 10.601Z" fill="white"/>
</mask>
<g mask="url(#mask181_3531_45530)">
<mask id="mask182_3531_45530" style="mask-type:luminance" maskUnits="userSpaceOnUse" x="11" y="10" width="59" height="60">
<path d="M46.6875 10.601L11.0078 32.6416L34.073 69.9073L69.7527 47.8668L46.6875 10.601Z" fill="white"/>
</mask>
<g mask="url(#mask182_3531_45530)">
<path d="M23.4065 31.355C23.3228 31.6024 23.2356 31.8462 23.1449 32.0901L23.131 32.1284L23.0508 32.0971L23.0682 32.0588C23.1798 31.8219 23.2949 31.5885 23.4065 31.3516V31.355Z" fill="#E7BD11"/>
</g>
</g>
</g>
<mask id="mask183_3531_45530" style="mask-type:luminance" maskUnits="userSpaceOnUse" x="22" y="32" width="2" height="2">
<path d="M23.1615 32.3584H22.2305V33.7519H23.1615V32.3584Z" fill="white"/>
</mask>
<g mask="url(#mask183_3531_45530)">
<mask id="mask184_3531_45530" style="mask-type:luminance" maskUnits="userSpaceOnUse" x="11" y="10" width="59" height="60">
<path d="M46.6875 10.601L11.0078 32.6416L34.073 69.9073L69.7527 47.8668L46.6875 10.601Z" fill="white"/>
</mask>
<g mask="url(#mask184_3531_45530)">
<mask id="mask185_3531_45530" style="mask-type:luminance" maskUnits="userSpaceOnUse" x="11" y="10" width="59" height="60">
<path d="M46.6875 10.601L11.0078 32.6416L34.073 69.9073L69.7527 47.8668L46.6875 10.601Z" fill="white"/>
</mask>
<g mask="url(#mask185_3531_45530)">
<path d="M22.8947 32.8284L22.6611 33.5704L22.6332 33.6645L22.4414 33.6018L22.4763 33.5112L22.7587 32.7796L22.7831 32.71L22.9191 32.7587L22.8982 32.8284H22.8947Z" fill="#E7BD11"/>
</g>
</g>
</g>
<mask id="mask186_3531_45530" style="mask-type:luminance" maskUnits="userSpaceOnUse" x="21" y="33" width="2" height="3">
<path d="M22.6928 33.752H21.7617V35.6088H22.6928V33.752Z" fill="white"/>
</mask>
<g mask="url(#mask186_3531_45530)">
<mask id="mask187_3531_45530" style="mask-type:luminance" maskUnits="userSpaceOnUse" x="11" y="10" width="59" height="60">
<path d="M46.6875 10.601L11.0078 32.6416L34.073 69.9073L69.7527 47.8668L46.6875 10.601Z" fill="white"/>
</mask>
<g mask="url(#mask187_3531_45530)">
<mask id="mask188_3531_45530" style="mask-type:luminance" maskUnits="userSpaceOnUse" x="11" y="10" width="59" height="60">
<path d="M46.6875 10.601L11.0078 32.6416L34.073 69.9073L69.7527 47.8668L46.6875 10.601Z" fill="white"/>
</mask>
<g mask="url(#mask188_3531_45530)">
<path d="M22.4413 34.3168C22.3786 34.5676 22.3088 34.8184 22.2426 35.0692L22.2077 35.1947L21.9531 35.1285L21.988 35.0031C22.0612 34.7522 22.1379 34.5014 22.2147 34.2541L22.2495 34.1426L22.4692 34.2088L22.4413 34.3202V34.3168Z" fill="#E7BD11"/>
</g>
</g>
</g>
<mask id="mask189_3531_45530" style="mask-type:luminance" maskUnits="userSpaceOnUse" x="21" y="35" width="2" height="3">
<path d="M22.2318 35.6123H21.3008V37.0058H22.2318V35.6123Z" fill="white"/>
</mask>
<g mask="url(#mask189_3531_45530)">
<mask id="mask190_3531_45530" style="mask-type:luminance" maskUnits="userSpaceOnUse" x="11" y="10" width="59" height="60">
<path d="M46.6875 10.601L11.0078 32.6416L34.073 69.9073L69.7527 47.8668L46.6875 10.601Z" fill="white"/>
</mask>
<g mask="url(#mask190_3531_45530)">
<mask id="mask191_3531_45530" style="mask-type:luminance" maskUnits="userSpaceOnUse" x="11" y="10" width="59" height="60">
<path d="M46.6875 10.601L11.0078 32.6416L34.073 69.9073L69.7527 47.8668L46.6875 10.601Z" fill="white"/>
</mask>
<g mask="url(#mask191_3531_45530)">
<path d="M22.0649 35.8247L21.908 36.5841L21.8801 36.7235L21.5977 36.6677L21.6256 36.5249L21.7929 35.7585L21.8208 35.6191L22.0928 35.6818L22.0649 35.8212V35.8247Z" fill="#E7BD11"/>
</g>
</g>
</g>
<mask id="mask192_3531_45530" style="mask-type:luminance" maskUnits="userSpaceOnUse" x="21" y="37" width="2" height="2">
<path d="M22.2318 37.0059H21.3008V38.3993H22.2318V37.0059Z" fill="white"/>
</mask>
<g mask="url(#mask192_3531_45530)">
<mask id="mask193_3531_45530" style="mask-type:luminance" maskUnits="userSpaceOnUse" x="11" y="10" width="59" height="60">
<path d="M46.6875 10.601L11.0078 32.6416L34.073 69.9073L69.7527 47.8668L46.6875 10.601Z" fill="white"/>
</mask>
<g mask="url(#mask193_3531_45530)">
<mask id="mask194_3531_45530" style="mask-type:luminance" maskUnits="userSpaceOnUse" x="11" y="10" width="59" height="60">
<path d="M46.6875 10.601L11.0078 32.6416L34.073 69.9073L69.7527 47.8668L46.6875 10.601Z" fill="white"/>
</mask>
<g mask="url(#mask194_3531_45530)">
<path d="M21.7782 37.3473L21.6667 38.1137L21.6457 38.2565L21.3633 38.2217L21.3842 38.0824L21.4888 37.302L21.5063 37.1592L21.7957 37.2045L21.7748 37.3473H21.7782Z" fill="#E7BD11"/>
</g>
</g>
</g>
<mask id="mask195_3531_45530" style="mask-type:luminance" maskUnits="userSpaceOnUse" x="20" y="38" width="2" height="2">
<path d="M21.767 38.3994H20.8359V39.7929H21.767V38.3994Z" fill="white"/>
</mask>
<g mask="url(#mask195_3531_45530)">
<mask id="mask196_3531_45530" style="mask-type:luminance" maskUnits="userSpaceOnUse" x="11" y="10" width="59" height="60">
<path d="M46.6875 10.601L11.0078 32.6416L34.073 69.9073L69.7527 47.8668L46.6875 10.601Z" fill="white"/>
</mask>
<g mask="url(#mask196_3531_45530)">
<mask id="mask197_3531_45530" style="mask-type:luminance" maskUnits="userSpaceOnUse" x="11" y="10" width="59" height="60">
<path d="M46.6875 10.601L11.0078 32.6416L34.073 69.9073L69.7527 47.8668L46.6875 10.601Z" fill="white"/>
</mask>
<g mask="url(#mask197_3531_45530)">
<path d="M21.5838 38.8839L21.528 39.6538L21.5175 39.7792L21.2734 39.7687L21.2804 39.6468L21.3153 38.8595L21.3223 38.7236L21.5943 38.7445L21.5838 38.8804V38.8839Z" fill="#E7BD11"/>
</g>
</g>
</g>
<mask id="mask198_3531_45530" style="mask-type:luminance" maskUnits="userSpaceOnUse" x="20" y="40" width="2" height="2">
<path d="M21.767 40.2559H20.8359V41.6493H21.767V40.2559Z" fill="white"/>
</mask>
<g mask="url(#mask198_3531_45530)">
<mask id="mask199_3531_45530" style="mask-type:luminance" maskUnits="userSpaceOnUse" x="11" y="10" width="59" height="60">
<path d="M46.6875 10.601L11.0078 32.6416L34.073 69.9073L69.7527 47.8668L46.6875 10.601Z" fill="white"/>
</mask>
<g mask="url(#mask199_3531_45530)">
<mask id="mask200_3531_45530" style="mask-type:luminance" maskUnits="userSpaceOnUse" x="11" y="10" width="59" height="60">
<path d="M46.6875 10.601L11.0078 32.6416L34.073 69.9073L69.7527 47.8668L46.6875 10.601Z" fill="white"/>
</mask>
<g mask="url(#mask200_3531_45530)">
<path d="M21.5001 40.4297C21.5036 40.6875 21.5001 40.9453 21.5001 41.2066V41.2902L21.3362 41.3006L21.3292 41.217C21.3118 40.9557 21.2978 40.698 21.2804 40.4332L21.2734 40.3252H21.4931V40.4297H21.4966H21.5001Z" fill="#E7BD11"/>
</g>
</g>
</g>
<mask id="mask201_3531_45530" style="mask-type:luminance" maskUnits="userSpaceOnUse" x="21" y="41" width="1" height="3">
<path d="M21.7646 41.6494H21.3008V43.0429H21.7646V41.6494Z" fill="white"/>
</mask>
<g mask="url(#mask201_3531_45530)">
<mask id="mask202_3531_45530" style="mask-type:luminance" maskUnits="userSpaceOnUse" x="11" y="10" width="59" height="60">
<path d="M46.6875 10.601L11.0078 32.6416L34.073 69.9073L69.7527 47.8668L46.6875 10.601Z" fill="white"/>
</mask>
<g mask="url(#mask202_3531_45530)">
<mask id="mask203_3531_45530" style="mask-type:luminance" maskUnits="userSpaceOnUse" x="11" y="10" width="59" height="60">
<path d="M46.6875 10.601L11.0078 32.6416L34.073 69.9073L69.7527 47.8668L46.6875 10.601Z" fill="white"/>
</mask>
<g mask="url(#mask203_3531_45530)">
<path d="M21.5361 41.9844C21.5605 42.2422 21.5814 42.5 21.6024 42.7613V42.7822L21.5675 42.7892V42.7683C21.5152 42.514 21.4699 42.2562 21.4245 41.9984L21.4141 41.9426L21.5291 41.9287L21.5361 41.9844Z" fill="#E7BD11"/>
</g>
</g>
</g>
<mask id="mask204_3531_45530" style="mask-type:luminance" maskUnits="userSpaceOnUse" x="20" y="37" width="27" height="19">
<path d="M46.8691 37.4688H20.3672V55.1206H46.8691V37.4688Z" fill="white"/>
</mask>
<g mask="url(#mask204_3531_45530)">
<mask id="mask205_3531_45530" style="mask-type:luminance" maskUnits="userSpaceOnUse" x="19" y="20" width="38" height="37">
<path d="M24.3934 20.3057L19.8203 52.3662L51.9121 56.9348L56.4852 24.8743L24.3934 20.3057Z" fill="white"/>
</mask>
<g mask="url(#mask205_3531_45530)">
<mask id="mask206_3531_45530" style="mask-type:luminance" maskUnits="userSpaceOnUse" x="19" y="20" width="38" height="37">
<path d="M24.3934 20.3057L19.8203 52.3662L51.9121 56.9348L56.4852 24.8743L24.3934 20.3057Z" fill="white"/>
</mask>
<g mask="url(#mask206_3531_45530)">
<path fill-rule="evenodd" clip-rule="evenodd" d="M26.4087 45.4746L26.5133 44.7605C26.5412 44.5619 26.5796 44.5271 26.6074 44.3424C27.1061 44.4156 27.9918 44.3668 28.5009 44.3146C29.0798 44.2553 29.6866 44.1578 30.2131 44.0045C31.1372 43.7397 31.9741 43.4053 32.8075 42.9385C32.9261 42.8723 33.0132 42.7748 33.1667 42.7539C33.3794 43.1963 34.0175 43.9801 34.3488 44.3041L34.9486 44.8406C35.5204 45.2726 36.0609 45.6209 36.7619 45.917C37.8324 46.3664 39.1191 46.6591 40.3152 46.6277L41.3474 46.572L41.2497 47.4882C41.0335 49.0036 40.2385 50.3379 39.297 51.3795C38.5159 52.24 37.0896 53.1109 35.9459 53.407C35.4647 53.5289 35.0497 53.6474 34.5266 53.6822C34.2686 53.6996 33.9861 53.7101 33.7281 53.7031C31.6742 53.6334 29.7563 52.8252 28.3928 51.3342C28.3091 51.2436 28.2534 51.1914 28.1801 51.0903C27.9988 50.843 28.0023 50.944 27.7861 50.5747L27.4199 50.0383C27.3607 49.9372 27.3153 49.8606 27.256 49.7526C27.0294 49.3415 26.7609 48.6517 26.6388 48.1849C26.5517 47.8435 26.468 47.4743 26.4331 47.1224C26.3808 46.6242 26.332 46.0634 26.4157 45.4816L26.4087 45.4746ZM32.7587 54.6298L32.539 54.5984C31.9706 54.5044 31.2906 54.3023 30.7571 54.1037C29.4703 53.6369 28.222 52.6754 27.3432 51.6477L26.6772 50.7245C26.2378 50.0626 25.8752 49.1464 25.659 48.3835C25.4009 47.4603 25.3486 46.68 25.38 45.722C25.387 45.5513 25.4358 45.391 25.4323 45.2168C25.4288 44.9625 25.4846 44.9625 25.5125 44.7535L22.9355 45.6871C22.6008 45.7777 21.4535 46.0285 21.2234 45.9972C20.8886 45.9484 20.7805 45.6035 20.8328 45.2447C21.0421 43.7815 21.1781 43.0116 21.858 41.6983C22.3079 40.8239 22.8658 40.2491 23.5597 39.5941C23.7306 39.4339 24.0863 39.2179 24.2885 39.096C25.5299 38.354 27.4409 38.0718 28.9403 38.5839L29.6377 38.873C29.6377 38.873 30.1259 38.6083 30.1747 38.5839C30.363 38.4933 30.5409 38.4062 30.7431 38.3331C31.3499 38.1101 31.3325 38.1136 31.9706 37.9603C33.9722 37.4691 36.2039 37.7896 37.9893 38.8173L39.0633 39.521C39.2342 39.6464 39.3807 39.7823 39.5376 39.9216C40.1513 40.4651 39.8061 40.378 40.3675 40.2944C41.6159 40.1028 43.2792 40.6845 44.1824 41.3116C44.824 41.7575 44.8135 41.8342 45.2808 42.3149C45.4203 42.4577 45.6853 42.8514 45.7795 43.0151C46.0584 43.5063 46.0968 43.569 46.3095 44.0986C46.4594 44.4783 46.571 44.8615 46.6652 45.283C46.8221 45.9937 46.8953 47.1956 46.7663 48.1083C46.6826 48.697 46.6931 49.6202 46.034 49.5296C45.9224 49.5122 45.1065 49.1011 44.967 49.0245C44.1161 48.5403 43.9348 48.4183 43.1188 47.7982C42.9724 47.6868 42.8433 47.5753 42.7108 47.4673C42.5992 47.3732 42.4214 47.1886 42.2959 47.1398C42.2436 47.5021 42.1982 47.8714 42.1215 48.178C41.5392 50.4633 40.4791 51.8324 38.7076 53.1771C38.4496 53.3721 38.0102 53.609 37.7243 53.7588C36.7479 54.2779 35.6774 54.5566 34.565 54.6576C34.1465 54.6925 33.2748 54.682 32.7656 54.6263L32.7587 54.6298ZM26.9422 43.367C26.9666 43.259 27.0852 43.0291 27.134 42.9246C27.1933 42.7957 27.277 42.6459 27.3537 42.5204C27.7965 41.7784 28.3649 41.0259 29.0554 40.4929C29.1879 40.3919 29.3204 40.2386 29.5436 40.0993C29.6238 40.0505 29.6412 40.0505 29.7249 39.9913C30.1643 39.6708 30.7641 39.3991 31.2697 39.19C31.4196 39.1273 31.5242 39.0995 31.6916 39.0542C31.8485 39.0159 31.995 38.9497 32.1554 38.9357C32.1275 39.4165 32.2461 40.0331 32.3228 40.4651C32.3646 40.7054 32.4204 40.9284 32.4902 41.1479L32.7029 41.8307C32.4971 42.0606 31.186 42.6354 30.8233 42.7678L30.1259 43.0012C29.6935 43.1475 29.1321 43.252 28.6474 43.3112C28.2638 43.3565 27.3223 43.4192 26.9457 43.367H26.9422ZM40.7406 41.2559C40.908 41.2768 41.2707 41.2733 41.4311 41.2942C41.595 41.3186 41.9681 41.4057 42.1389 41.4544C43.0805 41.7262 44.0045 42.2522 44.5764 43.0186C45.7167 44.5445 46.0236 46.3142 45.7376 48.2964C45.1797 48.1675 43.3594 46.7427 42.934 46.3664C42.7875 46.2341 42.6864 46.1191 42.5434 45.9937C42.3063 45.7812 42.3482 45.816 42.3133 45.4711C42.268 45.0252 42.2157 44.6838 42.118 44.2832C41.9227 43.475 41.4973 42.3497 41.0475 41.7227L40.7406 41.2559ZM21.8824 44.8998C22.1788 42.8131 22.9042 41.5624 24.1072 40.4407C24.2153 40.3397 24.3687 40.2351 24.4908 40.1446L24.9092 39.8903C25.3695 39.6394 25.8821 39.4618 26.4226 39.3921C27.2909 39.2841 27.4827 39.3364 28.2987 39.4548C28.48 39.4792 28.487 39.514 28.6509 39.5384C28.5463 39.6569 27.8872 40.1515 27.4792 40.6427C26.862 41.3882 26.3285 42.1721 25.9589 43.1371C25.8229 43.4854 25.9135 43.4053 25.6136 43.569C24.6338 44.0986 23.5772 44.5201 22.4927 44.7848C22.3497 44.8197 22.0254 44.9103 21.8859 44.9033L21.8824 44.8998ZM33.1353 38.7824C33.4038 38.6988 34.5092 38.7476 34.9242 38.8033C35.8936 38.9427 36.8944 39.3329 37.5499 39.7056C38.1985 40.0784 38.488 40.3048 39.0145 40.7821C39.5655 41.2837 39.8828 41.7645 40.2803 42.3567C40.3431 42.4508 40.378 42.517 40.4303 42.6215C40.5349 42.8096 40.6116 42.9524 40.7023 43.144C40.9498 43.6875 41.3578 45.0183 41.323 45.5791C41.173 45.5687 40.9987 45.607 40.8278 45.6175C39.3039 45.7011 37.8115 45.4467 36.5038 44.6943C36.1516 44.4922 35.8308 44.2902 35.5204 44.0393C35.3077 43.8652 34.8858 43.4645 34.6975 43.2346C33.9443 42.3079 33.4666 41.3081 33.2573 40.1097L33.1527 39.1447C33.1457 39.0542 33.1527 38.8417 33.1353 38.779V38.7824Z" fill="white"/>
</g>
</g>
</g>
<mask id="mask207_3531_45530" style="mask-type:luminance" maskUnits="userSpaceOnUse" x="38" y="23" width="19" height="19">
<path d="M56.1691 23.5342H38.5V41.186H56.1691V23.5342Z" fill="white"/>
</mask>
<g mask="url(#mask207_3531_45530)">
<mask id="mask208_3531_45530" style="mask-type:luminance" maskUnits="userSpaceOnUse" x="19" y="20" width="38" height="37">
<path d="M24.3895 20.3057L19.8164 52.3662L51.9082 56.9348L56.4812 24.8743L24.3895 20.3057Z" fill="white"/>
</mask>
<g mask="url(#mask208_3531_45530)">
<mask id="mask209_3531_45530" style="mask-type:luminance" maskUnits="userSpaceOnUse" x="19" y="20" width="38" height="37">
<path d="M24.3895 20.3057L19.8164 52.3662L51.9082 56.9348L56.4812 24.8743L24.3895 20.3057Z" fill="white"/>
</mask>
<g mask="url(#mask209_3531_45530)">
<path fill-rule="evenodd" clip-rule="evenodd" d="M39.6667 31.3277L39.7259 30.9062C40.7686 31.056 42.1355 30.7459 43.0003 30.2025L43.2653 30.0109C44.3463 29.2828 45.11 28.0461 45.3018 26.6944C45.4204 26.7466 46.0236 27.5932 46.2119 27.8092C46.5816 28.2237 47.2092 28.816 47.6625 29.1295L48.489 29.7008C48.9493 29.99 49.434 30.2234 49.9501 30.4324C50.5987 30.6971 51.603 30.9724 52.3387 31.0769C53.35 31.2197 54.5391 31.1291 54.7483 31.1535C54.7413 31.2929 54.7762 31.4566 54.7832 31.5925C54.9436 34.1913 53.8347 36.6995 51.8087 38.215C51.4635 38.4762 51.1008 38.6887 50.7242 38.8978C50.4139 39.0685 49.835 39.3123 49.4828 39.4064L48.8272 39.5771C46.4595 40.138 43.6629 39.3437 41.9891 37.675C41.8217 37.5113 41.6961 37.3684 41.5357 37.2047C41.4381 37.1037 41.4102 37.0619 41.33 36.9539C41.2533 36.8493 41.1766 36.8041 41.1208 36.7065C40.4722 35.651 40.0502 35.1145 39.7782 33.6827C39.7294 33.4318 39.6945 33.2159 39.6632 32.9581C39.6109 32.5087 39.5934 31.8816 39.6701 31.3277H39.6667ZM47.7951 23.6392L48.9946 23.8099C49.5037 23.897 49.9187 24.0154 50.7138 24.3533C51.603 24.7261 52.541 25.3915 53.2279 26.0638C53.6394 26.4679 54.0579 26.9557 54.3647 27.4469C54.4345 27.5583 54.4833 27.6141 54.5565 27.7395C55.4736 29.2723 56.0037 31.2476 55.7386 33.087L55.6515 33.7036C55.498 34.7696 54.9331 36.1143 54.3473 36.9539C53.6743 37.9223 53.1443 38.4414 52.2516 39.1103C50.8079 40.1937 48.5204 41.0402 45.9992 40.6814C43.4676 40.3191 41.5078 38.8594 40.4234 37.4102L39.433 35.8042C38.8402 34.5501 38.4776 32.7874 38.6903 31.2545C38.7042 31.15 38.7007 31.0351 38.7077 30.9898L38.9623 29.8053C39.44 28.1471 40.4896 26.562 41.8008 25.5448C41.9123 25.4612 41.9612 25.3915 42.0832 25.3044C42.1948 25.2208 42.2715 25.1546 42.3901 25.0919L43.0282 24.7052C43.2514 24.5833 43.4676 24.4648 43.7012 24.3673C44.8938 23.8552 46.4804 23.458 47.802 23.6462L47.7951 23.6392ZM39.9631 29.9447C40.0363 29.5162 40.4791 28.6696 40.6953 28.2934C41.2882 27.2587 42.0065 26.6038 42.9166 25.9175C43.1224 25.7608 44.1197 25.1964 44.3603 25.1685C44.3986 25.6284 44.444 25.6423 44.3812 26.1649C44.3638 26.3147 44.3882 26.3147 44.3742 26.4296L44.1755 27.203C43.5966 28.8787 42.2157 29.8332 40.4791 29.9342C40.2978 29.9447 40.1269 29.9273 39.9631 29.9412V29.9447ZM45.4099 24.7888L46.0515 24.6773C46.2677 24.6425 46.5048 24.6181 46.7524 24.6077C49.0539 24.4962 51.2229 25.3601 52.7363 26.98C53.493 27.7917 54.1102 28.816 54.4484 29.875C54.567 30.2512 54.5496 30.1816 54.1416 30.1885C51.6936 30.2408 49.713 29.5057 48.0287 28.161C47.7323 27.9241 47.4777 27.6942 47.2301 27.4294C46.5537 26.7118 45.9574 25.9489 45.5285 25.0501C45.5075 25.0048 45.4831 24.9665 45.4622 24.9247L45.4238 24.8376C45.4238 24.8376 45.4134 24.7993 45.4134 24.7888H45.4099Z" fill="white"/>
</g>
</g>
</g>
<mask id="mask210_3531_45530" style="mask-type:luminance" maskUnits="userSpaceOnUse" x="31" y="49" width="5" height="3">
<path d="M35.247 49.5469H31.0625V51.8705H35.247V49.5469Z" fill="white"/>
</mask>
<g mask="url(#mask210_3531_45530)">
<mask id="mask211_3531_45530" style="mask-type:luminance" maskUnits="userSpaceOnUse" x="19" y="20" width="38" height="37">
<path d="M24.3895 20.3057L19.8164 52.3662L51.9082 56.9348L56.4812 24.8743L24.3895 20.3057Z" fill="white"/>
</mask>
<g mask="url(#mask211_3531_45530)">
<mask id="mask212_3531_45530" style="mask-type:luminance" maskUnits="userSpaceOnUse" x="19" y="20" width="38" height="37">
<path d="M24.3895 20.3057L19.8164 52.3662L51.9082 56.9348L56.4812 24.8743L24.3895 20.3057Z" fill="white"/>
</mask>
<g mask="url(#mask212_3531_45530)">
<path fill-rule="evenodd" clip-rule="evenodd" d="M31.4011 50.1952C31.3488 50.5749 31.6173 50.7804 31.9485 50.9721C32.8412 51.4946 33.8176 51.6026 34.7696 51.1637C35.3519 50.8989 35.0765 50.2544 34.6824 50.1952C34.4941 50.1708 34.2082 50.338 34.0129 50.3833C33.5177 50.5052 32.9633 50.4286 32.5204 50.1604C32.3565 50.0628 32.1369 49.8294 31.9485 49.805C31.7114 49.7702 31.4325 49.9548 31.3976 50.1882L31.4011 50.1952Z" fill="white"/>
</g>
</g>
</g>
<mask id="mask213_3531_45530" style="mask-type:luminance" maskUnits="userSpaceOnUse" x="44" y="35" width="5" height="3">
<path d="M48.7314 35.1455H44.5469V37.0023H48.7314V35.1455Z" fill="white"/>
</mask>
<g mask="url(#mask213_3531_45530)">
<mask id="mask214_3531_45530" style="mask-type:luminance" maskUnits="userSpaceOnUse" x="19" y="20" width="38" height="37">
<path d="M24.3895 20.3057L19.8164 52.3662L51.9082 56.9348L56.4812 24.8743L24.3895 20.3057Z" fill="white"/>
</mask>
<g mask="url(#mask214_3531_45530)">
<mask id="mask215_3531_45530" style="mask-type:luminance" maskUnits="userSpaceOnUse" x="19" y="20" width="38" height="37">
<path d="M24.3895 20.3057L19.8164 52.3662L51.9082 56.9348L56.4812 24.8743L24.3895 20.3057Z" fill="white"/>
</mask>
<g mask="url(#mask215_3531_45530)">
<path fill-rule="evenodd" clip-rule="evenodd" d="M44.821 35.6397C44.7304 36.2772 45.9997 36.7371 46.4809 36.8033C47.0005 36.8764 47.2899 36.8486 47.7397 36.7406C47.921 36.6953 48.0431 36.6465 48.2 36.5768C48.7824 36.3121 48.5034 35.6641 48.1093 35.6084C47.8374 35.57 46.7947 36.3121 45.6928 35.3889C45.2151 34.9918 44.8594 35.361 44.821 35.6362V35.6397Z" fill="white"/>
</g>
</g>
</g>
<mask id="mask216_3531_45530" style="mask-type:luminance" maskUnits="userSpaceOnUse" x="49" y="31" width="2" height="3">
<path d="M50.5901 31.8955H49.1953V33.289H50.5901V31.8955Z" fill="white"/>
</mask>
<g mask="url(#mask216_3531_45530)">
<mask id="mask217_3531_45530" style="mask-type:luminance" maskUnits="userSpaceOnUse" x="19" y="20" width="38" height="37">
<path d="M24.3934 20.3057L19.8203 52.3662L51.9121 56.9348L56.4852 24.8743L24.3934 20.3057Z" fill="white"/>
</mask>
<g mask="url(#mask217_3531_45530)">
<mask id="mask218_3531_45530" style="mask-type:luminance" maskUnits="userSpaceOnUse" x="19" y="20" width="38" height="37">
<path d="M24.3934 20.3057L19.8203 52.3662L51.9121 56.9348L56.4852 24.8743L24.3934 20.3057Z" fill="white"/>
</mask>
<g mask="url(#mask218_3531_45530)">
<path fill-rule="evenodd" clip-rule="evenodd" d="M49.581 32.508C49.4834 33.1874 50.4667 33.2779 50.5504 32.6787C50.6481 31.9994 49.6717 31.867 49.581 32.508Z" fill="white"/>
</g>
</g>
</g>
<mask id="mask219_3531_45530" style="mask-type:luminance" maskUnits="userSpaceOnUse" x="30" y="46" width="2" height="2">
<path d="M31.5276 46.293H30.1328V47.6864H31.5276V46.293Z" fill="white"/>
</mask>
<g mask="url(#mask219_3531_45530)">
<mask id="mask220_3531_45530" style="mask-type:luminance" maskUnits="userSpaceOnUse" x="19" y="20" width="38" height="37">
<path d="M24.3934 20.3057L19.8203 52.3662L51.9121 56.9348L56.4852 24.8743L24.3934 20.3057Z" fill="white"/>
</mask>
<g mask="url(#mask220_3531_45530)">
<mask id="mask221_3531_45530" style="mask-type:luminance" maskUnits="userSpaceOnUse" x="19" y="20" width="38" height="37">
<path d="M24.3934 20.3057L19.8203 52.3662L51.9121 56.9348L56.4852 24.8743L24.3934 20.3057Z" fill="white"/>
</mask>
<g mask="url(#mask221_3531_45530)">
<path fill-rule="evenodd" clip-rule="evenodd" d="M30.3727 46.7357C30.2855 47.3488 31.255 47.5334 31.3491 46.875C31.4433 46.2062 30.4634 46.1016 30.3727 46.7357Z" fill="white"/>
</g>
</g>
</g>
<mask id="mask222_3531_45530" style="mask-type:luminance" maskUnits="userSpaceOnUse" x="35" y="46" width="3" height="3">
<path d="M37.1058 46.7598H35.7109V48.1532H37.1058V46.7598Z" fill="white"/>
</mask>
<g mask="url(#mask222_3531_45530)">
<mask id="mask223_3531_45530" style="mask-type:luminance" maskUnits="userSpaceOnUse" x="19" y="20" width="38" height="37">
<path d="M24.3934 20.3057L19.8203 52.3662L51.9121 56.9348L56.4852 24.8743L24.3934 20.3057Z" fill="white"/>
</mask>
<g mask="url(#mask223_3531_45530)">
<mask id="mask224_3531_45530" style="mask-type:luminance" maskUnits="userSpaceOnUse" x="19" y="20" width="38" height="37">
<path d="M24.3934 20.3057L19.8203 52.3662L51.9121 56.9348L56.4852 24.8743L24.3934 20.3057Z" fill="white"/>
</mask>
<g mask="url(#mask224_3531_45530)">
<path fill-rule="evenodd" clip-rule="evenodd" d="M36.1029 47.4848C36.082 47.6416 36.0576 47.76 36.1831 47.9168C36.5562 48.3906 37.3478 47.882 36.9817 47.3176C36.7794 47.0041 36.1622 47.0772 36.1029 47.4813V47.4848Z" fill="white"/>
</g>
</g>
</g>
<mask id="mask225_3531_45530" style="mask-type:luminance" maskUnits="userSpaceOnUse" x="43" y="30" width="3" height="3">
<path d="M45.012 30.9648H43.6172V32.3583H45.012V30.9648Z" fill="white"/>
</mask>
<g mask="url(#mask225_3531_45530)">
<mask id="mask226_3531_45530" style="mask-type:luminance" maskUnits="userSpaceOnUse" x="19" y="20" width="38" height="37">
<path d="M24.3934 20.3047L19.8203 52.3652L51.9121 56.9338L56.4852 24.8733L24.3934 20.3047Z" fill="white"/>
</mask>
<g mask="url(#mask226_3531_45530)">
<mask id="mask227_3531_45530" style="mask-type:luminance" maskUnits="userSpaceOnUse" x="19" y="20" width="38" height="37">
<path d="M24.3934 20.3047L19.8203 52.3652L51.9121 56.9338L56.4852 24.8733L24.3934 20.3047Z" fill="white"/>
</mask>
<g mask="url(#mask227_3531_45530)">
<path fill-rule="evenodd" clip-rule="evenodd" d="M43.8619 31.693C43.7677 32.334 44.7372 32.5326 44.8418 31.7975C44.8697 31.592 44.65 31.3063 44.4512 31.2785C44.1792 31.2401 43.9003 31.4248 43.8619 31.693Z" fill="white"/>
</g>
</g>
</g>
</g>
<defs>
<clipPath id="clip0_3531_45530">
<rect width="79" height="79.4282" fill="white" transform="translate(0.839844 0.754883)"/>
</clipPath>
</defs>
</svg>
