<svg width="221" height="102" viewBox="0 0 221 102" fill="none" xmlns="http://www.w3.org/2000/svg">
<path d="M31.7751 80.2064C34.5213 81.001 37.0745 81.8069 39.6581 82.483C42.2416 83.1592 44.4842 84.7691 46.6772 86.5005C48.2332 87.7354 48.977 89.4941 48.7247 91.5869C48.5661 92.953 48.3714 94.3652 48.0244 95.6683C46.7392 100.406 43.5464 102.263 39.1815 101.389C33.5027 100.252 31.4115 97.9408 29.0937 90.2099C28.6031 88.5805 28.4771 86.857 28.1319 84.8951C27.2273 85.1451 26.2661 85.2751 25.4007 85.647C21.9944 87.0968 18.8378 88.9079 16.5086 92.2471C15.7012 93.4023 14.3876 94.0988 13.2203 94.8209C12.4531 95.2975 12.1389 94.9224 12.244 93.8573C12.4934 91.1435 13.5225 88.6783 15.1741 86.8797C18.6909 82.9847 22.706 80.1074 27.9548 79.8074C28.2452 79.7955 28.6597 79.3799 28.7059 79.0377C30.0729 71.0367 33.0766 64.1245 36.8273 57.5279C41.0983 50.0087 46.7304 43.7255 53.3682 39.0765C59.1298 34.9902 64.9141 30.6802 71.439 28.1609C81.4529 24.3088 91.9985 22.9241 102.994 23.8474C114.438 24.7937 125.858 26.8169 137.273 28.6616C144.849 29.8988 152.447 31.2073 159.95 30.873C165.723 30.6295 171.448 29.8647 177.121 29.0007C181.638 28.3203 186.112 27.3498 190.514 26.1137C195.785 24.6317 200.291 21.3722 204.871 18.3782C210.847 14.4994 215.268 8.94313 217.897 1.46261C218.183 0.671877 218.487 -0.120831 219.403 0.196644C220.319 0.51412 220.396 1.5059 220.372 2.33002C220.333 4.7778 219.731 7.0998 218.63 9.05705C215.513 14.5182 211.869 19.3544 206.842 22.5781C201.944 25.7241 197.188 29.1803 191.61 30.834C187.992 31.8865 184.304 32.789 180.573 33.454C175.066 34.4046 169.546 35.3251 163.943 35.8337C155.679 36.5807 147.281 35.2576 138.909 34.0265C129.566 32.6736 120.21 30.943 110.861 29.7067C103.191 28.6908 95.5024 28.0245 87.9564 29.1746C82.6402 29.9982 77.1333 30.4433 72.3777 32.9412C62.6256 38.08 52.5754 42.884 45.0393 51.9001C39.0622 59.044 34.3055 67.229 32.2081 77.377C32.0112 78.2734 31.9313 79.2303 31.7751 80.2064ZM31.6389 85.277C31.5584 88.2456 32.4646 90.7758 33.6106 93.2577C35.1101 96.4895 38.1141 98.2449 41.2055 97.726C43.8833 97.2751 45.1578 95.2981 45.2403 91.4342C45.2504 91.3909 45.2674 91.3363 45.2533 91.3063C44.9955 90.7985 44.8335 90.0796 44.4574 89.8063C40.4774 86.8872 36.1537 85.9449 31.6389 85.277Z" fill="#E96024"/>
</svg>
