<svg width="789" height="84" viewBox="0 0 789 84" fill="none" xmlns="http://www.w3.org/2000/svg">
<path d="M776.49 84.0506C789.397 81.8123 789.623 79.7654 786.174 70.7915C787.581 63.3132 784.018 66.3045 787.898 55.8349C787.898 49.4154 784.88 52.8436 785.425 38.6349C793.936 24.5288 784.449 22.1827 785.425 11.4931C786.402 0.803549 776.031 -1 781.704 -1C730.643 -1 -15.6357 -1 0.250002 -1C3.35198 4.98263 4.41601 7.22611 3.35198 11.4509C5.10615 24.4262 2.4975 16.9975 4.41601 27.4277C2.40482 40.8784 7.55556 57.7857 5.24956 67.8002C2.01688 81.839 6.28486 75.2785 5.38982 82.8259C0.851057 82.8259 760.746 86.7536 776.49 84.0506Z" fill="#318D95"/>
</svg>
