<svg width="149" height="43" viewBox="0 0 149 43" fill="none" xmlns="http://www.w3.org/2000/svg">
<path d="M144.668 41.8453C146.78 40.7623 147.383 38.0854 145.178 34.8771C147.964 32.4454 146.362 30.6472 148.382 28.2563C148.382 25.1503 144.157 23.3725 146.293 20.8182C147.685 13.993 145.596 9.66087 146.13 6.73873C146.942 2.48833 145.387 0.322266 146.316 0.322266C137.96 0.322266 0.735435 0.322266 3.33508 0.322266C4.28674 0.322266 4.03142 5.28787 1.9192 6.71829C2.31379 10.1309 2.01205 13.0734 4.12426 13.3391C3.07976 14.5652 2.31379 15.5052 2.31379 15.5052C2.31379 15.5052 2.49948 19.5103 3.3583 20.7977C1.9192 22.0647 -0.00732181 23.1273 -0.3787 24.3738C-0.750079 25.6407 1.66388 27.4594 0.526535 28.665C0.526535 30.8107 1.13002 33.508 1.9192 34.8567C3.21903 38.6984 5.63299 41.2527 3.38151 41.2527C2.63875 41.2527 142.091 43.1532 144.668 41.8453Z" fill="#E96024"/>
</svg>
