<svg width="187" height="56" viewBox="0 0 187 56" fill="none" xmlns="http://www.w3.org/2000/svg">
<path d="M181.453 54.7967C184.088 53.3517 184.84 49.7801 182.09 45.4997C185.564 42.2553 183.566 39.8561 186.085 36.6662C186.085 32.5221 180.816 30.1501 183.48 26.7421C185.217 17.636 182.611 11.8561 183.277 7.95734C184.29 2.28646 182.35 -0.603516 183.509 -0.603516C173.086 -0.603516 1.92304 -0.603516 5.16564 -0.603516C6.35266 -0.603516 6.03419 6.02161 3.39958 7.93008C3.89176 12.4831 3.51539 16.4091 6.15 16.7636C4.84717 18.3994 3.89176 19.6535 3.89176 19.6535C3.89176 19.6535 4.12337 24.9973 5.19459 26.7149C3.39958 28.4053 0.996584 29.823 0.533355 31.4861C0.0701272 33.1764 3.08111 35.6029 1.66247 37.2115C1.66247 40.0742 2.41522 43.673 3.39958 45.4724C5.02088 50.598 8.03186 54.006 5.22354 54.006C4.29708 54.006 178.239 56.5416 181.453 54.7967Z" fill="#E7BD11"/>
</svg>
