<svg width="1420" height="611" viewBox="0 0 1420 611" fill="none" xmlns="http://www.w3.org/2000/svg">
<g opacity="0.2">
<path d="M573.999 233.212L576.451 233.048C577.799 232.967 579.148 233.948 579.434 235.257L580.006 237.629C580.333 238.938 581.518 239.838 582.662 239.674C583.806 239.511 584.705 238.243 584.582 236.934L584.419 234.48C584.337 233.13 585.318 231.781 586.625 231.494L588.995 230.922C590.303 230.594 591.202 229.408 591.038 228.263C590.875 227.118 589.608 226.218 588.301 226.341L585.849 226.504C584.5 226.586 583.152 225.605 582.866 224.296L582.294 221.924C581.967 220.615 580.782 219.715 579.638 219.879C578.494 220.042 577.595 221.31 577.717 222.619L577.881 225.073C577.963 226.423 576.982 227.772 575.674 228.059L573.304 228.631C571.997 228.958 571.098 230.145 571.261 231.29C571.425 232.435 572.692 233.294 573.999 233.212Z" fill="#41B4B4"/>
<path d="M300.349 79.7529L305.089 79.4257C307.663 79.2212 310.319 81.1435 310.932 83.6793L312.076 88.3011C312.689 90.8369 315.018 92.5956 317.265 92.2684C319.513 91.9003 321.188 89.5281 321.025 86.9105L320.698 82.166C320.494 79.5893 322.414 76.9308 324.947 76.3173L329.565 75.172C332.098 74.5585 333.855 72.2272 333.528 69.9777C333.201 67.7282 330.791 66.0512 328.175 66.2148L323.436 66.542C320.861 66.7465 318.205 64.8242 317.592 62.2884L316.448 57.6667C315.835 55.1308 313.506 53.3721 311.259 53.6993C309.012 54.0674 307.336 56.4396 307.5 59.0573L307.827 63.8017C308.031 66.3784 306.11 69.037 303.577 69.6505L298.96 70.7957C296.426 71.4092 294.669 73.7405 294.996 75.9901C295.323 78.2396 297.775 79.9574 300.349 79.7529Z" fill="#E96024"/>
<path d="M986.286 242.046L988.778 242.251C990.126 242.374 991.352 243.56 991.475 244.95L991.679 247.445C991.802 248.795 992.864 249.94 994.049 249.94C995.234 249.94 996.296 248.836 996.419 247.445L996.623 244.95C996.746 243.601 997.931 242.374 999.32 242.251L1001.81 242.046C1003.16 241.924 1004.31 240.86 1004.31 239.674C1004.31 238.488 1003.2 237.425 1001.81 237.302L999.32 237.097C997.972 236.975 996.746 235.789 996.623 234.398L996.419 231.903C996.296 230.553 995.234 229.408 994.049 229.408C992.864 229.408 991.802 230.513 991.679 231.903L991.475 234.398C991.352 235.748 990.167 236.975 988.778 237.097L986.286 237.302C984.937 237.425 983.793 238.488 983.793 239.674C983.834 240.86 984.937 241.924 986.286 242.046Z" fill="#41B4B4"/>
<path d="M591.076 16.4805C585.927 16.4805 581.719 20.6523 581.719 25.8467C581.719 31.0001 585.887 35.2129 591.076 35.2129C596.224 35.2129 600.433 31.041 600.433 25.8467C600.433 20.6932 596.265 16.4805 591.076 16.4805ZM595.08 29.8549C594.059 30.8774 592.629 31.5318 591.076 31.5318C589.523 31.5318 588.093 30.9183 587.072 29.8549C586.05 28.8324 585.396 27.4418 585.396 25.8467C585.396 24.2925 586.009 22.8609 587.072 21.8384C588.093 20.8159 589.482 20.1615 591.076 20.1615C592.629 20.1615 594.059 20.775 595.08 21.8384C596.102 22.8609 596.715 24.2516 596.756 25.8467C596.756 27.4009 596.102 28.8324 595.08 29.8549Z" fill="#41B4B4"/>
<path d="M1146.79 287.404C1141.6 287.404 1137.39 291.617 1137.39 296.811C1137.39 302.006 1141.6 306.218 1146.79 306.218C1151.98 306.218 1156.19 302.006 1156.19 296.811C1156.15 291.617 1151.98 287.404 1146.79 287.404ZM1150.79 300.82C1149.77 301.842 1148.34 302.497 1146.79 302.497C1145.2 302.497 1143.81 301.883 1142.78 300.82C1141.76 299.797 1141.11 298.366 1141.11 296.811C1141.11 295.216 1141.72 293.826 1142.78 292.803C1143.81 291.781 1145.24 291.126 1146.79 291.126C1148.38 291.126 1149.77 291.74 1150.79 292.803C1151.81 293.826 1152.47 295.257 1152.47 296.811C1152.47 298.366 1151.81 299.797 1150.79 300.82Z" fill="#E96024"/>
<path d="M1031.03 88.7102C1029.03 76.031 1017.18 67.401 1004.55 69.3643C991.884 71.3684 983.262 83.2295 985.223 95.8678C987.226 108.547 999.075 117.177 1011.7 115.214C1024.33 113.25 1032.99 101.389 1031.03 88.7102ZM994.254 94.4771C993.641 90.6325 994.662 86.9515 996.787 84.0066C998.912 81.1027 1002.1 79.0168 1005.98 78.4033C1009.82 77.7898 1013.5 78.8123 1016.44 80.9391C1019.34 83.0659 1021.43 86.2561 1022.04 90.1417C1022.65 93.9863 1021.63 97.6674 1019.51 100.612C1017.38 103.516 1014.19 105.602 1010.35 106.216C1006.51 106.829 1002.83 105.807 999.893 103.68C996.91 101.553 994.826 98.3218 994.254 94.4771Z" fill="#E96024"/>
<path d="M973.456 25.8457L977.705 35.0074L987.185 36.4798L980.321 43.6374L981.955 53.6989L973.456 48.9545L964.957 53.6989L966.591 43.6374L959.727 36.4798L969.206 35.0074L973.456 25.8457Z" fill="#E7BD11"/>
<path d="M1231.94 531.744C1232.1 533.503 1232.1 535.221 1231.94 536.939" stroke="#E7BD11" stroke-width="3.21361" stroke-linejoin="round"/>
<path d="M1229.29 547.041C1223.28 560.415 1208.32 570.313 1193.17 570.477C1172.65 570.722 1153.98 556.816 1143.36 539.229C1128.65 514.893 1127.17 484.095 1134.69 456.692C1142.17 429.247 1157.86 404.707 1175.64 382.498C1189.81 364.747 1205.63 347.937 1216.05 327.732C1226.47 307.528 1230.8 282.578 1220.87 262.128C1208.53 236.647 1176.7 225.072 1148.67 229.121C1120.64 233.13 1096.04 249.694 1074.55 268.14C1053.05 286.587 1033.52 307.487 1009.86 323.07C984.569 339.716 870.485 369.451 934.473 66.2559" stroke="#E7BD11" stroke-width="3.21361" stroke-linejoin="round" stroke-dasharray="4.12 4.12"/>
<path d="M935.537 61.1029C935.904 59.426 936.272 57.7491 936.64 56.0312C935.455 56.8493 933.984 57.79 932.309 58.8534" stroke="#E7BD11" stroke-width="3.21361" stroke-linejoin="round"/>
<path d="M923.443 64.0879C896.719 79.6301 843.886 107.851 803.352 134.518" stroke="#E7BD11" stroke-width="3.21361" stroke-linejoin="round" stroke-dasharray="4.06 4.06"/>
<path d="M799.017 137.422C797.587 138.404 796.157 139.344 794.727 140.326L791.703 136.113" stroke="#E7BD11" stroke-width="3.21361" stroke-linejoin="round"/>
<path d="M785.657 127.526L715.621 29.1191" stroke="#E7BD11" stroke-width="3.21361" stroke-linejoin="round" stroke-dasharray="4.13 4.13"/>
<path d="M712.599 24.865L709.575 20.6113L708.309 25.6421" stroke="#E7BD11" stroke-width="3.21361" stroke-linejoin="round"/>
<path d="M705.896 35.0488L673.289 162.086" stroke="#E7BD11" stroke-width="3.21361" stroke-linejoin="round" stroke-dasharray="3.82 3.82"/>
<path d="M672.104 166.789L670.797 171.82L675.864 173.047" stroke="#E7BD11" stroke-width="3.21361" stroke-linejoin="round"/>
<path d="M685.547 175.379L874.571 221.106" stroke="#E7BD11" stroke-width="3.21361" stroke-linejoin="round" stroke-dasharray="3.92 3.92"/>
<path d="M879.434 222.292L884.46 223.519L885.604 218.447" stroke="#E7BD11" stroke-width="3.21361" stroke-linejoin="round"/>
<path d="M887.809 208.753L922.05 58.6484" stroke="#E7BD11" stroke-width="3.21361" stroke-linejoin="round" stroke-dasharray="3.9 3.9"/>
<path d="M923.157 53.8227L924.301 48.751C924.301 48.751 922.503 48.3829 919.234 47.7285" stroke="#E7BD11" stroke-width="3.21361" stroke-linejoin="round"/>
<path d="M909.056 45.7654C866.234 37.299 745.816 13.4949 709.98 6.82812" stroke="#E7BD11" stroke-width="3.21361" stroke-linejoin="round" stroke-dasharray="4.09 4.09"/>
<path d="M704.873 5.88668C701.318 5.23228 699.48 4.94597 699.888 5.10958C699.48 6.82739 699.071 8.50431 698.703 10.1812" stroke="#E7BD11" stroke-width="3.21361" stroke-linejoin="round"/>
<path d="M696.131 20.2842C665.567 137.096 611.221 190.226 539.306 196.033C408.427 206.586 316.898 69.0785 418.724 15.2126C526.925 -42.0481 606.4 142.086 515.361 220.042C501.836 231.617 485.492 239.429 468.616 245.073C419.909 261.351 365.441 259.715 317.797 240.615C270.153 221.474 229.66 184.99 205.715 139.55L59.0234 83.23" stroke="#E7BD11" stroke-width="3.21361" stroke-linejoin="round" stroke-dasharray="4.11 4.11"/>
<path d="M54.1185 81.3482L49.2969 79.4668L53.9551 81.6754" stroke="#E7BD11" stroke-width="3.21361" stroke-linejoin="round"/>
<path d="M63.0664 85.9707L186.181 143.968" stroke="#E7BD11" stroke-width="3.21361" stroke-linejoin="round" stroke-dasharray="3.96 3.96"/>
<path d="M190.719 146.135L195.418 148.343L192.149 152.352" stroke="#E7BD11" stroke-width="3.21361" stroke-linejoin="round"/>
<path d="M184.71 161.432L158.641 193.17" stroke="#E7BD11" stroke-width="3.21361" stroke-linejoin="round" stroke-dasharray="4.61 4.61"/>
<path d="M154.923 197.711L151.654 201.719L147.977 198.079" stroke="#E7BD11" stroke-width="3.21361" stroke-linejoin="round"/>
<path d="M140.62 190.716L12.0703 61.9609" stroke="#E7BD11" stroke-width="3.21361" stroke-linejoin="round" stroke-dasharray="4.09 4.09"/>
<path d="M8.39626 58.2806L4.71875 54.5996L9.74468 55.9084" stroke="#E7BD11" stroke-width="3.21361" stroke-linejoin="round"/>
<path d="M19.8359 58.4434L216.828 108.506" stroke="#E7BD11" stroke-width="3.21361" stroke-linejoin="round" stroke-dasharray="4.1 4.1"/>
<path d="M221.855 109.814L226.881 111.082L223.735 115.213" stroke="#E7BD11" stroke-width="3.21361" stroke-linejoin="round"/>
<path d="M217.767 123.066L213.395 128.833L218.993 175.542" stroke="#E7BD11" stroke-width="3.21361" stroke-linejoin="round" stroke-dasharray="3.88 3.88"/>
<path d="M219.568 180.451L220.181 185.605L215.809 182.823" stroke="#E7BD11" stroke-width="3.21361" stroke-linejoin="round"/>
<path d="M208.372 178.16L197.258 171.166" stroke="#E7BD11" stroke-width="3.21361" stroke-linejoin="round" stroke-dasharray="3.45 3.45"/>
<path d="M193.538 168.834L189.125 166.094" stroke="#E7BD11" stroke-width="3.21361" stroke-linejoin="round"/>
<path d="M1055.59 82.1608C1059.6 83.596 1063.32 85.0176 1067.12 86.2752C1070.91 87.5328 1073.93 89.9522 1076.84 92.522C1078.9 94.3537 1079.57 96.7458 1078.61 99.4249C1078 101.175 1077.32 102.979 1076.43 104.619C1073.17 110.579 1067.74 112.52 1061.26 110.743C1052.82 108.433 1050.22 105.125 1048.75 94.7501C1048.43 92.563 1048.71 90.3076 1048.71 87.7105C1047.24 87.9018 1045.73 87.9292 1044.29 88.2846C1038.65 89.6651 1033.3 91.5515 1028.81 95.5429C1027.25 96.9235 1025.04 97.6343 1023.04 98.3997C1021.73 98.9055 1021.35 98.3724 1021.8 97.0055C1022.92 93.5198 1025.18 90.4716 1028.21 88.3802C1034.68 83.8421 1041.65 80.6845 1049.81 81.0809C1050.26 81.1083 1051.01 80.6299 1051.18 80.1924C1055.45 70.0089 1061.95 61.4794 1069.52 53.4693C1078.14 44.3383 1088.52 37.0117 1100 31.9541C1109.98 27.498 1120.06 22.7548 1130.8 20.4447C1147.27 16.9181 1163.89 16.672 1180.58 19.4879C1197.95 22.3994 1214.99 26.7052 1232.08 30.7786C1243.41 33.4987 1254.76 36.3146 1266.41 36.9843C1275.37 37.5174 1284.4 37.3671 1293.37 37.08C1300.51 36.8613 1307.67 36.2599 1314.78 35.303C1323.3 34.1548 1331.13 30.5872 1339 27.3749C1349.25 23.2195 1357.57 16.6583 1363.65 7.33601C1364.3 6.35183 1364.98 5.36765 1366.31 5.91442C1367.63 6.46118 1367.48 7.75975 1367.22 8.82594C1366.5 11.9972 1364.94 14.9224 1362.72 17.3008C1356.44 23.9303 1349.51 29.6714 1340.89 33.116C1332.49 36.4786 1324.23 40.2649 1315.19 41.5908C1309.33 42.4247 1303.41 43.0534 1297.48 43.3678C1288.74 43.7916 1279.98 44.1743 1271.22 44.0103C1258.28 43.7642 1245.71 40.8117 1233.14 37.9822C1219.12 34.852 1205.17 31.2296 1191.11 28.2498C1179.57 25.803 1167.9 23.8073 1155.97 24.19C1147.55 24.4771 1138.95 24.2447 1130.95 26.7872C1114.53 32.0224 1097.75 36.7793 1083.69 47.3729C1072.55 55.7657 1063 65.6895 1057.02 78.5521C1056.46 79.7003 1056.08 80.9306 1055.58 82.1881L1055.59 82.1608ZM1054 88.722C1053.08 92.563 1053.79 95.9803 1054.88 99.3702C1056.31 103.785 1060.46 106.506 1065.37 106.287C1069.61 106.095 1072.11 103.717 1073.29 98.7141C1073.32 98.6594 1073.36 98.5911 1073.34 98.5364C1073.08 97.8393 1073.03 96.8824 1072.52 96.4724C1067.2 92.0983 1060.79 90.2529 1054.02 88.7083L1054 88.722Z" fill="#E7BD11"/>
</g>
</svg>
