<svg width="20" height="23" viewBox="0 0 20 23" fill="none" xmlns="http://www.w3.org/2000/svg">
<path d="M18.7193 3.12162L5.30741 0.75331C5.14757 0.725002 4.98372 0.728464 4.82522 0.7635C4.66672 0.798536 4.51668 0.864458 4.38367 0.9575C4.25066 1.05054 4.13728 1.16888 4.05001 1.30576C3.96275 1.44263 3.90331 1.59536 3.87509 1.75521L0.811732 19.1572C0.754862 19.4798 0.828457 19.8118 1.01634 20.0802C1.20422 20.3486 1.491 20.5314 1.81363 20.5884L15.2265 22.9568C15.2982 22.9699 15.3709 22.9764 15.4438 22.9763C15.7339 22.9756 16.0144 22.8729 16.2364 22.6862C16.4583 22.4994 16.6075 22.2405 16.6578 21.9549L19.7212 4.55291C19.778 4.23026 19.7044 3.89823 19.5166 3.62982C19.3287 3.36142 19.0419 3.17862 18.7193 3.12162ZM18.9098 4.40978L15.8464 21.8117C15.8276 21.9193 15.7667 22.015 15.6773 22.0778C15.5879 22.1406 15.4772 22.1652 15.3696 22.1464L1.95676 19.7781C1.84935 19.759 1.7539 19.6981 1.69135 19.6087C1.62881 19.5193 1.60427 19.4088 1.62314 19.3013L4.6865 1.89937C4.70534 1.79177 4.76616 1.69606 4.85557 1.6333C4.94497 1.57054 5.05565 1.54587 5.16325 1.56471L18.5761 3.93303C18.6835 3.95211 18.779 4.01303 18.8415 4.10241C18.9041 4.19179 18.9286 4.30233 18.9098 4.40978ZM16.0472 6.41461C16.0303 6.50971 15.9805 6.59584 15.9065 6.65796C15.8326 6.72007 15.7391 6.75421 15.6425 6.75441C15.6184 6.75447 15.5942 6.7524 15.5704 6.74823L7.02392 5.23869C6.91632 5.21971 6.82067 5.15876 6.75801 5.06926C6.69534 4.97975 6.6708 4.86902 6.68978 4.76142C6.70876 4.65382 6.76971 4.55817 6.85921 4.49551C6.94872 4.43284 7.05945 4.4083 7.16705 4.42728L15.7136 5.93683C15.7669 5.94627 15.8178 5.96612 15.8634 5.99525C15.909 6.02438 15.9484 6.06221 15.9794 6.10658C16.0104 6.15095 16.0323 6.20099 16.0439 6.25385C16.0556 6.3067 16.0567 6.36133 16.0472 6.41461ZM15.4767 9.6592C15.46 9.75466 15.4102 9.84117 15.336 9.90351C15.2618 9.96585 15.168 10 15.071 10C15.0468 10.0001 15.0227 9.99771 14.999 9.99282L6.45655 8.48431C6.40328 8.47491 6.35237 8.45511 6.30675 8.42604C6.26112 8.39697 6.22167 8.35919 6.19064 8.31488C6.15961 8.27056 6.13762 8.22056 6.12591 8.16774C6.11421 8.11493 6.11302 8.06032 6.12242 8.00704C6.13181 7.95376 6.15161 7.90286 6.18068 7.85723C6.20976 7.81161 6.24753 7.77215 6.29185 7.74113C6.33616 7.7101 6.38616 7.6881 6.43898 7.6764C6.4918 7.66469 6.5464 7.6635 6.59968 7.6729L15.1462 9.18244C15.253 9.20224 15.3477 9.26346 15.4096 9.35276C15.4716 9.44205 15.4957 9.5522 15.4767 9.6592ZM10.6371 12.15C10.6202 12.2453 10.5703 12.3316 10.4961 12.3937C10.4219 12.4559 10.3282 12.4899 10.2314 12.4898C10.2073 12.4899 10.1832 12.4878 10.1594 12.4837L5.88713 11.7289C5.83194 11.7217 5.77878 11.7034 5.73086 11.6751C5.68293 11.6468 5.64125 11.6091 5.60831 11.5642C5.57538 11.5193 5.55188 11.4682 5.53923 11.414C5.52659 11.3598 5.52506 11.3036 5.53474 11.2488C5.54442 11.194 5.56511 11.1417 5.59556 11.0951C5.626 11.0486 5.66558 11.0086 5.71189 10.9778C5.7582 10.9469 5.81029 10.9257 5.86501 10.9155C5.91973 10.9054 5.97594 10.9064 6.03026 10.9185L10.3025 11.6723C10.4095 11.6921 10.5044 11.7534 10.5663 11.8429C10.6283 11.9325 10.6523 12.0429 10.633 12.15L10.6371 12.15Z" fill="#E96024"/>
</svg>
