<svg width="120" height="69" viewBox="0 0 120 69" fill="none" xmlns="http://www.w3.org/2000/svg">
<path d="M38.7723 56.111C38.0256 56.111 37.3116 55.999 36.6303 55.775C35.949 55.5417 35.4123 55.243 35.0203 54.879L35.5383 53.787C35.9116 54.1137 36.3876 54.3844 36.9663 54.599C37.545 54.8137 38.147 54.921 38.7723 54.921C39.3416 54.921 39.8036 54.8557 40.1583 54.725C40.513 54.5944 40.7743 54.417 40.9423 54.193C41.1103 53.9597 41.1943 53.6984 41.1943 53.409C41.1943 53.073 41.0823 52.8024 40.8583 52.597C40.6436 52.3917 40.359 52.2284 40.0043 52.107C39.659 51.9764 39.2763 51.8644 38.8563 51.771C38.4363 51.6777 38.0116 51.5704 37.5823 51.449C37.1623 51.3184 36.775 51.155 36.4203 50.959C36.075 50.763 35.795 50.5017 35.5803 50.175C35.3656 49.839 35.2583 49.4097 35.2583 48.887C35.2583 48.383 35.389 47.921 35.6503 47.501C35.921 47.0717 36.3316 46.731 36.8823 46.479C37.4423 46.2177 38.1516 46.087 39.0103 46.087C39.5796 46.087 40.1443 46.1617 40.7043 46.311C41.2643 46.4604 41.7496 46.675 42.1603 46.955L41.6983 48.075C41.2783 47.795 40.835 47.5944 40.3683 47.473C39.9016 47.3424 39.449 47.277 39.0103 47.277C38.4596 47.277 38.007 47.347 37.6523 47.487C37.2976 47.627 37.0363 47.8137 36.8683 48.047C36.7096 48.2804 36.6303 48.5417 36.6303 48.831C36.6303 49.1764 36.7376 49.4517 36.9523 49.657C37.1763 49.8624 37.461 50.0257 37.8063 50.147C38.161 50.2684 38.5483 50.3804 38.9683 50.483C39.3883 50.5764 39.8083 50.6837 40.2283 50.805C40.6576 50.9264 41.045 51.085 41.3903 51.281C41.745 51.477 42.0296 51.7384 42.2443 52.065C42.459 52.3917 42.5663 52.8117 42.5663 53.325C42.5663 53.8197 42.431 54.2817 42.1603 54.711C41.8896 55.131 41.4696 55.4717 40.9003 55.733C40.3403 55.985 39.631 56.111 38.7723 56.111ZM47.6496 56.083C46.8936 56.083 46.2169 55.9197 45.6196 55.593C45.0316 55.2664 44.5696 54.8184 44.2336 54.249C43.8976 53.6797 43.7296 53.0264 43.7296 52.289C43.7296 51.5517 43.8976 50.8984 44.2336 50.329C44.5696 49.7597 45.0316 49.3164 45.6196 48.999C46.2169 48.6724 46.8936 48.509 47.6496 48.509C48.3216 48.509 48.9189 48.6444 49.4416 48.915C49.9736 49.1764 50.3843 49.5684 50.6736 50.091L49.6516 50.749C49.4089 50.385 49.1103 50.119 48.7556 49.951C48.4103 49.7737 48.0369 49.685 47.6356 49.685C47.1503 49.685 46.7163 49.7924 46.3336 50.007C45.9509 50.2217 45.6476 50.525 45.4236 50.917C45.1996 51.2997 45.0876 51.757 45.0876 52.289C45.0876 52.821 45.1996 53.283 45.4236 53.675C45.6476 54.067 45.9509 54.3704 46.3336 54.585C46.7163 54.7997 47.1503 54.907 47.6356 54.907C48.0369 54.907 48.4103 54.823 48.7556 54.655C49.1103 54.4777 49.4089 54.207 49.6516 53.843L50.6736 54.487C50.3843 55.0004 49.9736 55.397 49.4416 55.677C48.9189 55.9477 48.3216 56.083 47.6496 56.083ZM52.4136 55.999V48.579H53.7016V50.595L53.5756 50.091C53.781 49.5777 54.1263 49.1857 54.6116 48.915C55.097 48.6444 55.6943 48.509 56.4036 48.509V49.811C56.3476 49.8017 56.2916 49.797 56.2356 49.797C56.189 49.797 56.1423 49.797 56.0956 49.797C55.377 49.797 54.8076 50.0117 54.3876 50.441C53.9676 50.8704 53.7576 51.491 53.7576 52.303V55.999H52.4136ZM61.1698 56.083C60.4231 56.083 59.7604 55.9197 59.1818 55.593C58.6031 55.2664 58.1458 54.8184 57.8098 54.249C57.4738 53.6704 57.3058 53.017 57.3058 52.289C57.3058 51.5517 57.4738 50.8984 57.8098 50.329C58.1458 49.7597 58.6031 49.3164 59.1818 48.999C59.7604 48.6724 60.4231 48.509 61.1698 48.509C61.9071 48.509 62.5651 48.6724 63.1438 48.999C63.7318 49.3164 64.1891 49.7597 64.5158 50.329C64.8518 50.889 65.0198 51.5424 65.0198 52.289C65.0198 53.0264 64.8518 53.6797 64.5158 54.249C64.1891 54.8184 63.7318 55.2664 63.1438 55.593C62.5651 55.9197 61.9071 56.083 61.1698 56.083ZM61.1698 54.907C61.6458 54.907 62.0704 54.7997 62.4438 54.585C62.8264 54.3704 63.1251 54.067 63.3398 53.675C63.5544 53.2737 63.6618 52.8117 63.6618 52.289C63.6618 51.757 63.5544 51.2997 63.3398 50.917C63.1251 50.525 62.8264 50.2217 62.4438 50.007C62.0704 49.7924 61.6458 49.685 61.1698 49.685C60.6938 49.685 60.2691 49.7924 59.8958 50.007C59.5224 50.2217 59.2238 50.525 58.9998 50.917C58.7758 51.2997 58.6638 51.757 58.6638 52.289C58.6638 52.8117 58.7758 53.2737 58.9998 53.675C59.2238 54.067 59.5224 54.3704 59.8958 54.585C60.2691 54.7997 60.6938 54.907 61.1698 54.907ZM66.8785 55.999V45.611H68.2225V55.999H66.8785ZM70.7886 55.999V45.611H72.1326V55.999H70.7886ZM78.6546 55.999V46.199H82.7846C83.8299 46.199 84.7492 46.4044 85.5426 46.815C86.3452 47.2257 86.9659 47.7997 87.4046 48.537C87.8526 49.2744 88.0766 50.1284 88.0766 51.099C88.0766 52.0697 87.8526 52.9237 87.4046 53.661C86.9659 54.3984 86.3452 54.9724 85.5426 55.383C84.7492 55.7937 83.8299 55.999 82.7846 55.999H78.6546ZM80.0546 54.781H82.7006C83.5126 54.781 84.2126 54.627 84.8006 54.319C85.3979 54.011 85.8599 53.5817 86.1866 53.031C86.5132 52.471 86.6766 51.827 86.6766 51.099C86.6766 50.3617 86.5132 49.7177 86.1866 49.167C85.8599 48.6164 85.3979 48.187 84.8006 47.879C84.2126 47.571 83.5126 47.417 82.7006 47.417H80.0546V54.781ZM93.203 56.083C92.4563 56.083 91.7936 55.9197 91.215 55.593C90.6363 55.2664 90.179 54.8184 89.843 54.249C89.507 53.6704 89.339 53.017 89.339 52.289C89.339 51.5517 89.507 50.8984 89.843 50.329C90.179 49.7597 90.6363 49.3164 91.215 48.999C91.7936 48.6724 92.4563 48.509 93.203 48.509C93.9403 48.509 94.5983 48.6724 95.177 48.999C95.765 49.3164 96.2223 49.7597 96.549 50.329C96.885 50.889 97.053 51.5424 97.053 52.289C97.053 53.0264 96.885 53.6797 96.549 54.249C96.2223 54.8184 95.765 55.2664 95.177 55.593C94.5983 55.9197 93.9403 56.083 93.203 56.083ZM93.203 54.907C93.679 54.907 94.1036 54.7997 94.477 54.585C94.8596 54.3704 95.1583 54.067 95.373 53.675C95.5876 53.2737 95.695 52.8117 95.695 52.289C95.695 51.757 95.5876 51.2997 95.373 50.917C95.1583 50.525 94.8596 50.2217 94.477 50.007C94.1036 49.7924 93.679 49.685 93.203 49.685C92.727 49.685 92.3023 49.7924 91.929 50.007C91.5556 50.2217 91.257 50.525 91.033 50.917C90.809 51.2997 90.697 51.757 90.697 52.289C90.697 52.8117 90.809 53.2737 91.033 53.675C91.257 54.067 91.5556 54.3704 91.929 54.585C92.3023 54.7997 92.727 54.907 93.203 54.907ZM100.275 55.999L97.5166 48.579H98.7906L101.241 55.299H100.639L103.187 48.579H104.321L106.813 55.299H106.225L108.731 48.579H109.935L107.163 55.999H105.875L103.537 49.867H103.929L101.563 55.999H100.275ZM115.26 48.509C115.867 48.509 116.399 48.6257 116.856 48.859C117.323 49.0924 117.687 49.447 117.948 49.923C118.21 50.399 118.34 51.001 118.34 51.729V55.999H116.996V51.883C116.996 51.1644 116.819 50.623 116.464 50.259C116.119 49.895 115.629 49.713 114.994 49.713C114.518 49.713 114.103 49.8064 113.748 49.993C113.394 50.1797 113.118 50.455 112.922 50.819C112.736 51.183 112.642 51.6357 112.642 52.177V55.999H111.298V48.579H112.586V50.581L112.376 50.049C112.619 49.5637 112.992 49.1857 113.496 48.915C114 48.6444 114.588 48.509 115.26 48.509Z" fill="#FFFCF0"/>
<g clip-path="url(#clip0_1933_9840)">
<path d="M17.0022 67.9028L21.7731 56.5564C21.9057 56.2388 21.7663 55.8645 21.4591 55.6982C21.1367 55.5279 20.74 55.6658 20.5753 55.9834L16.1939 64.8654C15.6066 58.2718 16.3731 51.5843 18.4879 45.3907C18.8002 44.5494 19.0885 43.69 19.4457 42.8802L19.9675 41.6479C20.1549 41.2311 20.3434 40.8267 20.5273 40.4252C21.2861 38.8048 22.1162 37.2064 23.0462 35.6978C24.8903 32.6444 27.1381 29.8625 29.7448 27.4779C32.3515 25.0933 35.3417 23.1567 38.5624 21.7223C39.3627 21.3635 40.1851 21.0305 41.0204 20.7289C41.8482 20.4254 42.6888 20.1535 43.5423 19.913C44.3835 19.6735 45.2423 19.4627 46.1175 19.268C46.9845 19.0915 47.8451 18.9255 48.7227 18.8082C49.137 18.7514 49.5419 18.7003 49.9615 18.6732C49.7706 19.4926 49.648 20.3294 49.5803 21.1719C49.4748 22.5497 49.5251 23.9306 49.7412 25.2888C49.9572 26.6469 50.3156 27.9966 50.8788 29.2931C51.4303 30.5706 52.1767 31.8205 53.1837 32.8781C53.3041 33.0013 53.4426 33.1331 53.5752 33.2554C53.7108 33.3825 53.8481 33.5019 53.9837 33.629C54.1257 33.7456 54.2752 33.8641 54.4207 33.9654C54.4926 34.0199 54.5662 34.0667 54.6351 34.1164L54.8495 34.2674C55.4406 34.667 56.0732 35.0084 56.7365 35.2849C58.0556 35.8361 59.5168 36.1164 60.9739 35.9921L61.5108 35.9259C61.603 35.9088 61.6905 35.8946 61.7675 35.8737C61.8597 35.8566 61.9367 35.8357 62.0271 35.8263C62.3824 35.7465 62.7214 35.6506 63.0702 35.5288C63.4039 35.4032 63.7474 35.2519 64.0688 35.0748C64.3901 34.8976 64.7044 34.6986 65.0011 34.4708C65.1358 34.3555 65.2932 34.246 65.4243 34.0934L65.6207 33.9009L65.8067 33.7017L65.9057 33.6016L65.996 33.4872L66.1702 33.2688C66.2227 33.1973 66.2815 33.1153 66.3339 33.0438L66.4888 32.8045C66.8872 32.1665 67.1605 31.4607 67.3043 30.7423C67.6286 29.3027 67.5116 27.8445 67.2308 26.5063L67.2273 26.5216C67.2255 26.4767 67.2085 26.428 67.2173 26.4424L67.2079 26.3956L67.1739 26.2982L67.1241 26.1121C67.0924 25.987 67.0531 25.8601 67.015 25.7455C66.9757 25.6186 66.9376 25.504 66.8996 25.3894C66.8615 25.2749 66.8251 25.1527 66.7718 25.0343C66.6834 24.8061 66.5874 24.5761 66.4838 24.3441C66.3738 24.1225 66.2824 23.8896 66.1613 23.6814C65.7072 22.804 65.1417 21.975 64.4976 21.2271C64.3345 21.0447 64.1562 20.8584 63.9914 20.6836L63.4526 20.16L62.8759 19.6794L62.2672 19.2512C61.436 18.6901 60.5396 18.2739 59.6345 17.9485C58.7248 17.6258 57.7866 17.3929 56.848 17.2325C55.9064 17.0672 54.9701 16.9841 54.0387 16.9506C53.7392 16.9436 53.4276 16.9375 53.1282 16.9305L53.1829 16.8313C53.2475 16.7064 53.3156 16.5662 53.3907 16.4479C53.5457 16.2086 53.6889 15.9501 53.8543 15.7175C53.9493 15.6002 54.0244 15.482 54.0995 15.3638L54.364 15.031C54.4543 14.9166 54.5534 14.8165 54.6437 14.7021C54.7492 14.5915 54.8331 14.4876 54.9386 14.3771C55.1402 14.1616 55.3325 13.9519 55.5564 13.7623C55.9696 13.3581 56.429 12.9979 56.9048 12.654C57.8563 11.9661 58.8932 11.3967 59.9717 10.9265C62.1268 9.94129 64.5043 9.42394 66.9098 9.27687C69.3152 9.1298 71.7568 9.33488 74.145 9.86149L74.1602 9.86533L74.1754 9.86916C74.925 10.0141 75.634 9.5273 75.769 8.79458C75.9033 8.02942 75.4068 7.30267 74.6573 7.15772C72.0309 6.61939 69.3431 6.4207 66.6809 6.61996C64.017 6.82686 61.3694 7.43742 58.9086 8.53105C57.675 9.08311 56.4988 9.77074 55.4096 10.5692C54.8751 10.9951 54.3422 11.4134 53.8474 11.8938C53.5915 12.1359 53.3677 12.378 53.1206 12.6344C53.0011 12.7536 52.8933 12.8918 52.7844 13.0176C52.6719 13.1587 52.5524 13.2779 52.4552 13.4228L52.1348 13.8423C52.0375 13.9873 51.942 14.1246 51.8447 14.2695C51.6548 14.5565 51.4767 14.8626 51.2926 15.1592C51.2106 15.308 51.1297 15.4691 51.0476 15.6179L50.9218 15.8525L50.5901 16.5678L50.4255 16.9904C49.7667 17.0459 49.098 17.1272 48.4562 17.2315C47.543 17.364 46.6497 17.55 45.7501 17.7465C44.8592 17.9574 43.9677 18.1882 43.0892 18.4506C42.2153 18.7101 41.342 19.0021 40.4857 19.3427C39.6329 19.6681 38.7883 20.0278 37.9542 20.3943C34.6268 21.9268 31.5505 23.995 28.8792 26.5045C26.2049 29.0092 23.9474 31.9219 22.0929 35.0736C21.1612 36.6423 20.3376 38.2827 19.5929 39.947C19.4055 40.3638 19.2257 40.7825 19.0489 41.206L18.5441 42.487C18.1921 43.3263 17.9108 44.2077 17.6085 45.0758C15.529 51.4316 14.8519 58.2547 15.5404 64.9505L9.6204 56.5215C9.41457 56.2274 9.02694 56.1496 8.72838 56.3325C8.41583 56.524 8.33117 56.9304 8.52419 57.2455L15.1967 68.0238C15.3049 68.2005 15.4662 68.3381 15.6548 68.4261C16.2049 68.6538 16.7964 68.436 17.0157 67.9142L17.0022 67.9028ZM59.0373 19.529C59.839 19.8324 60.5947 20.1968 61.2893 20.6709L61.7864 21.0427L62.2597 21.4488L62.7062 21.8845L63.127 22.3621C63.6748 23.0049 64.1333 23.7221 64.5172 24.485C64.6219 24.6769 64.6945 24.8688 64.7993 25.0607C64.8853 25.264 64.958 25.4559 65.0335 25.6526C65.0751 25.7519 65.1061 25.8445 65.1355 25.9447C65.1665 26.0373 65.2081 26.1366 65.2386 26.2492C65.265 26.3447 65.2926 26.4526 65.3219 26.5528L65.3547 26.6902L65.3735 26.7838C65.3683 26.7542 65.3559 26.6502 65.354 26.6053C65.3504 26.5156 65.3754 26.4412 65.3911 26.3725L65.3713 26.8115C65.43 27.1169 65.4724 27.4061 65.5055 27.701C65.5197 27.8498 65.5339 27.9987 65.5528 28.1448C65.5518 28.2898 65.5661 28.4387 65.5697 28.5809C65.5781 29.1601 65.5304 29.7212 65.401 30.2535C65.1544 31.3172 64.582 32.2259 63.7541 32.8644C62.9309 33.4999 61.8453 33.8431 60.7348 33.9259C59.6488 34.0067 58.5285 33.7802 57.485 33.3229C56.9641 33.0904 56.4519 32.8198 55.9781 32.4862L55.7982 32.36C55.7368 32.3122 55.6831 32.2664 55.6182 32.2338C55.5183 32.144 55.3922 32.0637 55.2922 31.9739C55.1877 31.887 55.0848 31.7924 54.9866 31.6949L54.688 31.3854C53.9054 30.5581 53.3151 29.5211 52.8637 28.4385C52.3988 27.3444 52.106 26.1646 51.9404 24.9725C51.7654 23.7862 51.7533 22.5724 51.8491 21.3778C51.9435 20.4007 52.1342 19.4238 52.4195 18.5071C52.9331 18.5076 53.4466 18.5082 53.9731 18.5403C54.8474 18.5957 55.709 18.6721 56.5665 18.8362C57.4328 19.0147 58.2584 19.2313 59.0601 19.5347L59.0373 19.529Z" fill="#41B4B4"/>
</g>
<defs>
<clipPath id="clip0_1933_9840">
<rect width="83" height="30" fill="white" transform="translate(0 43.3525) rotate(-31.4884)"/>
</clipPath>
</defs>
</svg>
