<svg width="15" height="22" viewBox="0 0 15 22" fill="none" xmlns="http://www.w3.org/2000/svg">
<path d="M0.985054 10.5034C0.6619 7.53181 2.82893 4.83561 5.8 4.51246C8.77209 4.1893 11.4678 6.35634 11.7909 9.32843C12.1141 12.3 9.94705 14.9957 6.97547 15.3188C4.0039 15.642 1.30821 13.475 0.985054 10.5034ZM2.03055 2.71482L5.33915 0.273438L9.14508 1.81523L8.38369 3.51679L5.5611 2.30946L3.18856 4.08141L2.03055 2.71482ZM12.1182 21.9977L7.17892 13.6995L9.26221 12.4593L14.202 20.7575L12.1182 21.9977ZM3.39561 10.2414C3.57645 11.9034 5.05145 13.0886 6.71346 12.9078C8.37598 12.7269 9.56122 11.2525 9.38038 9.59044C9.19953 7.92741 7.72453 6.74268 6.06253 6.92352C4.4 7.10437 3.21476 8.57834 3.39561 10.2414Z" fill="#E96024"/>
</svg>
