<svg width="365" height="700" viewBox="0 0 365 700" fill="none" xmlns="http://www.w3.org/2000/svg">
<path d="M42.7418 54.8029C42.7418 56.202 43.876 57.3362 45.2751 57.3362C46.6742 57.3362 47.8084 56.202 47.8084 54.8029C47.8084 53.4038 46.6742 52.2696 45.2751 52.2696C43.876 52.2696 42.7418 53.4038 42.7418 54.8029ZM366.722 82.8194C366.722 84.2185 367.856 85.3527 369.255 85.3527C370.654 85.3527 371.788 84.2185 371.788 82.8194C371.788 81.4202 370.654 80.286 369.255 80.286C367.856 80.286 366.722 81.4202 366.722 82.8194ZM3.49077 515.566L3.93534 515.399L3.49077 515.566ZM354.43 617.167L353.96 617.092L354.43 617.167ZM291.554 697.101C291.554 698.5 292.688 699.634 294.087 699.634C295.486 699.634 296.62 698.5 296.62 697.101C296.62 695.702 295.486 694.568 294.087 694.568C292.688 694.568 291.554 695.702 291.554 697.101ZM365.832 246.824C365.832 248.223 366.966 249.357 368.366 249.357C369.765 249.357 370.899 248.223 370.899 246.824C370.899 245.425 369.765 244.29 368.366 244.29C366.966 244.29 365.832 245.425 365.832 246.824ZM45.2751 54.8029L45.5802 55.1669C46.4047 54.4759 47.2351 53.7911 48.0714 53.1126L47.7722 52.7438L47.4729 52.3749C46.6327 53.0566 45.7984 53.7446 44.97 54.4389L45.2751 54.8029ZM52.8709 48.7392L53.1584 49.1174C54.8714 47.8149 56.6068 46.5376 58.3634 45.2857L58.0877 44.8989L57.812 44.5121C56.0475 45.7696 54.3043 47.0527 52.5834 48.3611L52.8709 48.7392ZM63.4263 41.2152L63.6901 41.6102C65.4792 40.4152 67.2885 39.2454 69.1168 38.1011L68.8648 37.6984L68.6128 37.2958C66.7766 38.445 64.9594 39.6199 63.1624 40.8202L63.4263 41.2152ZM74.41 34.3396L74.6502 34.7494C76.5079 33.6607 78.3836 32.5975 80.2763 31.5598L80.048 31.1433L79.8196 30.7268C77.919 31.7688 76.0354 32.8365 74.1699 33.9298L74.41 34.3396ZM85.7736 28.1085L85.9902 28.5313C87.908 27.5489 89.8418 26.5921 91.7906 25.661L91.5859 25.2324L91.3811 24.8038C89.4244 25.7387 87.4827 26.6994 85.5571 27.6857L85.7736 28.1085ZM97.4681 22.52L97.6612 22.954C99.6305 22.0782 101.614 21.228 103.61 20.4036L103.429 19.9646L103.247 19.5255C101.243 20.3531 99.2522 21.2067 97.2751 22.086L97.4681 22.52ZM109.449 17.5717L109.618 18.0154C111.631 17.2459 113.656 16.5023 115.692 15.7845L115.534 15.3366L115.376 14.8886C113.332 15.609 111.3 16.3556 109.279 17.128L109.449 17.5717ZM121.674 13.2613L121.82 13.7132C123.87 13.0498 125.931 12.4122 128 11.8007L127.865 11.3452L127.731 10.8897C125.654 11.5034 123.586 12.1434 121.528 12.8094L121.674 13.2613ZM134.106 9.58765L134.229 10.0465C136.31 9.48875 138.4 8.95715 140.497 8.45183L140.386 7.99004L140.274 7.52826C138.17 8.03546 136.072 8.56904 133.983 9.12884L134.106 9.58765ZM146.707 6.55096L146.807 7.0154C148.914 6.56349 151.028 6.13793 153.148 5.7389L153.06 5.2721L152.972 4.8053C150.845 5.2058 148.723 5.63293 146.608 6.08652L146.707 6.55096ZM159.445 4.15285L159.521 4.62171C161.649 4.27608 163.782 3.95709 165.919 3.66492L165.855 3.1943L165.79 2.72368C163.646 3.01693 161.505 3.33709 159.369 3.684L159.445 4.15285ZM172.287 2.39689L172.34 2.86898C174.483 2.63058 176.63 2.41916 178.778 2.23487L178.737 1.76161L178.697 1.28835C176.54 1.47332 174.386 1.68552 172.235 1.9248L172.287 2.39689ZM185.202 1.28923L185.231 1.76337C187.384 1.63345 189.537 1.53088 191.691 1.4558L191.675 0.981085L191.658 0.506374C189.496 0.581735 187.334 0.684695 185.174 0.815094L185.202 1.28923ZM198.157 0.838152L198.161 1.31313C200.318 1.29325 202.474 1.30112 204.629 1.3369L204.637 0.861969L204.645 0.387034C202.482 0.351111 200.317 0.343212 198.152 0.363173L198.157 0.838152ZM211.116 1.05401L211.096 1.52857C213.252 1.62067 215.405 1.74099 217.555 1.88969L217.588 1.41582L217.621 0.941956C215.462 0.792676 213.301 0.671892 211.137 0.579441L211.116 1.05401ZM224.046 1.94906L224.001 2.42188C226.15 2.62824 228.294 2.86333 230.433 3.1273L230.491 2.65588L230.549 2.18446C228.402 1.91942 226.249 1.68341 224.092 1.47623L224.046 1.94906ZM236.908 3.53718L236.837 4.00683C238.972 4.32998 241.101 4.68239 243.222 5.06423L243.306 4.59674L243.39 4.12925C241.26 3.74584 239.123 3.39199 236.979 3.06753L236.908 3.53718ZM249.666 5.8343L249.568 6.29922C251.681 6.74157 253.786 7.21369 255.881 7.71577L255.992 7.25385L256.102 6.79193C253.998 6.2877 251.885 5.81358 249.763 5.36938L249.666 5.8343ZM262.271 8.85592L262.147 9.31441C264.23 9.87836 266.302 10.4726 268.363 11.0973L268.5 10.6428L268.638 10.1882C266.568 9.5607 264.487 8.96384 262.396 8.39744L262.271 8.85592ZM274.675 12.617L274.524 13.0672C276.567 13.7551 278.598 14.4737 280.617 15.2234L280.782 14.7781L280.947 14.3328C278.92 13.5798 276.879 12.8578 274.827 12.1669L274.675 12.617ZM286.824 17.1312L286.645 17.571C288.641 18.3851 290.623 19.2306 292.59 20.1075L292.784 19.6736L292.977 19.2398C291.001 18.3587 289.009 17.5093 287.003 16.6913L286.824 17.1312ZM298.66 22.4089L298.453 22.8362C300.392 23.7777 302.314 24.751 304.22 25.7562L304.442 25.336L304.663 24.9159C302.748 23.9057 300.816 22.9277 298.868 21.9816L298.66 22.4089ZM310.122 28.4562L309.887 28.8686C311.757 29.9375 313.609 31.0385 315.442 32.1718L315.692 31.7677L315.942 31.3637C314.099 30.2247 312.238 29.1181 310.358 28.0438L310.122 28.4562ZM321.146 35.2722L320.882 35.6673C322.672 36.8623 324.442 38.0895 326.191 39.3492L326.469 38.9637L326.747 38.5783C324.988 37.312 323.209 36.0783 321.41 34.8772L321.146 35.2722ZM331.66 42.8447L331.369 43.22C333.068 44.5391 334.747 45.8906 336.402 47.2746L336.707 46.9101L337.012 46.5457C335.347 45.1543 333.66 43.7956 331.951 42.4695L331.66 42.8447ZM341.6 51.1543L341.282 51.5074C342.882 52.9471 344.459 54.4191 346.011 55.9236L346.342 55.5824L346.672 55.2413C345.111 53.7287 343.526 52.2488 341.918 50.8013L341.6 51.1543ZM350.905 60.1702L350.562 60.4988C352.051 62.0524 353.515 63.6379 354.955 65.2555L355.309 64.9397L355.664 64.624C354.217 62.9976 352.745 61.4035 351.248 59.8415L350.905 60.1702ZM359.518 69.8503L359.152 70.1527C360.52 71.8093 361.862 73.4972 363.177 75.2167L363.555 74.928L363.932 74.6394C362.609 72.9106 361.26 71.2135 359.885 69.5479L359.518 69.8503ZM367.395 80.1422L367.007 80.4168C367.632 81.2991 368.251 82.1891 368.863 83.0868L369.255 82.8194L369.648 82.5519C369.033 81.6493 368.411 80.7546 367.782 79.8676L367.395 80.1422ZM294.087 697.101L294.554 697.015C294.362 695.969 294.191 694.926 294.042 693.887L293.572 693.954L293.102 694.022C293.253 695.074 293.425 696.129 293.62 697.187L294.087 697.101ZM292.918 687.653L293.392 687.623C293.256 685.507 293.204 683.407 293.232 681.326L292.757 681.32L292.282 681.314C292.254 683.419 292.306 685.543 292.444 687.684L292.918 687.653ZM293.081 674.992L293.554 675.034C293.742 672.926 294.008 670.841 294.346 668.783L293.877 668.706L293.408 668.629C293.067 670.71 292.798 672.818 292.608 674.95L293.081 674.992ZM295.126 662.493L295.588 662.603C296.078 660.545 296.638 658.518 297.259 656.525L296.806 656.383L296.352 656.242C295.724 658.255 295.159 660.303 294.664 662.383L295.126 662.493ZM298.891 650.4L299.335 650.571C300.097 648.594 300.919 646.658 301.791 644.766L301.36 644.567L300.928 644.368C300.048 646.278 299.218 648.233 298.448 650.229L298.891 650.4ZM304.193 638.894L304.611 639.119C305.621 637.243 306.679 635.42 307.775 633.653L307.372 633.403L306.968 633.152C305.862 634.935 304.794 636.775 303.775 638.669L304.193 638.894ZM310.88 628.117L311.267 628.392C312.506 626.644 313.778 624.966 315.073 623.361L314.704 623.063L314.334 622.764C313.026 624.384 311.742 626.078 310.492 627.842L310.88 628.117ZM318.833 618.276L319.182 618.598C320.656 617 322.145 615.5 323.635 614.104L323.31 613.757L322.985 613.411C321.478 614.823 319.973 616.339 318.484 617.953L318.833 618.276ZM328.104 609.621L328.399 609.994C330.14 608.62 331.861 607.403 333.538 606.352L333.286 605.95L333.034 605.547C331.324 606.617 329.576 607.855 327.81 609.248L328.104 609.621ZM338.879 602.993L339.065 603.43C341.217 602.519 343.223 601.959 345.024 601.77L344.974 601.298L344.925 600.825C343.007 601.027 340.909 601.617 338.694 602.555L338.879 602.993ZM351.05 602.49L350.789 602.886C352.256 603.853 353.355 605.448 353.936 607.791L354.397 607.677L354.858 607.563C354.232 605.039 353.018 603.217 351.311 602.093L351.05 602.49ZM354.801 613.97L354.327 613.937C354.258 614.924 354.137 615.975 353.96 617.092L354.43 617.167L354.899 617.241C355.079 616.099 355.203 615.02 355.274 614.003L354.801 613.97ZM354.43 617.167L353.96 617.092C353.802 618.097 353.489 619.068 353.028 620.007L353.455 620.217L353.881 620.426C354.382 619.405 354.725 618.343 354.899 617.241L354.43 617.167ZM349.394 625.153L349.089 624.788C347.632 626.004 345.868 627.147 343.815 628.212L344.034 628.634L344.253 629.055C346.353 627.966 348.177 626.787 349.698 625.518L349.394 625.153ZM338.117 631.208L337.953 630.762C336.046 631.462 333.989 632.116 331.788 632.721L331.914 633.179L332.04 633.637C334.263 633.026 336.346 632.364 338.281 631.654L338.117 631.208ZM325.749 634.672L325.651 634.207C323.644 634.634 321.548 635.027 319.368 635.387L319.445 635.855L319.522 636.324C321.716 635.962 323.826 635.566 325.848 635.136L325.749 634.672ZM312.992 636.791L312.933 636.32C310.884 636.579 308.776 636.812 306.609 637.018L306.654 637.491L306.699 637.964C308.875 637.756 310.993 637.523 313.052 637.262L312.992 636.791ZM300.225 638.013L300.193 637.54C298.091 637.683 295.944 637.803 293.753 637.9L293.775 638.375L293.796 638.849C295.993 638.752 298.148 638.631 300.258 638.487L300.225 638.013ZM287.371 638.59L287.36 638.115C285.235 638.164 283.076 638.193 280.884 638.201L280.885 638.676L280.887 639.151C283.085 639.143 285.251 639.114 287.382 639.064L287.371 638.59ZM274.491 638.643L274.497 638.168C272.367 638.138 270.209 638.089 268.026 638.022L268.012 638.497L267.997 638.972C270.185 639.039 272.348 639.088 274.484 639.117L274.491 638.643ZM261.612 638.25L261.634 637.776C259.506 637.677 257.357 637.561 255.188 637.428L255.159 637.902L255.13 638.376C257.304 638.509 259.458 638.626 261.59 638.724L261.612 638.25ZM248.748 637.462L248.784 636.988C246.663 636.828 244.525 636.651 242.372 636.458L242.33 636.931L242.287 637.404C244.445 637.597 246.587 637.775 248.712 637.936L248.748 637.462ZM235.908 636.311L235.956 635.839C233.844 635.62 231.718 635.387 229.581 635.138L229.526 635.61L229.471 636.082C231.612 636.331 233.742 636.565 235.859 636.784L235.908 636.311ZM223.1 634.819L223.161 634.348C221.056 634.075 218.943 633.787 216.821 633.484L216.754 633.955L216.686 634.425C218.812 634.728 220.93 635.016 223.039 635.29L223.1 634.819ZM210.358 633.001L210.431 632.532C208.327 632.205 206.216 631.863 204.1 631.506L204.021 631.975L203.942 632.443C206.062 632.8 208.177 633.143 210.285 633.471L210.358 633.001ZM197.675 630.865L197.759 630.397C195.653 630.015 193.543 629.619 191.431 629.208L191.34 629.674L191.249 630.141C193.366 630.552 195.48 630.949 197.59 631.332L197.675 630.865ZM185.037 628.407L185.133 627.942C183.032 627.505 180.93 627.055 178.827 626.589L178.724 627.053L178.622 627.517C180.729 627.983 182.835 628.435 184.94 628.872L185.037 628.407ZM172.459 625.625L172.568 625.162C170.482 624.672 168.396 624.168 166.313 623.65L166.198 624.111L166.083 624.571C168.171 625.091 170.261 625.596 172.351 626.087L172.459 625.625ZM159.959 622.513L160.08 622.054C158.008 621.508 155.938 620.948 153.873 620.373L153.745 620.831L153.618 621.288C155.688 621.864 157.761 622.425 159.838 622.972L159.959 622.513ZM147.555 619.062L147.688 618.606C145.629 618.001 143.574 617.382 141.526 616.749L141.386 617.202L141.246 617.656C143.298 618.291 145.357 618.912 147.421 619.517L147.555 619.062ZM135.255 615.255L135.402 614.803C133.359 614.137 131.324 613.456 129.297 612.761L129.143 613.21L128.988 613.659C131.02 614.357 133.06 615.039 135.108 615.706L135.255 615.255ZM123.071 611.071L123.232 610.624C121.214 609.895 119.206 609.15 117.209 608.39L117.04 608.834L116.871 609.278C118.873 610.04 120.886 610.786 122.909 611.517L123.071 611.071ZM111.03 606.488L111.207 606.047C109.219 605.25 107.243 604.438 105.28 603.61L105.096 604.048L104.911 604.485C106.879 605.315 108.86 606.13 110.854 606.929L111.03 606.488ZM99.1667 601.48L99.3597 601.046C97.3977 600.173 95.4509 599.284 93.5208 598.38L93.3191 598.81L93.1175 599.24C95.0535 600.147 97.006 601.039 98.9737 601.914L99.1667 601.48ZM87.5157 596.014L87.7264 595.589C85.7956 594.633 83.8834 593.661 81.991 592.671L81.7709 593.092L81.5508 593.513C83.4496 594.506 85.3681 595.482 87.305 596.44L87.5157 596.014ZM76.1202 590.053L76.3501 589.638C74.4581 588.591 72.5881 587.527 70.7416 586.444L70.5014 586.854L70.2612 587.264C72.1146 588.35 73.9915 589.419 75.8903 590.469L76.1202 590.053ZM65.0232 583.546L65.2741 583.143C63.4345 581.998 61.6209 580.835 59.8349 579.652L59.5727 580.048L59.3104 580.444C61.1041 581.632 62.9252 582.8 64.7723 583.949L65.0232 583.546ZM54.2785 576.429L54.5524 576.041C52.7871 574.794 51.052 573.528 49.3489 572.241L49.0626 572.62L48.7763 572.999C50.4878 574.292 52.231 575.565 54.0045 576.817L54.2785 576.429ZM44.0013 568.661L44.3004 568.292C42.6257 566.934 40.9861 565.556 39.3833 564.156L39.0709 564.513L38.7584 564.871C40.3702 566.279 42.0187 567.665 43.7022 569.03L44.0013 568.661ZM34.3065 560.186L34.6328 559.841C33.0693 558.363 31.5463 556.863 30.0655 555.34L29.725 555.671L29.3844 556.003C30.8748 557.535 32.4073 559.045 33.9802 560.531L34.3065 560.186ZM25.3381 550.954L25.6933 550.639C24.2671 549.033 22.8871 547.404 21.5552 545.75L21.1854 546.048L20.8155 546.346C22.1571 548.012 23.547 549.653 24.983 551.269L25.3381 550.954ZM17.2726 540.93L17.6573 540.652C16.4001 538.916 15.195 537.155 14.0442 535.368L13.6449 535.626L13.2456 535.883C14.406 537.684 15.6208 539.459 16.8879 541.209L17.2726 540.93ZM10.3132 530.115L10.7266 529.881C9.67396 528.02 8.67911 526.133 7.74421 524.22L7.31744 524.429L6.89068 524.637C7.83412 526.568 8.83788 528.472 9.89973 530.349L10.3132 530.115ZM4.67267 518.56L5.11166 518.379C4.70381 517.392 4.31162 516.399 3.93534 515.399L3.49077 515.566L3.04619 515.733C3.42607 516.743 3.82199 517.746 4.23369 518.742L4.67267 518.56ZM3.49077 515.566L3.93534 515.399C3.5376 514.342 3.18524 513.29 2.87733 512.244L2.42166 512.378L1.96598 512.512C2.28064 513.581 2.64044 514.655 3.04619 515.733L3.49077 515.566ZM1.07745 506.034L1.54855 505.974C1.26825 503.801 1.17896 501.65 1.27244 499.518L0.797898 499.497L0.323354 499.476C0.227472 501.663 0.319112 503.869 0.606355 506.095L1.07745 506.034ZM1.63992 493.026L2.10415 493.126C2.55253 491.056 3.17168 489.001 3.95441 486.96L3.51091 486.79L3.0674 486.62C2.26827 488.704 1.63486 490.805 1.17568 492.925L1.63992 493.026ZM6.26149 480.847L6.67909 481.074C7.68992 479.209 8.83484 477.354 10.1081 475.509L9.71715 475.239L9.3262 474.97C8.03518 476.84 6.87217 478.724 5.84388 480.621L6.26149 480.847ZM13.6239 470.081L13.9905 470.383C15.338 468.748 16.7836 467.119 18.323 465.497L17.9784 465.17L17.6339 464.843C16.0804 466.48 14.6201 468.125 13.2574 469.778L13.6239 470.081ZM22.6452 460.535L22.9705 460.881C24.5056 459.438 26.1124 458 27.7879 456.566L27.479 456.205L27.1701 455.844C25.4842 457.287 23.8664 458.735 22.3199 460.189L22.6452 460.535ZM32.6224 451.98L32.9168 452.353C34.565 451.051 36.2677 449.752 38.0225 448.455L37.7402 448.073L37.4579 447.691C35.6955 448.993 33.9847 450.299 32.328 451.607L32.6224 451.98ZM43.1344 444.206L43.4059 444.596C45.1421 443.387 46.9218 442.18 48.743 440.974L48.4807 440.577L48.2184 440.181C46.3915 441.391 44.6057 442.603 42.863 443.816L43.1344 444.206ZM54.0557 436.97L54.3097 437.371C56.1021 436.236 57.9295 435.103 59.7904 433.97L59.5433 433.564L59.2963 433.158C57.431 434.294 55.5989 435.431 53.8016 436.568L54.0557 436.97ZM65.2305 430.162L65.4713 430.572C67.3098 429.491 69.1771 428.41 71.072 427.33L70.8366 426.917L70.6013 426.504C68.7031 427.587 66.8321 428.67 64.9898 429.753L65.2305 430.162ZM76.5742 423.69L76.8047 424.105C78.689 423.059 80.5977 422.013 82.5293 420.967L82.303 420.549L82.0768 420.131C80.1424 421.179 78.231 422.227 76.3437 423.274L76.5742 423.69ZM88.0661 417.46L88.2887 417.88C90.2127 416.859 92.1573 415.838 94.1213 414.816L93.902 414.394L93.6827 413.973C91.7167 414.996 89.7699 416.019 87.8435 417.04L88.0661 417.46ZM99.677 411.413L99.8935 411.836C101.835 410.842 103.794 409.847 105.769 408.85L105.555 408.426L105.341 408.002C103.364 408.999 101.404 409.995 99.4605 410.991L99.677 411.413ZM111.382 405.503L111.594 405.928C113.534 404.961 115.489 403.992 117.456 403.022L117.246 402.596L117.036 402.17C115.067 403.141 113.112 404.11 111.17 405.078L111.382 405.503ZM123.157 399.694L123.366 400.12C125.305 399.172 127.255 398.223 129.216 397.271L129.009 396.844L128.801 396.417C126.84 397.368 124.888 398.318 122.948 399.267L123.157 399.694ZM134.923 393.983L135.13 394.411C137.086 393.466 139.053 392.52 141.027 391.572L140.822 391.144L140.616 390.716C138.641 391.664 136.674 392.611 134.717 393.555L134.923 393.983ZM146.714 388.319L146.919 388.748C148.89 387.804 150.869 386.858 152.854 385.909L152.65 385.48L152.445 385.052C150.459 386.001 148.48 386.947 146.508 387.891L146.714 388.319ZM158.538 382.668L158.742 383.097C160.706 382.159 162.676 381.218 164.651 380.275L164.446 379.846L164.241 379.418C162.267 380.361 160.297 381.302 158.333 382.24L158.538 382.668ZM170.372 377.013L170.577 377.441C172.537 376.504 174.5 375.563 176.466 374.619L176.26 374.191L176.055 373.763C174.089 374.706 172.126 375.647 170.167 376.584L170.372 377.013ZM182.166 371.352L182.372 371.78C184.338 370.832 186.306 369.882 188.276 368.928L188.069 368.501L187.862 368.073C185.893 369.027 183.925 369.977 181.96 370.924L182.166 371.352ZM193.952 365.644L194.16 366.071C196.123 365.115 198.086 364.155 200.048 363.192L199.839 362.766L199.63 362.34C197.668 363.302 195.706 364.261 193.744 365.217L193.952 365.644ZM205.715 359.872L205.926 360.298C207.882 359.33 209.837 358.359 211.79 357.384L211.578 356.959L211.366 356.534C209.414 357.509 207.459 358.479 205.504 359.446L205.715 359.872ZM217.43 354.023L217.644 354.447C219.596 353.463 221.545 352.475 223.49 351.483L223.275 351.06L223.059 350.637C221.114 351.628 219.167 352.616 217.217 353.599L217.43 354.023ZM229.101 348.071L229.319 348.493C231.258 347.492 233.193 346.487 235.123 345.477L234.902 345.056L234.682 344.635C232.754 345.644 230.82 346.648 228.883 347.649L229.101 348.071ZM240.708 341.997L240.931 342.416C242.861 341.392 244.786 340.362 246.705 339.328L246.48 338.91L246.254 338.492C244.337 339.525 242.414 340.553 240.485 341.577L240.708 341.997ZM252.225 335.787L252.453 336.204C254.377 335.149 256.293 334.09 258.201 333.025L257.97 332.61L257.738 332.195C255.832 333.259 253.918 334.317 251.996 335.371L252.225 335.787ZM263.666 329.402L263.901 329.815C265.804 328.732 267.698 327.644 269.583 326.551L269.345 326.14L269.106 325.729C267.224 326.821 265.332 327.908 263.431 328.989L263.666 329.402ZM275.004 322.82L275.247 323.228C277.124 322.115 278.99 320.996 280.845 319.871L280.598 319.465L280.352 319.059C278.5 320.182 276.637 321.299 274.762 322.411L275.004 322.82ZM286.197 316.027L286.447 316.43C288.31 315.272 290.16 314.108 291.995 312.937L291.74 312.536L291.484 312.136C289.652 313.305 287.805 314.467 285.946 315.624L286.197 316.027ZM297.21 308.999L297.471 309.396C299.317 308.186 301.147 306.968 302.961 305.744L302.695 305.35L302.43 304.956C300.619 306.179 298.792 307.393 296.95 308.601L297.21 308.999ZM308.081 301.658L308.353 302.048C310.155 300.793 311.939 299.531 313.705 298.261L313.427 297.875L313.15 297.489C311.389 298.757 309.608 300.016 307.81 301.268L308.081 301.658ZM318.726 293.996L319.009 294.377C320.758 293.075 322.486 291.764 324.192 290.444L323.902 290.069L323.611 289.693C321.909 291.009 320.186 292.316 318.442 293.616L318.726 293.996ZM329.083 285.983L329.381 286.353C331.089 284.979 332.774 283.595 334.434 282.201L334.129 281.837L333.824 281.474C332.169 282.863 330.489 284.242 328.785 285.613L329.083 285.983ZM339.096 277.574L339.41 277.931C341.068 276.475 342.698 275.009 344.3 273.532L343.978 273.183L343.656 272.834C342.06 274.305 340.436 275.766 338.783 277.217L339.096 277.574ZM348.699 268.719L349.03 269.06C350.622 267.514 352.183 265.957 353.71 264.387L353.369 264.056L353.029 263.725C351.508 265.287 349.954 266.838 348.368 268.378L348.699 268.719ZM357.84 259.324L358.19 259.645C359.685 258.014 361.143 256.37 362.564 254.714L362.203 254.405L361.843 254.095C360.429 255.744 358.978 257.38 357.49 259.003L357.84 259.324ZM366.371 249.37L366.742 249.666C367.419 248.819 368.086 247.968 368.742 247.113L368.366 246.824L367.989 246.534C367.336 247.384 366.673 248.231 366 249.074L366.371 249.37Z" fill="#E7BD11"/>
</svg>
