<svg width="280" height="323" viewBox="0 0 280 323" fill="none" xmlns="http://www.w3.org/2000/svg">
<path d="M278.627 164.201C278.627 136.76 278.689 109.424 278.762 104.199C278.99 104.622 279.145 104.939 279.301 105.197C279.301 105.244 278.907 224.766 278.907 224.813C278.699 219.177 278.627 191.63 278.627 164.189L278.627 164.201ZM278.43 236.391L278.471 235.592C278.575 235.792 278.699 235.921 278.762 236.25C278.948 237.659 278.679 239.115 278.44 236.379L278.43 236.391ZM277.134 262.399L277.341 260.943C277.486 259.839 277.611 258.736 277.756 257.644C278.077 255.413 278.129 253.158 278.295 250.739C278.378 251.831 278.45 252.407 278.43 252.923C278.368 253.863 278.347 254.814 278.253 255.765C278.139 256.716 278.025 257.667 277.901 258.63L277.154 262.399L277.134 262.399ZM276.771 264.231L277.134 262.399L277.113 262.599C276.999 263.139 276.895 263.691 276.771 264.231ZM274.489 133.307C274.489 123.961 274.562 114.332 274.655 112.559C275.454 111.819 275.454 117.773 275.34 121.072C275.039 130.125 275.443 129.75 275.308 134.752C275.163 140.435 275.443 146.153 275.174 151.778C275.029 151.989 274.914 152.165 274.79 152.341C274.572 151.707 274.489 142.642 274.479 133.296L274.489 133.307ZM273.826 174.968C273.566 177.68 273.556 180.416 273.836 183.023C274.717 183.833 274.583 178.209 274.189 174.851C274.054 174.874 273.836 174.768 273.826 174.968ZM273.442 276.325C274.251 273.39 273.867 274.529 274.894 271.992C274.147 274.916 274.52 273.812 273.442 276.325ZM272.104 106.054C272.042 106.958 272.457 107.076 272.519 106.277C272.758 102.719 272.726 106.289 272.654 85.8343C271.524 95.6037 272.623 99.6899 272.115 106.054L272.104 106.054ZM269.968 149.793C270.041 149.159 270.051 149.312 269.968 149.171L269.968 149.793ZM269.916 191.125C270.03 191.16 269.989 191.524 270.051 189.07C269.937 189.035 269.979 188.73 269.916 191.125ZM269.896 154.877C269.896 155.065 269.916 155.441 269.958 156.474C270.165 155.793 270.072 155.183 270.01 154.502C269.937 154.713 269.906 154.69 269.896 154.877ZM269.875 175.015C269.844 175.731 269.906 176.154 270.02 176.001C270.061 175.943 270.061 175.508 270.082 175.285L269.989 174.569C269.958 174.722 269.885 174.851 269.875 175.027L269.875 175.015ZM269.543 217.087C269.678 217.157 269.647 217.31 269.605 216.453L269.543 217.087ZM267.666 131.1C267.687 130.09 267.78 128.622 267.988 125.699C267.988 134.669 268.019 133.026 267.853 133.836C267.708 132.697 267.645 132.121 267.666 131.1ZM267.397 138.967C267.397 138.85 267.428 138.756 267.49 138.392C267.562 139.225 267.573 138.908 267.448 139.648C267.417 139.225 267.386 139.084 267.397 138.967ZM263.643 166.479C263.746 166.432 263.715 166.76 263.726 164.917C263.612 164.964 263.643 164.635 263.643 166.479ZM263.632 180.205C263.643 180.358 263.674 180.287 263.757 180.287C263.757 179.747 263.954 178.96 263.643 178.773C263.643 179.665 263.622 180.041 263.632 180.193L263.632 180.205ZM263.601 146.235C263.601 146.411 263.622 146.764 263.653 147.738C263.788 147.327 263.788 147.809 263.695 145.871C263.632 146.083 263.601 146.071 263.601 146.247L263.601 146.235ZM263.549 154.584C263.549 155.312 263.601 155.969 263.746 156.686C263.902 153.363 263.902 154.619 263.663 152.118C263.601 153.069 263.56 153.856 263.56 154.584L263.549 154.584ZM263.529 191.642C263.674 193.274 263.798 194.883 263.933 196.691C263.767 198.217 263.56 199.215 263.549 200.272C263.508 203.384 263.363 206.554 263.653 209.607C263.943 212.613 263.435 215.372 263.601 217.192C263.985 221.349 263.041 224.355 264.026 229.627C264.296 231.025 264.161 233.044 264.524 234.207C264.835 231.729 264.68 139.061 264.42 135.233C264.089 202.139 264.659 179.806 263.539 191.642L263.529 191.642ZM255.461 283.159C256.166 282.302 256.218 281.821 255.544 282.877C255.492 282.96 255.492 283.077 255.461 283.159ZM253.398 75.29C253.398 75.0904 253.439 75.0434 253.491 74.6559C253.595 74.9495 253.646 74.6559 253.605 76.5816C253.595 76.6873 253.532 76.7578 253.491 76.8399C253.429 75.8419 253.398 75.4779 253.398 75.29ZM252.641 284.674C252.807 284.545 253.045 284.392 253.128 284.275L253.315 283.535L253.47 283.277L253.398 283.3L253.989 281.985C254.02 281.821 253.823 281.961 253.304 282.384C253.252 282.431 252.599 283.429 252.889 283.417L253.387 283.312L253.346 283.406L253.304 283.547L252.62 284.674L252.641 284.674ZM252.267 300.655C252.267 300.655 252.516 300.443 253.014 300.032L252.962 299.974C252.506 300.432 252.267 300.655 252.267 300.655ZM246.212 35.3201C250.836 39.7351 253.802 44.338 256.28 50.1033C253.449 44.5141 250.463 40.1696 246.212 35.3201ZM239.585 39.6177C240.55 40.4514 241.213 41.426 241.97 42.201C242.738 42.9877 243.412 43.7744 244.169 44.5846C243.578 43.6452 242.945 42.7881 242.147 42.0366C241.359 41.2851 240.602 40.3809 239.575 39.6177L239.585 39.6177ZM236.92 298.94C237.688 298.471 238.476 298.072 239.222 297.59L241.462 296.087C242.976 295.124 244.345 293.915 245.662 292.647C245.61 292.576 245.641 292.447 245.548 292.494C245.112 292.764 244.625 293.034 244.21 293.386C243.744 293.786 243.298 294.161 242.852 294.502C242.406 294.819 241.96 295.101 241.514 295.336C240.653 295.841 239.855 296.205 239.139 296.428C238.445 297.332 236.402 298.459 236.91 298.94L236.92 298.94ZM228.054 302.404C228.874 302.299 228.749 302.569 230.906 301.665C231.165 301.559 231.383 301.406 231.611 301.254C230.968 301.359 230.885 301.312 230.564 301.418C230.253 301.547 229.693 301.794 228.044 302.404L228.054 302.404ZM218.058 18.9752C218.587 19.1748 218.224 19.1514 219.417 19.0457C218.587 18.9165 218.877 18.9283 218.058 18.9752ZM209.057 316.471C211.204 316.6 213.236 316.6 215.175 316.647L215.528 316.671L216.088 316.647C216.461 316.624 216.845 316.624 217.218 316.612C217.965 316.589 218.711 316.565 219.437 316.553C220.163 316.542 220.889 316.507 221.605 316.495C222.32 316.436 223.036 316.366 223.741 316.295C224.425 316.236 225.389 316.06 226.084 315.884C232.337 314.099 237.408 313.054 240.809 309.908C235.147 312.784 229.942 314.51 224.352 315.426C221.563 316.025 218.66 316.119 215.528 316.295C213.547 316.342 211.411 316.401 209.037 316.46L209.057 316.471ZM200.71 12.0474C202.97 12.4584 203.354 12.5523 203.655 12.5406C204.329 12.4936 204.484 12.0826 203.416 12.0474L200.72 12.0474L200.71 12.0474ZM197.972 26.678C200.326 26.3727 202.421 26.5019 204.038 26.1026C206.683 26.0322 209.348 25.9735 211.982 26.1848C212.383 26.2161 212.407 26.4275 212.054 26.8189C207.585 26.9363 203.064 26.8424 197.972 26.678ZM195.152 9.02972C195.214 8.79488 195.867 8.56004 197.329 8.57178C197.568 8.67746 198.128 8.81836 198.242 8.99449C198.449 9.31153 197.63 9.51114 196.479 9.4994C195.598 9.4994 195.079 9.26456 195.152 9.02972ZM186.068 14.5015C185.995 14.5602 186.182 14.6189 186.763 14.6189C186.835 14.6189 186.929 14.5485 187.001 14.5015C186.493 14.4193 186.141 14.4428 186.058 14.5015L186.068 14.5015ZM182.771 318.855C182.76 318.961 182.387 318.914 185.415 318.972C185.207 318.808 185.633 318.855 182.771 318.855ZM180.261 4.36813C182.024 4.21549 178.892 4.23897 195.121 4.29768L194.893 4.47381C178.768 4.47381 180.883 4.50904 180.271 4.36813L180.261 4.36813ZM179.909 322.107C192.02 321.415 197.765 322.272 214.19 321.708C214.356 321.708 214.657 321.92 214.761 322.049C214.895 322.201 213.516 322.401 213.019 322.424C212.033 322.483 186.027 322.589 180.064 322.342L179.909 322.107ZM177.596 13.6209C179.079 13.6443 178.882 13.6561 178.882 13.5387L177.596 13.5387L177.596 13.6209ZM174.734 322.201C174.9 322.166 175.076 322.107 175.242 322.107C176.321 322.119 175.688 322.389 175.024 322.331C174.89 322.307 174.817 322.237 174.724 322.201L174.734 322.201ZM172.774 27.5469C175.927 27.8287 182.376 28.181 185.062 27.1477C184.015 26.9128 182.791 26.7954 181.661 26.9715C178.757 27.4177 177.378 27.0772 172.764 27.5469L172.774 27.5469ZM159.315 18.9048C159.315 18.9048 159.491 18.893 159.812 18.8695L159.335 18.7873C159.304 18.8695 159.263 18.893 159.304 18.893L159.315 18.9048ZM156.93 322.201C159.895 321.638 163.099 321.732 166.107 321.755C168.315 322.565 162.633 322.225 157.448 322.354C157.292 322.354 157.106 322.248 156.94 322.19L156.93 322.201ZM152.792 20.76C154.233 20.9596 153.622 20.9596 155.219 20.7952C153.746 20.6074 154.368 20.6191 152.792 20.76ZM152.087 321.802C152.087 321.802 152.243 321.79 152.574 321.779L152.543 321.861C152.243 321.826 152.087 321.802 152.077 321.802L152.087 321.802ZM146.353 316.882C148.717 317.176 175.667 317.105 179.971 317.105C175.688 315.825 156.432 316.131 149.619 316.189C148.665 316.213 147.701 316.354 146.819 316.483C146.529 316.53 146.498 316.741 146.363 316.882L146.353 316.882ZM145.181 318.773C148.022 319.031 173.148 319.195 177.866 318.808C166.397 318.702 156.681 318.89 145.181 318.773ZM135.61 321.814C137.984 321.626 142.319 321.591 144.745 321.814C145.243 321.849 145.378 321.99 145.15 322.237C142.526 322.401 139.809 322.448 137.113 322.284C136.605 322.248 136.201 322.002 135.61 321.814ZM133.712 14.7833C133.795 14.889 134.044 14.9594 134.386 14.9594C141.137 14.8772 138.596 15.2178 141.282 14.936L142.609 14.7951L142.692 14.842L143.107 14.842L144.351 15.0651L145.627 14.8068L145.99 14.8068L146.062 14.7716L150.169 15.1473C153.964 15.2178 156.701 14.5132 162.695 15.0769C164.945 15.2765 167.154 15.1473 169.435 14.7833C171.426 14.9829 173.614 15.2882 175.844 15.0064C177.866 14.7598 180.344 15.1003 182.169 14.5015C181.578 14.4193 181.111 14.3371 180.655 14.3371C154.202 14.3841 148.458 14.3019 146.85 14.5015L146.062 14.7716L145.865 14.7481L145.627 14.7951L143.107 14.8185L142.817 14.7598L142.62 14.7833L142.049 14.5132C141.157 14.3019 139.281 14.3489 134.106 14.3489C133.754 14.5132 133.65 14.6659 133.733 14.7716L133.712 14.7833ZM126.951 14.6894C126.526 14.842 127.19 15.1003 128.05 15.1121C128.724 15.1356 129.388 15.0651 130.052 15.0299C129.782 14.4545 127.936 14.3489 126.951 14.6776L126.951 14.6894ZM126.64 4.45032C126.07 4.32116 129.554 4.16852 138.524 4.09806C152.377 3.99239 165.951 4.20374 174.35 4.30942C148.852 5.0022 127.916 4.75562 126.64 4.46207L126.64 4.45032ZM121.663 316.647C122.897 316.847 121.393 316.929 130.28 316.683C130.632 316.683 130.975 316.553 131.669 316.389C128.424 316.178 125.51 316.166 122.575 316.33C122.233 316.354 121.963 316.542 121.663 316.659L121.663 316.647ZM121.134 321.92C123.643 321.603 123.643 321.591 125.831 321.884C124.276 322.213 122.72 322.119 121.134 321.92ZM118.624 13.6209C118.676 13.6209 118.832 13.6208 119.184 13.5974L118.624 13.5387C118.624 13.5387 118.562 13.6091 118.614 13.6209L118.624 13.6209ZM115.348 27.1594C116.105 27.2181 115.887 27.2416 116.136 27.1124C115.379 27.0537 115.596 27.0302 115.348 27.1594ZM108.047 4.93175C108.576 5.02568 109.074 5.13136 109.644 4.87304C107.985 4.7791 108.41 4.7791 108.047 4.93175ZM94.8988 0.716357C97.0972 0.293644 99.3266 0.258418 107.021 0.516743C102.832 0.892488 99.0259 0.634163 94.8988 0.716357ZM80.7548 21.0066C89.5378 21.1357 89.4133 20.9126 93.6441 20.9714C127.895 21.441 133.577 20.6778 130.093 20.6778C77.1358 20.5604 83.2123 20.4312 80.7548 21.0066ZM79.4275 1.05688C79.4171 0.927713 79.2823 0.951197 80.0392 1.00991L79.4275 1.05688ZM73.5168 0.998165C75.207 0.880745 74.6886 0.892487 75.373 0.998165C75.1344 1.10384 75.3626 1.1743 73.776 1.12733C73.6723 1.12733 73.5998 1.03339 73.5168 0.998165ZM62.2243 5.97679C63.6657 5.82414 63.6761 5.85936 62.2243 5.87111L62.2243 5.97679ZM54.7997 6.79873C54.8827 6.78698 55.1419 6.74002 55.7537 6.6226L54.8101 6.72827C54.8101 6.72827 54.7064 6.82221 54.7997 6.81047L54.7997 6.79873ZM49.8016 3.64012C51.8444 2.80644 53.6487 2.44243 56.4589 1.91404C57.8588 1.62049 59.5283 1.55004 61.6125 1.42088C62.1414 1.40914 62.6806 1.37391 63.2613 1.35043C63.5413 1.32694 63.842 1.32694 64.1427 1.3152L64.796 1.3152C65.5426 1.33868 66.3722 1.35043 67.264 1.36217C67.0566 1.46785 66.3307 1.5383 65.3352 1.58527C64.6716 1.62049 63.9457 1.64398 63.168 1.69094C62.1414 1.74965 61.063 1.82011 59.9534 1.89056C57.7654 1.98449 55.536 2.43069 53.7109 2.74773C51.8652 3.04128 50.4445 3.44051 49.8016 3.64012ZM46.0582 27.2064C47.8936 26.4666 47.3855 26.7837 47.9766 26.2905C46.0997 26.8893 46.67 26.7015 46.0582 27.2064ZM35.5227 10.0278L36.5389 9.28804C36.8915 9.11191 37.3374 8.84184 37.5344 8.78313C37.9492 8.66571 37.5448 8.94752 36.5493 9.48765L35.5227 10.016L35.5227 10.0278ZM28.5751 42.9524C29.581 41.6021 30.732 40.24 31.9245 38.6666C31.8623 38.6196 31.966 38.4435 31.5926 38.8897C31.406 39.1128 31.1156 39.5003 30.6179 40.1109C30.1305 40.7449 29.4047 41.6021 28.5751 42.9524ZM23.0896 304.588C23.6703 305.187 24.5621 305.88 25.6716 306.843C26.8019 307.759 28.0981 308.968 29.7572 310.084C30.5868 310.647 31.4578 311.246 32.3807 311.88C32.837 312.197 33.3347 312.514 33.8221 312.843C34.3302 313.137 34.8383 313.43 35.3879 313.724C36.456 314.334 37.5862 314.933 38.758 315.555C39.9298 316.19 41.2156 316.659 42.4911 317.223C45.0731 318.385 47.9247 319.195 50.9319 320.017C52.4355 320.393 53.9909 320.628 55.5567 320.91C56.3448 321.027 57.1433 321.156 57.9417 321.274C58.7505 321.333 59.5594 321.391 60.3682 321.45C61.1977 321.497 62.0169 321.532 62.8361 321.579L64.1116 321.626L67.9483 321.626C69.9496 321.626 72.0028 321.626 74.056 321.603C90.4918 321.579 107.633 321.65 114.01 321.732C113.606 322.072 112.548 322.331 111.656 322.272C106.471 322.025 91.2798 321.99 75.7981 321.99L64.2464 321.99C57.8276 321.884 51.6059 320.804 46.0893 318.925C44.6998 318.514 43.3932 317.892 42.1074 317.375C40.8319 316.812 39.5565 316.319 38.3951 315.661C36.0515 314.381 33.8221 313.23 31.9452 311.833C28.067 309.238 25.1531 306.538 23.0896 304.577L23.0896 304.588ZM21.4512 53.485C22.4052 51.2775 23.0689 49.5867 23.7533 48.4125C24.4169 47.2148 24.8939 46.3929 25.2465 45.8058C25.9412 44.6081 26.2212 44.3615 26.5945 43.7861C26.9989 43.246 27.4552 42.3419 28.9173 40.1813L31.5512 36.7644L38.1358 30.0245C36.85 31.2104 35.7094 32.2554 34.662 33.2066C33.7081 34.2633 32.8681 35.2027 32.1215 36.0246L31.5512 36.7644L28.0255 40.3692C25.2465 44.3967 23.0067 48.8234 21.4512 53.485ZM20.6216 61.9863C20.9327 60.6124 21.2127 59.3795 21.109 59.814C21.1609 59.3561 20.6216 60.6124 20.6216 61.9863ZM19.0973 118.747C19.0973 118.923 19.1284 118.912 19.1803 119.135C19.2736 117.115 19.2736 117.608 19.1595 117.186C19.1077 118.195 19.087 118.571 19.0973 118.747ZM18.8796 74.7029C18.8796 75.3957 18.8899 76.1002 18.8899 76.8165C18.9418 79.6463 18.9729 82.664 19.0351 86.0105C19.2218 84.7071 19.3151 83.8382 19.3566 81.6189C19.3669 80.5152 19.3669 79.0474 19.3566 77.0278C19.3566 76.5229 19.3462 75.971 19.3462 75.3957C19.3462 75.1021 19.3358 74.8321 19.3462 74.468C19.3566 74.104 19.3773 73.7166 19.3877 73.3173C19.4188 72.5189 19.4499 71.6617 19.4706 70.7693C19.481 70.3114 19.5017 69.8534 19.5225 69.372C19.5847 68.9023 19.6365 68.3974 19.6988 67.8925C19.7091 67.6929 19.5329 67.552 19.4188 67.2937C19.3151 68.1039 19.1595 68.9258 19.0973 69.7243C19.0559 70.5462 19.0144 71.3799 18.9625 72.2018C18.9314 73.0238 18.9003 73.8575 18.8796 74.7029ZM17.7908 74.3859C17.7908 75.6188 17.8426 76.6755 17.8945 77.8263L18.0085 74.5502L18.2263 70.511C18.8588 64.4873 18.9625 63.818 18.9833 63.0078L18.9833 62.2798L19.0973 61.7749L19.1492 61.4579L19.3151 60.9412C19.4603 60.495 19.6158 59.9901 19.7506 59.5204C19.9891 58.5693 20.2483 57.8531 19.8647 58.1936C19.7091 58.311 19.6054 58.628 19.5017 59.2034L19.1595 61.4579L19.004 61.9393L19.004 62.2798L18.6618 63.8415L18.3818 65.9316C18.2263 67.3406 17.9567 68.7379 17.9256 70.147C17.8634 71.556 17.8115 72.9886 17.7804 74.3859L17.7908 74.3859ZM17.3552 206.73C17.3552 209.49 17.4071 212.108 17.49 214.938C17.7113 210.296 17.7113 204.538 17.49 197.665C17.3967 201.071 17.3552 203.971 17.3552 206.73ZM13.5081 292.917C14.0681 293.551 14.5347 294.197 14.9806 294.866C15.4576 295.5 15.9139 296.158 16.3598 296.874C15.7687 296.298 15.2399 295.688 14.7628 295.042C14.3169 294.373 13.9021 293.657 13.5081 292.917ZM11.0817 43.3752C11.1128 43.4808 11.1646 43.5161 11.2268 43.5865C11.2994 43.6804 11.6831 42.8468 12.3779 41.5551C13.083 40.2753 14.0681 38.4905 15.1258 36.553C16.2975 34.7095 17.5523 32.7016 18.7863 30.9403C20.0825 29.2495 21.2542 27.723 22.0734 26.6662C23.0793 25.4568 24.1162 24.3648 25.0391 23.3198C25.5472 22.8031 26.0242 22.263 26.5116 21.7816C27.0093 21.3119 27.5174 20.8539 28.0152 20.4077C29.021 19.5153 29.9957 18.6699 30.9705 17.8362C31.9867 17.0613 33.0029 16.345 34.0191 15.617C36.0205 14.114 38.2084 12.9868 40.4586 11.7186C41.5889 11.0846 42.8125 10.6149 44.0361 10.0513C45.2908 9.51114 46.5767 8.92403 47.9766 8.51306C46.4211 8.92403 44.959 9.56985 43.5488 10.1217C42.1385 10.6736 40.7697 11.2372 39.515 11.9535C38.2395 12.6228 37.0159 13.2803 35.8545 13.9496C34.7139 14.6659 33.6251 15.4056 32.5881 16.1219C28.4403 18.9987 25.2465 22.0399 22.6956 24.7875C21.3683 26.1144 20.3417 27.5352 19.3358 28.7563C18.8588 29.3787 18.3818 29.9892 17.9463 30.5411C17.5315 31.14 17.1479 31.7036 16.7953 32.2554C15.3539 34.4395 14.234 36.1773 13.5081 37.6685C11.9838 40.5923 11.3616 41.9896 11.1854 42.7293C11.0817 43.0933 11.0713 43.2695 11.1024 43.3752L11.0817 43.3752ZM8.86257 284.615C9.40178 285.249 9.16329 284.791 9.92025 286.752C9.76473 286.564 9.60918 286.423 9.47438 286.177C8.97664 285.308 8.77962 284.768 8.86257 284.615ZM3.5119 102.05C3.5119 103.494 3.53262 103.717 3.62594 104.211L3.79187 105.056L3.79187 105.514L3.85406 105.89L3.85406 108.461L3.85406 108.813L3.81259 109.107L3.81259 109.307L3.78146 109.248C3.75036 109.201 3.71929 109.213 3.67779 109.483C3.41857 110.962 3.49114 112.512 3.67779 113.98C3.71929 114.274 3.87481 114.356 3.98889 114.438C4.08221 114.508 4.08218 113.921 4.04071 112.947L3.83334 109.318L3.85406 109.342L3.85406 108.825L4.05108 107.228L3.86444 105.89L3.86444 105.373L3.80224 105.068L3.76074 101.639C3.72964 99.0206 3.71926 99.6547 3.52224 98.7975C3.52224 100.312 3.52224 101.346 3.52224 102.062L3.5119 102.05ZM3.35635 145.378C3.3045 150.04 3.31484 154.877 3.56371 160.091C3.94738 149.687 4.01998 140.717 3.55334 131.757C3.53259 136.231 3.4082 140.717 3.35635 145.378ZM3.20077 58.9451L3.35635 57.583C3.39782 57.1486 3.44967 56.8315 3.57409 56.2327C3.68817 55.6221 3.88519 54.7532 4.25851 53.2385C4.70437 51.7472 5.34729 49.5984 6.41534 46.475C6.05243 48.6473 5.04657 50.9722 4.49698 53.0741C3.99923 55.3755 3.57409 57.219 3.32522 58.3815L3.21115 58.9451L3.20077 58.9451ZM3.06598 59.5792L3.20077 58.9451L3.12823 59.5909C3.04525 59.8022 3.03485 59.7905 3.06598 59.5792ZM3.06597 200.836C3.06597 202.609 3.06597 205.122 3.06597 208.715C3.28371 204.511 3.32522 200.037 3.23189 195.047C3.07635 196.773 3.05563 195.505 3.05562 200.836L3.06597 200.836ZM2.98303 60.859L3.01413 59.8727L3.12823 59.5792L2.98303 60.859ZM2.72378 62.9726L2.98303 60.859L2.96231 61.317C2.92083 62.2798 2.9208 62.045 2.72378 62.9726ZM1.95645 72.1549C1.95645 72.1549 1.95642 71.8378 1.96679 71.1568L2.04977 71.239C1.98755 71.8496 1.96682 72.1666 1.95645 72.1666L1.95645 72.1549ZM1.50017 248.039L1.50017 247.146C1.51055 244.763 1.5313 242.508 1.54168 240.359C1.60387 231.729 1.67644 224.637 1.70754 218.766C1.92531 195.294 2.08086 191.149 1.88384 183.622C1.74905 178.749 1.6972 183.974 1.6972 173.594C2.20531 167.441 2.37121 166.749 2.39196 161.688C2.43344 140.951 2.66158 150.016 2.53713 141.926C2.40234 133.812 2.80676 132.838 2.67196 129.092C2.56826 126.168 2.55789 123.397 2.67196 120.556C2.77566 117.984 2.41271 115.518 2.67196 112.876C3.02453 109.084 2.13272 102.942 2.45416 88.899C2.55786 84.7776 2.68231 82.7462 2.77563 80.844C2.82748 79.8929 2.86895 78.977 2.88971 77.838C2.90008 77.2627 2.90008 76.6521 2.9208 75.9475L2.9208 74.832C2.9208 74.5737 2.93118 74.2919 2.93118 73.9984C2.93118 73.6578 2.94156 73.3056 2.96231 72.9298C3.00378 66.5774 3.96814 58.2875 6.80942 49.3753C9.66104 40.5101 14.4725 31.0108 21.6275 23.1319C28.6995 15.206 37.9492 8.65397 48.3188 5.46014C53.4621 3.71057 58.8231 3.00605 64.1012 2.78295C67.3054 2.70076 70.4785 2.61857 73.5998 2.54811C98.3208 1.9845 119.008 1.73791 116.509 2.88863C114.912 3.62838 111.096 2.97083 104.719 3.40528C105.382 3.6049 105.787 3.87496 106.326 3.91019C110.049 4.13329 115.794 3.87496 121.455 4.20374C121.196 4.32116 121.041 4.46207 120.854 4.46207C117.069 4.59123 113.512 4.96697 110.35 5.60104C103.34 5.31923 103.298 5.16659 103.744 5.83588C158.993 6.00027 186.867 5.84763 201.353 5.83589C208.601 5.83589 212.5 5.87111 214.802 6.00028C215.113 6.02376 215.393 6.04724 215.663 6.05899C216.046 6.09421 216.389 6.14118 216.72 6.16466C217.353 6.23512 217.871 6.31731 218.328 6.3995C219.23 6.56389 219.831 6.76351 220.485 7.01009C219.468 7.08054 217.633 7.03357 215.404 6.98661C213.952 7.03357 212.179 7.04532 210.271 7.04532C206.465 7.04532 202.151 7.04532 198.781 7.2097C196.272 7.33887 187.178 6.81047 179.328 7.33887C178.374 7.39758 177.275 7.38583 176.362 7.2919C172.899 6.93964 148.416 7.09228 146.394 7.25667C140.359 7.76158 138.015 6.64608 130.84 7.42106C123.737 8.17255 121.144 7.73809 117.909 8.50132C117.899 9.76946 138.752 8.71268 146.83 9.17062C148.271 9.24107 149.837 9.18236 151.32 9.12365C156.536 8.9123 158.423 9.69901 161.523 10.0748C165.868 10.0748 170.545 10.4153 175.118 10.2509C175.429 9.95734 175.709 9.80469 175.709 9.65205C175.74 8.81836 176.497 8.38391 178.405 8.21952C180.655 8.04339 182.874 7.99642 185.031 8.53655C185.975 8.99449 185.664 9.7225 187.592 10.2509C190.703 10.4153 194.167 10.427 197.786 10.0043C200.731 10.3683 202.898 10.4153 206.206 10.427C207.854 10.4505 209.783 10.4622 212.241 10.4857C212.853 10.4975 213.496 10.5092 214.19 10.5327C214.532 10.5562 214.885 10.5562 215.238 10.5679C215.466 10.5679 215.704 10.5914 215.932 10.6032C216.223 10.6384 216.482 10.6501 216.762 10.6619C217.892 10.7441 219.064 10.8263 220.308 10.9437C221.563 11.0376 222.849 11.3781 224.218 11.6247C225.275 11.8595 226.198 12.0709 226.955 12.341C227.712 12.6345 228.324 12.9163 228.77 13.1394C229.651 13.5974 229.921 13.8557 229.485 13.75C226.354 12.8224 224.166 12.6345 222.662 12.3879C221.169 12.1531 220.339 12.1414 219.79 12.1414C219.261 12.1414 219.023 12.1531 218.722 12.2001L217.457 12.3762L217 12.3292L216.596 12.4114L216.337 12.4114C216.233 12.4349 216.233 12.4584 216.078 12.5288L216.596 12.4232L217.249 12.4232L217.457 12.3879L219.614 12.5993C220.454 12.705 221.242 12.8459 221.874 13.1277C222.082 13.4682 221.459 13.5269 220.402 13.4682C219.334 13.4212 218.266 13.3625 217.197 13.3156L215.59 13.2686L214.418 13.2686C212.925 13.3156 211.422 13.3156 209.949 13.2686C204.65 13.1042 199.455 13.3743 194.312 13.3508C193.669 13.7618 193.13 14.1023 192.508 14.5015C195.774 15.1121 202.576 15.0769 209.088 15.0182C212.49 15.0182 215.041 14.842 219.24 15.1825C221.076 15.2413 222.693 15.6875 224.052 15.9575C224.726 16.1102 225.327 16.2511 225.846 16.4037C226.354 16.5798 226.8 16.7677 227.152 16.9321C226.779 16.9086 226.426 16.9556 226.074 16.8617C222.424 16.1924 220.806 15.9105 218.297 15.8401C215.393 15.6405 213.319 15.7462 207.979 15.7344L125.738 15.7344C119.9 16.4155 120.408 16.5798 112.506 16.662L96.5891 17.5544L96.4335 17.5075L96.1639 17.5427L94.2974 17.2844C82.0406 17.1669 81.9265 17.2374 78.6394 17.5192C78.2868 17.5544 78.0379 17.7423 77.7061 17.8715C80.1533 17.9537 82.5694 18.0711 85.0063 18.1298C89.7037 18.2355 88.449 17.6249 93.7686 17.8715L96.1743 17.5309L96.3298 17.5544L96.6098 17.5309L97.6675 17.8128C100.332 18.4233 106.088 18.0006 207.419 18.1415L212.054 18.5995L211.992 18.623L211.318 18.623C210.685 18.623 210.841 18.6582 210.125 18.8226C210.582 18.9283 210.831 18.9517 211.09 18.9165L211.982 18.6347L212.262 18.6347L212.044 18.6112L212.116 18.5877C214.315 18.3646 214.315 18.2707 215.331 18.2355C215.891 18.212 216.98 18.2824 218.794 18.3881C219.261 18.4233 219.779 18.4468 220.35 18.4938C220.931 18.576 221.563 18.6934 222.268 18.8108C223.678 19.0692 225.4 19.304 227.37 19.9498C227.743 20.7248 225.026 19.5858 224.477 19.9615C226.167 20.5017 227.837 21.2767 229.413 21.9694C230.222 22.3687 229.848 22.7562 228.542 22.4626C228.22 22.3804 227.598 22.216 226.748 21.9929C225.887 21.7581 224.788 21.4528 223.461 21.2532C222.133 21.0653 220.599 20.6778 218.888 20.6543C218.027 20.6074 217.125 20.5487 216.192 20.5017C215.974 20.4782 215.735 20.4782 215.497 20.4665L213.734 20.4665C207.305 20.4665 199.196 20.4547 191.388 20.4547C175.74 20.4312 161.295 20.4665 163.888 20.807C166.241 21.1358 169.57 21.3119 171.851 21.2767C184.793 21.1005 181.153 21.1945 182.262 21.3354C182.833 21.4058 184.564 21.4998 190.174 21.5585C192.974 21.5702 196.749 21.6054 201.809 21.6407C204.339 21.6641 207.201 21.6641 210.416 21.6759L215.528 21.6759C217.726 21.805 220.091 21.7933 222.517 22.3217C228.625 23.4254 232.493 25.2689 235.002 26.5958C236.257 27.2886 237.231 27.7817 237.947 28.2632C238.652 28.7446 239.171 29.0968 239.575 29.3669C241.12 30.4707 240.85 30.1536 243.567 32.6664C242.883 32.2085 241.69 31.0343 239.803 29.8483C237.978 28.5332 235.531 27.089 232.638 25.7269C229.724 24.447 226.333 23.2141 222.673 22.627C221.76 22.4743 220.837 22.2747 219.894 22.1808C218.95 22.1221 218.006 22.0634 217.052 22.0047L215.611 21.9342L212.044 21.9342C199.445 21.9342 187.012 21.946 185.187 22.2512C184.222 22.4156 183.776 22.674 184.502 23.1202C186.172 23.2141 184.803 23.2376 191.263 23.2728C194.488 23.2728 199.683 23.2963 208.207 23.308C210.343 23.3315 212.666 23.3315 215.238 23.3315C216.669 23.3785 218.338 23.4959 219.977 23.5898C221.625 23.8716 223.367 24.1065 225.141 24.5644C226.903 25.1163 228.76 25.5625 230.605 26.4079C231.528 26.8189 232.493 27.1477 233.415 27.6643C234.338 28.181 235.282 28.6976 236.236 29.226C239.99 31.5392 243.785 34.6039 247.269 38.6079C251.759 43.9036 253.418 47.5671 254.849 50.4321C255.472 51.9468 255.99 53.3089 256.498 54.8354C256.871 56.4088 257.359 58.1231 257.711 60.3307C257.846 61.3052 257.255 60.2132 257.1 59.7905C256.612 58.6868 256.114 57.266 255.575 55.5516C255.275 54.6945 254.88 53.8138 254.507 52.8275C254.123 51.8529 253.74 50.7726 253.169 49.7276C251.147 45.4065 247.881 40.1461 242.478 35.7428C241.359 34.8857 240.923 34.369 239.793 33.3827C238.58 32.549 236.723 31.0578 232.451 29.3434C230.087 28.1223 229.091 27.6291 228.334 27.2651C227.546 26.9833 226.997 26.7954 225.441 26.3375C225.037 26.2318 224.591 26.0791 224.052 25.9617C223.502 25.8678 222.87 25.7504 222.133 25.6212C221.408 25.5038 220.568 25.3277 219.603 25.222C218.639 25.1633 217.54 25.0928 216.295 25.0106C215.632 24.9637 215.072 24.9637 214.481 24.9637L212.583 24.9637C211.235 24.9637 209.752 24.9637 208.114 24.9402C204.827 24.9284 200.897 24.8932 196.189 24.858C194.841 25.0811 193.752 25.2689 192.497 25.4803C189.137 25.4099 185.664 25.3159 182.045 25.539C183.642 26.0087 185.487 25.7151 187.136 25.7973C194.343 26.1966 192.041 25.4451 194.54 26.5606C192.767 26.7602 191.149 26.9363 189.563 27.1124C188.764 27.1946 189.646 27.6291 189.936 27.6526C195.732 28.2632 201.695 27.8992 202.556 27.9461C206.05 28.1457 209.545 28.1457 213.05 28.1223L215.684 28.1223L218.525 28.2514C219.479 28.2514 220.412 28.4276 221.345 28.6037C222.289 28.7798 223.243 28.8855 224.145 29.179C228.905 30.4237 233.467 32.5725 237.729 35.6254C238.341 35.6959 238.88 35.872 239.492 36.0246C238.725 35.0735 237.76 34.4512 236.817 33.7819C236.36 33.4414 235.873 33.1244 235.417 32.7956C234.94 32.4786 234.463 32.2202 234.007 31.8915C233.135 31.3278 232.181 30.6703 231.124 30.2241C230.066 29.7661 228.988 29.3082 227.961 28.8268C227.09 28.498 226.157 28.2632 225.203 28.0401C224.715 27.9344 224.238 27.8052 223.761 27.7113C223.284 27.6408 222.797 27.5586 222.32 27.4882C219.489 26.9715 218.867 26.2083 220.049 26.3257C221.698 26.6193 223.253 26.7837 224.674 27.1594C226.084 27.5821 227.432 27.8757 228.635 28.3571C229.848 28.862 230.948 29.2965 231.974 29.7309C232.959 30.2711 233.872 30.7525 234.712 31.2104C238.02 33.1361 239.969 34.78 241.12 35.9072C241.711 36.4474 242.105 36.8701 242.354 37.1754C242.582 37.5159 242.675 37.739 242.665 37.8799C242.634 38.1734 242.209 38.1969 241.649 38.2439C243.018 40.2635 244.262 41.6726 245.34 43.2343C245.9 44.0092 246.523 44.6785 247.062 45.5005C247.611 46.3224 248.202 47.1796 248.835 48.1072C250.017 50.0564 251.355 52.4048 252.568 55.763C253.698 59.1212 254.943 63.4658 255.036 69.1724C254.704 68.5618 254.694 68.8319 254.559 68.1391C254.497 67.7868 254.393 67.2115 254.206 66.1782C254.051 65.1214 253.574 63.7006 253.004 61.5871C252.921 61.2583 252.672 61.1291 252.506 61.0117C252.423 60.9647 252.62 60.906 252.495 62.8434C251.821 61.4814 251.064 59.5557 250.629 57.6887C249.499 54.2248 247.964 51.2658 246.077 48.6826C245.6 48.025 245.164 47.3557 244.677 46.7216C244.179 46.0993 243.661 45.4887 243.152 44.8547L242.396 43.8918C242.126 43.5983 241.856 43.2812 241.576 42.9759C241.006 42.3536 240.456 41.7078 239.907 41.0268C238.414 39.8173 237.304 38.9014 236.433 38.2791C235.531 37.7038 234.919 37.328 234.473 37.0462C233.602 36.4826 233.395 36.4239 232.959 36.3534L232.275 36.5061L236.433 39.0893C246.367 46.7921 252.91 59.8375 252.91 74.6442L252.91 106.301L253.387 103.283C253.439 99.2555 253.325 94.9814 253.574 90.7073C254.227 100.089 253.377 102.567 254.435 105.655C254.808 103.471 254.995 100.923 254.87 98.5157C254.663 94.2299 254.87 90.038 254.818 85.7991C255.783 102.578 255.16 107.51 256.788 115.988C257.971 116.27 257.172 115.847 257.732 118.36C258.157 120.285 258.406 118.7 258.458 123.773C258.572 132.908 258.603 131.299 259.09 132.697C259.588 129.691 259.122 126.321 259.474 123.503C259.972 123.879 259.93 126.274 260.283 127.166C260.874 126.11 260.895 122.681 261.569 121.976C262.45 122.81 262.004 126.356 262.357 128.411C262.896 125.898 262.16 117.103 263.321 118.301C263.726 126.121 263.363 132.92 263.674 141.362C263.985 134.317 263.601 127.871 264.078 121.389C264.503 124.348 264.182 127.413 264.452 130.161C264.711 130.008 264.638 129.162 264.649 128.587C264.783 119.229 264.607 122.458 265.105 118.935C265.81 118.465 266.878 117.103 266.92 120.779C266.982 127.342 266.878 159.903 266.805 193.274C266.774 209.959 266.754 226.856 266.733 240.817L266.733 245.913C266.722 246.771 266.733 247.463 266.722 248.426C266.681 249.506 266.629 250.575 266.588 251.632C266.546 253.722 266.277 255.73 266.007 257.655C265.789 259.581 265.395 261.389 265.001 263.092C263.425 269.914 261.258 274.858 259.765 277.781C259.018 279.214 258.375 280.505 257.701 281.574C257.027 282.643 256.415 283.547 255.917 284.333C254.953 285.93 254.238 286.881 254.175 287.633C255.793 286.283 257.234 284.639 258.945 282.76C261.372 278.85 264.597 272.803 266.64 264.572C267.117 262.505 267.666 260.368 267.925 258.066C268.081 256.916 268.236 255.753 268.392 254.567C268.496 253.381 268.548 252.184 268.61 250.939C268.641 250.34 268.662 249.706 268.682 249.084L268.724 248.144L268.724 247.475C268.724 246.583 268.734 245.667 268.734 244.751C268.745 242.907 268.745 241.017 268.765 239.091C268.776 223.627 268.786 205.486 268.796 187.931C268.776 152.811 268.713 120.015 268.931 115.589C270.061 115.436 270.082 116.411 270.134 111.526C270.341 80.3626 269.999 89.2395 270.248 79.2823C270.787 76.6403 270.538 80.2686 270.663 109.53C270.673 110.281 270.767 111.021 270.818 111.761C271.171 111.397 271.295 110.199 271.347 109.154C271.503 105.796 271.399 88.9342 271.347 86.7737C271.295 84.5427 271.43 82.2178 271.482 79.9398C271.513 79.2236 271.772 79.024 271.98 79.5641C273.992 84.437 273.629 60.7651 273.649 154.995C273.649 163.297 273.701 165.574 274.313 166.772C275.184 163.766 274.624 159.821 274.686 156.427C274.997 155.77 275.153 156.615 275.163 157.308C275.236 160.936 275.495 170.565 275.008 178.773C274.396 188.788 275.008 191.113 274.842 194.143C274.5 200.695 274.987 208.95 274.8 213.881C274.583 219.799 274.541 227.784 274.531 235.545C274.531 239.42 274.531 243.26 274.531 246.759L274.531 248.05C274.5 248.696 274.489 249.342 274.469 249.976C274.406 251.268 274.334 252.548 274.272 253.757C274.137 256.176 273.722 258.407 273.452 260.403C273.255 261.894 272.882 263.245 272.602 264.56C272.291 265.875 271.99 267.108 271.7 268.282C270.995 270.572 270.321 272.615 269.699 274.47C268.278 278.051 267.106 280.905 265.883 283.23C265.291 284.416 264.783 285.531 264.213 286.529C263.632 287.527 263.083 288.49 262.544 289.453C261.486 291.414 260.252 293.187 258.8 295.265C253.439 301.512 250.225 303.567 249.073 304.671C247.829 305.645 248.379 305.387 249.208 305.246C251.562 303.355 253.335 301.982 254.569 300.772C255.803 299.575 256.654 298.741 257.297 298.072C258.603 296.78 258.987 296.122 260.034 294.725C261.662 292.459 261.807 292.424 262.979 290.815C264.058 289.183 266.764 286.329 270.756 276.572C271.327 275.304 271.741 273.906 272.208 272.509C272.644 271.1 273.141 269.668 273.515 268.176C274.22 265.182 274.997 262.07 275.36 258.841C275.868 255.624 276.003 252.348 276.117 249.072L276.148 248.45L276.148 247.945L276.159 245.679C276.159 244.681 276.169 243.671 276.169 242.684C276.2 234.759 276.221 227.478 276.231 223.087C276.262 212.578 275.817 212.296 276.159 203.407C276.563 192.863 275.754 98.6684 277.185 90.1202C277.414 93.0087 277.289 95.5685 277.341 98.0578C277.611 110.023 277.839 107.51 277.828 115.084C277.725 153.433 277.642 182.636 277.59 205.392C277.538 216.77 277.496 226.527 277.455 235.005C277.445 239.256 277.414 243.166 277.403 246.806C277.393 247.264 277.393 247.722 277.393 248.18C277.362 248.919 277.341 249.636 277.32 250.364C277.237 251.808 277.165 253.229 277.102 254.603C276.854 257.362 276.46 260.039 276.055 262.575C274.137 272.744 270.736 280.822 267.002 287.281C263.207 293.715 259.09 298.612 254.922 302.721C253.854 303.708 252.775 304.635 251.718 305.551C251.189 306.009 250.65 306.467 250.121 306.913C249.571 307.312 249.022 307.723 248.462 308.123C247.363 308.921 246.253 309.684 245.133 310.448C243.992 311.14 242.821 311.81 241.659 312.467C239.347 313.853 236.837 314.816 234.286 315.919C233.011 316.413 231.663 316.812 230.305 317.235L229.278 317.54L226.084 318.327C226.8 318.174 227.526 318.033 228.231 317.857L229.278 317.54L232.617 316.718C234.566 316.107 236.298 315.438 237.843 314.769C238.611 314.44 239.357 314.146 240.052 313.818C240.736 313.465 241.39 313.125 242.012 312.796C243.246 312.138 244.366 311.54 245.372 310.953C247.342 309.673 248.97 308.569 250.504 307.524C251.977 306.373 253.346 305.293 254.86 304.119C256.146 303.062 258.551 300.714 260.521 298.483C262.429 296.158 264.037 294.185 264.078 294.15C264.078 294.15 263.995 294.279 263.788 294.561C263.581 294.831 263.249 295.265 262.782 295.888C261.828 297.097 260.387 299.128 257.888 301.676C257.276 302.322 256.581 303.027 255.866 303.766C255.119 304.483 254.279 305.211 253.387 305.997C252.485 306.772 251.531 307.63 250.463 308.428C249.385 309.226 248.223 310.06 246.989 310.906C241.991 314.193 235.365 317.681 226.737 319.501C225.483 319.736 224.062 319.923 223.015 320.194C221.708 320.558 220.391 320.628 219.043 320.792L217.011 320.957L215.995 321.015L215.518 321.039L215.217 321.039C213.599 321.015 211.971 321.004 210.354 320.992C207.709 320.968 202.089 321.027 199.839 320.945C182.874 320.44 175.221 320.534 111.936 320.522C102.697 320.522 94.0278 320.511 85.8981 320.511C81.8332 320.511 77.9031 320.499 74.0871 320.499C72.1895 320.475 70.3126 320.475 68.4668 320.475L64.3605 320.475C63.6035 320.428 62.8569 320.393 62.017 320.311C56.0544 320.158 50.289 318.749 44.959 316.871C42.3148 315.79 39.712 314.745 37.3063 313.324C36.093 312.643 34.8798 312.009 33.7288 311.246C32.5985 310.471 31.4786 309.696 30.369 308.921C29.2491 308.17 28.2225 307.277 27.2063 306.408C26.1901 305.516 25.1843 304.659 24.2095 303.766C23.2659 302.827 22.3533 301.888 21.4512 300.925C20.5491 299.985 19.6677 299.034 18.8692 298.001C17.2515 295.97 15.6442 293.985 14.3066 291.813C13.6326 290.756 12.9482 289.688 12.2741 288.643C11.6623 287.551 11.0817 286.435 10.501 285.355C5.95909 276.619 3.38741 267.46 2.28826 258.888C2.15343 257.808 2.03939 256.751 1.90459 255.706C1.82161 254.649 1.78017 253.616 1.72832 252.583C1.68685 251.561 1.65572 250.528 1.61422 249.53C1.60387 249.025 1.58315 248.544 1.57277 248.062L1.50017 248.039ZM0.0484525 216.817C0.100302 213.775 0.286948 210.934 0.753561 209.267C0.815787 215.22 0.85726 220.903 0.68099 227.056C0.442464 226.433 0.193624 226.105 0.172872 225.623C0.0899256 223.122 0.00694841 219.858 0.0587979 216.817L0.0484525 216.817Z" fill="#3FB3B2"/>
</svg>
