<svg width="1405" height="455" viewBox="0 0 1405 455" fill="none" xmlns="http://www.w3.org/2000/svg">
<path d="M628.848 351.467C786.848 431.467 936.704 356.456 929.344 300.517C920.144 230.594 820.495 268.053 875.697 339.816" stroke="#FFCE00" stroke-width="2" stroke-dasharray="15 15"/>
<path d="M1403.22 390C1385.22 434 1353.22 462 1295.72 451" stroke="#FFCE00" stroke-width="2" stroke-dasharray="15 15"/>
<path d="M0.526042 79.5003C0.526042 82.4458 2.91386 84.8336 5.85938 84.8336C8.80489 84.8336 11.1927 82.4458 11.1927 79.5003C11.1927 76.5548 8.80489 74.167 5.85938 74.167C2.91386 74.167 0.526042 76.5548 0.526042 79.5003ZM5.85938 79.5003L6.4836 80.2815C8.41705 78.7367 10.3601 77.2081 12.3122 75.6965L11.6999 74.9058L11.0877 74.1152C9.12745 75.633 7.17647 77.1679 5.23515 78.719L5.85938 79.5003ZM23.5799 65.9987L24.1671 66.8081C28.1789 63.8979 32.224 61.0619 36.2986 58.3051L35.7383 57.4769L35.1779 56.6486C31.0848 59.4179 27.0219 62.2665 22.9928 65.1892L23.5799 65.9987ZM48.1839 49.3626L48.7155 50.2097C52.9203 47.5712 57.1517 45.0202 61.4056 42.5621L60.9053 41.6963L60.405 40.8305C56.1295 43.301 51.8773 45.8645 47.6524 48.5156L48.1839 49.3626ZM73.8993 34.5164L74.3657 35.401C78.7591 33.0845 83.1718 30.8708 87.5995 28.7658L87.1702 27.8627L86.7408 26.9595C82.2874 29.0768 77.85 31.3028 73.4329 33.6318L73.8993 34.5164ZM100.728 21.7796L101.116 22.701C105.696 20.769 110.288 18.9581 114.886 17.2744L114.542 16.3354L114.198 15.3963C109.569 17.0914 104.948 18.9142 100.339 20.8582L100.728 21.7796ZM128.601 11.5938L128.895 12.5494C133.651 11.0847 138.407 9.76221 143.161 8.58892L142.922 7.61806L142.682 6.64719C137.89 7.82987 133.097 9.16252 128.307 10.6381L128.601 11.5938ZM157.436 4.50168L157.615 5.4855C162.498 4.59611 167.373 3.87223 172.233 3.32127L172.12 2.32763L172.007 1.334C167.101 1.89019 162.182 2.62072 157.256 3.51787L157.436 4.50168ZM186.928 1.18702L186.968 2.18622C191.911 1.98884 196.833 1.9808 201.727 2.17002L201.766 1.17077L201.805 0.171516C196.856 -0.0197958 191.882 -0.0115918 186.888 0.187813L186.928 1.18702ZM216.568 2.3598L216.446 3.35231C221.333 3.95384 226.186 4.7651 230.999 5.79434L231.208 4.81645L231.417 3.83855C226.545 2.79676 221.634 1.97585 216.691 1.36729L216.568 2.3598ZM245.564 8.57444L245.267 9.52925C249.936 10.9825 254.561 12.6564 259.136 14.5589L259.52 13.6356L259.904 12.7122C255.271 10.7859 250.589 9.09102 245.861 7.61962L245.564 8.57444ZM272.95 19.9586L272.484 20.843C276.775 23.1081 281.016 25.5914 285.201 28.3L285.745 27.4605L286.288 26.621C282.054 23.8804 277.762 21.3672 273.417 19.0742L272.95 19.9586ZM297.865 36.0616L297.252 36.8521C301.073 39.812 304.84 42.9767 308.549 46.3523L309.222 45.6127L309.895 44.8732C306.148 41.4626 302.34 38.2639 298.477 35.2711L297.865 36.0616ZM319.808 55.9896L319.083 56.678C320.773 58.4583 322.449 60.2865 324.111 62.1633L324.859 61.5003L325.608 60.8374C323.931 58.9436 322.239 57.0984 320.534 55.3012L319.808 55.9896Z" fill="#FFCE00"/>
</svg>
