<svg width="273" height="73" viewBox="0 0 273 73" fill="none" xmlns="http://www.w3.org/2000/svg">
<path d="M266.034 72.2181C269.905 70.3345 271.011 65.6787 266.97 60.0988C272.074 55.8695 269.139 52.742 272.84 48.5837C272.84 43.1816 265.099 40.0896 269.012 35.647C271.564 23.7765 267.736 16.242 268.714 11.1597C270.203 3.76728 267.353 0 269.054 0C253.742 0 2.27768 0 7.04155 0C8.78546 0 8.31758 8.63632 4.44694 11.1241C5.17003 17.0594 4.61708 22.1772 8.48772 22.6392C6.57367 24.7717 5.17003 26.4065 5.17003 26.4065C5.17003 26.4065 5.5103 33.3724 7.08408 35.6115C4.44694 37.815 0.916575 39.6631 0.236022 41.8311C-0.44453 44.0346 3.97906 47.1977 1.89487 49.2945C1.89487 53.0263 3.00077 57.7176 4.44694 60.0633C6.82887 66.7449 11.2525 71.1874 7.12662 71.1874C5.76551 71.1874 261.313 74.4927 266.034 72.2181Z" fill="#E96024"/>
</svg>
