<svg width="105" height="28" viewBox="0 0 105 28" fill="none" xmlns="http://www.w3.org/2000/svg">
<path d="M102.319 26.9683C103.811 26.273 104.238 24.5544 102.68 22.4947C104.648 20.9335 103.516 19.7791 104.943 18.2441C104.943 16.25 101.958 15.1087 103.467 13.4688C104.451 9.08705 102.975 6.30582 103.352 4.4298C103.926 1.70104 102.827 0.310425 103.483 0.310425C97.5786 0.310425 0.609967 0.310425 2.44699 0.310425C3.11947 0.310425 2.93905 3.49835 1.44647 4.41668C1.7253 6.60756 1.51208 8.4967 3.00466 8.66724C2.26657 9.45438 1.7253 10.0579 1.7253 10.0579C1.7253 10.0579 1.85652 12.6292 2.46339 13.4557C1.44647 14.2691 0.0851027 14.9513 -0.177329 15.7515C-0.439761 16.5649 1.26605 17.7325 0.462349 18.5065C0.462349 19.884 0.888801 21.6157 1.44647 22.4816C2.36498 24.948 4.07079 26.5878 2.47979 26.5878C1.95493 26.5878 100.498 27.8079 102.319 26.9683Z" fill="#E96024"/>
</svg>
