<svg width="376" height="180" viewBox="0 0 376 180" fill="none" xmlns="http://www.w3.org/2000/svg">
<rect width="375" height="118" transform="matrix(-1 0 0 1 375.339 30.1804)" fill="#104751"/>
<g clip-path="url(#clip0_162_10433)">
<path d="M383.32 39.7382C383.442 39.0468 383.458 38.3559 383.366 37.6667L383.32 39.7382C380.453 55.9505 318.973 72.4252 214.208 72.4252C18.4611 72.4252 -32.2564 121.79 -54.2749 179.17L380.328 174.85L383.32 39.7382Z" fill="#FFFCF0"/>
</g>
<g clip-path="url(#clip1_162_10433)">
<path d="M233.319 88.9683C234.811 88.273 235.238 86.5544 233.68 84.4947C235.648 82.9335 234.516 81.7791 235.943 80.2441C235.943 78.25 232.958 77.1087 234.467 75.4688C235.451 71.0871 233.975 68.3058 234.352 66.4298C234.926 63.701 233.827 62.3104 234.483 62.3104C228.579 62.3104 131.61 62.3104 133.447 62.3104C134.119 62.3104 133.939 65.4983 132.446 66.4167C132.725 68.6076 132.512 70.4967 134.005 70.6672C133.267 71.4544 132.725 72.0579 132.725 72.0579C132.725 72.0579 132.857 74.6292 133.463 75.4557C132.446 76.2691 131.085 76.9513 130.823 77.7515C130.56 78.5649 132.266 79.7325 131.462 80.5065C131.462 81.884 131.889 83.6157 132.446 84.4816C133.365 86.948 135.071 88.5878 133.48 88.5878C132.955 88.5878 231.498 89.8079 233.319 88.9683Z" fill="#E96024"/>
<path d="M142.81 80.0545L142.884 70.2548L144.704 70.2639L144.63 80.0636L142.81 80.0545ZM151.412 72.5374C152.009 72.5404 152.54 72.6598 153.005 72.8954C153.479 73.1311 153.85 73.4923 154.117 73.979C154.384 74.4563 154.515 75.073 154.509 75.829L154.476 80.1128L152.726 80.1041L152.757 76.0442C152.762 75.3816 152.607 74.8861 152.292 74.5579C151.987 74.2297 151.554 74.0642 150.994 74.0614C150.584 74.0593 150.219 74.1415 149.9 74.3079C149.582 74.4743 149.332 74.7251 149.153 75.0602C148.982 75.386 148.895 75.8009 148.891 76.3049L148.862 80.0848L147.112 80.076L147.169 72.6002L148.835 72.6086L148.82 74.6245L148.531 74.007C148.796 73.5324 149.176 73.1703 149.673 72.9208C150.179 72.6619 150.759 72.5342 151.412 72.5374ZM159.873 80.2378C159.154 80.2342 158.507 80.0723 157.931 79.7521C157.364 79.4319 156.919 78.9864 156.597 78.4154C156.275 77.8351 156.116 77.1577 156.122 76.383C156.128 75.6084 156.297 74.9372 156.628 74.3695C156.959 73.8019 157.41 73.3608 157.982 73.0463C158.563 72.7319 159.213 72.5765 159.931 72.5801C160.575 72.5833 161.139 72.7261 161.622 73.0085C162.115 73.2817 162.499 73.6989 162.775 74.2603C163.06 74.8217 163.199 75.5411 163.192 76.4184C163.186 77.2864 163.031 78.0043 162.728 78.5721C162.434 79.1306 162.039 79.5487 161.542 79.8262C161.045 80.1037 160.489 80.2409 159.873 80.2378ZM160.08 78.7409C160.5 78.743 160.879 78.6515 161.217 78.4665C161.554 78.2816 161.822 78.0122 162.021 77.6586C162.219 77.3049 162.321 76.89 162.324 76.4141C162.328 75.9287 162.233 75.5129 162.04 75.1666C161.846 74.811 161.583 74.539 161.248 74.3507C160.913 74.1623 160.536 74.0671 160.116 74.065C159.696 74.0629 159.317 74.1543 158.98 74.3393C158.652 74.5243 158.389 74.7937 158.19 75.1474C157.991 75.4917 157.89 75.9065 157.886 76.3919C157.883 76.8678 157.977 77.2837 158.171 77.6393C158.364 77.9949 158.623 78.2669 158.949 78.4552C159.283 78.6435 159.66 78.7388 160.08 78.7409ZM162.247 82.8677L162.281 78.4159L162.436 76.4286L162.395 74.4404L162.409 72.6764L164.075 72.6848L163.997 82.8765L162.247 82.8677ZM169.471 80.2858C168.836 80.2827 168.277 80.1632 167.793 79.9274C167.31 79.6824 166.935 79.3165 166.668 78.8298C166.401 78.3338 166.27 77.7125 166.276 76.9658L166.308 72.696L168.058 72.7047L168.028 76.7366C168.022 77.4086 168.168 77.9133 168.464 78.2508C168.77 78.579 169.202 78.7445 169.762 78.7473C170.173 78.7493 170.528 78.6671 170.828 78.5006C171.137 78.3342 171.377 78.0834 171.548 77.7482C171.728 77.4131 171.82 76.9982 171.823 76.5036L171.852 72.7237L173.602 72.7324L173.545 80.2082L171.879 80.1999L171.895 78.1839L172.184 78.8014C171.928 79.2855 171.557 79.6569 171.069 79.9158C170.582 80.1654 170.049 80.2887 169.471 80.2858ZM175.836 80.2197L175.894 72.7439L177.644 72.7526L177.586 80.2284L175.836 80.2197ZM176.785 71.5163C176.458 71.5147 176.188 71.4107 175.975 71.2043C175.772 70.9979 175.671 70.7501 175.673 70.4608C175.675 70.1621 175.78 69.9153 175.987 69.7203C176.203 69.5161 176.474 69.4148 176.801 69.4164C177.128 69.418 177.393 69.5174 177.597 69.7144C177.81 69.9021 177.915 70.1406 177.913 70.43C177.911 70.738 177.806 70.9988 177.599 71.2124C177.392 71.4167 177.121 71.518 176.785 71.5163ZM179.883 80.2399L179.94 72.7641L181.606 72.7725L181.591 74.8304L181.399 74.2274C181.627 73.7246 181.98 73.3437 182.458 73.0847C182.945 72.8258 183.548 72.6982 184.267 72.7018L184.254 74.3677C184.18 74.3487 184.11 74.339 184.044 74.3387C183.979 74.329 183.914 74.324 183.849 74.3237C183.186 74.3204 182.657 74.5137 182.262 74.9038C181.867 75.2845 181.667 75.8575 181.661 76.6228L181.633 80.2487L179.883 80.2399ZM189.139 80.3842C188.308 80.3801 187.581 80.2131 186.958 79.8833C186.345 79.5442 185.868 79.0845 185.527 78.5041C185.195 77.9238 185.032 77.265 185.038 76.5277C185.044 75.781 185.212 75.1239 185.543 74.5562C185.883 73.9792 186.344 73.5288 186.925 73.2051C187.516 72.8814 188.184 72.7214 188.931 72.7251C189.659 72.7287 190.307 72.8906 190.873 73.2108C191.44 73.531 191.885 73.9812 192.207 74.5615C192.529 75.1418 192.688 75.8239 192.682 76.6079C192.681 76.6826 192.676 76.7665 192.666 76.8598C192.665 76.9531 192.66 77.0418 192.65 77.1257L186.42 77.0946L186.429 75.9326L191.734 75.9592L191.046 76.3197C191.058 75.8904 190.973 75.512 190.788 75.1844C190.604 74.8568 190.35 74.5989 190.024 74.4106C189.708 74.2223 189.34 74.1272 188.92 74.1251C188.491 74.1229 188.112 74.2144 187.784 74.3994C187.466 74.5845 187.212 74.8445 187.022 75.1796C186.842 75.5053 186.751 75.8922 186.747 76.3402L186.745 76.6202C186.742 77.0682 186.842 77.4654 187.044 77.8117C187.247 78.1581 187.534 78.4255 187.906 78.614C188.278 78.8026 188.707 78.898 189.192 78.9005C189.612 78.9026 189.99 78.8391 190.327 78.7101C190.664 78.5812 190.965 78.3773 191.228 78.0986L192.158 79.1813C191.819 79.5716 191.392 79.8728 190.877 80.0849C190.371 80.2877 189.792 80.3875 189.139 80.3842ZM202.503 72.793C203.1 72.796 203.631 72.9153 204.096 73.151C204.571 73.3867 204.941 73.7479 205.208 74.2345C205.475 74.7119 205.606 75.3285 205.6 76.0845L205.567 80.3684L203.817 80.3596L203.848 76.2997C203.853 75.6371 203.698 75.1416 203.384 74.8134C203.078 74.4852 202.645 74.3197 202.085 74.3169C201.675 74.3149 201.31 74.397 200.992 74.5634C200.673 74.7298 200.424 74.9806 200.244 75.3157C200.073 75.6415 199.986 76.0564 199.982 76.5604L199.953 80.3403L198.203 80.3315L198.26 72.8558L199.926 72.8641L199.911 74.88L199.622 74.2626C199.887 73.7879 200.268 73.4258 200.764 73.1763C201.27 72.9175 201.85 72.7897 202.503 72.793ZM211.16 80.4943C210.395 80.4905 209.715 80.3238 209.12 79.9941C208.525 79.6552 208.057 79.1955 207.716 78.6151C207.375 78.0347 207.208 77.3759 207.213 76.6386C207.219 75.8919 207.397 75.2348 207.747 74.6672C208.096 74.0903 208.571 73.64 209.171 73.3163C209.771 72.9927 210.453 72.8327 211.219 72.8366C211.993 72.8404 212.678 73.0072 213.273 73.3369C213.877 73.6665 214.345 74.1169 214.677 74.6879C215.018 75.2589 215.185 75.9224 215.179 76.6784C215.174 77.4157 214.996 78.0728 214.646 78.6498C214.306 79.2267 213.831 79.6817 213.222 80.0147C212.622 80.3383 211.935 80.4982 211.16 80.4943ZM211.172 78.9964C211.601 78.9985 211.984 78.9071 212.322 78.7221C212.659 78.5372 212.923 78.2678 213.112 77.9141C213.311 77.5604 213.412 77.1456 213.415 76.6696C213.419 76.1843 213.324 75.7685 213.131 75.4222C212.947 75.0666 212.688 74.7946 212.353 74.6063C212.019 74.4179 211.641 74.3227 211.221 74.3206C210.792 74.3185 210.409 74.4099 210.071 74.5948C209.743 74.7799 209.48 75.0492 209.281 75.4029C209.082 75.7472 208.981 76.1621 208.977 76.6474C208.974 77.1234 209.069 77.5392 209.262 77.8948C209.455 78.2505 209.714 78.5224 210.04 78.7107C210.374 78.8991 210.752 78.9943 211.172 78.9964ZM218.271 80.4319L215.584 72.9424L217.236 72.9507L219.538 79.5562L218.754 79.5523L221.268 72.9708L222.738 72.9782L225.082 79.584L224.312 79.5801L226.784 72.9984L228.338 73.0062L225.523 80.4682L223.843 80.4598L221.704 74.611L222.222 74.6136L219.951 80.4403L218.271 80.4319Z" fill="#FFFCF0"/>
</g>
<path d="M182.6 57.0666C182.6 58.4658 183.734 59.6 185.133 59.6C186.532 59.6 187.666 58.4658 187.666 57.0666C187.666 55.6675 186.532 54.5333 185.133 54.5333C183.734 54.5333 182.6 55.6675 182.6 57.0666ZM185.133 57.0666L185.608 57.0553C185.577 55.7745 185.461 54.5051 185.265 53.2502L184.796 53.3233L184.326 53.3965C184.516 54.612 184.629 55.84 184.658 57.078L185.133 57.0666ZM182.766 46.0995L183.206 45.9209C182.261 43.5916 181.07 41.3404 179.688 39.1888L179.289 39.4455L178.889 39.7021C180.242 41.8094 181.405 44.0086 182.326 46.278L182.766 46.0995ZM174.751 33.4556L175.107 33.142C173.433 31.2374 171.626 29.4479 169.74 27.794L169.427 28.1511L169.114 28.5082C170.971 30.1367 172.748 31.8973 174.394 33.7693L174.751 33.4556ZM163.479 23.549L163.746 23.1561C161.577 21.6826 159.377 20.3926 157.21 19.3128L156.998 19.7379L156.786 20.1631C158.913 21.2229 161.077 22.4912 163.212 23.9419L163.479 23.549ZM150.014 16.968L150.144 16.5114C147.362 15.7145 144.766 15.3734 142.545 15.5818L142.589 16.0547L142.633 16.5277C144.7 16.3338 147.172 16.6484 149.883 17.4247L150.014 16.968ZM136.528 19.8254L136.096 19.6278C135.6 20.7117 135.342 22.0034 135.342 23.5046L135.817 23.5046L136.292 23.5046C136.292 22.1109 136.532 20.959 136.96 20.0229L136.528 19.8254ZM135.817 23.5046L135.342 23.5046C135.342 24.9461 135.719 26.1804 136.445 27.2039L136.832 26.929L137.22 26.654C136.62 25.8095 136.292 24.7727 136.292 23.5046L135.817 23.5046ZM143.126 30.104L143.049 30.5727C145.158 30.919 147.633 30.9884 150.386 30.8232L150.357 30.349L150.329 29.8749C147.621 30.0374 145.22 29.9666 143.203 29.6353L143.126 30.104ZM157.571 29.5015L157.648 29.9701C159.923 29.5936 162.313 29.1109 164.789 28.5354L164.681 28.0727L164.573 27.61C162.115 28.1817 159.745 28.6601 157.493 29.0329L157.571 29.5015ZM171.697 26.2598L171.826 26.717C174.104 26.0737 176.427 25.3684 178.774 24.6097L178.628 24.1578L178.482 23.7058C176.145 24.4611 173.834 25.1629 171.568 25.8027L171.697 26.2598ZM185.486 21.8145L185.647 22.2615C187.915 21.4461 190.187 20.5896 192.446 19.6993L192.272 19.2574L192.098 18.8155C189.847 19.7023 187.584 20.5554 185.326 21.3675L185.486 21.8145ZM198.976 16.5002L199.163 16.9368C201.41 15.9735 203.626 14.9832 205.792 13.9735L205.591 13.543L205.391 13.1125C203.233 14.1178 201.027 15.1041 198.789 16.0636L198.976 16.5002ZM212.113 10.3679L212.328 10.7912C214.554 9.6582 216.699 8.51162 218.74 7.36146L218.507 6.94763L218.274 6.5338C216.245 7.67685 214.112 8.81713 211.897 9.94463L212.113 10.3679ZM224.721 3.22457L224.977 3.6245C226.03 2.94985 227.038 2.27746 227.997 1.60936L227.726 1.2196L227.454 0.829853C226.506 1.49037 225.508 2.15597 224.465 2.82463L224.721 3.22457Z" fill="#E7BD11"/>
<defs>
<clipPath id="clip0_162_10433">
<rect width="375" height="142" fill="white" transform="matrix(-1 0 0 1 375 37.5205)"/>
</clipPath>
<clipPath id="clip1_162_10433">
<rect width="105.177" height="26.87" fill="white" transform="translate(131 62.3104)"/>
</clipPath>
</defs>
</svg>
