<svg width="93" height="60" viewBox="0 0 93 60" fill="none" xmlns="http://www.w3.org/2000/svg">
<path d="M47.5997 57.0666C47.5997 58.4658 48.7339 59.6 50.133 59.6C51.5322 59.6 52.6664 58.4658 52.6664 57.0666C52.6664 55.6675 51.5322 54.5333 50.133 54.5333C48.7339 54.5333 47.5997 55.6675 47.5997 57.0666ZM50.133 57.0666L50.6079 57.0553C50.5774 55.7745 50.4606 54.5051 50.2649 53.2502L49.7955 53.3233L49.3262 53.3965C49.5157 54.612 49.6287 55.84 49.6582 57.078L50.133 57.0666ZM47.7659 46.0995L48.2061 45.9209C47.2612 43.5916 46.0697 41.3404 44.6882 39.1888L44.2885 39.4455L43.8888 39.7021C45.2419 41.8094 46.4051 44.0086 47.3258 46.278L47.7659 46.0995ZM39.7506 33.4556L40.1073 33.142C38.4327 31.2374 36.6261 29.4479 34.7402 27.794L34.427 28.1511L34.1138 28.5082C35.9707 30.1367 37.7479 31.8973 39.3939 33.7693L39.7506 33.4556ZM28.4788 23.549L28.7457 23.1561C26.5774 21.6826 24.3765 20.3926 22.21 19.3128L21.9981 19.7379L21.7862 20.1631C23.9128 21.2229 26.077 22.4912 28.2118 23.9419L28.4788 23.549ZM15.0136 16.968L15.1444 16.5114C12.3617 15.7145 9.76561 15.3734 7.54461 15.5818L7.58899 16.0547L7.63336 16.5277C9.69975 16.3338 12.1719 16.6484 14.8828 17.4247L15.0136 16.968ZM1.52777 19.8254L1.09579 19.6278C0.600179 20.7117 0.342387 22.0034 0.342383 23.5046L0.817383 23.5046L1.29238 23.5046C1.29239 22.1109 1.53171 20.959 1.95976 20.0229L1.52777 19.8254ZM0.817383 23.5046L0.342383 23.5046C0.342378 24.9461 0.718581 26.1804 1.44508 27.2039L1.83242 26.929L2.21975 26.654C1.62031 25.8095 1.29238 24.7727 1.29238 23.5046L0.817383 23.5046ZM8.12598 30.104L8.049 30.5727C10.1578 30.919 12.633 30.9884 15.3859 30.8232L15.3575 30.349L15.329 29.8749C12.6206 30.0374 10.2204 29.9666 8.20296 29.6353L8.12598 30.104ZM22.5706 29.5015L22.6482 29.9701C24.9231 29.5936 27.3134 29.1109 29.7885 28.5354L29.6809 28.0727L29.5733 27.61C27.1152 28.1817 24.7451 28.6601 22.4931 29.0329L22.5706 29.5015ZM36.697 26.2598L36.8261 26.717C39.1044 26.0737 41.4271 25.3684 43.7741 24.6097L43.628 24.1578L43.4819 23.7058C41.1454 24.4611 38.8341 25.1629 36.568 25.8027L36.697 26.2598ZM50.4865 21.8145L50.6472 22.2615C52.9147 21.4461 55.1868 20.5896 57.446 19.6993L57.2718 19.2574L57.0977 18.8155C54.8472 19.7023 52.5841 20.5554 50.3258 21.3675L50.4865 21.8145ZM63.9762 16.5002L64.1634 16.9368C66.41 15.9735 68.6256 14.9832 70.7919 13.9735L70.5912 13.543L70.3906 13.1125C68.2334 14.1178 66.0268 15.1041 63.789 16.0636L63.9762 16.5002ZM77.1126 10.3679L77.3281 10.7912C79.5536 9.6582 81.6987 8.51162 83.74 7.36146L83.5069 6.94763L83.2737 6.5338C81.245 7.67685 79.1117 8.81713 76.8971 9.94463L77.1126 10.3679ZM89.7209 3.22457L89.9772 3.6245C91.03 2.94985 92.0384 2.27746 92.9974 1.60936L92.7259 1.2196L92.4544 0.829853C91.5062 1.49037 90.5081 2.15597 89.4646 2.82463L89.7209 3.22457Z" fill="#E7BD11"/>
</svg>
