<svg width="321" height="233" viewBox="0 0 321 233" fill="none" xmlns="http://www.w3.org/2000/svg">
<path d="M306.731 122.266C306.832 123.735 308.105 124.844 309.574 124.744C311.043 124.643 312.153 123.371 312.052 121.901C311.952 120.432 310.679 119.322 309.21 119.423C307.74 119.524 306.631 120.796 306.731 122.266ZM125.877 19.5012L125.659 19.0514L125.877 19.5012ZM70.4575 220.515L70.8863 220.772L70.4575 220.515ZM0.643849 229.562C0.744457 231.031 2.01713 232.141 3.48645 232.04C4.95577 231.939 6.06533 230.667 5.96472 229.197C5.86411 227.728 4.59144 226.619 3.12212 226.719C1.6528 226.82 0.54324 228.092 0.643849 229.562ZM2.84747 226.702C2.77696 226.435 2.50337 226.275 2.23638 226.346C1.96939 226.416 1.8101 226.69 1.88061 226.957L2.84747 226.702ZM1.72462 221.356C1.66506 221.625 1.83538 221.892 2.10502 221.952C2.37467 222.011 2.64153 221.841 2.70109 221.571L1.72462 221.356ZM4.92337 216.916C5.08941 216.695 5.04515 216.382 4.8245 216.216C4.60385 216.05 4.29038 216.094 4.12434 216.314L4.92337 216.916ZM8.05727 212.413C7.83904 212.583 7.79928 212.897 7.96848 213.115C8.13768 213.333 8.45176 213.373 8.66999 213.204L8.05727 212.413ZM13.1586 210.318C13.4016 210.186 13.4921 209.883 13.3609 209.64C13.2296 209.397 12.9263 209.306 12.6833 209.438L13.1586 210.318ZM17.6348 207.13C17.3786 207.233 17.2547 207.524 17.3579 207.78C17.4611 208.036 17.7524 208.16 18.0085 208.057L17.6348 207.13ZM23.0916 206.267C23.3557 206.186 23.5041 205.906 23.4232 205.642C23.3422 205.378 23.0626 205.23 22.7986 205.311L23.0916 206.267ZM28.0629 203.904C27.7938 203.966 27.626 204.234 27.6881 204.503C27.7502 204.772 28.0186 204.94 28.2877 204.878L28.0629 203.904ZM33.5763 203.835C33.8487 203.79 34.0331 203.532 33.9882 203.26C33.9432 202.988 33.6859 202.803 33.4134 202.848L33.5763 203.835ZM38.817 202.124C38.5423 202.153 38.3426 202.398 38.371 202.673C38.3993 202.948 38.645 203.147 38.9197 203.119L38.817 202.124ZM44.2997 202.731C44.5756 202.72 44.7902 202.487 44.7791 202.211C44.768 201.936 44.5353 201.721 44.2594 201.732L44.2997 202.731ZM49.703 201.697C49.4269 201.689 49.1966 201.906 49.1886 202.182C49.1805 202.458 49.3977 202.689 49.6738 202.697L49.703 201.697ZM55.055 203.074C55.3293 203.106 55.5773 202.909 55.6088 202.634C55.6403 202.36 55.4434 202.112 55.1691 202.081L55.055 203.074ZM60.5565 202.998C60.2876 202.935 60.0186 203.102 59.9556 203.371C59.8926 203.64 60.0595 203.909 60.3284 203.972L60.5565 202.998ZM65.3766 205.61C65.6293 205.721 65.9244 205.607 66.0357 205.354C66.147 205.101 66.0324 204.806 65.7797 204.695L65.3766 205.61ZM70.4716 207.731C70.2748 207.537 69.9583 207.54 69.7645 207.736C69.5707 207.933 69.5731 208.25 69.7699 208.443L70.4716 207.731ZM72.0696 212.864C72.1053 213.138 72.3562 213.331 72.6301 213.295C72.9039 213.259 73.0969 213.008 73.0613 212.734L72.0696 212.864ZM72.1598 218.274C72.2657 218.019 72.1449 217.726 71.8899 217.62C71.6349 217.514 71.3423 217.635 71.2363 217.89L72.1598 218.274ZM68.3576 222.482C68.1659 222.681 68.1716 222.997 68.3704 223.189C68.5691 223.381 68.8857 223.375 69.0773 223.176L68.3576 222.482ZM63.7188 225.687C63.9949 225.681 64.2137 225.452 64.2076 225.176C64.2015 224.9 63.9728 224.681 63.6967 224.687L63.7188 225.687ZM58.6318 223.044C58.3983 222.896 58.0895 222.966 57.9421 223.2C57.7947 223.433 57.8645 223.742 58.098 223.889L58.6318 223.044ZM53.7013 220.142C53.8899 220.344 54.2063 220.355 54.408 220.166C54.6098 219.978 54.6205 219.661 54.432 219.46L53.7013 220.142ZM50.9201 215.064C50.7624 214.837 50.4508 214.781 50.2241 214.939C49.9974 215.096 49.9415 215.408 50.0992 215.635L50.9201 215.064ZM47.0576 210.745C47.1924 210.986 47.4971 211.072 47.7381 210.937C47.979 210.802 48.0651 210.498 47.9302 210.257L47.0576 210.745ZM45.3583 205.211C45.2418 204.961 44.9445 204.852 44.6941 204.969C44.4437 205.085 44.3352 205.383 44.4516 205.633L45.3583 205.211ZM42.2018 200.366C42.3026 200.623 42.5927 200.75 42.8498 200.649C43.1069 200.548 43.2336 200.258 43.1329 200.001L42.2018 200.366ZM41.2082 194.662C41.1215 194.4 40.8386 194.257 40.5765 194.344C40.3143 194.431 40.1721 194.714 40.2588 194.976L41.2082 194.662ZM38.5923 189.483C38.6661 189.749 38.9416 189.905 39.2077 189.831C39.4738 189.758 39.6297 189.482 39.556 189.216L38.5923 189.483ZM38.159 183.68C38.0976 183.411 37.8295 183.243 37.5603 183.304C37.291 183.366 37.1226 183.634 37.1841 183.903L38.159 183.68ZM36.0377 178.326C36.0875 178.598 36.348 178.778 36.6197 178.728C36.8913 178.678 37.0711 178.418 37.0213 178.146L36.0377 178.326ZM36.1162 172.549C36.0778 172.276 35.8249 172.085 35.5515 172.124C35.278 172.162 35.0875 172.415 35.1259 172.688L36.1162 172.549ZM34.4449 166.99C34.4721 167.265 34.7169 167.466 34.9917 167.439C35.2665 167.411 35.4672 167.167 35.4401 166.892L34.4449 166.99ZM34.9958 161.226C34.9798 160.95 34.7433 160.74 34.4676 160.756C34.1919 160.772 33.9814 161.008 33.9975 161.284L34.9958 161.226ZM33.7803 155.585C33.7853 155.861 34.0131 156.081 34.2892 156.076C34.5653 156.071 34.7851 155.843 34.7801 155.567L33.7803 155.585ZM34.7912 149.872C34.7973 149.596 34.5784 149.367 34.3023 149.361C34.0262 149.355 33.7975 149.574 33.7914 149.85L34.7912 149.872ZM34.032 144.137C34.0148 144.412 34.2243 144.65 34.4999 144.667C34.7755 144.684 35.0129 144.474 35.03 144.199L34.032 144.137ZM35.496 138.549C35.5242 138.275 35.3244 138.029 35.0497 138.001C34.775 137.973 34.5295 138.172 34.5012 138.447L35.496 138.549ZM35.2051 132.746C35.1657 133.02 35.3553 133.273 35.6286 133.313C35.9019 133.352 36.1554 133.162 36.1949 132.889L35.2051 132.746ZM37.117 127.307C37.1675 127.035 36.9884 126.774 36.717 126.724C36.4455 126.673 36.1844 126.852 36.1339 127.124L37.117 127.307ZM37.2982 121.519C37.2364 121.788 37.4045 122.057 37.6737 122.118C37.9428 122.18 38.2111 122.012 38.2728 121.743L37.2982 121.519ZM39.6597 116.229C39.7326 115.963 39.5759 115.688 39.3095 115.615C39.0432 115.542 38.7681 115.698 38.6952 115.965L39.6597 116.229ZM40.3168 110.495C40.2328 110.758 40.3779 111.039 40.641 111.123C40.904 111.207 41.1854 111.062 41.2694 110.799L40.3168 110.495ZM43.1216 105.398C43.2167 105.139 43.0837 104.852 42.8244 104.757C42.5652 104.662 42.2779 104.795 42.1828 105.054L43.1216 105.398ZM44.2529 99.7582C44.147 100.013 44.2679 100.306 44.5229 100.412C44.7779 100.518 45.0705 100.397 45.1764 100.142L44.2529 99.7582ZM47.4739 94.9265C47.5906 94.6762 47.4822 94.3787 47.232 94.2621C46.9817 94.1454 46.6842 94.2537 46.5675 94.504L47.4739 94.9265ZM49.0837 89.3903C48.9566 89.6355 49.0523 89.9372 49.2974 90.0643C49.5426 90.1914 49.8444 90.0957 49.9715 89.8506L49.0837 89.3903ZM52.6956 84.8569C52.8329 84.6173 52.75 84.3118 52.5105 84.1744C52.2709 84.0371 51.9653 84.12 51.828 84.3596L52.6956 84.8569ZM54.7699 79.466C54.6228 79.6996 54.6929 80.0084 54.9266 80.1555C55.1602 80.3027 55.4689 80.2326 55.6161 79.9989L54.7699 79.466ZM58.7424 75.2555C58.899 75.0281 58.8417 74.7167 58.6143 74.5601C58.3869 74.4034 58.0756 74.4607 57.9189 74.6881L58.7424 75.2555ZM61.2565 70.049C61.0907 70.2698 61.1353 70.5832 61.3562 70.749C61.577 70.9148 61.8905 70.8701 62.0562 70.6493L61.2565 70.049ZM65.5558 66.1762C65.7302 65.9622 65.6981 65.6472 65.484 65.4728C65.27 65.2983 64.955 65.3305 64.7806 65.5445L65.5558 66.1762ZM68.4751 61.188C68.2924 61.395 68.3122 61.711 68.5193 61.8937C68.7264 62.0763 69.0424 62.0565 69.225 61.8494L68.4751 61.188ZM73.0682 57.6569C73.2587 57.4569 73.2509 57.1404 73.051 56.95C72.851 56.7595 72.5345 56.7673 72.3441 56.9672L73.0682 57.6569ZM76.35 52.914C76.1523 53.1068 76.1483 53.4234 76.3411 53.6211C76.5339 53.8188 76.8505 53.8228 77.0482 53.63L76.35 52.914ZM81.209 49.7175C81.4135 49.532 81.429 49.2158 81.2435 49.0112C81.0579 48.8067 80.7417 48.7912 80.5372 48.9768L81.209 49.7175ZM84.8046 45.2398C84.5938 45.4182 84.5674 45.7336 84.7457 45.9445C84.924 46.1553 85.2395 46.1817 85.4504 46.0034L84.8046 45.2398ZM89.91 42.3616C90.1268 42.1906 90.164 41.8762 89.993 41.6594C89.822 41.4425 89.5076 41.4054 89.2907 41.5764L89.91 42.3616ZM93.7682 38.1609C93.546 38.3249 93.4988 38.6379 93.6627 38.8601C93.8267 39.0823 94.1397 39.1295 94.3619 38.9656L93.7682 38.1609ZM99.0234 35.6391C99.2507 35.4822 99.3077 35.1708 99.1509 34.9436C98.994 34.7163 98.6826 34.6592 98.4554 34.8161L99.0234 35.6391ZM103.181 31.659C102.949 31.809 102.883 32.1185 103.033 32.3504C103.182 32.5823 103.492 32.6487 103.724 32.4987L103.181 31.659ZM108.531 29.4884C108.767 29.3452 108.842 29.0377 108.699 28.8016C108.556 28.5655 108.248 28.4902 108.012 28.6333L108.531 29.4884ZM112.997 25.7063C112.757 25.8427 112.673 26.148 112.81 26.388C112.946 26.6281 113.252 26.7121 113.492 26.5756L112.997 25.7063ZM118.397 23.8726C118.64 23.7425 118.732 23.4396 118.602 23.196C118.472 22.9524 118.169 22.8604 117.925 22.9905L118.397 23.8726ZM123.035 20.3461C122.788 20.4699 122.688 20.7703 122.812 21.0172C122.936 21.264 123.236 21.3638 123.483 21.24L123.035 20.3461ZM128.632 18.7422C128.882 18.6252 128.99 18.3276 128.873 18.0775C128.756 17.8273 128.459 17.7194 128.208 17.8364L128.632 18.7422ZM133.318 15.537C133.064 15.6466 132.948 15.9409 133.057 16.1944C133.167 16.4478 133.461 16.5644 133.715 16.4548L133.318 15.537ZM138.859 14.3185C139.115 14.2163 139.24 13.9256 139.138 13.669C139.036 13.4124 138.745 13.2873 138.489 13.3894L138.859 14.3185ZM143.725 11.3938C143.466 11.4883 143.332 11.7753 143.427 12.0347C143.521 12.2942 143.808 12.4279 144.067 12.3334L143.725 11.3938ZM149.329 10.5055C149.592 10.4188 149.734 10.136 149.647 9.87383C149.56 9.61165 149.278 9.4694 149.015 9.5561L149.329 10.5055ZM154.36 7.87724C154.096 7.95601 153.945 8.23442 154.024 8.49909C154.103 8.76376 154.381 8.91446 154.646 8.83569L154.36 7.87724ZM160.011 7.32712C160.278 7.25642 160.437 6.9827 160.366 6.71577C160.295 6.44883 160.022 6.28975 159.755 6.36045L160.011 7.32712ZM165.188 5.00972C164.919 5.07224 164.752 5.34096 164.814 5.60993C164.877 5.87891 165.145 6.04628 165.414 5.98376L165.188 5.00972ZM170.866 4.80498C171.137 4.75079 171.312 4.48736 171.258 4.21659C171.204 3.94581 170.94 3.77024 170.67 3.82443L170.866 4.80498ZM176.17 2.81191C175.898 2.85768 175.714 3.11554 175.76 3.38787C175.806 3.66019 176.064 3.84385 176.336 3.79808L176.17 2.81191ZM181.856 2.95911C182.129 2.92191 182.321 2.66993 182.284 2.39631C182.246 2.12268 181.995 1.93102 181.721 1.96822L181.856 2.95911ZM187.266 1.30292C186.992 1.33149 186.792 1.5773 186.821 1.85196C186.849 2.12663 187.095 2.32612 187.37 2.29756L187.266 1.30292ZM192.938 1.80819C193.214 1.78843 193.421 1.54913 193.401 1.27369C193.382 0.998257 193.142 0.790992 192.867 0.810754L192.938 1.80819ZM198.442 0.500509C198.166 0.511413 197.952 0.743934 197.962 1.01986C197.973 1.29579 198.206 1.51063 198.482 1.49973L198.442 0.500509ZM204.069 1.37025C204.346 1.36838 204.568 1.14301 204.566 0.866878C204.564 0.590742 204.339 0.368406 204.063 0.370277L204.069 1.37025ZM209.658 0.424452C209.382 0.417214 209.152 0.635128 209.145 0.911175C209.138 1.18722 209.356 1.41687 209.632 1.42411L209.658 0.424452ZM215.201 1.66336C215.476 1.67985 215.713 1.46976 215.73 1.19411C215.746 0.91846 215.536 0.681635 215.26 0.665147L215.201 1.66336ZM220.852 1.09509C220.577 1.06922 220.334 1.27112 220.308 1.54605C220.282 1.82098 220.484 2.06482 220.759 2.09069L220.852 1.09509ZM226.28 2.70635C226.554 2.74171 226.804 2.54836 226.84 2.27449C226.875 2.00062 226.682 1.74994 226.408 1.71458L226.28 2.70635ZM231.971 2.53299C231.698 2.48794 231.441 2.67228 231.396 2.94472C231.351 3.21717 231.535 3.47454 231.808 3.51959L231.971 2.53299ZM237.272 4.5243C237.543 4.57914 237.806 4.40421 237.861 4.13357C237.916 3.86292 237.741 3.59907 237.471 3.54422L237.272 4.5243ZM242.952 4.76082C242.683 4.69597 242.413 4.86099 242.348 5.12941C242.283 5.39783 242.448 5.668 242.717 5.73285L242.952 4.76082ZM248.107 7.14403C248.373 7.21907 248.649 7.06446 248.724 6.79871C248.799 6.53296 248.645 6.2567 248.379 6.18166L248.107 7.14403ZM253.724 7.80387C253.462 7.71849 253.179 7.86217 253.094 8.12478C253.009 8.38739 253.152 8.6695 253.415 8.75487L253.724 7.80387ZM258.694 10.5903C258.953 10.6864 259.241 10.5543 259.337 10.2954C259.433 10.0365 259.301 9.74876 259.042 9.65274L258.694 10.5903ZM264.255 11.711C264 11.6042 263.707 11.724 263.6 11.9787C263.494 12.2333 263.613 12.5263 263.868 12.6332L264.255 11.711ZM268.941 14.8922C269.19 15.0101 269.488 14.9032 269.606 14.6535C269.724 14.4038 269.617 14.1058 269.368 13.9879L268.941 14.8922ZM274.401 16.5058C274.157 16.3766 273.854 16.4696 273.725 16.7137C273.596 16.9577 273.689 17.2603 273.933 17.3895L274.401 16.5058ZM278.782 20.1073C279.02 20.2481 279.326 20.1697 279.467 19.9321C279.608 19.6945 279.529 19.3878 279.292 19.247L278.782 20.1073ZM284.034 22.2202C283.804 22.0676 283.493 22.1305 283.341 22.3606C283.188 22.5908 283.251 22.901 283.481 23.0536L284.034 22.2202ZM288.047 26.2585C288.269 26.4232 288.582 26.377 288.747 26.1553C288.911 25.9337 288.865 25.6205 288.644 25.4558L288.047 26.2585ZM293.056 28.9298C292.844 28.7529 292.529 28.7813 292.352 28.9933C292.175 29.2053 292.203 29.5206 292.415 29.6976L293.056 28.9298ZM296.565 33.3741C296.766 33.5634 297.082 33.5539 297.272 33.3528C297.461 33.1517 297.451 32.8353 297.25 32.646L296.565 33.3741ZM301.221 36.627C301.032 36.4253 300.716 36.4148 300.514 36.6034C300.313 36.792 300.302 37.1084 300.491 37.3101L301.221 36.627ZM304.151 41.4962C304.325 41.7101 304.64 41.7421 304.854 41.5675C305.068 41.393 305.1 41.078 304.926 40.864L304.151 41.4962ZM308.321 45.3418C308.162 45.1159 307.851 45.0615 307.625 45.2202C307.399 45.379 307.344 45.6909 307.503 45.9168L308.321 45.3418ZM310.517 50.5664C310.659 50.8037 310.965 50.8815 311.203 50.7402C311.44 50.599 311.518 50.2921 311.377 50.0548L310.517 50.5664ZM314.061 54.9991C313.939 54.7513 313.639 54.6493 313.392 54.7712C313.144 54.8931 313.042 55.1928 313.164 55.4406L314.061 54.9991ZM315.405 60.5144C315.506 60.7714 315.796 60.898 316.053 60.7971C316.31 60.6962 316.436 60.4061 316.336 60.149L315.405 60.5144ZM318.165 65.4685C318.086 65.2037 317.808 65.0527 317.543 65.1312C317.279 65.2096 317.128 65.4878 317.206 65.7526L318.165 65.4685ZM318.546 71.1272C318.601 71.3978 318.865 71.5726 319.135 71.5176C319.406 71.4627 319.581 71.1988 319.526 70.9281L318.546 71.1272ZM320.402 76.4959C320.372 76.2215 320.124 76.0241 319.85 76.0549C319.575 76.0858 319.378 76.3332 319.409 76.6077L320.402 76.4959ZM319.786 82.131C319.792 82.4071 320.022 82.6254 320.298 82.6186C320.574 82.6118 320.792 82.3826 320.785 82.1065L319.786 82.131ZM320.682 87.7204C320.699 87.4448 320.489 87.2077 320.214 87.191C319.938 87.1742 319.701 87.3841 319.684 87.6597L320.682 87.7204ZM319.119 93.1736C319.08 93.4469 319.27 93.7003 319.543 93.7397C319.816 93.779 320.07 93.5893 320.109 93.316L319.119 93.1736ZM319.083 98.8746C319.143 98.6052 318.974 98.3376 318.705 98.277C318.435 98.2163 318.168 98.3855 318.107 98.6549L319.083 98.8746ZM316.696 103.992C316.615 104.257 316.765 104.536 317.029 104.616C317.293 104.696 317.572 104.547 317.652 104.283L316.696 103.992ZM315.84 109.587C315.938 109.329 315.808 109.04 315.55 108.942C315.292 108.844 315.003 108.974 314.905 109.232L315.84 109.587ZM312.749 114.395C312.635 114.646 312.746 114.943 312.997 115.057C313.248 115.172 313.545 115.061 313.659 114.809L312.749 114.395ZM311.2 119.813C311.329 119.569 311.236 119.267 310.992 119.138C310.747 119.009 310.445 119.103 310.316 119.347L311.2 119.813ZM3.30429 229.38L3.75657 229.166C3.35953 228.324 3.0589 227.502 2.84747 226.702L2.36404 226.829L1.88061 226.957C2.10871 227.821 2.43102 228.7 2.852 229.593L3.30429 229.38ZM2.21285 221.464L2.70109 221.571C3.06297 219.933 3.82197 218.379 4.92337 216.916L4.52386 216.615L4.12434 216.314C2.95083 217.874 2.12201 219.557 1.72462 221.356L2.21285 221.464ZM8.36363 212.809L8.66999 213.204C9.99799 212.174 11.5054 211.211 13.1586 210.318L12.921 209.878L12.6833 209.438C10.9901 210.352 9.43531 211.345 8.05727 212.413L8.36363 212.809ZM17.8217 207.593L18.0085 208.057C19.6287 207.404 21.3306 206.807 23.0916 206.267L22.9451 205.789L22.7986 205.311C21.0127 205.858 19.2837 206.465 17.6348 207.13L17.8217 207.593ZM28.1753 204.391L28.2877 204.878C30.0246 204.477 31.7937 204.129 33.5763 203.835L33.4948 203.341L33.4134 202.848C31.6107 203.146 29.821 203.498 28.0629 203.904L28.1753 204.391ZM38.8683 202.621L38.9197 203.119C40.7252 202.932 42.525 202.803 44.2997 202.731L44.2795 202.232L44.2594 201.732C42.4634 201.804 40.6428 201.936 38.817 202.124L38.8683 202.621ZM49.6884 202.197L49.6738 202.697C51.5301 202.751 53.332 202.876 55.055 203.074L55.112 202.577L55.1691 202.081C53.4154 201.879 51.585 201.752 49.703 201.697L49.6884 202.197ZM60.4424 203.485L60.3284 203.972C62.1886 204.407 63.8854 204.953 65.3766 205.61L65.5781 205.152L65.7797 204.695C64.2212 204.008 62.4639 203.445 60.5565 202.998L60.4424 203.485ZM70.1207 208.087L69.7699 208.443C71.0549 209.709 71.8499 211.177 72.0696 212.864L72.5654 212.799L73.0613 212.734C72.8087 210.796 71.8922 209.13 70.4716 207.731L70.1207 208.087ZM71.6981 218.082L71.2363 217.89C70.9226 218.645 70.5222 219.434 70.0286 220.258L70.4575 220.515L70.8863 220.772C71.402 219.912 71.8252 219.079 72.1598 218.274L71.6981 218.082ZM70.4575 220.515L70.0286 220.258C69.5007 221.139 68.9413 221.877 68.3576 222.482L68.7175 222.829L69.0773 223.176C69.7213 222.509 70.3254 221.708 70.8863 220.772L70.4575 220.515ZM63.7077 225.187L63.6967 224.687C62.1238 224.722 60.4181 224.171 58.6318 223.044L58.3649 223.467L58.098 223.889C59.9963 225.088 61.894 225.727 63.7188 225.687L63.7077 225.187ZM54.0666 219.801L54.432 219.46C53.2566 218.202 52.0804 216.731 50.9201 215.064L50.5096 215.349L50.0992 215.635C51.2825 217.336 52.4884 218.844 53.7013 220.142L54.0666 219.801ZM47.4939 210.501L47.9302 210.257C47.0503 208.684 46.1903 207 45.3583 205.211L44.905 205.422L44.4516 205.633C45.2934 207.442 46.1647 209.149 47.0576 210.745L47.4939 210.501ZM42.6673 200.183L43.1329 200.001C42.4628 198.291 41.8195 196.51 41.2082 194.662L40.7335 194.819L40.2588 194.976C40.8756 196.841 41.525 198.639 42.2018 200.366L42.6673 200.183ZM39.0741 189.35L39.556 189.216C39.0583 187.42 38.5914 185.574 38.159 183.68L37.6716 183.792L37.1841 183.903C37.6198 185.811 38.0905 187.673 38.5923 189.483L39.0741 189.35ZM36.5295 178.236L37.0213 178.146C36.6858 176.316 36.383 174.449 36.1162 172.549L35.621 172.619L35.1259 172.688C35.3947 174.602 35.6997 176.483 36.0377 178.326L36.5295 178.236ZM34.9425 166.941L35.4401 166.892C35.2561 165.03 35.1071 163.14 34.9958 161.226L34.4966 161.255L33.9975 161.284C34.1096 163.212 34.2596 165.115 34.4449 166.99L34.9425 166.941ZM34.2802 155.576L34.7801 155.567C34.746 153.688 34.749 151.789 34.7912 149.872L34.2913 149.861L33.7914 149.85C33.7489 151.78 33.746 153.693 33.7803 155.585L34.2802 155.576ZM34.531 144.168L35.03 144.199C35.1464 142.329 35.301 140.445 35.496 138.549L34.9986 138.498L34.5012 138.447C34.3049 140.356 34.1492 142.254 34.032 144.137L34.531 144.168ZM35.7 132.818L36.1949 132.889C36.4621 131.037 36.7689 129.176 37.117 127.307L36.6254 127.215L36.1339 127.124C35.7833 129.006 35.4743 130.881 35.2051 132.746L35.7 132.818ZM37.7855 121.631L38.2728 121.743C38.6935 119.909 39.1553 118.071 39.6597 116.229L39.1774 116.097L38.6952 115.965C38.1871 117.82 37.722 119.672 37.2982 121.519L37.7855 121.631ZM40.7931 110.647L41.2694 110.799C41.8442 109 42.461 107.199 43.1216 105.398L42.6522 105.226L42.1828 105.054C41.5173 106.868 40.8958 108.682 40.3168 110.495L40.7931 110.647ZM44.7147 99.95L45.1764 100.142C45.8994 98.4013 46.6647 96.6623 47.4739 94.9265L47.0207 94.7152L46.5675 94.504C45.7523 96.2528 44.9813 98.0047 44.2529 99.7582L44.7147 99.95ZM49.5276 89.6205L49.9715 89.8506C50.8369 88.1813 51.7445 86.5163 52.6956 84.8569L52.2618 84.6082L51.828 84.3596C50.8699 86.0313 49.9556 87.7087 49.0837 89.3903L49.5276 89.6205ZM55.193 79.7324L55.6161 79.9989C56.6162 78.411 57.6579 76.8294 58.7424 75.2555L58.3306 74.9718L57.9189 74.6881C56.8266 76.2734 55.7774 77.8665 54.7699 79.466L55.193 79.7324ZM61.6563 70.3491L62.0562 70.6493C63.1817 69.1498 64.3479 67.6584 65.5558 66.1762L65.1682 65.8604L64.7806 65.5445C63.5643 67.037 62.3899 68.5389 61.2565 70.049L61.6563 70.3491ZM68.85 61.5187L69.225 61.8494C70.4663 60.4421 71.747 59.0443 73.0682 57.6569L72.7061 57.312L72.3441 56.9672C71.0141 58.3639 69.7247 59.7711 68.4751 61.188L68.85 61.5187ZM76.6991 53.272L77.0482 53.63C78.3965 52.315 79.7832 51.0106 81.209 49.7175L80.8731 49.3471L80.5372 48.9768C79.1025 50.2779 77.707 51.5906 76.35 52.914L76.6991 53.272ZM85.1275 45.6216L85.4504 46.0034C86.8995 44.7779 88.3858 43.5637 89.91 42.3616L89.6004 41.969L89.2907 41.5764C87.7576 42.7855 86.2625 44.0069 84.8046 45.2398L85.1275 45.6216ZM94.065 38.5632L94.3619 38.9656C95.8806 37.8449 97.4342 36.7359 99.0234 35.6391L98.7394 35.2276L98.4554 34.8161C96.8576 35.9188 95.2954 37.034 93.7682 38.1609L94.065 38.5632ZM103.452 32.0789L103.724 32.4987C105.294 31.4836 106.896 30.4799 108.531 29.4884L108.272 29.0609L108.012 28.6333C106.369 29.6298 104.759 30.6386 103.181 31.659L103.452 32.0789ZM113.245 26.1409L113.492 26.5756C115.097 25.6632 116.732 24.762 118.397 23.8726L118.161 23.4316L117.925 22.9905C116.253 23.8841 114.61 24.7895 112.997 25.7063L113.245 26.1409ZM123.259 20.7931L123.483 21.24C124.346 20.8073 125.217 20.3776 126.096 19.951L125.877 19.5012L125.659 19.0514C124.777 19.4799 123.902 19.9114 123.035 20.3461L123.259 20.7931ZM125.877 19.5012L126.096 19.951C126.941 19.5408 127.786 19.1379 128.632 18.7422L128.42 18.2893L128.208 17.8364C127.358 18.2341 126.508 18.6391 125.659 19.0514L125.877 19.5012ZM133.516 15.9959L133.715 16.4548C135.428 15.7136 137.143 15.0017 138.859 14.3185L138.674 13.854L138.489 13.3894C136.764 14.0762 135.04 14.7919 133.318 15.537L133.516 15.9959ZM143.896 11.8636L144.067 12.3334C145.821 11.6947 147.576 11.0855 149.329 10.5055L149.172 10.0308L149.015 9.5561C147.252 10.1392 145.489 10.7517 143.725 11.3938L143.896 11.8636ZM154.503 8.35646L154.646 8.83569C156.435 8.30305 158.224 7.80034 160.011 7.32712L159.883 6.84378L159.755 6.36045C157.958 6.83626 156.16 7.3417 154.36 7.87724L154.503 8.35646ZM165.301 5.49674L165.414 5.98376C167.235 5.56073 169.052 5.16797 170.866 4.80498L170.768 4.3147L170.67 3.82443C168.846 4.18942 167.018 4.58436 165.188 5.00972L165.301 5.49674ZM176.253 3.305L176.336 3.79808C178.181 3.48803 180.021 3.20855 181.856 2.95911L181.788 2.46367L181.721 1.96822C179.876 2.21907 178.025 2.50013 176.17 2.81191L176.253 3.305ZM187.318 1.80024L187.37 2.29756C189.233 2.10378 191.089 1.94084 192.938 1.80819L192.903 1.30947L192.867 0.810754C191.007 0.944168 189.14 1.10804 187.266 1.30292L187.318 1.80024ZM198.462 1.00012L198.482 1.49973C200.354 1.42577 202.216 1.38281 204.069 1.37025L204.066 0.870266L204.063 0.370277C202.199 0.382904 200.325 0.426116 198.442 0.500509L198.462 1.00012ZM209.645 0.92428L209.632 1.42411C211.5 1.47308 213.356 1.55305 215.201 1.66336L215.231 1.16426L215.26 0.665147C213.405 0.554161 211.537 0.473719 209.658 0.424452L209.645 0.92428ZM220.806 1.59289L220.759 2.09069C222.613 2.26521 224.454 2.47066 226.28 2.70635L226.344 2.21047L226.408 1.71458C224.571 1.47741 222.719 1.27069 220.852 1.09509L220.806 1.59289ZM231.889 3.02629L231.808 3.51959C233.647 3.82366 235.468 4.15881 237.272 4.5243L237.371 4.03426L237.471 3.54422C235.655 3.17633 233.821 2.83901 231.971 2.53299L231.889 3.02629ZM242.834 5.24684L242.717 5.73285C244.535 6.1721 246.332 6.64276 248.107 7.14403L248.243 6.66284L248.379 6.18166C246.591 5.6769 244.782 5.20303 242.952 4.76082L242.834 5.24684ZM253.57 8.27937L253.415 8.75487C255.2 9.33523 256.96 9.94735 258.694 10.5903L258.868 10.1215L259.042 9.65274C257.295 9.00496 255.522 8.38839 253.724 7.80387L253.57 8.27937ZM264.062 12.1721L263.868 12.6332C265.589 13.355 267.28 14.1084 268.941 14.8922L269.154 14.4401L269.368 13.9879C267.694 13.1977 265.989 12.4385 264.255 11.711L264.062 12.1721ZM274.167 16.9477L273.933 17.3895C275.584 18.2641 277.201 19.1704 278.782 20.1073L279.037 19.6772L279.292 19.247C277.697 18.3019 276.066 17.3878 274.401 16.5058L274.167 16.9477ZM283.757 22.6369L283.481 23.0536C285.045 24.0904 286.568 25.1591 288.047 26.2585L288.345 25.8572L288.644 25.4558C287.149 24.3456 285.612 23.2666 284.034 22.2202L283.757 22.6369ZM292.736 29.3137L292.415 29.6976C293.847 30.8923 295.231 32.1182 296.565 33.3741L296.908 33.0101L297.25 32.646C295.901 31.3761 294.503 30.137 293.056 28.9298L292.736 29.3137ZM300.856 36.9686L300.491 37.3101C301.767 38.6751 302.988 40.0709 304.151 41.4962L304.538 41.1801L304.926 40.864C303.748 39.4209 302.513 38.0081 301.221 36.627L300.856 36.9686ZM307.912 45.6293L307.503 45.9168C308.572 47.4378 309.578 48.9881 310.517 50.5664L310.947 50.3106L311.377 50.0548C310.424 48.4545 309.404 46.8829 308.321 45.3418L307.912 45.6293ZM313.612 55.2198L313.164 55.4406C313.983 57.1049 314.731 58.7967 315.405 60.5144L315.87 60.3317L316.336 60.149C315.651 58.4051 314.892 56.6879 314.061 54.9991L313.612 55.2198ZM317.685 65.6106L317.206 65.7526C317.73 67.5203 318.177 69.3123 318.546 71.1272L319.036 71.0277L319.526 70.9281C319.151 69.0844 318.697 67.264 318.165 65.4685L317.685 65.6106ZM319.906 76.5518L319.409 76.6077C319.614 78.4287 319.74 80.2704 319.786 82.131L320.285 82.1188L320.785 82.1065C320.739 80.2167 320.61 78.346 320.402 76.4959L319.906 76.5518ZM320.183 87.6901L319.684 87.6597C319.574 89.4817 319.386 91.3201 319.119 93.1736L319.614 93.2448L320.109 93.316C320.38 91.4357 320.57 89.57 320.682 87.7204L320.183 87.6901ZM318.595 98.7647L318.107 98.6549C317.709 100.422 317.239 102.202 316.696 103.992L317.174 104.138L317.652 104.283C318.203 102.469 318.679 100.666 319.083 98.8746L318.595 98.7647ZM315.372 109.409L314.905 109.232C314.254 110.944 313.536 112.666 312.749 114.395L313.204 114.602L313.659 114.809C314.455 113.061 315.181 111.32 315.84 109.587L315.372 109.409ZM310.758 119.58L310.316 119.347C309.879 120.175 309.426 121.006 308.956 121.838L309.392 122.083L309.827 122.329C310.301 121.489 310.759 120.65 311.2 119.813L310.758 119.58Z" fill="#E96024"/>
</svg>
