<svg width="92" height="87" viewBox="0 0 92 87" fill="none" xmlns="http://www.w3.org/2000/svg">
<path d="M7.12872 52.1892C3.55623 30.5115 18.2334 10.0422 39.9111 6.46967L42.2383 6.08615C62.6307 2.72547 81.8865 16.5325 85.2471 36.9249C88.6078 57.3173 74.8008 76.5731 54.4084 79.9337L12.8302 86.7858L7.12872 52.1892Z" fill="#318D95"/>
<circle cx="47.7" cy="42.2181" r="30.5984" fill="white"/>
<path d="M51.2859 57.1284C51.2571 57.1708 51.2507 57.2019 51.2595 57.2243C51.3914 57.1859 51.5217 57.1452 51.652 57.1036C51.6456 56.9613 51.3386 57.0469 51.2859 57.1284Z" fill="black"/>
<path d="M55.5512 29.5264C55.5288 29.4355 55.5336 29.3056 55.5798 29.2642C55.7392 29.116 55.9313 29.4124 56.1154 29.2211C56.0859 29.5399 56.2947 29.4985 56.3648 29.3502C54.7423 28.1246 52.8926 27.2177 50.9219 26.6846C50.992 26.9117 51.051 27.1436 51.0972 27.3811C52.6902 27.852 54.1956 28.5764 55.5512 29.5264Z" fill="black"/>
<path d="M37.6582 54.9737C37.7158 55.0136 37.7733 55.0536 37.8309 55.0928C37.8189 55.0568 37.7997 55.0216 37.7645 54.9905C37.7469 54.9737 37.7086 54.9649 37.6582 54.9737Z" fill="black"/>
<path d="M30.4316 42.0171C30.2254 41.5263 30.9272 41.7581 30.4316 42.0171V42.0171Z" fill="black"/>
<path d="M35.5366 52.688C35.5956 52.6011 35.5286 52.3333 35.441 52.2003C35.4059 52.1469 35.3262 52.1198 35.3087 52.0648C35.3079 52.0608 35.3103 52.0528 35.3158 52.0425C35.1381 51.8401 34.9668 51.6321 34.7994 51.4193C34.7955 51.4368 34.7819 51.4504 34.7556 51.4528C34.7198 51.4559 34.7054 51.4105 34.7206 51.3723C34.7261 51.3563 34.7341 51.3476 34.7413 51.3428C33.9866 50.3697 33.3411 49.2963 32.8311 48.1328L32.125 48.0635C32.8781 49.89 33.9483 51.5133 35.2489 52.8904C35.3007 52.8258 35.3565 52.7485 35.4067 52.7222C35.4657 52.6904 35.5278 52.7023 35.5366 52.688Z" fill="black"/>
<path d="M31.9868 46.7638C31.9772 46.8909 32.129 46.8501 32.0979 46.739C32.0667 46.7326 32.0315 46.7366 31.9868 46.7638Z" fill="black"/>
<path d="M31.2929 38.6077C31.2689 38.7156 31.2481 38.8243 31.2266 38.933C31.2873 38.8411 31.3233 38.7372 31.2929 38.6077Z" fill="black"/>
<path d="M31.6074 37.4019C31.585 37.4746 31.5618 37.5465 31.541 37.6185C31.6233 37.5945 31.7145 37.5106 31.744 37.4762C31.7025 37.3907 31.6473 37.4186 31.6074 37.4019Z" fill="black"/>
<path d="M50.2988 57.2977C50.1793 57.3208 49.7975 57.2961 49.9298 57.5511C49.9338 57.5503 49.9378 57.5495 49.941 57.5488C50.0039 57.5105 49.9992 57.4452 50.0868 57.4157C50.1267 57.4459 50.1235 57.4754 50.1219 57.5121C50.294 57.4746 50.4662 57.4332 50.6375 57.3894C50.6335 57.1599 50.4199 57.273 50.2988 57.2977Z" fill="black"/>
<path d="M32.1822 37.6543C32.2667 37.3698 32.3607 37.0877 32.4619 36.8095C32.4611 36.8056 32.4572 36.8024 32.4588 36.7984C32.4643 36.7793 32.4723 36.7665 32.4819 36.7554C32.54 36.596 32.6014 36.4374 32.6652 36.2804C32.6397 36.219 32.5169 35.9218 32.5185 35.9513C32.5058 35.7728 32.7919 35.6158 32.9234 35.5552C32.9114 35.5927 32.9146 35.6357 32.9226 35.6811C33.0684 35.3607 33.2262 35.0468 33.3935 34.7384C33.3648 34.7487 33.3338 34.7575 33.2971 34.7623C33.2541 34.6332 33.4366 34.5654 33.529 34.4666C33.5513 34.4427 33.5752 34.406 33.5999 34.3694C33.6613 34.2642 33.7235 34.159 33.7864 34.0546C33.7561 34.0753 33.6988 34.045 33.7514 33.9343C33.7944 33.9757 33.8047 34.0076 33.8008 34.0299C33.9052 33.8594 34.0143 33.6912 34.1259 33.5255C34.0821 33.5079 34.0311 33.4912 34.0016 33.4617C33.9769 33.4362 33.8191 33.1892 33.8334 33.2449C33.7466 32.9246 34.3188 32.982 34.3355 32.6855C34.4686 32.7006 34.3642 32.8624 34.4 32.9453C34.4024 32.9509 34.4335 32.9859 34.4734 33.0274C35.6504 31.4096 37.151 30.0166 38.9106 28.9544C38.9082 28.8763 38.905 28.7982 38.905 28.7193C38.905 28.5519 38.913 28.3862 38.9249 28.2212C36.5055 29.6007 34.5379 31.5738 33.1584 33.8936C33.1887 33.9693 33.2541 34.014 33.2102 34.0761C33.1943 34.1 33.1059 34.1287 33.0214 34.1247C32.7552 34.5885 32.5121 35.0651 32.2938 35.5544C32.3177 35.5871 32.3432 35.6158 32.3751 35.6293C32.4843 35.6763 32.4619 35.5664 32.5839 35.6094C32.3751 35.6891 32.4619 35.8421 32.3783 35.9648C32.2874 36.1011 32.089 36.0437 32.1177 36.2485C32.2205 36.1266 32.3998 36.0222 32.4476 36.1752C32.4707 36.2501 32.3695 36.219 32.332 36.2987C32.2858 36.4031 32.3344 36.4964 32.1663 36.4693C32.246 36.6255 32.2396 36.7394 32.3464 36.8239C32.2006 36.8844 32.3081 37.043 32.1846 37.1124C32.1049 37.0367 32.0475 36.784 31.9567 36.7059C31.932 36.6844 31.8746 36.6972 31.8372 36.7012C31.7886 36.8374 31.7399 36.9737 31.6953 37.1124C31.6969 37.1116 31.6985 37.11 31.7001 37.1092C31.9129 37.047 31.9129 37.3698 31.9766 37.5188C32.0412 37.5228 32.0141 37.1642 32.148 37.2494C32.2946 37.3419 32.097 37.4654 32.1137 37.5539C32.1233 37.5873 32.1511 37.6192 32.1822 37.6543ZM35.2782 31.3746C35.2782 31.3706 35.3029 31.3188 35.33 31.3284C35.4392 31.3698 35.2201 31.5252 35.2782 31.3746ZM33.5051 33.7526C33.5067 33.5366 33.7314 33.7693 33.5051 33.7526V33.7526Z" fill="black"/>
<path d="M36.4581 53.2959C36.4134 53.241 36.3975 53.1963 36.3975 53.1573C36.2158 52.9891 36.0389 52.8154 35.8651 52.6377C35.8269 52.7421 35.9544 52.872 35.9321 52.9262C35.8731 53.0585 35.5448 52.9891 35.3926 53.0449C35.6858 53.3477 35.9935 53.6346 36.3098 53.912C36.3696 53.7223 36.6788 53.4968 36.6421 53.3852C36.6278 53.3438 36.5003 53.3509 36.4581 53.2959Z" fill="black"/>
<path d="M55.8295 29.7322C55.8055 29.7226 55.8055 29.6475 55.7848 29.6315C55.7352 29.5916 55.6968 29.6019 55.6641 29.6131C55.8223 29.7266 55.9798 29.8409 56.134 29.9608C56.1636 29.8881 56.1708 29.8186 56.1061 29.7562C56.0773 29.7274 55.9326 29.7722 55.8295 29.7322Z" fill="black"/>
<path d="M56.2279 29.7026C56.1712 29.7777 56.2911 29.8057 56.3238 29.7561C56.3542 29.7138 56.3047 29.6011 56.2279 29.7026Z" fill="black"/>
<path d="M56.4301 30.0489C56.4229 30.0585 56.3973 30.1152 56.3965 30.1712C56.4404 30.2071 56.486 30.2423 56.53 30.2783C56.6451 30.2231 56.5747 29.853 56.4301 30.0489Z" fill="black"/>
<path d="M61.8228 45.1475C61.8779 45.1195 61.8084 44.99 61.7668 45.0764C61.7484 45.1139 61.7828 45.1691 61.8228 45.1475Z" fill="black"/>
<path d="M62.3952 44.5331C62.2151 44.298 62.3673 44.1243 62.1856 43.949L62.125 43.9761C62.1784 44.1434 62.0828 44.2797 62.1449 44.4016C61.9146 44.4805 61.9856 44.6495 62.0764 44.7945C62.1824 44.9642 62.2159 45.2256 62.3035 45.3372C62.3577 45.0846 62.4063 44.8304 62.4486 44.5738C62.4262 44.561 62.4071 44.5483 62.3952 44.5331Z" fill="black"/>
<path d="M58.0885 31.2934C58.2556 31.3189 58.1852 30.9848 58.0669 31.1335C58.0294 31.1799 58.0022 31.2806 58.0885 31.2934Z" fill="black"/>
<path d="M58.3071 31.997C58.3055 32.001 58.3055 32.0058 58.3047 32.0098C58.3287 32.0369 58.351 32.0657 58.375 32.0937C58.4558 32.0705 58.3518 31.8763 58.3071 31.997Z" fill="black"/>
<path d="M40.9033 56.0905C40.8483 56.222 40.9846 56.1646 41.0762 56.2076C41.1041 56.2212 41.1304 56.2969 41.1703 56.3112C41.2348 56.3351 41.2914 56.2937 41.3472 56.3296C41.4301 56.3814 41.4388 56.4913 41.5177 56.4969C41.6261 56.5033 41.6739 56.4228 41.7289 56.3806C41.4572 56.2849 41.1894 56.1813 40.924 56.0706C40.9145 56.0729 40.9073 56.0785 40.9033 56.0905Z" fill="black"/>
<path d="M50.7441 57.0521C50.8153 57.0025 51.0143 56.9913 51.1334 56.9282C51.1422 56.9002 51.1686 56.8786 51.2069 56.8618C51.2221 56.8363 51.2309 56.8067 51.2237 56.7683C51.1078 56.7987 50.7569 56.8962 50.7441 57.0521Z" fill="black"/>
<path d="M40.167 56.4176C40.1925 56.4296 40.2181 56.4424 40.2437 56.4536C40.2765 56.3912 40.2853 56.3249 40.2413 56.2849C40.1606 56.3073 40.1646 56.3624 40.167 56.4176Z" fill="black"/>
<path d="M40.3477 56.5009C40.3844 56.5177 40.4212 56.5321 40.4588 56.5489C40.4276 56.4937 40.3964 56.4641 40.3477 56.5009Z" fill="black"/>
<path d="M46.6312 57.2464C46.6232 57.2703 46.6009 57.2966 46.5547 57.3245C46.542 57.2926 46.5364 57.2671 46.5348 57.2464C46.2009 57.2408 45.8686 57.2264 45.5378 57.1985C45.5267 57.3045 45.5219 57.456 45.5363 57.4974C45.6207 57.742 45.8471 57.6416 45.918 57.7628C45.922 57.7691 45.9212 57.8034 45.9164 57.8448C46.0232 57.8512 46.1292 57.8576 46.2359 57.8616C46.2607 57.8297 46.2949 57.809 46.3332 57.809C46.3403 57.8273 46.3443 57.8472 46.3459 57.8672C47.1094 57.8887 47.8808 57.8536 48.6554 57.7612C48.7136 57.6823 48.8004 57.6217 48.9407 57.6082C48.7773 57.5946 48.4697 57.2966 48.7518 57.2344C48.8291 57.2169 48.9837 57.4544 49.1152 57.291C49.269 57.6839 49.3726 57.2759 49.5057 57.1914C49.5678 57.1507 49.7424 57.1483 49.9026 57.1061C49.9065 57.0312 49.9591 56.9507 50.0093 56.9021C48.8785 57.1475 47.7469 57.2583 46.6312 57.2464ZM47.3349 57.7771C47.3046 57.3635 47.8401 57.6839 47.3349 57.7771V57.7771ZM47.6042 57.5149C47.6074 57.4711 47.6106 57.4273 47.6776 57.4097C47.7158 57.4671 47.664 57.4926 47.6042 57.5149Z" fill="black"/>
<path d="M40.5532 56.3396C40.4949 56.4323 40.5916 56.489 40.6468 56.4443C40.6931 56.4043 40.6012 56.2628 40.5532 56.3396Z" fill="black"/>
<path d="M50.395 56.8105C50.3471 56.8225 50.2991 56.8353 50.252 56.8473C50.2559 56.8497 50.2599 56.8537 50.2639 56.8569C50.3111 56.8393 50.3567 56.8273 50.395 56.8105Z" fill="black"/>
<path d="M45.3579 57.4781C45.3021 57.4031 45.0057 57.38 44.9236 57.4271C44.8287 57.4844 44.8702 57.643 44.765 57.6669C44.6957 57.6845 44.5681 57.6215 44.5299 57.4087C44.4135 57.4765 44.2876 57.3107 44.2167 57.3529C44.0749 57.439 44.2358 57.5968 44.3084 57.6725C44.6542 57.7275 45.0025 57.7713 45.3531 57.804C45.3611 57.7968 45.3698 57.7896 45.3722 57.7841C45.4248 57.6757 45.3428 57.7458 45.3412 57.6056C45.3404 57.537 45.3834 57.5139 45.3579 57.4781Z" fill="black"/>
<path d="M41.2018 56.4886C41.157 56.5173 41.0962 56.5629 41.1554 56.6052C41.2713 56.69 41.3288 56.4062 41.2018 56.4886Z" fill="black"/>
<path d="M43.409 57.3248C43.2539 57.4647 43.5888 57.4087 43.4698 57.2984C43.4418 57.2745 43.4178 57.3176 43.409 57.3248Z" fill="black"/>
<path d="M61.9615 45.4504C61.8395 45.5787 62.0356 45.8162 61.8794 45.9206C61.6347 46.0856 61.7088 45.6815 61.5957 45.6608C61.5949 45.6608 61.5941 45.6608 61.5925 45.6608C61.5614 45.7859 61.5319 45.9111 61.4977 46.0354C61.5168 46.0489 61.5343 46.0577 61.5359 46.0728C61.5439 46.1677 61.4475 46.2378 61.4658 46.2968C61.4937 46.3876 61.6706 46.4545 61.6913 46.535C61.6961 46.5542 61.5829 46.951 61.5423 46.963C61.3439 47.0196 61.4562 46.649 61.3813 46.598C61.3646 46.5868 61.3494 46.5829 61.3335 46.5821C60.0066 50.7818 56.8867 54.3313 52.6145 56.09C52.6097 56.1697 52.5204 56.2996 52.4463 56.1713C52.4439 56.1673 52.4439 56.1658 52.4423 56.1626C52.0718 56.31 51.69 56.4407 51.3027 56.561C51.3043 56.5977 51.3019 56.6463 51.3402 56.6949C51.345 56.7005 51.3537 56.7037 51.3657 56.7069C51.3641 56.6981 51.3633 56.6885 51.3633 56.6742C51.3633 56.6694 51.4 56.6614 51.4039 56.6566C51.4908 56.5531 51.4494 56.6702 51.4079 56.7164C51.4406 56.7244 51.4804 56.7355 51.5155 56.7626C51.588 56.8192 51.5267 56.8646 51.6095 56.8662C51.6526 56.867 51.6892 56.8407 51.7235 56.8073C51.698 56.7905 51.6868 56.7467 51.698 56.7212C51.7331 56.7077 51.7554 56.7363 51.7634 56.7674C51.8008 56.7292 51.8391 56.6901 51.8861 56.6726C51.9243 56.6574 52.0136 56.7061 52.0837 56.6821C52.1809 56.6471 52.204 56.5586 52.2678 56.5523C52.4192 56.5379 52.4136 56.6678 52.5196 56.6829C52.5874 56.6917 52.8416 56.5841 52.8782 56.62C52.887 56.6288 52.8918 56.6383 52.895 56.6487C53.6417 56.3387 54.3533 55.9769 55.0291 55.5673C54.9709 55.5442 54.9375 55.4987 54.994 55.4342C54.9996 55.427 55.1933 55.3728 55.2371 55.4406C58.8065 53.2004 61.3072 49.6358 62.2508 45.6082C62.1918 45.6042 62.1217 45.617 62.0659 45.5732C62.0029 45.5269 62.093 45.4034 61.9615 45.4504ZM53.1428 55.8892C52.8782 55.9936 53.197 56.1179 53.1428 55.8892V55.8892ZM53.3006 55.8669C53.3755 55.8199 53.4273 55.8334 53.4807 55.8358C53.4871 55.9386 53.3492 55.9578 53.3006 55.8669ZM54.6378 55.6143C54.5884 55.6509 54.539 55.78 54.5008 55.796C54.4641 55.8111 54.0664 55.749 54.0226 55.694C54.2489 55.5497 54.5502 55.4517 54.7821 55.5027C54.8363 55.6342 54.708 55.5609 54.6378 55.6143ZM55.4196 54.9791C55.3439 54.9026 55.3678 54.866 55.4794 54.7847C55.771 54.5679 55.5495 55.1114 55.4196 54.9791ZM58.0685 52.5047C57.9243 52.1421 58.4989 52.3637 58.0685 52.5047V52.5047Z" fill="black"/>
<path d="M41.9904 56.7429C42.055 56.825 42.5116 56.8338 42.6797 56.825C42.777 56.8202 42.8304 56.7828 42.8638 56.7302C42.5467 56.6457 42.2327 56.5517 41.9219 56.4473C41.9737 56.5453 41.9601 56.7063 41.9904 56.7429Z" fill="black"/>
<path d="M44.644 57.3357C44.7245 57.3541 44.6926 57.2584 44.7763 57.2521C44.8465 57.2489 44.797 57.3596 44.8927 57.2983C44.9357 57.2704 44.9126 57.213 44.9692 57.1405C44.7835 57.1174 44.5986 57.0895 44.4145 57.0608C44.3683 57.1357 44.3205 57.2066 44.252 57.2672C44.4599 57.0743 44.5476 57.3134 44.644 57.3357Z" fill="black"/>
<path d="M38.4688 54.8457C38.5604 55.0665 38.8043 55.0441 38.8672 55.2011C38.8911 55.2609 38.7987 55.4402 38.8823 55.508C39.0728 55.6618 39.0234 55.2553 39.0816 55.2498C39.229 55.2394 39.1461 55.4785 39.2019 55.6323C39.221 55.6809 39.2808 55.7271 39.2856 55.7646C39.292 55.814 39.2673 55.8873 39.2465 55.9574C39.3884 56.0339 39.5294 56.1112 39.6737 56.1837C39.9638 56.1766 40.3144 56.1383 40.528 56.061C40.5686 56.0467 40.622 56.0068 40.6722 55.9646C39.9223 55.6355 39.2011 55.245 38.5134 54.8003C38.4982 54.8051 38.4839 54.8178 38.4688 54.8457Z" fill="black"/>
<path d="M51.3205 26.2832C51.3165 26.2936 51.3109 26.3016 51.3053 26.3088C51.3973 26.3336 51.4884 26.3599 51.5795 26.3871C51.5739 26.3711 51.5683 26.3543 51.5659 26.3392C51.5499 26.2608 51.5675 26.1034 51.6131 26.0434C51.498 26.0099 51.3829 25.9787 51.267 25.9475C51.2614 25.9923 51.2286 26.0538 51.2446 26.1305C51.2662 26.2424 51.3677 26.1665 51.3205 26.2832Z" fill="black"/>
<path d="M51.8589 26.3842C51.9362 26.4257 52.0494 26.1993 52.1371 26.2894C52.1849 26.3388 52.0877 26.4846 52.0582 26.5014C52.0398 26.5109 52.0183 26.5133 51.9968 26.5133C52.2 26.5787 52.4024 26.6472 52.6025 26.7205C52.5722 26.6719 52.557 26.6034 52.5945 26.5683C52.6606 26.5101 52.7611 26.6974 52.7021 26.758C53.2336 26.9572 53.7532 27.1835 54.2569 27.4346C54.2457 27.3931 54.2895 27.3493 54.4553 27.3732C54.4386 27.4473 54.4051 27.4808 54.37 27.4911C55.0538 27.8378 55.7096 28.2315 56.3344 28.6674C56.3607 28.606 56.4643 28.5439 56.544 28.508C56.5727 28.4953 56.599 28.4769 56.6245 28.4578C56.3169 28.2402 56.0013 28.0322 55.6794 27.8354C55.657 27.8968 55.6435 27.9637 55.5797 27.9924C55.5447 27.9366 55.5869 27.8585 55.6491 27.8171C55.3454 27.6322 55.0354 27.4585 54.7199 27.2927C54.6497 27.3349 54.5095 27.3318 54.6059 27.2329C54.5477 27.2027 54.488 27.174 54.429 27.1445C54.3716 27.2178 54.26 27.2568 54.1875 27.2855C54.2282 27.2321 54.2481 27.1445 54.2792 27.0696C54.1907 27.0265 54.1015 26.9843 54.0122 26.9429C54.0011 26.9413 53.9907 26.9365 53.9811 26.9285C53.9429 26.9102 53.9046 26.8919 53.8656 26.8751C53.8664 26.9644 53.8377 27.0409 53.7668 27.0186C53.7181 27.0034 53.6998 26.8998 53.7158 26.809C53.3444 26.644 52.9659 26.4934 52.5809 26.3555C52.573 26.3986 52.5746 26.444 52.6017 26.495C52.4574 26.5062 52.5092 26.4169 52.5379 26.3396C52.2821 26.2495 52.0231 26.1643 51.7617 26.0862C51.8287 26.1611 51.8836 26.2814 51.8589 26.3842Z" fill="black"/>
<path d="M51.1473 26.2498C51.1458 26.2535 51.1429 26.2572 51.1406 26.2609C51.1466 26.2624 51.1525 26.2646 51.1585 26.2661C51.1548 26.2609 51.151 26.2557 51.1473 26.2498Z" fill="black"/>
<path d="M36.7026 55.3811C36.6986 55.3532 36.7695 55.2688 36.8476 55.1875C36.7058 55.0775 36.5655 54.9643 36.4276 54.8496C36.4316 54.903 36.4308 54.9619 36.438 55.0114C36.297 55.0361 36.2053 54.7954 36.2714 54.7173C36.1527 54.6153 36.0348 54.5125 35.9184 54.4081C35.9463 54.4655 35.9407 54.5428 35.8857 54.5818C35.7375 54.687 35.5431 54.428 35.7614 54.3451C35.7941 54.3324 35.822 54.3348 35.8467 54.3435C35.5144 54.0399 35.1948 53.7219 34.888 53.3928C34.8713 53.4685 34.9223 53.502 34.8593 53.5562C34.8378 53.5753 34.7222 53.5713 34.7015 53.5976C34.6824 53.6223 34.6904 53.6478 34.6959 53.6821C35.3598 54.3898 36.0834 55.0392 36.8604 55.6234C36.8707 55.5811 36.8763 55.5445 36.8675 55.5198C36.8604 55.4983 36.7121 55.4353 36.7026 55.3811Z" fill="black"/>
<path d="M62.5451 47.458C62.4439 47.7561 62.3339 48.0501 62.2168 48.3394C62.263 48.3824 62.326 48.3872 62.3754 48.3322C62.4136 48.2892 62.3323 48.2103 62.3499 48.1545C62.3762 48.0653 62.5148 48.0939 62.522 47.9664C62.5244 47.929 62.4766 47.8732 62.4814 47.8086C62.4877 47.7058 62.5754 47.6222 62.5674 47.5242C62.565 47.5026 62.5555 47.4803 62.5451 47.458Z" fill="black"/>
<path d="M61.9783 49.1151C61.9488 49.0792 62.0253 48.99 62.0109 48.9653C62.0006 48.9477 61.983 48.9422 61.9607 48.939C61.8994 49.0752 61.8356 49.2107 61.7703 49.3454C61.7838 49.4028 61.8117 49.4578 61.7982 49.504C61.7774 49.5709 61.6922 49.61 61.6204 49.6458C60.0163 52.7905 57.4303 55.3533 54.2697 56.9304C54.3725 57.0715 54.2402 57.3743 54.0147 57.2922C54.045 57.1623 54.1502 57.089 54.1924 56.9687C54.0832 57.0221 53.974 57.0747 53.8641 57.1257C53.8681 57.1328 53.8697 57.1408 53.8673 57.1488C53.8593 57.1751 53.8059 57.1799 53.7876 57.1623C53.7063 57.1998 53.6242 57.2356 53.5421 57.2715C53.6648 57.3177 53.6609 57.517 53.5262 57.5616C53.4847 57.5751 53.3803 57.552 53.307 57.5074C53.2863 57.548 53.1883 57.5456 53.2345 57.4827C53.2401 57.4763 53.2465 57.4699 53.2528 57.466C53.2369 57.4476 53.2297 57.4269 53.2289 57.4054C52.6368 57.6516 52.0264 57.8636 51.4016 58.0397C51.3514 58.1146 51.2661 58.1712 51.2024 58.1385C51.1856 58.129 51.1801 58.1154 51.1777 58.1003C49.8397 58.4573 48.4355 58.6486 46.9875 58.6534C46.954 58.7346 46.8496 58.8088 46.8082 58.788C46.7572 58.7641 46.7675 58.7028 46.8114 58.6526C45.2287 58.6398 43.6986 58.4031 42.2514 57.9728C42.2076 58.0796 42.2395 58.0453 42.1279 58.1242C42.0403 58.1872 42.0403 58.2629 41.9805 58.2374C41.8434 58.1768 41.9159 58.0174 42.0148 57.9011C41.8554 57.8509 41.6976 57.7975 41.5406 57.7433C41.5215 57.7481 41.5007 57.7584 41.4792 57.7815C41.5517 57.9513 41.4681 58.0087 41.3438 58.0318C43.0954 58.6526 44.9801 58.9912 46.9413 58.9912C47.0297 58.9912 47.1182 58.9897 47.2067 58.9881C47.2553 58.9347 47.3039 58.8207 47.4736 58.8558C47.4433 58.9052 47.3987 58.8988 47.3939 58.9394C47.3915 58.9586 47.3947 58.9721 47.3995 58.9841C49.1567 58.9371 50.847 58.6183 52.4304 58.0692C52.4647 57.9808 52.5316 57.9035 52.5763 57.9576C52.5882 57.972 52.5898 57.9927 52.5842 58.015C56.882 56.4778 60.3773 53.2391 62.2516 49.1135C62.1655 49.1693 62.0269 49.1733 61.9783 49.1151ZM51.1713 58.4151C51.1378 58.0987 51.5395 58.3991 51.1713 58.4151V58.4151Z" fill="black"/>
<path d="M37.4627 55.6421C37.4484 55.7202 37.3217 55.7792 37.2292 55.8836C37.1782 55.7082 37.1392 55.7305 37.0938 55.7919C37.5305 56.1091 37.9823 56.4055 38.4493 56.6797C38.5983 56.6358 38.7258 56.5968 38.7434 56.5562C38.7529 56.5346 38.7059 56.4812 38.6884 56.4286C38.2676 56.1848 37.858 55.9218 37.4627 55.6421Z" fill="black"/>
<path d="M31.6983 35.3022C31.7971 35.2281 31.8911 35.1429 31.9007 35.111C31.9421 34.9835 31.8282 34.9301 31.923 34.8894C31.9565 34.8751 32.0457 34.9763 32.0935 35.0632C32.6586 33.8909 33.359 32.7959 34.1727 31.7974C34.2667 31.5408 34.3408 31.2794 34.3982 31.0125C33.2618 32.2875 32.3167 33.7363 31.6074 35.3134L31.6983 35.3022Z" fill="black"/>
<path d="M62.3248 48.9439C62.3567 48.8704 62.3895 48.7968 62.4207 48.7233C62.4071 48.7169 62.3903 48.7121 62.3711 48.7137C62.256 48.7209 62.3144 48.8328 62.3248 48.9439Z" fill="black"/>
<path d="M41.1445 57.6028C41.0934 57.6364 41.1373 57.7243 41.091 57.7674C41.0302 57.8242 40.9271 57.7738 40.8672 57.8538C40.8672 57.8562 40.868 57.8578 40.868 57.8602C40.9247 57.8825 40.9815 57.9041 41.039 57.9249C41.0398 57.9233 41.0398 57.9201 41.0406 57.9193C41.1006 57.833 41.2996 57.7403 41.2149 57.6292C41.1917 57.6212 41.1685 57.6116 41.1445 57.6028Z" fill="black"/>
<path d="M39.6857 56.9658C39.6817 56.9674 39.6777 56.9674 39.6738 56.9698C39.6594 56.9778 39.6506 56.9866 39.6426 56.9954C39.6753 57.0066 39.7161 57.0322 39.6785 57.0881C39.6761 57.0921 39.6722 57.0937 39.6666 57.0945C39.7057 57.1233 39.7633 57.1385 39.7872 57.1169C39.8152 57.0905 39.8128 57.0521 39.796 57.0194C39.7585 57.0026 39.7225 56.9842 39.6857 56.9658Z" fill="black"/>
<path d="M40.2519 57.4857C40.2389 57.5076 40.2251 57.5473 40.2624 57.5578C40.3596 57.587 40.3134 57.3893 40.2519 57.4857Z" fill="black"/>
<path d="M39.983 57.362C39.8935 57.4148 40.0326 57.4236 40.0445 57.4084C40.0909 57.3453 39.9782 57.3644 39.983 57.362Z" fill="black"/>
<path d="M62.7474 46.9884C62.7282 46.9876 62.7106 46.9932 62.693 47.0019C62.6643 47.0963 62.6339 47.1906 62.6035 47.2841C62.6403 47.2641 62.6779 47.2481 62.6938 47.2513C62.7929 47.2689 62.7786 47.3512 62.7834 47.4935C62.8353 47.5271 62.8521 47.4799 62.9033 47.4583C62.9304 47.3744 62.9584 47.2913 62.9848 47.2066C62.928 47.1402 62.793 46.9892 62.7474 46.9884Z" fill="black"/>
<path d="M59.5409 31.5992L59.9362 31.5467C59.0125 30.4206 57.9471 29.4149 56.7652 28.5598C56.7262 28.606 56.6991 28.6706 56.625 28.6961C56.5907 28.7088 56.511 28.7327 56.4473 28.7463C57.5964 29.5623 58.6356 30.5226 59.5409 31.5992Z" fill="black"/>
<path d="M31.0547 47.6663C31.6181 49.2952 32.4238 50.8118 33.4311 52.1705C33.4327 52.1617 33.4335 52.1522 33.4359 52.1418C33.4614 52.0151 33.5761 51.9705 33.6486 51.8964C32.7003 50.6014 31.9385 49.1621 31.3974 47.6201L31.0547 47.6663Z" fill="black"/>
<path d="M34.8594 30.5133C34.8873 30.5261 34.9 30.5587 34.8865 30.6297C34.9678 30.6273 35.0219 30.6615 35.0785 30.6934C35.0698 30.5635 35.2546 30.4512 35.2937 30.5524C36.3791 29.4662 37.6151 28.533 38.9667 27.7823C38.9858 27.6396 39.0089 27.4986 39.0368 27.3591C37.4836 28.1887 36.0747 29.2566 34.8594 30.5133ZM36.3329 29.1849C36.4221 29.1458 36.6835 29.1299 36.7154 29.1857C36.7983 29.3315 36.3655 29.353 36.3329 29.1849Z" fill="black"/>
<path d="M50.9732 26.2196C50.9748 26.2076 50.9772 26.1972 50.9764 26.1844C50.974 26.1484 50.8949 26.0557 50.8997 26.0325C50.9133 25.9702 50.9948 25.9214 51.0764 25.8958C50.9077 25.8527 50.7375 25.8127 50.5664 25.7751C50.6272 25.903 50.6847 26.0317 50.7375 26.1644C50.8158 26.1828 50.8949 26.1996 50.9732 26.2196Z" fill="black"/>
<path d="M63.2672 45.8214C63.1609 45.8438 63.0754 45.9885 63.0762 46.0133C63.0786 46.102 63.1897 46.09 63.2904 46.0812C63.3104 45.9965 63.3296 45.9109 63.3487 45.8262C63.3224 45.8222 63.2936 45.8166 63.2672 45.8214Z" fill="black"/>
<path d="M63.0453 46.6542C62.9711 46.5435 62.9632 46.4439 62.9393 46.2877C62.9281 46.2861 62.913 46.2869 62.8962 46.2901C62.8564 46.4455 62.8134 46.5985 62.7695 46.7523C62.7974 46.9037 62.9002 47.0599 63.0301 47.0599C63.0636 46.9491 63.0963 46.8391 63.1273 46.7276C63.0987 46.7092 63.0684 46.6877 63.0453 46.6542Z" fill="black"/>
<path d="M31.5723 35.3857C31.6106 35.3633 31.6538 35.3329 31.6962 35.3018L31.6058 35.3137C31.5954 35.3377 31.5835 35.3617 31.5723 35.3857Z" fill="white"/>
<path d="M34.3145 48.3594C34.3145 48.3594 34.3344 48.4072 34.3647 48.4789C34.3798 48.5148 34.3973 48.5562 34.4165 48.6016C34.426 48.6239 34.4356 48.6471 34.4451 48.671C34.4555 48.6941 34.4643 48.7188 34.4762 48.7419C34.5735 48.9244 34.6699 49.1077 34.6699 49.1077L34.677 49.1212L34.6508 49.1364L34.6444 49.1228C34.6444 49.1228 34.5535 48.9355 34.4627 48.7483C34.4515 48.7252 34.4436 48.6997 34.434 48.6765C34.4252 48.6526 34.4157 48.6295 34.4077 48.6064C34.3902 48.561 34.3742 48.5188 34.3607 48.4821C34.3328 48.4072 34.3145 48.3594 34.3145 48.3594Z" fill="#318D95"/>
<path d="M35.1294 49.7933C35.1294 49.7933 35.2561 49.9575 35.382 50.1224C35.5143 50.281 35.6458 50.4396 35.6458 50.4396L35.6713 50.4699L35.6099 50.5217L35.5852 50.4906C35.5852 50.4906 35.4561 50.3264 35.327 50.1631C35.2051 49.9949 35.0831 49.8276 35.0831 49.8276L35.0664 49.8045L35.111 49.771L35.1294 49.7933Z" fill="#318D95"/>
<path d="M36.2033 51.0512L36.7954 51.633L36.8392 51.6768L36.75 51.7645L36.7069 51.7199L36.1308 51.123L36.0957 51.0863L36.1674 51.0154L36.2033 51.0512Z" fill="#318D95"/>
<path d="M37.4057 52.1825L38.0408 52.7172L38.103 52.7698L37.9954 52.895L37.934 52.8408L37.3108 52.2933L37.2559 52.2455L37.3499 52.1355L37.4057 52.1825Z" fill="#318D95"/>
<path d="M38.6898 53.2291L39.3592 53.7192L39.4357 53.7758L39.3209 53.9296L39.2452 53.8722L38.5838 53.3702L38.5137 53.3168L38.6189 53.1765L38.6898 53.2291Z" fill="#318D95"/>
<path d="M40.0394 54.1794L40.7478 54.6121L40.841 54.6687L40.7247 54.8552L40.6331 54.797L39.9326 54.3523L39.8457 54.2981L39.9525 54.126L40.0394 54.1794Z" fill="#318D95"/>
<path d="M41.4692 54.9982L42.2255 55.3401L42.337 55.3903L42.2334 55.615L42.1227 55.5624L41.372 55.2086L41.2676 55.1592L41.364 54.9512L41.4692 54.9982Z" fill="#318D95"/>
<path d="M42.9867 55.613C42.9867 55.613 43.1859 55.6704 43.3852 55.7278C43.582 55.7748 43.7788 55.821 43.7788 55.821L43.9087 55.8521L43.8521 56.1151L43.7222 56.0832C43.7222 56.0832 43.5158 56.0322 43.3094 55.9812C43.111 55.9206 42.9126 55.8608 42.9126 55.8608L42.7891 55.8234L42.8616 55.5771L42.9867 55.613Z" fill="#318D95"/>
<path d="M44.5835 55.9433C44.5835 55.9433 44.7907 55.9552 44.9979 55.9672C45.1979 55.9656 45.3987 55.9632 45.3987 55.9632L45.5398 55.9616L45.5509 56.2445H45.4099C45.4099 56.2445 45.1955 56.2445 44.9812 56.2445C44.774 56.231 44.5668 56.2166 44.5668 56.2166L44.4297 56.2078L44.4464 55.9353L44.5835 55.9433Z" fill="#318D95"/>
<path d="M46.1918 55.8725C46.1918 55.8725 46.3935 55.8263 46.5959 55.7793C46.7863 55.7203 46.976 55.6605 46.976 55.6605L47.1171 55.6167L47.2143 55.8972L47.0724 55.9394C47.0724 55.9394 46.866 56.0016 46.6596 56.0638C46.4572 56.1084 46.2548 56.1538 46.2548 56.1538L46.1137 56.1849L46.0508 55.9044L46.1918 55.8725Z" fill="#318D95"/>
<path d="M47.721 55.3427C47.721 55.3427 47.9051 55.247 48.0892 55.1514C48.2645 55.0502 48.4398 54.949 48.4398 54.949L48.5705 54.8733L48.7275 55.1315L48.5968 55.2064C48.5968 55.2064 48.4127 55.3124 48.2278 55.4184C48.0437 55.514 47.8588 55.6088 47.8588 55.6088L47.7258 55.6774L47.5879 55.412L47.721 55.3427Z" fill="#318D95"/>
<path d="M49.1015 54.4912C49.1015 54.4912 49.2617 54.3589 49.4219 54.2266C49.5661 54.0888 49.7096 53.9517 49.7096 53.9517L49.8203 53.8457L50.0411 54.0593L49.9295 54.1645C49.9295 54.1645 49.7725 54.3135 49.6155 54.4617C49.4554 54.5932 49.2944 54.7247 49.2944 54.7247L49.1772 54.8211L48.9844 54.5868L49.1015 54.4912Z" fill="#318D95"/>
<path d="M50.2082 53.3332C50.2082 53.3332 50.2345 53.2886 50.2735 53.2217C50.2831 53.2049 50.2942 53.1866 50.3054 53.1675C50.3181 53.1475 50.3253 53.1292 50.3357 53.1085C50.3556 53.0686 50.3771 53.0256 50.3986 52.9826C50.4177 52.9372 50.4361 52.8917 50.4536 52.8495C50.4616 52.828 50.4719 52.8081 50.4783 52.7881C50.4847 52.7682 50.4911 52.7491 50.4966 52.7316C50.5198 52.6622 50.5349 52.616 50.5349 52.616L50.5835 52.4678L50.8831 52.553L50.8345 52.7013C50.8345 52.7013 50.817 52.7539 50.7915 52.832C50.7851 52.8519 50.778 52.8726 50.7708 52.8949C50.7636 52.9172 50.7525 52.9395 50.7437 52.9635C50.7238 53.0105 50.703 53.0615 50.6815 53.1117C50.656 53.1619 50.6313 53.2113 50.6074 53.2583C50.5955 53.2806 50.5843 53.3061 50.5731 53.3237C50.562 53.3428 50.5508 53.3611 50.5413 53.3779C50.5014 53.4448 50.4751 53.4894 50.4751 53.4894L50.3962 53.6225L50.1309 53.4663L50.2082 53.3332Z" fill="#318D95"/>
<path d="M50.5583 51.8891C50.5583 51.8891 50.5543 51.8771 50.5464 51.8556C50.5424 51.8453 50.5384 51.8317 50.5328 51.8174C50.528 51.8022 50.5217 51.7839 50.5153 51.7728C50.5089 51.7592 50.5017 51.7449 50.4946 51.7297C50.489 51.7146 50.4762 51.6978 50.4659 51.6803C50.4547 51.6636 50.4459 51.6437 50.4316 51.6285C50.4188 51.6118 50.4053 51.595 50.3926 51.5783C50.3774 51.5632 50.3623 51.548 50.3479 51.5329C50.3344 51.5169 50.3168 51.505 50.3017 51.4922C50.2858 51.4803 50.2722 51.4659 50.2555 51.4572C50.2395 51.4476 50.2252 51.438 50.2117 51.4293C50.1854 51.411 50.1583 51.4022 50.1415 51.3926C50.1248 51.3839 50.1144 51.3791 50.1144 51.3791L49.9766 51.3105L50.0945 51.03L50.2332 51.0962C50.2332 51.0962 50.2467 51.1025 50.2706 51.1137C50.2937 51.1265 50.3296 51.1392 50.3671 51.1639C50.3862 51.1759 50.4069 51.1894 50.4292 51.203C50.4515 51.2165 50.4722 51.2356 50.4946 51.2524C50.5169 51.2699 50.54 51.2882 50.5607 51.3097C50.5814 51.3313 50.6037 51.352 50.6245 51.3743C50.6436 51.3982 50.6619 51.4221 50.681 51.4452C50.701 51.4683 50.7137 51.4946 50.7296 51.5177C50.744 51.5424 50.7599 51.564 50.7711 51.5903C50.783 51.615 50.7942 51.6389 50.8038 51.6604C50.8149 51.6835 50.8197 51.6994 50.8253 51.7146C50.8309 51.7297 50.8348 51.7425 50.8388 51.7528C50.846 51.7743 50.8508 51.7863 50.8508 51.7863L50.9018 51.9321L50.6093 52.0349L50.5583 51.8891Z" fill="#318D95"/>
<path d="M49.3978 51.3429C49.3978 51.3429 49.3476 51.3565 49.2727 51.3772C49.2631 51.3796 49.2535 51.3828 49.2432 51.3852L49.228 51.3892H49.2272C49.224 51.39 49.2519 51.3812 49.24 51.3852H49.2392L49.2376 51.386L49.2336 51.3876L49.2256 51.3908C49.2049 51.3987 49.1826 51.4067 49.1603 51.4155C49.1372 51.4242 49.1141 51.433 49.0902 51.4418C49.0702 51.4513 49.0495 51.4617 49.0296 51.472C49.0089 51.4816 48.989 51.492 48.9682 51.5015C48.9483 51.5119 48.9284 51.5254 48.9085 51.5366C48.8702 51.5597 48.8328 51.5788 48.8041 51.6011C48.7451 51.6426 48.706 51.6705 48.706 51.6705L48.5825 51.7573L48.3984 51.5183L48.5212 51.4306C48.5212 51.4306 48.5666 51.3979 48.6343 51.3501C48.667 51.3246 48.7108 51.3015 48.7555 51.2744C48.7786 51.2609 48.8009 51.2465 48.8256 51.2338C48.8511 51.221 48.8774 51.2083 48.9037 51.1955C48.93 51.1828 48.9563 51.17 48.9826 51.1581C49.0065 51.1493 49.0296 51.1397 49.0527 51.1318C49.0758 51.123 49.0973 51.115 49.1181 51.1071L49.126 51.1039L49.13 51.1023L49.1467 51.0967L49.1619 51.0927C49.1722 51.0895 49.1818 51.0871 49.1914 51.0847C49.2663 51.064 49.3165 51.0497 49.3165 51.0497L49.4631 51.009L49.5444 51.3031L49.3978 51.3429Z" fill="#318D95"/>
<path d="M48.2063 52.2364C48.2063 52.2364 48.1824 52.2826 48.1474 52.352C48.1386 52.3695 48.129 52.3878 48.1187 52.4077C48.1067 52.4285 48.1035 52.446 48.0948 52.4667C48.0796 52.5066 48.0637 52.5496 48.0469 52.5918C48.0358 52.6372 48.0238 52.6835 48.0135 52.7265C48.0087 52.748 48.0007 52.7687 47.9991 52.7887C47.9967 52.8086 47.9943 52.8277 47.9928 52.8452C47.984 52.9154 47.9784 52.9616 47.9784 52.9616L47.9601 53.109L47.666 53.0947L47.682 52.9472C47.682 52.9472 47.6883 52.8907 47.6971 52.8062C47.6995 52.7847 47.7027 52.7624 47.7051 52.7377C47.7075 52.713 47.7162 52.689 47.721 52.6635C47.7338 52.6125 47.7473 52.5576 47.7616 52.5026C47.7824 52.4484 47.8031 52.3942 47.8222 52.3432C47.8326 52.3193 47.8405 52.2906 47.8517 52.2723C47.8621 52.2523 47.8716 52.234 47.8804 52.2165C47.9155 52.1471 47.9394 52.1009 47.9394 52.1009L48.0071 51.967L48.2741 52.1033L48.2063 52.2364Z" fill="#318D95"/>
<path d="M48.1442 53.6755C48.1442 53.6755 48.1713 53.7194 48.212 53.7863C48.2223 53.803 48.2335 53.8206 48.2446 53.8397C48.2566 53.858 48.2701 53.8724 48.2829 53.8907C48.31 53.925 48.3371 53.9616 48.3666 53.9983C48.4 54.0341 48.4327 54.07 48.4638 54.1035C48.4797 54.1202 48.4933 54.1369 48.51 54.1513C48.5259 54.1656 48.5403 54.1792 48.5538 54.1919C48.608 54.2421 48.6447 54.2756 48.6447 54.2756L48.7491 54.3712L48.5682 54.5864L48.463 54.4916C48.463 54.4916 48.4223 54.4549 48.3618 54.3999C48.3466 54.3864 48.3299 54.3712 48.3132 54.3553C48.2948 54.3402 48.2789 54.321 48.2614 54.3027C48.2263 54.2652 48.1888 54.2254 48.1506 54.1848C48.1147 54.1409 48.0797 54.0947 48.047 54.0525C48.0311 54.0309 48.0135 54.0102 48.0016 53.9911C47.9896 53.972 47.9785 53.9544 47.9681 53.9377C47.9267 53.8716 47.8996 53.8277 47.8996 53.8277L47.8223 53.705L48.0693 53.552L48.1442 53.6755Z" fill="#318D95"/>
<path d="M49.3067 54.7087C49.3067 54.7087 49.3537 54.731 49.4239 54.7637C49.4589 54.7796 49.5004 54.8011 49.5426 54.8171C49.5856 54.8346 49.6311 54.8529 49.6765 54.8713C49.7227 54.8888 49.7705 54.9039 49.8151 54.9199C49.859 54.9358 49.9012 54.9486 49.9371 54.9581C50.0088 54.9788 50.0574 54.9924 50.0574 54.9924L50.1865 55.0291L50.1212 55.2881L49.9921 55.2522C49.9921 55.2522 49.9403 55.2378 49.8622 55.2163C49.8231 55.206 49.7777 55.1932 49.7307 55.1757C49.6829 55.1597 49.6319 55.143 49.5809 55.1247C49.5299 55.1048 49.4796 55.0848 49.4318 55.0657C49.3832 55.0474 49.3434 55.0275 49.3075 55.0115C49.2366 54.9788 49.1896 54.9573 49.1896 54.9573L49.0645 54.9L49.1808 54.6489L49.3067 54.7087Z" fill="#318D95"/>
<path d="M50.84 55.0924C50.84 55.0924 50.8918 55.0908 50.9699 55.0892C50.9891 55.0884 51.0106 55.0884 51.0329 55.0876C51.056 55.0876 51.0767 55.0845 51.0998 55.0829C51.1453 55.0789 51.1939 55.0749 51.2433 55.0701C51.3421 55.055 51.4417 55.0438 51.515 55.0263C51.5883 55.0111 51.6377 55.0008 51.6377 55.0008L51.7589 54.9761L51.8171 55.2136L51.6967 55.2407C51.6967 55.2407 51.6441 55.2526 51.566 55.2701C51.4879 55.2901 51.3811 55.3044 51.2752 55.3219C51.221 55.3275 51.166 55.3331 51.115 55.3387C51.0895 55.3411 51.064 55.345 51.0425 55.345C51.0201 55.3458 50.9994 55.3466 50.9795 55.3474C50.9014 55.3506 50.8496 55.353 50.8496 55.353L50.7197 55.3586L50.7109 55.0964L50.84 55.0924Z" fill="#318D95"/>
<path d="M52.3946 54.7378C52.3946 54.7378 52.5795 54.6446 52.7652 54.5505C52.9389 54.4469 53.1118 54.3441 53.1118 54.3441L53.2059 54.2883L53.3246 54.4708L53.2314 54.5282C53.2314 54.5282 53.0497 54.6398 52.8688 54.7513C52.6855 54.8478 52.5014 54.9442 52.5014 54.9442L52.3986 54.9984L52.291 54.7896L52.3946 54.7378Z" fill="#318D95"/>
<path d="M53.7797 53.8726C53.7797 53.8726 53.9415 53.7428 54.1025 53.6121C54.1829 53.5467 54.2642 53.4822 54.3248 53.4328C54.3391 53.4208 54.3527 53.4104 54.3646 53.4009C54.3766 53.3905 54.387 53.3817 54.3957 53.3746C54.4133 53.3602 54.4228 53.3515 54.4228 53.3515L54.4961 53.2893L54.6197 53.4343L54.5471 53.4973C54.5471 53.4973 54.5376 53.5061 54.52 53.5204C54.5113 53.5276 54.5009 53.5371 54.489 53.5475C54.4762 53.5579 54.4619 53.5698 54.4467 53.5834C54.387 53.6336 54.3073 53.6997 54.2276 53.7659C54.0682 53.8989 53.9088 54.0312 53.9088 54.0312L53.8299 54.0974L53.6992 53.9364L53.7797 53.8726Z" fill="#318D95"/>
<path d="M55.0356 52.8044L55.6261 52.221L55.6843 52.1628L55.8006 52.2784L55.7425 52.3374L55.1623 52.9303L55.1002 52.994L54.9727 52.8673L55.0356 52.8044Z" fill="#318D95"/>
<path d="M56.1763 51.6145L56.6911 50.9634L56.7301 50.9148L56.8282 50.9897L56.7907 51.0399L56.2934 51.7045L56.2496 51.7635L56.1309 51.6727L56.1763 51.6145Z" fill="#318D95"/>
<path d="M57.1454 50.2818C57.1454 50.2818 57.2482 50.1017 57.351 49.9215C57.4435 49.7375 57.5359 49.5542 57.5359 49.5542L57.5543 49.5183L57.6268 49.551L57.6092 49.5876C57.6092 49.5876 57.52 49.7773 57.4315 49.9662C57.3335 50.1495 57.2355 50.332 57.2355 50.332L57.2108 50.3774L57.1191 50.3272L57.1454 50.2818Z" fill="#318D95"/>
<path d="M57.842 48.785C57.842 48.785 57.8977 48.585 57.9543 48.3857C57.9958 48.1833 58.0372 47.9817 58.0372 47.9817L58.0404 47.9666L58.0715 47.9713L58.0691 47.9873C58.0691 47.9873 58.0348 48.1929 57.9997 48.3993C57.9495 48.6009 57.8985 48.8017 57.8985 48.8017L57.8914 48.8296L57.834 48.8145L57.842 48.785Z" fill="#318D95"/>
<path d="M58.1024 47.159L58.1016 47.1128L58.1041 47.159V47.1598H58.1024V47.159Z" fill="#318D95"/>
<path d="M39.6297 29.9229C39.6297 29.9229 39.5898 29.9571 39.5309 30.0073C39.4719 30.0583 39.393 30.1261 39.3125 30.1922C39.1531 30.3261 38.9921 30.4568 38.9921 30.4568L38.9467 30.4934L38.875 30.3946L38.9236 30.3627C38.9236 30.3627 39.0981 30.2496 39.2743 30.1396C39.3619 30.0838 39.4512 30.0296 39.5173 29.989C39.5851 29.9499 39.6297 29.9229 39.6297 29.9229Z" fill="#318D95"/>
<path d="M38.3692 31.0007C38.3692 31.0007 38.2177 31.1433 38.0639 31.2828C37.9109 31.423 37.7579 31.5633 37.7579 31.5633L37.6647 31.6486L37.4941 31.4501L37.593 31.3704C37.593 31.3704 37.7547 31.2405 37.9165 31.1098C38.0775 30.9792 38.2409 30.8508 38.2409 30.8508L38.3189 30.7903L38.4417 30.9329L38.3692 31.0007Z" fill="#318D95"/>
<path d="M37.1743 32.1333C37.1743 32.1333 37.0333 32.2855 36.889 32.4346C36.7456 32.5844 36.6013 32.7334 36.6013 32.7334L36.4953 32.8434L36.2754 32.629L36.3822 32.5206C36.3822 32.5206 36.528 32.3732 36.6738 32.225C36.8189 32.0767 36.9671 31.9317 36.9671 31.9317L37.0707 31.8313L37.2723 32.0273L37.1743 32.1333Z" fill="#318D95"/>
<path d="M36.0607 33.3442C36.0607 33.3442 35.9308 33.506 35.8009 33.6678C35.7355 33.7483 35.671 33.8296 35.6223 33.8901C35.5729 33.9499 35.5395 33.9905 35.5395 33.9905L35.4462 34.1037L35.2207 33.9252L35.3092 33.8088C35.3092 33.8088 35.3402 33.7674 35.3881 33.706C35.4359 33.6447 35.4996 33.5634 35.5642 33.4813C35.6925 33.3179 35.82 33.1546 35.82 33.1546L35.9148 33.0334L36.1571 33.2255L36.0607 33.3442Z" fill="#318D95"/>
<path d="M35.0564 34.6451C35.0564 34.6451 34.9417 34.818 34.8269 34.9909C34.7696 35.0778 34.7122 35.1639 34.6691 35.2292C34.6253 35.2938 34.5966 35.3368 34.5966 35.3368L34.5392 35.4221L34.3711 35.3185L34.4221 35.2284C34.4221 35.2284 34.4476 35.183 34.4858 35.1153C34.5249 35.0475 34.5767 34.9575 34.6277 34.8674C34.7313 34.6873 34.8349 34.5072 34.8349 34.5072L34.8994 34.394L35.1282 34.5351L35.0564 34.6451Z" fill="#318D95"/>
<path d="M34.1825 36.0429C34.1825 36.0429 34.1586 36.0891 34.1236 36.1585C34.0885 36.2278 34.0407 36.3202 33.9921 36.4119C33.8964 36.5968 33.796 36.7792 33.796 36.7792L33.792 36.7856L33.7793 36.78L33.7817 36.7729C33.7817 36.7729 33.8494 36.576 33.9211 36.3808C33.9562 36.2828 33.9921 36.1855 34.02 36.113C34.0479 36.0405 34.0662 35.9919 34.0662 35.9919L34.0885 35.9321L34.2112 35.9863L34.1825 36.0429Z" fill="#318D95"/>
<path d="M38.9379 48.1377L38.3881 48.2103L38.3203 47.6923L39.9365 47.4795L40.0042 47.9975L39.4559 48.0692L39.8392 50.9867L39.3212 51.0545L38.9379 48.1377Z" fill="black"/>
<path d="M42.3258 47.1644C42.6143 47.1262 42.8366 47.1788 42.992 47.3198C43.1299 47.4434 43.2144 47.629 43.247 47.8761L43.3124 48.375C43.3443 48.6188 43.2797 48.8356 43.1171 49.0268L43.6981 50.4772L43.1395 50.5505L42.6533 49.2946C42.6382 49.2978 42.6231 49.3002 42.6063 49.3026L42.3091 49.3416L42.4796 50.6374L41.9616 50.7051L41.5098 47.2696L42.3258 47.1644ZM42.7434 47.9526C42.7171 47.7534 42.6055 47.6657 42.4095 47.692L42.0979 47.7326L42.2421 48.8308L42.5537 48.7902C42.6366 48.779 42.702 48.7407 42.7514 48.6746C42.8008 48.6085 42.8199 48.5351 42.8095 48.4539L42.7434 47.9526Z" fill="black"/>
<path d="M45.8306 49.3947L45.8082 50.2004L45.2695 50.2713L45.3994 46.7593L46.1135 46.6653L47.1399 50.0251L46.5972 50.0968L46.3709 49.3238L45.8306 49.3947ZM45.8577 47.5005L45.8433 48.8799L46.2274 48.8297L45.8577 47.5005Z" fill="black"/>
<path d="M48.81 49.8072L47.7461 46.4522L48.2888 46.3812L49.0698 48.9991L49.1534 46.2673L49.6961 46.1956L49.5248 49.7131L48.81 49.8072Z" fill="black"/>
<path d="M51.7351 49.4233L51.2832 45.9878L52.7575 45.7942L52.8252 46.3122L51.8681 46.4381L51.9917 47.38L52.6906 47.2884L52.7583 47.8064L52.0594 47.898L52.1829 48.8376L53.14 48.7117L53.2078 49.2297L51.7351 49.4233Z" fill="black"/>
<path d="M56.1394 48.8415L54.7272 49.0272L54.2754 45.5917L54.7934 45.5239L55.1775 48.4446L56.0724 48.3267L56.1394 48.8415Z" fill="black"/>
<path d="M44.0547 34.7064C44.0547 34.7064 44.0699 34.9502 44.2617 34.9127C44.4535 34.8759 44.4807 34.6113 44.4807 34.6113L44.0547 34.7064Z" fill="#318D95"/>
<path d="M44.9844 34.5255C44.9844 34.5255 44.9996 34.7693 45.1914 34.7318C45.3832 34.695 45.4104 34.4304 45.4104 34.4304L44.9844 34.5255Z" fill="#318D95"/>
<path d="M44.2802 31.7587C44.7568 31.6679 45.6214 31.4957 45.7585 31.7037C45.8956 31.9117 45.9737 34.0219 45.8008 34.32C45.6286 34.618 44.2818 34.7423 43.8945 34.8141C43.8945 34.8141 43.9168 31.828 44.2802 31.7587Z" fill="#318D95"/>
<path d="M44.2801 31.759C43.5628 31.8729 43.5796 32.1128 43.5095 32.9982C43.4401 33.8835 43.2074 34.5968 43.5565 34.7546C43.9055 34.9124 44.4108 34.7275 44.5223 34.5673C44.6339 34.4071 44.7327 31.6872 44.2801 31.759Z" fill="#318D95"/>
<path d="M45.6291 30.5043C45.5263 30.5242 45.5382 31.0605 45.559 32.0216C45.5797 32.9827 45.5374 34.3119 45.6426 34.3159C45.7478 34.3199 45.7215 32.1196 45.692 31.5985C45.6618 31.0773 45.7167 30.4868 45.6291 30.5043Z" fill="#318D95"/>
<path d="M44.8051 30.5621C44.672 30.6298 44.7095 30.8084 44.8498 30.794C44.99 30.7797 45.0801 30.6713 45.265 30.6546C45.4506 30.6378 45.4682 30.6753 45.6132 30.6466C45.7582 30.6187 45.7566 30.4418 45.5064 30.425C45.257 30.4099 44.9294 30.4992 44.8051 30.5621Z" fill="#318D95"/>
<path d="M44.8244 30.6615C44.7216 30.6814 44.7335 31.2178 44.7543 32.1788C44.775 33.1399 44.7327 34.4692 44.8379 34.4732C44.9431 34.4771 44.9168 32.2769 44.8874 31.7557C44.8579 31.2345 44.9121 30.644 44.8244 30.6615Z" fill="#318D95"/>
<path d="M48.0694 26.8509C48.0694 26.8509 49.3763 26.9162 49.4823 26.8565C49.5875 26.7967 48.8934 25.6324 48.8934 25.6324L49.0671 25.4563C49.0671 25.4563 50.1637 26.7505 50.0513 27.1107C49.9389 27.4709 48.6655 27.5546 48.2009 27.4566C47.7363 27.3585 47.6741 26.9218 48.0694 26.8509Z" fill="#318D95"/>
<path d="M46.7048 25.739C46.7295 25.8657 46.7869 26.2618 46.5016 26.4706C46.2171 26.6794 46.0721 26.8826 46.3063 27.2476C46.5406 27.6126 46.1151 27.7616 46.3876 28.1497C46.6602 28.5378 47.8221 28.4119 47.9783 28.0102C48.1345 27.6094 47.8165 27.3846 47.9081 27.1647C47.999 26.9455 48.2771 26.8977 48.2684 26.5351C48.2596 26.1725 48.109 26.163 47.9512 25.7701L46.7048 25.739Z" fill="#318D95"/>
<path d="M47.749 26.809C47.8534 26.8162 48.0446 26.8337 48.1626 26.8728C48.3945 26.9485 48.7045 27.4936 48.7507 27.7422C48.7969 27.9916 48.5873 28.1709 48.5052 28.6379C48.4232 29.1049 48.5092 29.6524 48.5092 29.6524L47.0142 29.9425C47.0142 29.9425 46.8198 28.9822 46.6436 28.0737C46.4914 27.2904 46.5169 27.0401 46.7903 26.9062C46.9648 26.8202 47.5083 26.7931 47.749 26.809Z" fill="#318D95"/>
<path d="M48.5207 29.6501C48.5207 29.6501 48.9152 31.5859 48.4298 32.2353C47.9445 32.8848 46.5985 33.0825 46.5985 33.0825L46.4551 32.7916C46.4551 32.7916 47.7421 32.0385 47.7875 31.7699C47.8321 31.5014 47.2257 29.9012 47.2257 29.9012L48.5207 29.6501Z" fill="#318D95"/>
<path d="M47.2409 26.1653L47.3198 26.8395L46.9883 26.865C46.9883 26.865 47.3421 27.3718 47.7254 27.3089C48.1087 27.2459 48.0689 26.8522 48.0689 26.8522L47.7469 26.8108L47.5772 26.2322L47.2409 26.1653Z" fill="#318D95"/>
<path d="M48.1266 25.3982C48.1266 25.3982 48.2501 26.2605 48.1712 26.541C48.0819 26.8558 47.4117 26.6749 47.0818 26.1147C46.63 25.3472 47.0938 25.1042 47.5201 25.0213C47.9465 24.9384 48.0636 25.191 48.1266 25.3982Z" fill="#318D95"/>
<path d="M47.5224 25.6996C47.492 25.7076 47.4744 25.7388 47.4824 25.7684C47.4904 25.7987 47.5216 25.8163 47.5511 25.8083C47.5815 25.8003 47.5991 25.7692 47.5911 25.7396C47.5839 25.71 47.5527 25.6916 47.5224 25.6996Z" fill="#318D95"/>
<path d="M48.0302 25.5641C47.9998 25.5721 47.9822 25.6033 47.9902 25.6329C47.9982 25.6632 48.0294 25.6808 48.0589 25.6728C48.0893 25.6648 48.1069 25.6337 48.0989 25.6041C48.0909 25.5745 48.0597 25.5561 48.0302 25.5641Z" fill="#318D95"/>
<path d="M47.9009 25.6831C47.9528 25.8358 48.0903 25.8534 48.1446 25.9397C48.199 26.026 48.0871 26.1163 47.9584 25.9756C47.8337 25.8414 47.9009 25.6831 47.9009 25.6831Z" fill="#318D95"/>
<path d="M47.7188 26.2078C47.7188 26.2078 47.7691 26.2837 47.9066 26.3213C48.0441 26.3588 48.0073 26.2381 48.0073 26.2381C48.0073 26.2381 47.8642 26.2773 47.7188 26.2078Z" fill="#318D95"/>
<path d="M47.7188 26.2068C47.7188 26.2068 47.7531 26.2076 47.8227 26.1724C47.8922 26.1373 47.9481 26.2012 47.9481 26.2012C47.9481 26.2012 47.9657 26.1732 47.9889 26.1724C48.0121 26.1716 48.0345 26.2148 48.0345 26.2148C48.0345 26.2148 47.9034 26.2484 47.7188 26.2068Z" fill="#318D95"/>
<path d="M47.7188 26.2078C47.7188 26.2078 47.7939 26.2717 47.9098 26.2765C48.0257 26.2813 48.0329 26.2174 48.0329 26.2174C48.0329 26.2174 47.837 26.2293 47.7188 26.2078Z" fill="#318D95"/>
<path d="M47.1482 26.2227C47.1482 26.2227 47.3259 25.892 47.1905 25.123C47.1905 25.123 47.828 25.005 48.1483 25.5406C48.1483 25.5406 48.2312 25.2871 48.1316 24.9405C48.032 24.5938 47.5778 24.4344 47.1291 25.0544C47.1291 25.0544 46.7394 25.1286 46.6908 25.5716C46.6422 26.0147 47.1482 26.2227 47.1482 26.2227Z" fill="#318D95"/>
<path d="M47.2669 26.2146C47.2669 26.2146 46.9168 25.8909 46.8648 26.1618C46.8129 26.4328 47.3532 26.3936 47.3532 26.3936L47.2669 26.2146Z" fill="#318D95"/>
<path d="M47.0168 29.942C47.0168 29.942 46.9705 30.4194 47.4686 30.9302C47.9667 31.441 48.5843 31.6681 49.0752 32.1455C49.5661 32.6228 49.9582 33.4835 49.9582 33.4835L50.249 33.3401C50.249 33.3401 49.7789 31.8873 49.4179 31.3669C49.0569 30.8473 48.2488 29.7021 48.2488 29.7021L47.0168 29.942Z" fill="#318D95"/>
<path d="M46.9224 26.8733C46.7558 26.8837 46.4769 26.9666 45.8649 28.193C45.2935 29.3374 45.1484 30.1407 45.1484 30.1407L45.3899 30.2395C45.3899 30.2395 45.9095 29.2099 46.4841 28.5261C47.0578 27.8416 47.3439 26.847 46.9224 26.8733Z" fill="#318D95"/>
<path d="M48.8937 25.6328C48.8937 25.6328 48.579 25.6193 48.4905 25.5683C48.4028 25.5173 48.5718 25.5157 48.6722 25.4974C48.7726 25.4782 48.5654 25.283 48.4578 25.2296C48.3503 25.1762 48.736 25.0399 49.0675 25.4559L48.8937 25.6328Z" fill="#318D95"/>
<path d="M45.1496 30.1445C45.1496 30.1445 45.0547 30.2059 44.9703 30.3414C44.8858 30.4768 44.8109 30.6936 44.8587 30.8076C44.9065 30.9215 45.2062 30.4864 45.2827 30.4784C45.3592 30.4705 45.3719 30.6697 45.4396 30.6498C45.5074 30.6299 45.391 30.2441 45.391 30.2441L45.1496 30.1445Z" fill="#318D95"/>
<path d="M49.957 33.4824C49.957 33.4824 50.004 33.7685 50.059 33.7836C50.114 33.7987 50.742 33.4601 50.8759 33.209C51.009 32.958 50.2479 33.3397 50.2479 33.3397L49.957 33.4824Z" fill="#318D95"/>
<path d="M50.5117 33.2214C50.3722 33.2788 50.2479 33.3418 50.2479 33.3418L49.957 33.4852C49.957 33.4852 49.9785 33.6167 50.0096 33.7068C50.212 33.6103 50.5189 33.3768 50.5189 33.3768L50.5117 33.2214Z" fill="#318D95"/>
<path d="M46.456 32.7896C46.456 32.7896 46.1699 32.8366 46.1548 32.8916C46.1396 32.9465 46.4783 33.5745 46.7294 33.7084C46.9804 33.8415 46.5987 33.0804 46.5987 33.0804L46.456 32.7896Z" fill="#318D95"/>
<path d="M46.7197 33.3442C46.6623 33.2047 46.5994 33.0804 46.5994 33.0804L46.4559 32.7896C46.4559 32.7896 46.3244 32.8111 46.2344 32.8421C46.3308 33.0446 46.5643 33.3514 46.5643 33.3514L46.7197 33.3442Z" fill="#318D95"/>
<path d="M40.6234 27.8551C40.2425 28.1204 40.068 28.5484 40.0807 28.9492C40.0935 29.3501 40.2991 29.2712 40.2991 29.2712C40.2991 29.2712 40.1238 30.1119 40.2401 30.7136C40.3565 31.3153 41.9838 30.9806 42.3209 30.5733C42.6587 30.1669 42.4731 27.82 41.9519 27.5969C41.6411 27.4646 40.9215 27.6471 40.6234 27.8551Z" fill="#318D95"/>
<path d="M40.688 27.9191C40.4737 27.9518 40.3302 28.1351 40.2641 28.2395C40.1334 28.4578 40.0728 28.7081 40.0808 28.9479C40.0935 29.3488 40.2991 29.2699 40.2991 29.2699C40.2991 29.2699 40.1238 30.1106 40.2402 30.7123C40.2529 30.7769 40.2832 30.831 40.327 30.8757C40.3446 30.8924 40.3621 30.9068 40.378 30.9187C40.3788 30.9187 40.3788 30.9195 40.3796 30.9195C41.0761 31.4096 40.9845 27.8745 40.688 27.9191Z" fill="#318D95"/>
<path d="M42.3569 28.1208C42.6669 28.0268 43.0199 28.4611 43.4311 29.2397C43.8423 30.0191 44.7755 30.2024 44.7755 30.2024L44.7237 30.4725C44.7237 30.4725 43.8734 30.518 43.043 29.9904C42.2118 29.4636 41.8787 28.2659 42.3569 28.1208Z" fill="#318D95"/>
<path d="M42.8312 30.7542C42.8312 30.7542 43.2257 32.6899 42.7404 33.3393C42.2551 33.9888 40.9091 34.1865 40.9091 34.1865L40.7656 33.8956C40.7656 33.8956 42.0526 33.1425 42.0981 32.8739C42.1427 32.6054 41.5362 31.0052 41.5362 31.0052L42.8312 30.7542Z" fill="#318D95"/>
<path d="M40.5451 28.2505C40.624 27.895 42.1884 27.9596 42.5175 28.1166C42.8466 28.2744 42.6801 29.9503 42.8331 30.7536L41.2058 31.0692C41.2066 31.0692 40.3985 28.9151 40.5451 28.2505Z" fill="#318D95"/>
<path d="M40.5297 28.1994C39.9759 28.668 39.6762 29.3685 39.7743 30.2084C39.8723 31.0484 40.305 31.7712 40.305 31.7712L40.5329 31.6166C40.5329 31.6166 40.2205 30.3726 40.4835 29.9725C40.7465 29.5725 41.0079 29.2537 41.07 28.8377C41.1322 28.4225 40.8318 27.9444 40.5297 28.1994Z" fill="#318D95"/>
<path d="M41.2074 27.3086L41.3365 27.9732L41.0098 28.0234C41.0098 28.0234 41.3636 28.5303 41.7469 28.4673C42.1302 28.4044 42.0904 28.0107 42.0904 28.0107L41.8242 27.9844L41.6593 27.4305L41.2074 27.3086Z" fill="#318D95"/>
<path d="M42.144 26.5567C42.144 26.5567 42.3623 27.3472 42.3082 27.67C42.254 27.9927 41.524 28.0565 41.0992 27.2731C40.6745 26.4905 41.1112 26.2626 41.5375 26.1797C41.9639 26.0969 42.081 26.3495 42.144 26.5567Z" fill="#318D95"/>
<path d="M41.5419 26.8595C41.5115 26.8675 41.4939 26.8987 41.5019 26.9283C41.5099 26.9587 41.5411 26.9762 41.5707 26.9682C41.601 26.9603 41.6186 26.9291 41.6106 26.8995C41.6034 26.8699 41.5723 26.8515 41.5419 26.8595Z" fill="#318D95"/>
<path d="M42.0497 26.7246C42.0193 26.7326 42.0017 26.7637 42.0097 26.7933C42.0177 26.8237 42.0489 26.8413 42.0785 26.8333C42.1089 26.8253 42.1264 26.7941 42.1184 26.7645C42.1112 26.7342 42.0801 26.7166 42.0497 26.7246Z" fill="#318D95"/>
<path d="M41.9145 26.8438C41.9665 26.9964 42.104 27.014 42.1583 27.1003C42.2127 27.1866 42.1008 27.277 41.9721 27.1363C41.8474 27.002 41.9145 26.8438 41.9145 26.8438Z" fill="#318D95"/>
<path d="M41.221 27.3734C41.221 27.3734 41.1094 26.9303 41.1787 26.5526C41.1787 26.5526 41.9039 26.2825 42.2052 26.7877C42.2052 26.7877 42.3239 26.4434 42.2076 26.245C42.0912 26.0466 41.99 26.1271 41.7055 26.0346C41.4202 25.9422 41.1572 25.837 40.9684 26.3861C40.9684 26.3861 40.711 26.4905 40.7707 26.7973C40.8839 27.3822 40.9349 27.6428 41.2839 27.6093L41.221 27.3734Z" fill="#318D95"/>
<path d="M41.2806 27.3752C41.2806 27.3752 40.9305 27.0515 40.8785 27.3225C40.8266 27.5934 41.3669 27.5543 41.3669 27.5543L41.2806 27.3752Z" fill="#318D95"/>
<path d="M41.1779 26.5527C41.1779 26.5527 41.2081 27.0014 41.3205 27.2867C41.4321 27.572 41.5325 27.3353 41.7891 27.2636C42.0457 27.1911 42.229 27.2126 42.2999 27.3273C42.3708 27.4421 42.4625 27.9449 42.1812 27.9999C41.8999 28.0541 41.2432 27.87 41.0782 27.2078C40.9117 26.5456 41.1779 26.5527 41.1779 26.5527Z" fill="#318D95"/>
<path d="M42.0021 27.3309C41.8742 27.3685 41.7271 27.3061 41.7104 27.3877C41.6936 27.4692 41.835 27.5012 41.9286 27.4828C42.0956 27.45 42.0804 27.3077 42.0021 27.3309Z" fill="#318D95"/>
<path d="M41.2043 31.0699C41.2043 31.0699 41.158 31.5473 41.6561 32.0581C42.1542 32.5689 42.7718 32.796 43.2627 33.2734C43.7536 33.7508 44.1457 34.6114 44.1457 34.6114L44.4365 34.468C44.4365 34.468 44.0923 32.9905 43.7313 32.4709C43.3703 31.9513 42.5622 30.8062 42.5622 30.8062L41.2043 31.0699Z" fill="#318D95"/>
<path d="M44.1465 34.6115C44.1465 34.6115 44.1935 34.8976 44.2485 34.9128C44.3035 34.9279 44.9314 34.5892 45.0653 34.3382C45.1984 34.0871 44.4374 34.4689 44.4374 34.4689L44.1465 34.6115Z" fill="#318D95"/>
<path d="M40.7685 33.897C40.7685 33.897 40.4824 33.944 40.4673 33.999C40.4521 34.054 40.7908 34.6819 41.0419 34.8158C41.2929 34.9489 40.9112 34.1878 40.9112 34.1878L40.7685 33.897Z" fill="#318D95"/>
<path d="M44.7756 30.2007C44.7756 30.2007 44.8999 30.0811 45.0306 30.0389C45.1613 29.9959 44.9645 30.1903 44.9709 30.2238C44.9772 30.2573 45.3637 30.1473 45.3853 30.2565C45.406 30.3648 45.1382 30.5473 44.7246 30.4716L44.7756 30.2007Z" fill="#318D95"/>
<path d="M40.5357 31.6179C40.5357 31.6179 40.7078 31.6211 40.8306 31.6833C40.9533 31.7454 40.6768 31.7438 40.6576 31.7717C40.6385 31.7996 40.9892 31.9957 40.9278 32.0873C40.8656 32.1789 40.5477 32.1184 40.3086 31.7717L40.5357 31.6179Z" fill="#318D95"/>
<path d="M40.8027 28.0694C40.8027 28.0694 41.7678 29.6959 40.9318 30.5199L41.0832 30.7207C41.0832 30.7207 41.6108 30.2004 41.3917 29.2082C41.1733 28.2168 41.0083 28.0264 41.0083 28.0264L40.8027 28.0694Z" fill="#318D95"/>
<path d="M42.084 28.0127C42.084 28.0127 42.6299 29.2352 42.7677 30.1126L42.7518 29.6304C42.7518 29.6304 42.6817 28.9252 42.2497 28.0462L42.084 28.0127Z" fill="#318D95"/>
<path d="M43.3423 27.7445C43.3423 27.7445 43.2025 27.6278 43.085 27.651C42.9675 27.6734 43.1905 27.8348 43.1905 27.8348L43.3423 27.7445Z" fill="#318D95"/>
<path d="M42.7967 27.9705C42.7967 27.9705 42.6676 27.8653 42.6095 27.8765C42.5513 27.8876 42.7242 28.1578 42.776 28.165C42.8278 28.1721 43.7586 27.8964 43.8614 27.8247C43.9642 27.753 43.8319 27.6956 43.7419 27.6789C43.6518 27.6613 43.6526 27.6119 43.5132 27.6406C43.3283 27.6797 42.7967 27.9705 42.7967 27.9705Z" fill="#318D95"/>
<path d="M43.3398 27.9663C43.3398 27.9663 43.14 28.3268 42.9434 28.3915C42.7467 28.4555 43.0768 28.0478 43.0768 28.0478L43.3398 27.9663Z" fill="#318D95"/>
<path d="M43.7427 27.6791C43.6876 27.6687 43.6668 27.6463 43.6268 27.6367C43.6173 27.6479 43.6021 27.6607 43.5781 27.6743C43.5014 27.7174 43.4382 27.731 43.4622 27.7814C43.4886 27.8381 43.682 27.7598 43.7483 27.6807C43.7467 27.6799 43.7451 27.6799 43.7427 27.6791Z" fill="#318D95"/>
<path d="M43.3659 27.7868C43.3243 27.7991 43.3406 27.8587 43.3839 27.844C43.4272 27.8293 43.4019 27.7762 43.3659 27.7868Z" fill="#318D95"/>
<path d="M43.2815 27.8263C43.244 27.8377 43.2587 27.8909 43.2979 27.8778C43.3363 27.8655 43.3134 27.8173 43.2815 27.8263Z" fill="#318D95"/>
<path d="M43.1893 27.8647C43.1558 27.8746 43.1689 27.9219 43.204 27.9105C43.2384 27.8991 43.2179 27.8558 43.1893 27.8647Z" fill="#318D95"/>
<path d="M43.1035 27.9043C43.0733 27.9135 43.085 27.9564 43.1161 27.9455C43.148 27.9354 43.1296 27.8967 43.1035 27.9043Z" fill="#318D95"/>
<path d="M43.0164 27.9425C42.9918 27.9499 43.0008 27.9861 43.0271 27.977C43.0534 27.968 43.0378 27.936 43.0164 27.9425Z" fill="#318D95"/>
<path d="M42.9281 27.9832C42.9075 27.9898 42.915 28.0194 42.9372 28.012C42.9585 28.0046 42.9462 27.9775 42.9281 27.9832Z" fill="#318D95"/>
<path d="M44.9875 28.8659C44.6982 29.0675 44.5651 29.3927 44.5747 29.6979C44.5843 30.0031 44.7413 29.9425 44.7413 29.9425C44.7413 29.9425 44.6082 30.5817 44.6966 31.0399C44.7851 31.4973 46.0219 31.2423 46.2793 30.9331C46.5359 30.6239 46.3956 28.8396 45.9988 28.6699C45.7613 28.5687 45.2146 28.7081 44.9875 28.8659Z" fill="#318D95"/>
<path d="M45.0369 28.9146C44.8735 28.9393 44.7643 29.0788 44.7141 29.1585C44.6145 29.325 44.5691 29.5147 44.5747 29.6972C44.5842 30.0024 44.7412 29.9418 44.7412 29.9418C44.7412 29.9418 44.6081 30.581 44.6966 31.0392C44.7062 31.0886 44.7293 31.1292 44.7627 31.1635C44.7763 31.1763 44.789 31.1866 44.8018 31.1962L44.8026 31.197C45.3317 31.5691 45.2616 28.8811 45.0369 28.9146Z" fill="#318D95"/>
<path d="M46.6711 31.0723C46.6711 31.0723 46.9708 32.5442 46.6018 33.0383C46.2328 33.5323 45.2088 33.6822 45.2088 33.6822L45.0996 33.4614C45.0996 33.4614 46.0782 32.8892 46.1125 32.6844C46.1468 32.4796 45.6853 31.2635 45.6853 31.2635L46.6711 31.0723Z" fill="#318D95"/>
<path d="M44.9296 29.1682C44.9893 28.898 46.1791 28.9466 46.4294 29.067C46.6796 29.1865 46.5529 30.4616 46.6692 31.072L45.4316 31.3119C45.4324 31.3119 44.818 29.6734 44.9296 29.1682Z" fill="#318D95"/>
<path d="M45.496 29.7902C44.9509 29.8747 44.3995 29.697 43.9659 29.2212C43.5324 28.7463 43.334 28.1366 43.334 28.1366L43.5364 28.0833C43.5364 28.0833 44.0942 28.8834 44.4552 28.932C44.8162 28.9806 45.1294 28.9901 45.3988 29.1615C45.6689 29.3336 45.7933 29.7448 45.496 29.7902Z" fill="#318D95"/>
<path d="M45.4299 28.4521L45.5279 28.9574L45.2793 28.9956C45.2793 28.9956 45.5479 29.3814 45.8395 29.3335C46.1312 29.2857 46.1009 28.9861 46.1009 28.9861L45.8985 28.9662L45.7734 28.5454L45.4299 28.4521Z" fill="#318D95"/>
<path d="M46.1403 27.88C46.1403 27.88 46.306 28.4808 46.2646 28.7263C46.2231 28.9717 45.6685 29.0204 45.3449 28.4243C45.0214 27.8282 45.3545 27.6552 45.6788 27.5931C46.0032 27.5301 46.0924 27.7222 46.1403 27.88Z" fill="#318D95"/>
<path d="M46.1764 28.3068C46.2245 28.2974 46.2575 28.259 46.2501 28.2208C46.2427 28.1827 46.1977 28.1593 46.1496 28.1687C46.1015 28.178 46.0685 28.2165 46.0759 28.2546C46.0833 28.2927 46.1283 28.3161 46.1764 28.3068Z" fill="#318D95"/>
<path d="M45.6847 28.1099C45.6612 28.1164 45.6475 28.1399 45.6539 28.1634C45.6604 28.1869 45.6839 28.2007 45.7074 28.1942C45.7309 28.1877 45.7447 28.1642 45.7382 28.1407C45.7317 28.118 45.7074 28.1035 45.6847 28.1099Z" fill="#318D95"/>
<path d="M46.0734 28.0055C46.0499 28.012 46.0361 28.0355 46.0426 28.059C46.0491 28.0825 46.0726 28.0962 46.0961 28.0898C46.1196 28.0833 46.1333 28.0598 46.1269 28.0363C46.1204 28.0128 46.0969 27.999 46.0734 28.0055Z" fill="#318D95"/>
<path d="M45.9667 28.0977C46.0058 28.2136 46.1105 28.2271 46.1521 28.2927C46.1929 28.3582 46.1081 28.427 46.0098 28.3199C45.9163 28.2176 45.9667 28.0977 45.9667 28.0977Z" fill="#318D95"/>
<path d="M46.0349 28.4702C45.9374 28.499 45.8255 28.451 45.8135 28.5133C45.8008 28.5757 45.9087 28.5997 45.9798 28.5861C46.1061 28.5613 46.0949 28.4526 46.0349 28.4702Z" fill="#318D95"/>
<path d="M45.406 27.8776C45.406 27.8776 45.492 27.982 45.6594 27.9055C45.8267 27.8298 45.8738 27.9206 45.9718 27.9645C46.0698 28.0083 46.2579 27.9979 46.2244 27.7525C46.1909 27.507 46.0507 27.5126 45.9224 27.5469C45.7933 27.5804 45.7933 27.4186 45.598 27.4289C45.402 27.4393 45.4331 27.5325 45.3542 27.6051C45.2753 27.6776 45.1549 27.6393 45.1031 27.7533C45.0513 27.8672 45.1366 27.9461 45.1565 28.029C45.1772 28.1119 45.0697 28.1836 45.0856 28.3135C45.1023 28.4434 45.2067 28.3597 45.2538 28.4865C45.3 28.6132 45.3095 28.7271 45.4865 28.6801C45.4865 28.6801 45.3757 28.3884 45.394 28.2099C45.4115 28.0314 45.4857 28.0752 45.406 27.8776Z" fill="#318D95"/>
<path d="M45.4916 28.5012C45.4916 28.5012 45.2254 28.255 45.1862 28.4612C45.1471 28.6675 45.5579 28.6371 45.5579 28.6371L45.4916 28.5012Z" fill="#318D95"/>
<path d="M45.7018 28.3986C45.7499 28.3892 45.7829 28.3508 45.7755 28.3126C45.7681 28.2745 45.7231 28.2511 45.675 28.2605C45.6269 28.2698 45.5939 28.3083 45.6013 28.3464C45.6087 28.3845 45.6537 28.4079 45.7018 28.3986Z" fill="#318D95"/>
<path d="M45.4286 31.3133C45.4286 31.3133 45.3935 31.6767 45.7721 32.0648C46.1506 32.4529 46.6208 32.6258 46.9937 32.9892C47.3667 33.3526 47.6655 34.0069 47.6655 34.0069L47.8863 33.8977C47.8863 33.8977 47.6241 32.7741 47.35 32.3788C47.075 31.9835 46.4606 31.1133 46.4606 31.1133L45.4286 31.3133Z" fill="#318D95"/>
<path d="M47.6699 34.004C47.6699 34.004 47.7058 34.2215 47.7472 34.2327C47.7887 34.2438 48.2668 33.9864 48.368 33.796C48.4692 33.6047 47.8907 33.8948 47.8907 33.8948L47.6699 34.004Z" fill="#318D95"/>
<path d="M45.1002 33.4604C45.1002 33.4604 44.8827 33.4963 44.8715 33.5378C44.8595 33.58 45.1177 34.0573 45.3082 34.1585C45.4995 34.2598 45.2094 33.6812 45.2094 33.6812L45.1002 33.4604Z" fill="#318D95"/>
<path d="M46.27 29.0216C46.5863 28.9595 46.9473 28.8543 47.3689 28.7029C47.7905 28.5515 48.2073 28.1538 48.2073 28.1538L48.3539 28.3028C48.3539 28.3028 48.0391 28.8846 47.4653 29.2647C46.8924 29.6448 46.2365 29.8441 46.1321 29.4886C46.0707 29.2759 46.054 29.0639 46.27 29.0216Z" fill="#318D95"/>
<path d="M48.2063 28.1541C48.2063 28.1541 48.1855 28.0246 48.2151 27.9239C48.2447 27.8232 48.2814 28.031 48.3054 28.0414C48.3294 28.0518 48.4277 27.7617 48.5052 27.796C48.5828 27.8304 48.5804 28.0774 48.3534 28.3044L48.2063 28.1541Z" fill="#318D95"/>
<path d="M45.123 29.0305C45.123 29.0305 45.857 30.2673 45.2211 30.8937L45.3358 31.0467C45.3358 31.0467 45.7367 30.6514 45.5709 29.8967C45.4044 29.142 45.2792 28.9978 45.2792 28.9978L45.123 29.0305Z" fill="#318D95"/>
<path d="M46.0996 28.9866C46.0996 28.9866 46.5148 29.9166 46.6192 30.5836L46.6072 30.217C46.6072 30.217 46.5538 29.6807 46.2255 29.0121L46.0996 28.9866Z" fill="#318D95"/>
<path d="M46.6701 31.0723C46.6701 31.0723 46.8486 32.1991 46.7537 32.6191L45.9799 32.6071L45.5703 31.285L46.6701 31.0723Z" fill="#318D95"/>
<path d="M43.5372 28.0851C43.5372 28.0851 43.5324 27.986 43.4125 27.9748C43.2926 27.9628 43.2654 27.799 43.1655 27.8005C43.0656 27.8021 43.1024 28.0499 43.3341 28.1386L43.5372 28.0851Z" fill="#318D95"/>
<path d="M45.4291 31.3133C45.4291 31.3133 45.3813 31.7038 45.8578 32.1477C46.3344 32.5908 46.579 32.8211 46.579 32.8211L47.2357 32.2146L46.4611 31.1133L45.4291 31.3133Z" fill="#318D95"/>
<path d="M24.9911 44.69L25.8016 45.3498C25.3019 45.9722 24.5648 46.4034 23.7009 46.4974C21.982 46.6847 20.44 45.5905 20.2264 43.6317C20.0224 41.7526 21.1779 40.2847 23.0036 40.0862C23.8675 39.9922 24.6803 40.2552 25.3027 40.7644L24.6517 41.5741C24.2373 41.2409 23.6866 41.0664 23.1168 41.1286C21.8346 41.268 21.15 42.2618 21.2863 43.5169C21.4313 44.8526 22.4386 45.5809 23.5878 45.4558C24.1576 45.3937 24.658 45.1052 24.9911 44.69Z" fill="#318D95"/>
<path d="M30.9771 39.3076L31.6553 45.5411L30.6129 45.6542L30.33 43.0539L27.7384 43.336L28.0213 45.9364L26.979 46.0495L26.3008 39.816L27.3431 39.7029L27.6237 42.2857L30.2152 42.0036L29.9339 39.4208L30.9771 39.3076Z" fill="#318D95"/>
<path d="M46.5607 43.7587L45.5191 43.8718L45.1023 40.0426L43.7292 44.0663L42.7498 44.1731L40.4188 40.4714L40.8436 44.3802L39.802 44.4934L39.123 38.2512L40.1829 38.1356L43.0797 42.7314L44.8226 37.6312L45.8825 37.5156L46.5607 43.7587Z" fill="#318D95"/>
<path d="M54.6845 41.2584L55.495 41.9182C54.9953 42.5406 54.2581 42.9717 53.3943 43.0658C51.6753 43.2522 50.1333 42.1589 49.9197 40.2001C49.7157 38.3209 50.8713 36.853 52.697 36.6546C53.5608 36.5605 54.3737 36.8235 54.9961 37.3328L54.345 38.1424C53.9306 37.8093 53.3799 37.6348 52.8102 37.6969C51.5279 37.8364 50.8426 38.8302 50.9796 40.0853C51.1247 41.4209 52.132 42.1493 53.2811 42.0242C53.8509 41.9612 54.3514 41.6728 54.6845 41.2584Z" fill="#318D95"/>
<path d="M60.6688 35.8772L61.347 42.1107L60.3054 42.2238L60.0225 39.6235L57.431 39.9056L57.7139 42.5059L56.6723 42.6191L55.9941 36.3856L57.0357 36.2725L57.317 38.8553L59.9086 38.5732L59.6281 35.9904L60.6688 35.8772Z" fill="#318D95"/>
<path d="M62.1329 37.973C61.9942 36.6995 62.9226 35.544 64.1961 35.4061C65.4695 35.2675 66.6251 36.1967 66.7629 37.4701C66.9016 38.7436 65.9732 39.8983 64.6997 40.037C63.4263 40.1741 62.2715 39.2457 62.1329 37.973ZM62.5807 34.6347L63.9984 33.5884L65.6289 34.249L65.303 34.9782L64.0933 34.461L63.0764 35.2205L62.5807 34.6347ZM66.9032 42.8979L64.7866 39.3421L65.6791 38.8106L67.7957 42.3664L66.9032 42.8979ZM63.1657 37.8606C63.243 38.5731 63.8749 39.0807 64.5874 39.0034C65.2998 38.9261 65.8074 38.2942 65.7301 37.5817C65.6528 36.8693 65.0209 36.3616 64.3084 36.4389C63.596 36.5162 63.0884 37.1474 63.1657 37.8606Z" fill="#E96024"/>
<path d="M75.1954 40.6046L74.1538 40.7178L73.7371 36.8886L72.364 40.9122L71.3846 41.019L69.0536 37.3173L69.4791 41.2262L68.4368 41.3394L67.7578 35.0971L68.8177 34.9816L71.7145 39.5774L73.4573 34.4771L74.5172 34.3616L75.1954 40.6046Z" fill="#318D95"/>
<path d="M35.9547 45.0119C35.4805 45.1139 35.0359 45.125 34.6207 45.0461C34.2055 44.9672 33.8317 44.8158 33.501 44.5919C33.1695 44.3679 32.8906 44.0858 32.6642 43.7448C32.4379 43.4037 32.2785 43.022 32.1877 42.5988C32.0968 42.1756 32.0849 41.7636 32.1526 41.3628C32.2196 40.9619 32.359 40.5914 32.5686 40.2511C32.779 39.9108 33.0571 39.6207 33.4038 39.3809C33.7504 39.141 34.1608 38.9704 34.635 38.8684C35.1092 38.7664 35.5531 38.7537 35.9682 38.8302C36.3826 38.9067 36.7564 39.0565 37.0871 39.2804C37.4186 39.5044 37.6968 39.7857 37.9231 40.1236C38.1494 40.4615 38.308 40.8424 38.3988 41.2656C38.4897 41.6887 38.5016 42.1023 38.4347 42.5064C38.3678 42.9104 38.2299 43.2825 38.0195 43.6228C37.8091 43.9631 37.531 44.254 37.1851 44.497C36.8385 44.7377 36.4289 44.9106 35.9547 45.0119ZM35.7236 43.9376C35.9945 43.8794 36.2344 43.7758 36.4448 43.6276C36.6552 43.4794 36.8265 43.2953 36.9588 43.0746C37.0911 42.8546 37.178 42.6123 37.2194 42.3502C37.26 42.088 37.2497 41.8122 37.1883 41.5246C37.1262 41.2369 37.0234 40.9819 36.8775 40.7587C36.7325 40.5364 36.554 40.3531 36.3436 40.2096C36.1324 40.0662 35.9013 39.9698 35.6487 39.9212C35.3961 39.8726 35.1347 39.8765 34.8637 39.9347C34.5928 39.9929 34.3529 40.0965 34.1425 40.2447C33.9321 40.3929 33.7608 40.5762 33.6277 40.7938C33.4946 41.0113 33.407 41.2512 33.3663 41.5142C33.3257 41.7772 33.336 42.0521 33.3974 42.3398C33.4596 42.6275 33.5624 42.8825 33.7082 43.1056C33.8532 43.328 34.0317 43.5129 34.2429 43.6595C34.4541 43.8061 34.686 43.9033 34.9386 43.9528C35.1913 43.9998 35.4534 43.9958 35.7236 43.9376Z" fill="#E96024"/>
<path d="M33.2207 37.924L34.6384 36.8777L36.2689 37.5383L35.943 38.2675L34.7332 37.7503L33.7164 38.5098L33.2207 37.924Z" fill="#E96024"/>
</svg>
