<svg width="68" height="70" viewBox="0 0 68 70" fill="none" xmlns="http://www.w3.org/2000/svg">
<path d="M67.1424 59.8752L55.0306 55.3343C54.6875 55.2076 54.3087 55.3678 54.1532 55.6996C53.9937 56.0479 54.1584 56.4575 54.5067 56.616L64.0176 60.8515C57.1852 61.7407 50.1725 61.2034 43.5969 59.2416C42.7014 58.9546 41.7886 58.6852 40.9237 58.3447L39.609 57.8516C39.1673 57.6661 38.7317 57.4907 38.3013 57.3123C36.5702 56.5833 34.8573 55.7804 33.224 54.8664C29.9297 53.0621 26.897 50.8126 24.2484 48.1693C21.6079 45.528 19.4119 42.4771 17.7192 39.1485C17.3005 38.3206 16.9011 37.4671 16.5334 36.6082C16.1658 35.7492 15.8299 34.885 15.5349 33.9959C15.2278 33.1212 14.9595 32.2299 14.7085 31.3211C14.472 30.4244 14.2457 29.5216 14.0747 28.6061C13.9908 28.1683 13.9143 27.754 13.8591 27.3057C14.7232 27.4721 15.6056 27.5646 16.4836 27.6038C17.9236 27.6578 19.361 27.5458 20.7658 27.2651C22.1706 26.9844 23.5522 26.5502 24.8684 25.9044C26.1691 25.268 27.424 24.429 28.4624 23.3375C28.5828 23.2015 28.7104 23.0542 28.838 22.9069C28.9655 22.7596 29.0716 22.6114 29.1992 22.4641C29.3103 22.3128 29.4255 22.1451 29.5233 21.9949L29.6711 21.7656L29.8157 21.5311C30.1935 20.8967 30.5086 20.2166 30.7569 19.5072C31.2546 18.1018 31.4532 16.5498 31.2387 15.0324L31.1369 14.4728C31.1129 14.3757 31.092 14.2837 31.0722 14.2049C31.0482 14.1078 31.0233 14.0322 31.0075 13.937C30.9055 13.5731 30.785 13.2134 30.6348 12.8508C30.4857 12.5015 30.3037 12.1442 30.1055 11.8178C29.9072 11.4914 29.6741 11.1652 29.4216 10.8647C29.2897 10.7283 29.1691 10.5643 29.0086 10.4383L28.7914 10.2421L28.5721 10.0541L28.4651 9.9585L28.3396 9.86716L28.0999 9.69156C28.0207 9.6419 27.9323 9.57694 27.8582 9.52417L27.5992 9.37431C26.9074 8.98458 26.1566 8.72839 25.4003 8.60128C23.8803 8.32356 22.3705 8.5005 20.9957 8.85374L21.0121 8.85773C20.967 8.86417 20.9199 8.87883 20.9404 8.8664L20.8881 8.88416L20.7919 8.92167L20.5952 8.97828C20.4672 9.02112 20.3392 9.06396 20.2194 9.10879C20.0914 9.15163 19.9747 9.20157 19.86 9.24329C19.7484 9.29012 19.6153 9.33607 19.4966 9.39421C19.2612 9.50229 19.0309 9.60726 18.7883 9.72665C18.5622 9.85002 18.3319 9.95499 18.1181 10.0988C17.2363 10.6065 16.4021 11.2388 15.6625 11.9463C15.4838 12.1247 15.3011 12.3195 15.1275 12.4947L14.614 13.0788L14.147 13.7046L13.7333 14.3608C13.2048 15.2543 12.8212 16.2135 12.535 17.1832C12.2539 18.1499 12.0663 19.1436 11.9566 20.1388C11.8469 21.134 11.8141 22.1174 11.8377 23.1015C11.8472 23.4169 11.8578 23.7456 11.8673 24.061L11.7635 24.0054C11.6299 23.9468 11.482 23.8761 11.3524 23.8012C11.0903 23.6462 10.8159 23.5057 10.5609 23.3394C10.4354 23.2481 10.3058 23.1731 10.1763 23.0982L9.81114 22.8313C9.68565 22.7399 9.5786 22.6443 9.4531 22.553C9.33164 22.4452 9.21746 22.361 9.09398 22.2614C8.86035 22.0612 8.62982 21.8661 8.41557 21.6402C7.97079 21.2191 7.56786 20.7517 7.17718 20.2698C6.40605 19.2999 5.7504 18.2319 5.1961 17.1233C4.04132 14.8992 3.35724 12.4242 3.05345 9.90672C2.75788 7.39122 2.82509 4.81596 3.22065 2.28564L3.22469 2.26922L3.22872 2.25281C3.33106 1.46453 2.78657 0.740962 2.01489 0.623174C1.20942 0.518924 0.483574 1.06451 0.376115 1.85589C-0.0235484 4.63308 -0.0671219 7.46627 0.301365 10.2517C0.678065 13.0391 1.46791 15.792 2.75524 18.3265C3.40867 19.5983 4.19414 20.8109 5.0889 21.9152C5.55983 22.46 6.03898 23.0068 6.56509 23.5042C6.8297 23.7554 7.09834 23.9902 7.38139 24.2372C7.51214 24.3602 7.66335 24.4709 7.80326 24.5744C7.95447 24.6851 8.08522 24.8081 8.24047 24.9023L8.69814 25.2178C8.85648 25.3171 9.00662 25.4145 9.16186 25.5087C9.47034 25.7053 9.79819 25.8763 10.124 26.0554C10.2813 26.1414 10.4559 26.2099 10.6132 26.2959L10.8701 26.4191L11.1259 26.5291L11.6395 26.7408L12.0893 26.8935C12.1855 27.5821 12.3095 28.2818 12.4579 28.9527C12.6536 29.909 12.8954 30.8374 13.1567 31.7748C13.4334 32.703 13.7234 33.63 14.0471 34.5435C14.3729 35.4488 14.7254 36.3518 15.1352 37.234C15.5234 38.1153 15.9485 38.9882 16.389 39.8517C18.1836 43.279 20.5246 46.4303 23.2987 49.1301C26.0727 51.8299 29.2427 54.0867 32.6345 55.9017C34.3192 56.8194 36.0823 57.6128 37.8604 58.3271C38.3073 58.5095 38.7531 58.6787 39.1988 58.8478L40.5658 59.3231C41.4604 59.6665 42.3906 59.9184 43.3178 60.2C50.0676 62.1259 57.2081 62.5507 64.1416 61.5512L55.7227 68.1168C55.4324 68.342 55.3695 68.7572 55.5738 69.059C55.7957 69.3781 56.2206 69.4551 56.5406 69.2328L67.3565 61.7839C67.5293 61.665 67.6681 61.4899 67.74 61.2856C67.9448 60.7005 67.6776 60.0878 67.124 59.8794L67.1424 59.8752ZM14.1976 17.7304C14.4689 16.8744 14.7978 16.0672 15.252 15.3166L15.6056 14.7806L16.0014 14.2679L16.4342 13.7817L16.9009 13.3167C17.5363 12.7143 18.2572 12.2067 19.0296 11.7724C19.224 11.6544 19.4185 11.5711 19.6128 11.4531C19.8165 11.3503 20.011 11.2671 20.2137 11.1859C20.3171 11.1371 20.4133 11.0996 20.5096 11.062C20.6089 11.0296 20.7041 10.9788 20.8167 10.9453C20.9161 10.9129 21.0257 10.8743 21.125 10.8419L21.2694 10.803L21.333 10.7923L21.3647 10.787C21.333 10.7924 21.2243 10.8095 21.1792 10.8159C21.086 10.8237 21.0089 10.8006 20.935 10.7827L21.3945 10.7899C21.708 10.7182 22.0011 10.6589 22.3116 10.6169C22.4653 10.5933 22.614 10.5729 22.7708 10.5544C22.9205 10.5473 23.0742 10.5237 23.2239 10.5166C23.8278 10.4849 24.4125 10.5138 24.975 10.633C26.0978 10.8448 27.0805 11.4138 27.7978 12.2489C28.515 13.084 28.934 14.2119 29.0876 15.3754C29.239 16.5123 29.0696 17.6974 28.6609 18.8113C28.4509 19.3648 28.1948 19.9113 27.8801 20.4306L27.7588 20.623C27.7129 20.6857 27.6671 20.7485 27.6376 20.8153C27.5499 20.9244 27.4745 21.054 27.3899 21.1682C27.3021 21.2774 27.2175 21.3916 27.1133 21.4968C27.0092 21.6019 26.9112 21.7173 26.8101 21.8275C25.9912 22.681 24.9531 23.3464 23.8518 23.8617C22.7413 24.3966 21.5275 24.7498 20.3029 24.9699C19.0743 25.2064 17.8132 25.2742 16.5659 25.2148C15.5392 25.1612 14.5171 25 13.5427 24.733C13.5097 24.1945 13.4818 23.6529 13.4826 23.1009C13.486 22.1842 13.5191 21.2704 13.6363 20.3683C13.774 19.4538 13.9417 18.577 14.2078 17.7242L14.1976 17.7304Z" fill="#E96024"/>
</svg>
