<svg width="32" height="70" viewBox="0 0 32 70" fill="none" xmlns="http://www.w3.org/2000/svg">
<path d="M31.7363 66.7891L24.7233 59.1889C24.524 58.9749 24.1959 58.953 23.9655 59.1339C23.7263 59.3252 23.6965 59.6769 23.8881 59.9154L29.1541 66.3616C23.9563 64.5379 19.1431 61.6308 15.1545 57.864C14.6185 57.3369 14.0638 56.8161 13.5688 56.2618L12.8076 55.4366C12.559 55.1452 12.3111 54.8633 12.068 54.581C11.0945 53.4377 10.1606 52.2481 9.32338 51.0078C7.62074 48.5342 6.26515 45.837 5.32538 42.9968C4.39075 40.1609 3.92076 37.1926 3.91014 34.2071C3.90905 33.4654 3.93105 32.7122 3.97766 31.9668C4.02426 31.2213 4.09547 30.4834 4.20483 29.7425C4.30026 29.0075 4.42945 28.2746 4.57734 27.5355C4.73112 26.8102 4.89445 26.0842 5.10183 25.3691C5.1995 25.0264 5.2939 24.703 5.41578 24.3632C5.97289 24.7929 6.56954 25.1764 7.18225 25.5204C8.19093 26.0771 9.25735 26.5144 10.3613 26.8195C11.4653 27.1246 12.6079 27.3118 13.7799 27.3243C14.9376 27.338 16.1353 27.1906 17.2694 26.7851C17.4043 26.7313 17.5484 26.6721 17.6925 26.6128C17.8366 26.5535 17.9656 26.4859 18.1097 26.4266C18.2435 26.3586 18.3861 26.2803 18.51 26.2083L18.698 26.0977L18.8856 25.9824C19.3837 25.6654 19.8533 25.2933 20.2859 24.8762C21.1469 24.0519 21.8472 23.0154 22.2401 21.8549L22.3688 21.4187C22.3866 21.3408 22.4048 21.2675 22.419 21.2042C22.4368 21.1262 22.4462 21.0632 22.4692 20.9896C22.5273 20.6931 22.5708 20.393 22.594 20.08C22.6132 19.777 22.6119 19.4565 22.5878 19.1521C22.5637 18.8477 22.5146 18.5309 22.4425 18.2255C22.3974 18.0808 22.3703 17.9202 22.3011 17.7725L22.2166 17.5543L22.1278 17.3411L22.0857 17.2344L22.029 17.124L21.9211 16.9124C21.8824 16.8485 21.8426 16.7703 21.8088 16.7059L21.6777 16.5057C21.3241 15.9785 20.8803 15.5255 20.3861 15.1626C19.4009 14.4174 18.2593 14.0004 17.1507 13.7579L17.161 13.7666C17.1264 13.755 17.0875 13.7485 17.1066 13.747L17.0629 13.7409L16.9807 13.733L16.82 13.7027C16.7132 13.6872 16.6063 13.6717 16.5047 13.6606C16.3979 13.6451 16.2966 13.6388 16.1997 13.6273C16.1032 13.6206 15.9916 13.6055 15.8859 13.6043C15.679 13.5967 15.4768 13.5888 15.2606 13.5867C15.0548 13.5934 14.8526 13.5855 14.6483 13.6112C13.836 13.6564 13.0129 13.8076 12.2303 14.0466C12.0386 14.1096 11.838 14.1829 11.651 14.2456L11.0743 14.4779L10.5156 14.7566L9.98418 15.0762C9.28533 15.5239 8.66629 16.0706 8.11302 16.66C7.56451 17.2489 7.07298 17.8908 6.63655 18.5619C6.20012 19.2329 5.82281 19.9232 5.48552 20.6343C5.37883 20.8629 5.26812 21.1013 5.16142 21.3299L5.10733 21.2529C5.03304 21.163 4.95284 21.0593 4.88733 20.9592C4.75594 20.7542 4.61061 20.5551 4.48838 20.3447C4.43165 20.2343 4.36614 20.1342 4.30063 20.0341L4.13598 19.7121C4.07926 19.6017 4.03722 19.495 3.9805 19.3846C3.93256 19.264 3.88136 19.1627 3.82903 19.0472C3.73428 18.8202 3.63991 18.5979 3.56826 18.3595C3.40224 17.8989 3.28278 17.4202 3.17725 16.9356C2.97574 15.9656 2.89196 14.9672 2.89515 13.9763C2.87104 11.973 3.27328 9.95982 3.96231 8.0532C4.65647 6.15095 5.63115 4.33659 6.82407 2.67247L6.83286 2.6622L6.84165 2.65193C7.19837 2.12599 7.07002 1.41348 6.56148 1.0517C6.02394 0.687432 5.30942 0.815747 4.94792 1.34207C3.66324 3.18096 2.61262 5.18798 1.87338 7.30915C1.13929 9.4347 0.712563 11.6843 0.719589 13.957C0.728436 15.1001 0.852876 16.2484 1.09429 17.3588C1.23445 17.9172 1.37976 18.48 1.5764 19.0244C1.67491 19.299 1.78221 19.5633 1.8954 19.8415C1.94447 19.9764 2.01261 20.1098 2.07523 20.2341C2.14337 20.3675 2.19244 20.5024 2.26937 20.6255L2.48259 21.0154C2.55989 21.1433 2.63205 21.2668 2.70898 21.3899C2.85845 21.6413 3.03101 21.8813 3.19918 22.1265C3.2805 22.2445 3.38053 22.3562 3.46185 22.4742L3.6009 22.6546L3.74397 22.8252L4.03451 23.1611L4.30069 23.432C4.12156 23.9583 3.95825 24.5024 3.82279 25.0348C3.61842 25.788 3.45698 26.5377 3.3062 27.3011C3.16973 28.0632 3.04317 28.8294 2.94561 29.5981C2.85244 30.3616 2.7791 31.1331 2.75421 31.9104C2.71425 32.6793 2.70366 33.4554 2.70739 34.2304C2.75528 37.3231 3.29266 40.4153 4.30159 43.341C5.31051 46.2666 6.76161 49.0186 8.53001 51.5348C9.40247 52.7962 10.3757 53.997 11.3881 55.1469C11.6415 55.4379 11.8989 55.7191 12.1563 56.0002L12.9612 56.8315C13.4763 57.3985 14.0498 57.9131 14.6104 58.4479C18.7363 62.2516 23.6811 65.1244 28.9908 66.9058L20.6178 68.5636C20.3295 68.6199 20.1352 68.8938 20.1724 69.1827C20.216 69.4904 20.4916 69.6983 20.8001 69.6547L31.2023 68.2288C31.3685 68.2061 31.5305 68.131 31.6554 68.0111C32.0121 67.667 32.0419 67.1334 31.7216 66.7855L31.7363 66.7891ZM9.1031 17.6489C9.60478 17.1354 10.1301 16.6775 10.7245 16.305L11.1698 16.0496L11.6368 15.826L12.1208 15.6346L12.6213 15.4706C13.2917 15.2692 13.989 15.1662 14.6968 15.1341C14.878 15.1198 15.0468 15.1303 15.2281 15.116C15.4104 15.1159 15.5792 15.1265 15.7532 15.1414C15.8445 15.1438 15.9268 15.1516 16.009 15.1595C16.0915 15.1721 16.1778 15.1701 16.2703 15.1867C16.3529 15.1993 16.445 15.2112 16.5276 15.2238L16.6447 15.248L16.6939 15.2632L16.7185 15.2709C16.6939 15.2632 16.6101 15.2364 16.5756 15.2247C16.5062 15.1967 16.4595 15.1526 16.4132 15.1132L16.7387 15.2836C16.9883 15.3452 17.2189 15.4084 17.4557 15.4901C17.5739 15.5286 17.6874 15.5675 17.806 15.6108C17.9154 15.6596 18.0336 15.6981 18.1431 15.7468C18.5856 15.9415 18.9926 16.1726 19.3513 16.46C20.0767 17.0152 20.5736 17.7752 20.7851 18.6295C20.9967 19.4837 20.8899 20.4398 20.5809 21.3257C20.2799 22.1918 19.7325 22.9769 19.0399 23.6251C18.6908 23.9447 18.3113 24.2427 17.8997 24.5002L17.744 24.5939C17.6886 24.6222 17.6333 24.6505 17.5882 24.6876C17.4863 24.7339 17.3859 24.7993 17.2843 24.8504C17.1824 24.8968 17.0809 24.9479 16.9687 24.9855C16.8565 25.023 16.745 25.0701 16.6332 25.1125C15.7414 25.4271 14.7608 25.5286 13.7891 25.5002C12.8039 25.4824 11.8103 25.2978 10.8568 25.0143C9.89453 24.7411 8.96981 24.3356 8.10069 23.8445C7.38695 23.4367 6.71525 22.9538 6.11573 22.4126C6.28594 22.0163 6.46092 21.6196 6.66013 21.2257C6.99238 20.5725 7.34485 19.932 7.75316 19.3302C8.18055 18.7269 8.61572 18.1612 9.11264 17.6481L9.1031 17.6489Z" fill="#104751"/>
</svg>
