<svg width="75" height="63" viewBox="0 0 75 63" fill="none" xmlns="http://www.w3.org/2000/svg">
<path d="M66.3341 61.6379L60.5225 50.0819C60.3598 49.7544 60.4785 49.3606 60.7918 49.1705C61.121 48.9745 61.5459 49.0945 61.7408 49.4238L66.9702 58.4266C67.1228 51.5382 65.8377 44.6234 63.1832 38.2956C62.802 37.436 62.4363 36.5573 62.0052 35.7338L61.3742 34.4794C61.1424 34.0601 60.9215 33.6458 60.698 33.237C59.7878 31.5939 58.8062 29.9768 57.7225 28.4507C55.5759 25.3685 53.0146 22.5942 50.1029 20.2438C47.1941 17.9013 43.9257 16.0445 40.4349 14.718C39.567 14.3903 38.6756 14.0845 37.7822 13.811C36.8889 13.5374 35.9937 13.296 35.0781 13.0979C34.1756 12.8862 33.2606 12.7148 32.3302 12.5626C31.4133 12.4235 30.4914 12.2951 29.5629 12.2232C29.1186 12.1867 28.6985 12.1549 28.2469 12.148C28.5049 12.9894 28.6913 13.8568 28.8243 14.7255C29.0321 16.1515 29.0747 17.5926 28.946 19.0194C28.8173 20.4462 28.5335 21.8663 28.0324 23.244C27.5389 24.6055 26.8391 25.9429 25.8651 27.0922C25.7428 27.2265 25.61 27.3691 25.4772 27.5118C25.3444 27.6544 25.2084 27.7757 25.0756 27.9183C24.9371 28.045 24.7826 28.1775 24.6438 28.2908L24.4316 28.4623L24.2139 28.6312C23.6236 29.0748 22.9811 29.4609 22.3024 29.7837C20.9584 30.429 19.4366 30.7926 17.9049 30.7418L17.3377 30.7005C17.2386 30.6871 17.1448 30.6761 17.0644 30.6649C16.9653 30.6514 16.8874 30.6347 16.7911 30.6292C16.4183 30.5668 16.0478 30.4855 15.6712 30.375C15.308 30.2641 14.9333 30.1214 14.5875 29.9593C14.2417 29.7971 13.8924 29.6002 13.5667 29.3813C13.417 29.2649 13.2409 29.1625 13.0985 29.0164L12.8801 28.8214L12.6697 28.6236L12.5632 28.5274L12.459 28.4124L12.2587 28.1929C12.2009 28.1195 12.1268 28.0385 12.0664 27.9705L11.8897 27.729C11.4281 27.0829 11.093 26.3639 10.8857 25.6255C10.4468 24.144 10.4611 22.6239 10.6651 21.2192L10.6708 21.2351C10.6724 21.1896 10.6819 21.1412 10.6718 21.1629L10.6838 21.109L10.7108 21.0093L10.7461 20.8077C10.7749 20.6759 10.8038 20.544 10.8356 20.4201C10.8645 20.2882 10.9016 20.1669 10.9308 20.0484C10.9654 19.9324 10.9969 19.7951 11.042 19.6709C11.1242 19.4252 11.2039 19.185 11.2967 18.9311C11.3951 18.693 11.4748 18.4528 11.5949 18.2249C12.0052 17.2937 12.5446 16.3966 13.1689 15.5856C13.3271 15.3888 13.5012 15.1862 13.6569 14.9949L14.1826 14.4219L14.7548 13.8905L15.363 13.409C16.1948 12.7878 17.1073 12.3037 18.0409 11.9153C18.9719 11.5324 19.9397 11.2394 20.9175 11.0238C21.8952 10.8082 22.8695 10.6703 23.8505 10.5884C24.1651 10.5641 24.493 10.5394 24.8076 10.5151L24.7412 10.4178C24.6687 10.2913 24.5825 10.1518 24.4942 10.031C24.312 9.78695 24.1429 9.52917 23.9503 9.29342C23.846 9.17842 23.7577 9.05766 23.6693 8.9369L23.3648 8.60241C23.2605 8.48742 23.154 8.39121 23.0498 8.27622C22.9296 8.16699 22.8336 8.06249 22.7214 7.95038C22.4974 7.73953 22.2787 7.53122 22.0311 7.34239C21.5648 6.94525 21.0569 6.59469 20.536 6.25784C19.4891 5.59499 18.3571 5.05745 17.1955 4.62503C14.8606 3.71502 12.3266 3.29987 9.791 3.26737C7.25832 3.24282 4.70505 3.58537 2.23163 4.24957L2.21574 4.25534L2.19985 4.26111C1.42706 4.44726 0.649357 3.98337 0.449623 3.22874C0.259733 2.43906 0.724465 1.65897 1.4998 1.4674C4.21822 0.772686 7.03047 0.42602 9.83932 0.494162C12.651 0.570256 15.4727 1.06081 18.1305 2.06938C19.4649 2.58288 20.7546 3.23402 21.9484 4.00539C22.5405 4.41529 23.1354 4.83313 23.6863 5.30297C23.9644 5.53916 24.2266 5.78112 24.5025 6.03609C24.6388 6.15292 24.765 6.29142 24.8829 6.41943C25.0091 6.55793 25.1455 6.67475 25.2558 6.81902L25.6185 7.24028C25.7342 7.38708 25.847 7.52593 25.9573 7.67019C26.1859 7.95584 26.3909 8.26351 26.6039 8.5683C26.7062 8.71545 26.793 8.88174 26.8954 9.02889L27.0454 9.27111L27.1821 9.51368L27.4476 10.0017L27.6476 10.4326C28.3425 10.4545 29.0515 10.5028 29.7344 10.5785C30.7062 10.6708 31.6551 10.8118 32.6152 10.9712C33.5676 11.1469 34.5203 11.336 35.4632 11.5601C36.3982 11.7871 37.3338 12.0408 38.2547 12.3538C39.1725 12.6454 40.0859 12.9746 40.9917 13.3201C44.5914 14.7374 47.9753 16.7276 50.9566 19.1966C53.9379 21.6656 56.5211 24.5758 58.6887 27.7538C59.7816 29.3305 60.7591 30.9985 61.6598 32.69C61.889 33.1148 62.1049 33.5399 62.3207 33.965L62.9397 35.2732C63.3769 36.1259 63.7269 37.0238 64.1062 37.9155C66.7437 44.4203 67.9306 51.4742 67.6792 58.4749L73.3056 49.4015C73.4984 49.0887 73.9045 48.9817 74.2265 49.1526C74.5675 49.3389 74.6896 49.7531 74.5028 50.0952L68.2547 61.6464C68.155 61.831 67.9958 61.9877 67.8004 62.0811C67.2406 62.3473 66.6027 62.1473 66.3363 61.6192L66.3341 61.6379ZM18.7629 13.5098C17.9409 13.8711 17.1735 14.2846 16.4758 14.8166L15.9808 15.2256L15.5135 15.6739L15.0763 16.1563L14.6639 16.6701C14.1331 17.3664 13.7055 18.1374 13.3565 18.952C13.2599 19.1578 13.198 19.3601 13.1015 19.566C13.0211 19.7795 12.9592 19.9818 12.9001 20.192C12.8627 20.3 12.8357 20.3997 12.8087 20.4994C12.7871 20.6017 12.7468 20.7017 12.7255 20.8174C12.7039 20.9196 12.6772 21.0327 12.6556 21.1349L12.6325 21.2827L12.6287 21.347L12.6268 21.3791C12.6287 21.347 12.6341 21.2371 12.6356 21.1916C12.6334 21.098 12.6022 21.0239 12.5765 20.9524L12.6328 21.4084C12.5951 21.7278 12.5675 22.0255 12.559 22.3388C12.552 22.4942 12.5476 22.6441 12.5461 22.802C12.555 22.9516 12.548 23.107 12.557 23.2566C12.5902 23.8604 12.6815 24.4386 12.8602 24.9851C13.1909 26.0788 13.862 26.995 14.7691 27.6187C15.6761 28.2424 16.8424 28.5382 18.0157 28.5663C19.1622 28.5951 20.3224 28.2998 21.3862 27.7742C21.9139 27.5062 22.4299 27.193 22.9125 26.8245L23.0908 26.6834C23.1483 26.631 23.2058 26.5787 23.269 26.5422C23.3682 26.4433 23.4889 26.3545 23.5934 26.2581C23.6925 26.1592 23.7971 26.0628 23.8905 25.948C23.9839 25.8332 24.0881 25.7234 24.1869 25.6111C24.9477 24.7056 25.4982 23.6021 25.8926 22.452C26.3055 21.2906 26.5267 20.046 26.6144 18.8049C26.7181 17.558 26.6504 16.2969 26.4579 15.0632C26.2946 14.048 26.0249 13.0491 25.6551 12.1089C25.1162 12.1338 24.5747 12.164 24.0259 12.2239C23.1149 12.3254 22.2099 12.4562 21.3256 12.6693C20.4311 12.9041 19.5773 13.1647 18.7578 13.5206L18.7629 13.5098Z" fill="#41B4B4"/>
</svg>
