<svg width="26" height="64" viewBox="0 0 26 64" fill="none" xmlns="http://www.w3.org/2000/svg">
<path d="M13.3644 62.8206L15.7874 54.053C15.8571 53.8055 16.1048 53.6562 16.3579 53.7049C16.622 53.7581 16.7869 54.0211 16.7331 54.2848L15.2115 61.4464C18.5415 57.9269 21.1345 53.7152 22.7364 49.1633C22.9433 48.5352 23.1673 47.9046 23.3311 47.2718L23.594 46.32C23.671 45.992 23.7513 45.6717 23.8277 45.3531C24.1285 44.0669 24.3797 42.7606 24.5349 41.4535C24.8701 38.8335 24.8438 36.1784 24.4348 33.5789C24.0236 30.985 23.1956 28.4746 22.0015 26.1357C21.7037 25.5553 21.3831 24.9752 21.0465 24.411C20.7098 23.8468 20.3569 23.2985 19.973 22.7632C19.6024 22.2269 19.2062 21.7058 18.7929 21.1874C18.3805 20.6822 17.9604 20.1803 17.5102 19.7046C17.2958 19.4759 17.0918 19.2611 16.8596 19.0444C16.597 19.6048 16.2849 20.145 15.9443 20.6608C15.3798 21.5023 14.722 22.2738 13.9816 22.957C13.2412 23.6402 12.4231 24.2467 11.5117 24.7285C10.612 25.2055 9.61599 25.5726 8.5658 25.7122C8.43865 25.7245 8.30211 25.7362 8.16557 25.7479C8.02904 25.7596 7.9009 25.7587 7.76436 25.7704C7.63235 25.7711 7.48932 25.7673 7.36345 25.7609L7.17188 25.7501L6.9787 25.7355C6.46159 25.6882 5.94443 25.5863 5.43823 25.4344C4.43296 25.1366 3.46793 24.6081 2.69329 23.8588L2.41703 23.5696C2.37168 23.5158 2.32796 23.4659 2.29136 23.4221C2.24601 23.3683 2.21329 23.3228 2.16568 23.2745C2.0008 23.0661 1.84594 22.8489 1.70175 22.6135C1.56468 22.3843 1.43665 22.1331 1.33289 21.8854C1.22913 21.6377 1.13991 21.3702 1.07334 21.1023C1.05026 20.971 1.00678 20.8345 1.00148 20.6911L0.979618 20.4864L0.963263 20.284L0.953145 20.1836L0.95305 20.0745L0.952221 19.8655C0.956694 19.7999 0.956301 19.7228 0.956892 19.6588L0.978712 19.4495C1.04294 18.8948 1.2075 18.3618 1.44782 17.879C1.91808 16.8995 2.64284 16.1136 3.41207 15.4775L3.40755 15.4885C3.42985 15.4655 3.45766 15.4448 3.44214 15.4513L3.47383 15.4289L3.53495 15.3896L3.64844 15.3012C3.72573 15.246 3.80302 15.1909 3.87804 15.1413C3.95533 15.0862 4.03197 15.0404 4.10312 14.9924C4.17588 14.9483 4.25705 14.8916 4.3392 14.848C4.498 14.7588 4.65291 14.6711 4.82109 14.5825C4.98475 14.5049 5.13966 14.4172 5.30981 14.3551C5.96317 14.0632 6.66772 13.85 7.37591 13.7217C7.55126 13.6937 7.73762 13.6703 7.90909 13.644L8.45362 13.5933L9.00271 13.5863L9.54699 13.6222C10.2738 13.6908 10.978 13.869 11.648 14.107C12.3142 14.3467 12.957 14.6507 13.5686 14.9996C14.1801 15.3486 14.7532 15.7364 15.3033 16.1566C15.4788 16.2924 15.6614 16.4343 15.8369 16.5701L15.8482 16.488C15.8701 16.3878 15.891 16.2744 15.9019 16.1698C15.9221 15.9566 15.9556 15.7424 15.9664 15.5286C15.9663 15.4194 15.9772 15.3147 15.9881 15.2101L15.9872 14.892C15.9871 14.7828 15.977 14.6824 15.9769 14.5733C15.9658 14.4596 15.965 14.3598 15.9594 14.2484C15.9421 14.0328 15.9264 13.821 15.8864 13.6057C15.8307 13.1786 15.7313 12.7562 15.6187 12.3347C15.3856 11.4951 15.049 10.6806 14.6475 9.90706C13.8595 8.33078 12.7342 6.91855 11.4275 5.70513C10.1185 4.4972 8.62566 3.47096 7.02261 2.6501L7.01161 2.64561L7.0006 2.64112C6.50983 2.37352 6.32325 1.76466 6.57521 1.27695C6.84883 0.775619 7.45925 0.588187 7.9539 0.854169C9.69908 1.77473 11.3289 2.92103 12.7613 4.28201C14.1914 5.64848 15.4311 7.23573 16.3409 9.01576C16.7944 9.9132 17.1595 10.8613 17.4179 11.8268C17.5332 12.3199 17.6463 12.8185 17.7118 13.3234C17.7453 13.5778 17.7678 13.8277 17.7914 14.0908C17.8073 14.2161 17.8078 14.3478 17.8089 14.4702C17.8093 14.602 17.8253 14.7272 17.8147 14.8545L17.805 15.2453C17.7961 15.3764 17.7894 15.502 17.7788 15.6293C17.7632 15.8861 17.7249 16.1433 17.6921 16.4027C17.676 16.5277 17.6428 16.6554 17.6268 16.7804L17.5907 16.9775L17.5475 17.1684L17.4556 17.5482L17.3566 17.8672C17.7086 18.2066 18.0554 18.5663 18.3758 18.928C18.8389 19.4347 19.2671 19.956 19.6924 20.4921C20.1061 21.0332 20.5137 21.5813 20.8995 22.1431C21.2799 22.7027 21.648 23.2764 21.9805 23.8742C22.3214 24.4594 22.6422 25.062 22.9515 25.6696C24.1595 28.1072 24.9847 30.7416 25.374 33.4358C25.7634 36.1299 25.737 38.8662 25.3675 41.5461C25.1933 42.8839 24.9159 44.2148 24.5873 45.5217C24.5064 45.8514 24.4183 46.1749 24.3303 46.4984L24.0357 47.4726C23.8612 48.1235 23.6201 48.7568 23.397 49.4007C21.7026 54.0368 18.9929 58.2747 15.5583 61.8062L22.7735 59.7304C23.0216 59.6583 23.2838 59.7942 23.371 60.0352C23.4609 60.2932 23.3291 60.5668 23.0703 60.657L14.3618 63.7314C14.2227 63.7805 14.0658 63.7871 13.9198 63.7436C13.5023 63.6182 13.2641 63.213 13.3744 62.8119L13.3644 62.8206ZM11.2721 15.2791C10.673 15.0796 10.0778 14.9331 9.46299 14.8812L9.01192 14.8609L8.55666 14.8741L8.10111 14.9193L7.64364 14.9927C7.03834 15.1051 6.45155 15.3054 5.88521 15.5654C5.73771 15.6272 5.60997 15.7034 5.46247 15.7652C5.31984 15.8386 5.1921 15.9149 5.06209 15.9966C4.99159 16.0352 4.93047 16.0745 4.86935 16.1137C4.80985 16.1569 4.7416 16.19 4.67596 16.2402C4.61646 16.2834 4.5492 16.3297 4.4897 16.3729L4.40789 16.439L4.37556 16.4707L4.3594 16.4866C4.37556 16.4707 4.4302 16.416 4.4525 16.393C4.4955 16.3431 4.51422 16.2898 4.53456 16.2403L4.34873 16.5047C4.17834 16.6534 4.02348 16.7956 3.87121 16.9549C3.79427 17.0327 3.72121 17.1088 3.64589 17.1904C3.57995 17.2726 3.50301 17.3503 3.43707 17.4325C3.16944 17.763 2.94421 18.1076 2.77951 18.4768C2.43587 19.2031 2.3534 19.9975 2.53202 20.7507C2.71065 21.5039 3.17915 22.2085 3.77761 22.7768C4.36182 23.3329 5.10605 23.7263 5.90871 23.9543C6.31036 24.0636 6.72719 24.1438 7.15272 24.1794L7.31225 24.1899C7.36693 24.1898 7.42161 24.1896 7.47178 24.2004C7.57014 24.1956 7.67499 24.2063 7.77497 24.2054C7.87333 24.2006 7.97331 24.1997 8.07619 24.1839C8.17908 24.1681 8.2852 24.16 8.38971 24.1481C9.21375 24.035 10.0214 23.7194 10.7698 23.3059C11.5331 22.8952 12.2357 22.3506 12.8671 21.7449C13.5096 21.1437 14.0694 20.4543 14.5512 19.7201C14.9451 19.1138 15.2759 18.4657 15.5267 17.801C15.234 17.5597 14.9374 17.3199 14.623 17.0922C14.1001 16.7152 13.5665 16.3563 13.0049 16.0502C12.4277 15.7505 11.8596 15.4834 11.2643 15.2823L11.2721 15.2791Z" fill="#41B4B4"/>
</svg>
