<svg width="112" height="55" viewBox="0 0 112 55" fill="none" xmlns="http://www.w3.org/2000/svg">
<path d="M14.3034 42.6785C15.6073 42.9995 16.8179 43.3302 18.0462 43.598C19.2746 43.8657 20.3159 44.5882 21.3303 45.3699C22.05 45.9276 22.3656 46.7538 22.1931 47.7616C22.0834 48.4193 21.9552 49.0999 21.7563 49.7316C21.0217 52.0284 19.4382 52.9872 17.3564 52.6631C14.6479 52.242 13.6966 51.1802 12.768 47.5278C12.5713 46.7581 12.5525 45.9353 12.434 45.0032C11.992 45.1425 11.5257 45.2256 11.0997 45.4225C9.42318 46.1907 7.85821 47.1266 6.65469 48.7764C6.23756 49.3472 5.58767 49.7093 5.00766 50.0805C4.6264 50.3254 4.48413 50.1525 4.56072 49.6401C4.74696 48.3349 5.30277 47.1319 6.14234 46.2347C7.93163 44.2929 9.93621 42.8278 12.4725 42.5703C12.6127 42.5583 12.8225 42.3503 12.8531 42.1853C13.7065 38.3237 15.322 34.948 17.2897 31.7072C19.5306 28.0133 22.3972 24.8818 25.7086 22.5112C28.5841 20.4292 31.476 18.2395 34.6812 16.8913C39.5998 14.8292 44.7146 13.9373 49.9902 14.1411C55.4808 14.3461 60.9339 15.0675 66.3891 15.7034C70.0092 16.1317 73.638 16.5936 77.2614 16.2707C80.0488 16.0289 82.8261 15.5385 85.5802 15.0016C87.7731 14.5778 89.9527 14.0159 92.1035 13.3285C94.6794 12.5043 96.9299 10.8455 99.2094 9.31222C102.183 7.32489 104.448 4.56785 105.897 0.928074C106.054 0.543143 106.22 0.156888 106.654 0.289081C107.087 0.421272 107.1 0.894611 107.069 1.28983C106.99 2.46303 106.644 3.58821 106.066 4.54949C104.431 7.23268 102.557 9.628 100.057 11.281C97.6201 12.894 95.2447 14.6524 92.5169 15.5655C90.7481 16.148 88.9488 16.6603 87.1351 17.0597C84.4588 17.6344 81.7764 18.195 79.0648 18.56C75.0648 19.097 71.0507 18.6455 67.0465 18.2374C62.5779 17.7921 58.1121 17.1661 53.6377 16.7767C49.9668 16.4565 46.2787 16.3041 42.6149 17.0186C40.0334 17.5284 37.3692 17.861 35.0171 19.1605C30.1933 21.8332 25.2339 24.352 21.3834 28.8337C18.3296 32.3848 15.8385 36.4082 14.5809 41.314C14.4643 41.7476 14.4025 42.2077 14.3034 42.6785ZM14.1144 45.11C14.0034 46.5335 14.3784 47.7257 14.8701 48.8896C15.514 50.4049 16.9186 51.1805 18.4207 50.865C19.7219 50.5909 20.3841 49.6164 20.5179 47.764C20.5239 47.7431 20.5334 47.7166 20.5273 47.7025C20.4154 47.4648 20.3549 47.1241 20.1803 47.0013C18.3337 45.6895 16.2734 45.332 14.1144 45.11Z" fill="#E96024"/>
</svg>
