<svg width="1441" height="820" viewBox="0 0 1441 820" fill="none" xmlns="http://www.w3.org/2000/svg">
<rect width="1440" height="819" transform="translate(0.142578)" fill="#FFFCF0"/>
<rect x="0.142578" y="0.125" width="1440" height="819" fill="#104751"/>
<g clip-path="url(#clip0_3750_9518)">
<path d="M674.457 94.5C1018.96 145.038 1272.96 142.5 1446.08 73.5V-24.1821H0.141602V142.5C211.957 88.0208 399.357 54.1431 674.457 94.5Z" fill="#FFFCF0"/>
<path d="M1443.77 28.7364C1335.46 81 1064.96 98 679.457 54C292.714 9.85808 79.457 73.5 -0.542969 103" stroke="#104751" stroke-dasharray="15 15"/>
</g>
<g opacity="0.2">
<path d="M591.782 421.212L594.234 421.048C595.582 420.967 596.931 421.948 597.217 423.257L597.789 425.629C598.116 426.938 599.301 427.838 600.445 427.674C601.589 427.511 602.488 426.243 602.365 424.934L602.202 422.48C602.12 421.13 603.101 419.781 604.408 419.494L606.778 418.922C608.086 418.594 608.985 417.408 608.821 416.263C608.658 415.118 607.391 414.218 606.084 414.341L603.632 414.504C602.284 414.586 600.935 413.605 600.649 412.296L600.077 409.924C599.75 408.615 598.565 407.715 597.421 407.879C596.277 408.042 595.378 409.31 595.501 410.619L595.664 413.073C595.746 414.423 594.765 415.772 593.458 416.059L591.088 416.631C589.78 416.958 588.881 418.145 589.045 419.29C589.208 420.435 590.475 421.294 591.782 421.212Z" fill="#41B4B4"/>
<path d="M318.132 267.753L322.872 267.426C325.446 267.221 328.102 269.144 328.715 271.679L329.859 276.301C330.472 278.837 332.801 280.596 335.049 280.268C337.296 279.9 338.971 277.528 338.808 274.91L338.481 270.166C338.277 267.589 340.197 264.931 342.731 264.317L347.348 263.172C349.881 262.559 351.638 260.227 351.311 257.978C350.985 255.728 348.574 254.051 345.959 254.215L341.219 254.542C338.644 254.747 335.988 252.824 335.376 250.288L334.231 245.667C333.619 243.131 331.289 241.372 329.042 241.699C326.795 242.067 325.119 244.44 325.283 247.057L325.61 251.802C325.814 254.378 323.894 257.037 321.36 257.65L316.743 258.796C314.209 259.409 312.452 261.741 312.779 263.99C313.106 266.24 315.558 267.957 318.132 267.753Z" fill="#E96024"/>
<path d="M1004.07 430.046L1006.56 430.251C1007.91 430.374 1009.14 431.56 1009.26 432.95L1009.46 435.445C1009.58 436.795 1010.65 437.94 1011.83 437.94C1013.02 437.94 1014.08 436.836 1014.2 435.445L1014.41 432.95C1014.53 431.601 1015.71 430.374 1017.1 430.251L1019.6 430.046C1020.94 429.924 1022.09 428.86 1022.09 427.674C1022.09 426.488 1020.99 425.425 1019.6 425.302L1017.1 425.097C1015.76 424.975 1014.53 423.789 1014.41 422.398L1014.2 419.903C1014.08 418.553 1013.02 417.408 1011.83 417.408C1010.65 417.408 1009.58 418.513 1009.46 419.903L1009.26 422.398C1009.14 423.748 1007.95 424.975 1006.56 425.097L1004.07 425.302C1002.72 425.425 1001.58 426.488 1001.58 427.674C1001.62 428.86 1002.72 429.924 1004.07 430.046Z" fill="#41B4B4"/>
<path d="M608.859 204.48C603.711 204.48 599.502 208.652 599.502 213.847C599.502 219 603.67 223.213 608.859 223.213C614.008 223.213 618.216 219.041 618.216 213.847C618.216 208.693 614.049 204.48 608.859 204.48ZM612.864 217.855C611.842 218.877 610.412 219.532 608.859 219.532C607.306 219.532 605.876 218.918 604.855 217.855C603.833 216.832 603.179 215.442 603.179 213.847C603.179 212.292 603.792 210.861 604.855 209.838C605.876 208.816 607.266 208.162 608.859 208.162C610.412 208.162 611.842 208.775 612.864 209.838C613.885 210.861 614.498 212.252 614.539 213.847C614.539 215.401 613.885 216.832 612.864 217.855Z" fill="#41B4B4"/>
<path d="M1164.57 475.404C1159.38 475.404 1155.17 479.617 1155.17 484.811C1155.17 490.006 1159.38 494.218 1164.57 494.218C1169.76 494.218 1173.97 490.006 1173.97 484.811C1173.93 479.617 1169.76 475.404 1164.57 475.404ZM1168.58 488.82C1167.55 489.842 1166.12 490.497 1164.57 490.497C1162.98 490.497 1161.59 489.883 1160.57 488.82C1159.55 487.797 1158.89 486.366 1158.89 484.811C1158.89 483.216 1159.51 481.826 1160.57 480.803C1161.59 479.781 1163.02 479.126 1164.57 479.126C1166.17 479.126 1167.55 479.74 1168.58 480.803C1169.6 481.826 1170.25 483.257 1170.25 484.811C1170.25 486.366 1169.6 487.797 1168.58 488.82Z" fill="#E96024"/>
<path d="M1048.81 276.71C1046.81 264.031 1034.96 255.401 1022.33 257.364C1009.67 259.368 1001.05 271.23 1003.01 283.868C1005.01 296.547 1016.86 305.177 1029.48 303.214C1042.11 301.25 1050.77 289.389 1048.81 276.71ZM1012.04 282.477C1011.42 278.633 1012.45 274.951 1014.57 272.007C1016.7 269.103 1019.88 267.017 1023.76 266.403C1027.6 265.79 1031.28 266.812 1034.22 268.939C1037.13 271.066 1039.21 274.256 1039.82 278.142C1040.44 281.986 1039.41 285.667 1037.29 288.612C1035.16 291.516 1031.98 293.602 1028.14 294.216C1024.3 294.829 1020.62 293.807 1017.68 291.68C1014.69 289.553 1012.61 286.322 1012.04 282.477Z" fill="#E96024"/>
<path d="M991.239 213.846L995.489 223.007L1004.97 224.48L998.104 231.637L999.738 241.699L991.239 236.954L982.74 241.699L984.374 231.637L977.51 224.48L986.99 223.007L991.239 213.846Z" fill="#E7BD11"/>
<path d="M1249.72 719.744C1249.89 721.503 1249.89 723.221 1249.72 724.939" stroke="#E7BD11" stroke-width="3.21361" stroke-linejoin="round"/>
<path d="M1247.07 735.041C1241.06 748.415 1226.11 758.313 1210.95 758.477C1190.44 758.722 1171.76 744.816 1161.14 727.229C1146.43 702.893 1144.96 672.095 1152.48 644.692C1159.95 617.247 1175.64 592.707 1193.42 570.498C1207.6 552.747 1223.41 535.937 1233.83 515.732C1244.25 495.528 1248.58 470.578 1238.65 450.128C1226.31 424.647 1194.48 413.072 1166.45 417.121C1138.42 421.13 1113.82 437.694 1092.33 456.14C1070.84 474.587 1051.3 495.487 1027.65 511.07C1002.35 527.716 888.268 557.451 952.256 254.256" stroke="#E7BD11" stroke-width="3.21361" stroke-linejoin="round" stroke-dasharray="4.12 4.12"/>
<path d="M953.32 249.103C953.688 247.426 954.055 245.749 954.423 244.031C953.238 244.849 951.767 245.79 950.092 246.853" stroke="#E7BD11" stroke-width="3.21361" stroke-linejoin="round"/>
<path d="M941.226 252.088C914.503 267.63 861.669 295.851 821.135 322.518" stroke="#E7BD11" stroke-width="3.21361" stroke-linejoin="round" stroke-dasharray="4.06 4.06"/>
<path d="M816.8 325.422C815.37 326.404 813.94 327.344 812.51 328.326L809.486 324.113" stroke="#E7BD11" stroke-width="3.21361" stroke-linejoin="round"/>
<path d="M803.44 315.526L733.404 217.119" stroke="#E7BD11" stroke-width="3.21361" stroke-linejoin="round" stroke-dasharray="4.13 4.13"/>
<path d="M730.382 212.865L727.358 208.611L726.092 213.642" stroke="#E7BD11" stroke-width="3.21361" stroke-linejoin="round"/>
<path d="M723.68 223.049L691.072 350.086" stroke="#E7BD11" stroke-width="3.21361" stroke-linejoin="round" stroke-dasharray="3.82 3.82"/>
<path d="M689.888 354.789L688.58 359.82L693.647 361.047" stroke="#E7BD11" stroke-width="3.21361" stroke-linejoin="round"/>
<path d="M703.33 363.379L892.354 409.106" stroke="#E7BD11" stroke-width="3.21361" stroke-linejoin="round" stroke-dasharray="3.92 3.92"/>
<path d="M897.217 410.292L902.243 411.519L903.387 406.447" stroke="#E7BD11" stroke-width="3.21361" stroke-linejoin="round"/>
<path d="M905.592 396.753L939.833 246.648" stroke="#E7BD11" stroke-width="3.21361" stroke-linejoin="round" stroke-dasharray="3.9 3.9"/>
<path d="M940.94 241.823L942.084 236.751C942.084 236.751 940.286 236.383 937.018 235.729" stroke="#E7BD11" stroke-width="3.21361" stroke-linejoin="round"/>
<path d="M926.839 233.765C884.017 225.299 763.599 201.495 727.764 194.828" stroke="#E7BD11" stroke-width="3.21361" stroke-linejoin="round" stroke-dasharray="4.09 4.09"/>
<path d="M722.656 193.887C719.101 193.232 717.263 192.946 717.671 193.11C717.263 194.827 716.854 196.504 716.486 198.181" stroke="#E7BD11" stroke-width="3.21361" stroke-linejoin="round"/>
<path d="M713.914 208.284C683.35 325.096 629.005 378.226 557.089 384.033C426.211 394.586 334.682 257.078 436.508 203.213C544.708 145.952 624.183 330.086 533.144 408.042C519.619 419.617 503.275 427.429 486.399 433.073C437.693 449.351 383.225 447.715 335.581 428.615C287.936 409.474 247.443 372.99 223.498 327.55L76.8066 271.23" stroke="#E7BD11" stroke-width="3.21361" stroke-linejoin="round" stroke-dasharray="4.11 4.11"/>
<path d="M71.9017 269.348L67.0801 267.467L71.7383 269.675" stroke="#E7BD11" stroke-width="3.21361" stroke-linejoin="round"/>
<path d="M80.8496 273.971L203.964 331.968" stroke="#E7BD11" stroke-width="3.21361" stroke-linejoin="round" stroke-dasharray="3.96 3.96"/>
<path d="M208.502 334.135L213.201 336.343L209.932 340.352" stroke="#E7BD11" stroke-width="3.21361" stroke-linejoin="round"/>
<path d="M202.493 349.432L176.424 381.17" stroke="#E7BD11" stroke-width="3.21361" stroke-linejoin="round" stroke-dasharray="4.61 4.61"/>
<path d="M172.706 385.711L169.437 389.719L165.76 386.079" stroke="#E7BD11" stroke-width="3.21361" stroke-linejoin="round"/>
<path d="M158.403 378.716L29.8535 249.961" stroke="#E7BD11" stroke-width="3.21361" stroke-linejoin="round" stroke-dasharray="4.09 4.09"/>
<path d="M26.1795 246.281L22.502 242.6L27.5279 243.908" stroke="#E7BD11" stroke-width="3.21361" stroke-linejoin="round"/>
<path d="M37.6191 246.443L234.611 296.506" stroke="#E7BD11" stroke-width="3.21361" stroke-linejoin="round" stroke-dasharray="4.1 4.1"/>
<path d="M239.639 297.814L244.665 299.082L241.518 303.213" stroke="#E7BD11" stroke-width="3.21361" stroke-linejoin="round"/>
<path d="M235.55 311.066L231.178 316.833L236.776 363.542" stroke="#E7BD11" stroke-width="3.21361" stroke-linejoin="round" stroke-dasharray="3.88 3.88"/>
<path d="M237.351 368.451L237.964 373.605L233.592 370.823" stroke="#E7BD11" stroke-width="3.21361" stroke-linejoin="round"/>
<path d="M226.155 366.16L215.041 359.166" stroke="#E7BD11" stroke-width="3.21361" stroke-linejoin="round" stroke-dasharray="3.45 3.45"/>
<path d="M211.321 356.834L206.908 354.094" stroke="#E7BD11" stroke-width="3.21361" stroke-linejoin="round"/>
<path d="M1073.37 270.161C1077.39 271.596 1081.1 273.018 1084.9 274.275C1088.7 275.533 1091.71 277.952 1094.62 280.522C1096.68 282.354 1097.35 284.746 1096.4 287.425C1095.78 289.175 1095.1 290.979 1094.21 292.619C1090.95 298.579 1085.53 300.52 1079.04 298.743C1070.6 296.433 1068.01 293.125 1066.53 282.75C1066.22 280.563 1066.49 278.308 1066.49 275.71C1065.03 275.902 1063.51 275.929 1062.08 276.285C1056.44 277.665 1051.08 279.551 1046.59 283.543C1045.03 284.923 1042.82 285.634 1040.83 286.4C1039.52 286.905 1039.13 286.372 1039.59 285.005C1040.71 281.52 1042.96 278.472 1045.99 276.38C1052.46 271.842 1059.43 268.685 1067.6 269.081C1068.05 269.108 1068.8 268.63 1068.96 268.192C1073.24 258.009 1079.74 249.479 1087.3 241.469C1095.92 232.338 1106.3 225.012 1117.78 219.954C1127.77 215.498 1137.85 210.755 1148.58 208.445C1165.05 204.918 1181.67 204.672 1198.36 207.488C1215.73 210.399 1232.77 214.705 1249.86 218.779C1261.19 221.499 1272.54 224.315 1284.19 224.984C1293.15 225.517 1302.18 225.367 1311.15 225.08C1318.29 224.861 1325.45 224.26 1332.57 223.303C1341.09 222.155 1348.91 218.587 1356.78 215.375C1367.04 211.22 1375.35 204.658 1381.43 195.336C1382.08 194.352 1382.77 193.368 1384.09 193.914C1385.42 194.461 1385.27 195.76 1385.01 196.826C1384.28 199.997 1382.73 202.922 1380.5 205.301C1374.22 211.93 1367.29 217.671 1358.68 221.116C1350.28 224.479 1342.02 228.265 1332.97 229.591C1327.12 230.425 1321.19 231.053 1315.26 231.368C1306.52 231.792 1297.77 232.174 1289 232.01C1276.07 231.764 1263.49 228.812 1250.92 225.982C1236.9 222.852 1222.96 219.23 1208.89 216.25C1197.35 213.803 1185.69 211.807 1173.75 212.19C1165.34 212.477 1156.73 212.245 1148.73 214.787C1132.32 220.022 1115.53 224.779 1101.48 235.373C1090.33 243.766 1080.79 253.689 1074.81 266.552C1074.25 267.7 1073.86 268.931 1073.36 270.188L1073.37 270.161ZM1071.79 276.722C1070.86 280.563 1071.57 283.98 1072.66 287.37C1074.1 291.785 1078.25 294.506 1083.15 294.287C1087.4 294.095 1089.9 291.717 1091.07 286.714C1091.1 286.659 1091.14 286.591 1091.13 286.536C1090.87 285.839 1090.81 284.882 1090.31 284.472C1084.98 280.098 1078.58 278.253 1071.8 276.708L1071.79 276.722Z" fill="#E7BD11"/>
</g>
<defs>
<clipPath id="clip0_3750_9518">
<rect width="1440" height="287" fill="white" transform="translate(0.142578 0.125)"/>
</clipPath>
</defs>
</svg>
