<svg width="1420" height="611" viewBox="0 0 1420 611" fill="none" xmlns="http://www.w3.org/2000/svg">
<g opacity="0.2">
<path d="M574.124 233.212L576.576 233.048C577.924 232.967 579.273 233.948 579.559 235.257L580.131 237.629C580.458 238.938 581.643 239.838 582.787 239.674C583.931 239.511 584.83 238.243 584.707 236.934L584.544 234.48C584.462 233.13 585.443 231.781 586.75 231.494L589.12 230.922C590.428 230.594 591.327 229.408 591.163 228.263C591 227.118 589.733 226.218 588.426 226.341L585.974 226.504C584.625 226.586 583.277 225.605 582.991 224.296L582.419 221.924C582.092 220.615 580.907 219.715 579.763 219.879C578.619 220.042 577.72 221.31 577.842 222.619L578.006 225.073C578.088 226.423 577.107 227.772 575.799 228.059L573.429 228.631C572.122 228.958 571.223 230.145 571.386 231.29C571.55 232.435 572.817 233.294 574.124 233.212Z" fill="#41B4B4"/>
<path d="M300.474 79.7529L305.214 79.4257C307.788 79.2212 310.444 81.1435 311.057 83.6793L312.201 88.3011C312.814 90.8369 315.143 92.5956 317.39 92.2684C319.638 91.9003 321.313 89.5281 321.15 86.9105L320.823 82.166C320.619 79.5893 322.539 76.9308 325.072 76.3173L329.69 75.172C332.223 74.5585 333.98 72.2272 333.653 69.9777C333.326 67.7282 330.916 66.0512 328.3 66.2148L323.561 66.542C320.986 66.7465 318.33 64.8242 317.717 62.2884L316.573 57.6667C315.96 55.1308 313.631 53.3721 311.384 53.6993C309.137 54.0674 307.461 56.4396 307.625 59.0573L307.952 63.8017C308.156 66.3784 306.235 69.037 303.702 69.6505L299.085 70.7957C296.551 71.4092 294.794 73.7405 295.121 75.9901C295.448 78.2396 297.9 79.9574 300.474 79.7529Z" fill="#E96024"/>
<path d="M986.411 242.046L988.903 242.251C990.251 242.374 991.477 243.56 991.6 244.95L991.804 247.445C991.927 248.795 992.989 249.94 994.174 249.94C995.359 249.94 996.421 248.836 996.544 247.445L996.748 244.95C996.871 243.601 998.056 242.374 999.445 242.251L1001.94 242.046C1003.29 241.924 1004.43 240.86 1004.43 239.674C1004.43 238.488 1003.33 237.425 1001.94 237.302L999.445 237.097C998.097 236.975 996.871 235.789 996.748 234.398L996.544 231.903C996.421 230.553 995.359 229.408 994.174 229.408C992.989 229.408 991.927 230.513 991.804 231.903L991.6 234.398C991.477 235.748 990.292 236.975 988.903 237.097L986.411 237.302C985.062 237.425 983.918 238.488 983.918 239.674C983.959 240.86 985.062 241.924 986.411 242.046Z" fill="#41B4B4"/>
<path d="M591.201 16.4805C586.052 16.4805 581.844 20.6523 581.844 25.8467C581.844 31.0001 586.012 35.2129 591.201 35.2129C596.349 35.2129 600.558 31.041 600.558 25.8467C600.558 20.6932 596.39 16.4805 591.201 16.4805ZM595.205 29.8549C594.184 30.8774 592.754 31.5318 591.201 31.5318C589.648 31.5318 588.218 30.9183 587.197 29.8549C586.175 28.8324 585.521 27.4418 585.521 25.8467C585.521 24.2925 586.134 22.8609 587.197 21.8384C588.218 20.8159 589.607 20.1615 591.201 20.1615C592.754 20.1615 594.184 20.775 595.205 21.8384C596.227 22.8609 596.84 24.2516 596.881 25.8467C596.881 27.4009 596.227 28.8324 595.205 29.8549Z" fill="#41B4B4"/>
<path d="M1146.91 287.404C1141.72 287.404 1137.52 291.617 1137.52 296.811C1137.52 302.006 1141.72 306.218 1146.91 306.218C1152.1 306.218 1156.31 302.006 1156.31 296.811C1156.27 291.617 1152.1 287.404 1146.91 287.404ZM1150.92 300.82C1149.9 301.842 1148.47 302.497 1146.91 302.497C1145.32 302.497 1143.93 301.883 1142.91 300.82C1141.89 299.797 1141.23 298.366 1141.23 296.811C1141.23 295.216 1141.85 293.826 1142.91 292.803C1143.93 291.781 1145.36 291.126 1146.91 291.126C1148.51 291.126 1149.9 291.74 1150.92 292.803C1151.94 293.826 1152.59 295.257 1152.59 296.811C1152.59 298.366 1151.94 299.797 1150.92 300.82Z" fill="#E96024"/>
<path d="M1031.15 88.7102C1029.15 76.031 1017.3 67.401 1004.68 69.3643C992.009 71.3684 983.387 83.2295 985.348 95.8678C987.351 108.547 999.2 117.177 1011.83 115.214C1024.45 113.25 1033.12 101.389 1031.15 88.7102ZM994.379 94.4771C993.766 90.6325 994.787 86.9515 996.912 84.0066C999.037 81.1027 1002.22 79.0168 1006.11 78.4033C1009.95 77.7898 1013.62 78.8123 1016.57 80.9391C1019.47 83.0659 1021.55 86.2561 1022.16 90.1417C1022.78 93.9863 1021.76 97.6674 1019.63 100.612C1017.51 103.516 1014.32 105.602 1010.48 106.216C1006.64 106.829 1002.96 105.807 1000.02 103.68C997.035 101.553 994.951 98.3218 994.379 94.4771Z" fill="#E96024"/>
<path d="M973.581 25.8457L977.83 35.0074L987.31 36.4798L980.446 43.6374L982.08 53.6989L973.581 48.9545L965.082 53.6989L966.716 43.6374L959.852 36.4798L969.331 35.0074L973.581 25.8457Z" fill="#E7BD11"/>
<path d="M1232.07 531.744C1232.23 533.503 1232.23 535.221 1232.07 536.939" stroke="#E7BD11" stroke-width="3.21361" stroke-linejoin="round"/>
<path d="M1229.41 547.041C1223.41 560.415 1208.45 570.313 1193.29 570.477C1172.78 570.722 1154.1 556.816 1143.48 539.229C1128.77 514.893 1127.3 484.095 1134.82 456.692C1142.3 429.247 1157.99 404.707 1175.76 382.498C1189.94 364.747 1205.75 347.937 1216.17 327.732C1226.59 307.528 1230.92 282.578 1220.99 262.128C1208.65 236.647 1176.82 225.072 1148.79 229.121C1120.76 233.13 1096.16 249.694 1074.67 268.14C1053.18 286.587 1033.65 307.487 1009.99 323.07C984.694 339.716 870.61 369.451 934.598 66.2559" stroke="#E7BD11" stroke-width="3.21361" stroke-linejoin="round" stroke-dasharray="4.12 4.12"/>
<path d="M935.662 61.1029C936.029 59.426 936.397 57.7491 936.765 56.0312C935.58 56.8493 934.109 57.79 932.434 58.8534" stroke="#E7BD11" stroke-width="3.21361" stroke-linejoin="round"/>
<path d="M923.568 64.0879C896.844 79.6301 844.011 107.851 803.477 134.518" stroke="#E7BD11" stroke-width="3.21361" stroke-linejoin="round" stroke-dasharray="4.06 4.06"/>
<path d="M799.142 137.422C797.712 138.404 796.282 139.344 794.852 140.326L791.828 136.113" stroke="#E7BD11" stroke-width="3.21361" stroke-linejoin="round"/>
<path d="M785.782 127.526L715.746 29.1191" stroke="#E7BD11" stroke-width="3.21361" stroke-linejoin="round" stroke-dasharray="4.13 4.13"/>
<path d="M712.724 24.865L709.7 20.6113L708.434 25.6421" stroke="#E7BD11" stroke-width="3.21361" stroke-linejoin="round"/>
<path d="M706.021 35.0488L673.414 162.086" stroke="#E7BD11" stroke-width="3.21361" stroke-linejoin="round" stroke-dasharray="3.82 3.82"/>
<path d="M672.229 166.789L670.922 171.82L675.989 173.047" stroke="#E7BD11" stroke-width="3.21361" stroke-linejoin="round"/>
<path d="M685.672 175.379L874.696 221.106" stroke="#E7BD11" stroke-width="3.21361" stroke-linejoin="round" stroke-dasharray="3.92 3.92"/>
<path d="M879.559 222.292L884.585 223.519L885.729 218.447" stroke="#E7BD11" stroke-width="3.21361" stroke-linejoin="round"/>
<path d="M887.934 208.753L922.175 58.6484" stroke="#E7BD11" stroke-width="3.21361" stroke-linejoin="round" stroke-dasharray="3.9 3.9"/>
<path d="M923.282 53.8227L924.426 48.751C924.426 48.751 922.628 48.3829 919.359 47.7285" stroke="#E7BD11" stroke-width="3.21361" stroke-linejoin="round"/>
<path d="M909.181 45.7654C866.359 37.299 745.941 13.4949 710.105 6.82812" stroke="#E7BD11" stroke-width="3.21361" stroke-linejoin="round" stroke-dasharray="4.09 4.09"/>
<path d="M704.998 5.88668C701.443 5.23228 699.605 4.94597 700.013 5.10958C699.605 6.82739 699.196 8.50431 698.828 10.1812" stroke="#E7BD11" stroke-width="3.21361" stroke-linejoin="round"/>
<path d="M696.256 20.2842C665.692 137.096 611.346 190.226 539.431 196.033C408.552 206.586 317.023 69.0785 418.849 15.2126C527.05 -42.0481 606.525 142.086 515.486 220.042C501.961 231.617 485.617 239.429 468.741 245.073C420.034 261.351 365.566 259.715 317.922 240.615C270.278 221.474 229.785 184.99 205.84 139.55L59.1484 83.23" stroke="#E7BD11" stroke-width="3.21361" stroke-linejoin="round" stroke-dasharray="4.11 4.11"/>
<path d="M54.2435 81.3482L49.4219 79.4668L54.0801 81.6754" stroke="#E7BD11" stroke-width="3.21361" stroke-linejoin="round"/>
<path d="M63.1914 85.9707L186.306 143.968" stroke="#E7BD11" stroke-width="3.21361" stroke-linejoin="round" stroke-dasharray="3.96 3.96"/>
<path d="M190.844 146.135L195.543 148.343L192.274 152.352" stroke="#E7BD11" stroke-width="3.21361" stroke-linejoin="round"/>
<path d="M184.835 161.432L158.766 193.17" stroke="#E7BD11" stroke-width="3.21361" stroke-linejoin="round" stroke-dasharray="4.61 4.61"/>
<path d="M155.048 197.711L151.779 201.719L148.102 198.079" stroke="#E7BD11" stroke-width="3.21361" stroke-linejoin="round"/>
<path d="M140.745 190.716L12.1953 61.9609" stroke="#E7BD11" stroke-width="3.21361" stroke-linejoin="round" stroke-dasharray="4.09 4.09"/>
<path d="M8.52126 58.2806L4.84375 54.5996L9.86968 55.9084" stroke="#E7BD11" stroke-width="3.21361" stroke-linejoin="round"/>
<path d="M19.9609 58.4434L216.953 108.506" stroke="#E7BD11" stroke-width="3.21361" stroke-linejoin="round" stroke-dasharray="4.1 4.1"/>
<path d="M221.98 109.814L227.006 111.082L223.86 115.213" stroke="#E7BD11" stroke-width="3.21361" stroke-linejoin="round"/>
<path d="M217.892 123.066L213.52 128.833L219.118 175.542" stroke="#E7BD11" stroke-width="3.21361" stroke-linejoin="round" stroke-dasharray="3.88 3.88"/>
<path d="M219.693 180.451L220.306 185.605L215.934 182.823" stroke="#E7BD11" stroke-width="3.21361" stroke-linejoin="round"/>
<path d="M208.497 178.16L197.383 171.166" stroke="#E7BD11" stroke-width="3.21361" stroke-linejoin="round" stroke-dasharray="3.45 3.45"/>
<path d="M193.663 168.834L189.25 166.094" stroke="#E7BD11" stroke-width="3.21361" stroke-linejoin="round"/>
<path d="M1055.71 82.1608C1059.73 83.596 1063.44 85.0176 1067.24 86.2752C1071.04 87.5328 1074.06 89.9522 1076.96 92.522C1079.03 94.3537 1079.7 96.7458 1078.74 99.4249C1078.12 101.175 1077.44 102.979 1076.55 104.619C1073.29 110.579 1067.87 112.52 1061.38 110.743C1052.94 108.433 1050.35 105.125 1048.87 94.7501C1048.56 92.563 1048.83 90.3076 1048.83 87.7105C1047.37 87.9018 1045.85 87.9292 1044.42 88.2846C1038.78 89.6651 1033.43 91.5515 1028.93 95.5429C1027.38 96.9235 1025.16 97.6343 1023.17 98.3997C1021.86 98.9055 1021.48 98.3724 1021.93 97.0055C1023.05 93.5198 1025.3 90.4716 1028.33 88.3802C1034.81 83.8421 1041.77 80.6845 1049.94 81.0809C1050.39 81.1083 1051.14 80.6299 1051.3 80.1924C1055.58 70.0089 1062.08 61.4794 1069.64 53.4693C1078.26 44.3383 1088.64 37.0117 1100.13 31.9541C1110.11 27.498 1120.19 22.7548 1130.92 20.4447C1147.39 16.9181 1164.01 16.672 1180.7 19.4879C1198.07 22.3994 1215.12 26.7052 1232.2 30.7786C1243.54 33.4987 1254.89 36.3146 1266.53 36.9843C1275.49 37.5174 1284.52 37.3671 1293.49 37.08C1300.64 36.8613 1307.79 36.2599 1314.91 35.303C1323.43 34.1548 1331.25 30.5872 1339.12 27.3749C1349.38 23.2195 1357.69 16.6583 1363.77 7.33601C1364.43 6.35183 1365.11 5.36765 1366.43 5.91442C1367.76 6.46118 1367.61 7.75975 1367.35 8.82594C1366.63 11.9972 1365.07 14.9224 1362.84 17.3008C1356.56 23.9303 1349.64 29.6714 1341.02 33.116C1332.62 36.4786 1324.36 40.2649 1315.32 41.5908C1309.46 42.4247 1303.53 43.0534 1297.6 43.3678C1288.86 43.7916 1280.11 44.1743 1271.34 44.0103C1258.41 43.7642 1245.83 40.8117 1233.27 37.9822C1219.24 34.852 1205.3 31.2296 1191.23 28.2498C1179.69 25.803 1168.03 23.8073 1156.09 24.19C1147.68 24.4771 1139.08 24.2447 1131.07 26.7872C1114.66 32.0224 1097.87 36.7793 1083.82 47.3729C1072.68 55.7657 1063.13 65.6895 1057.15 78.5521C1056.59 79.7003 1056.21 80.9306 1055.7 82.1881L1055.71 82.1608ZM1054.13 88.722C1053.2 92.563 1053.91 95.9803 1055 99.3702C1056.44 103.785 1060.59 106.506 1065.49 106.287C1069.74 106.095 1072.24 103.717 1073.41 98.7141C1073.44 98.6594 1073.48 98.5911 1073.47 98.5364C1073.21 97.8393 1073.15 96.8824 1072.65 96.4724C1067.32 92.0983 1060.92 90.2529 1054.14 88.7083L1054.13 88.722Z" fill="#E7BD11"/>
</g>
</svg>
