<svg width="147" height="57" viewBox="0 0 147 57" fill="none" xmlns="http://www.w3.org/2000/svg">
<path d="M142.968 56.1228C145.05 54.6779 145.644 51.1063 143.472 46.8259C146.216 43.5815 144.638 41.1822 146.628 37.9924C146.628 33.8483 142.465 31.4763 144.569 28.0683C145.942 18.9622 143.883 13.1822 144.409 9.28351C145.21 3.61263 143.677 0.722656 144.592 0.722656C136.359 0.722656 1.14626 0.722656 3.70779 0.722656C4.6455 0.722656 4.39392 7.34778 2.31267 9.25625C2.70148 13.8093 2.40416 17.7353 4.4854 18.0897C3.45621 19.7256 2.70148 20.9797 2.70148 20.9797C2.70148 20.9797 2.88444 26.3234 3.73066 28.0411C2.31267 29.7314 0.414392 31.1491 0.0484584 32.8122C-0.317475 34.5026 2.06109 36.9291 0.940421 38.5376C0.940421 41.4004 1.53506 44.9992 2.31267 46.7986C3.59344 51.9242 5.97201 55.3322 3.75354 55.3322C3.02167 55.3322 140.43 57.8677 142.968 56.1228Z" fill="#E96024"/>
</svg>
