<svg width="106" height="27" viewBox="0 0 106 27" fill="none" xmlns="http://www.w3.org/2000/svg">
<path d="M103.141 26.6579C104.634 25.9625 105.06 24.244 103.502 22.1843C105.47 20.6231 104.339 19.4686 105.766 17.9337C105.766 15.9396 102.781 14.7983 104.29 13.1584C105.274 8.77663 103.797 5.99539 104.175 4.11937C104.749 1.39062 103.65 0 104.306 0C98.4012 0 1.4326 0 3.26962 0C3.94211 0 3.76168 3.18792 2.2691 4.10625C2.54793 6.29713 2.33471 8.18627 3.82729 8.35682C3.0892 9.14396 2.54793 9.74743 2.54793 9.74743C2.54793 9.74743 2.67915 12.3188 3.28602 13.1453C2.2691 13.9586 0.907735 14.6408 0.645303 15.4411C0.38287 16.2545 2.08868 17.4221 1.28498 18.1961C1.28498 19.5736 1.71143 21.3053 2.2691 22.1712C3.18761 24.6375 4.89342 26.2774 3.30243 26.2774C2.77756 26.2774 101.321 27.4975 103.141 26.6579Z" fill="#E96024"/>
</svg>
