<svg width="187" height="56" viewBox="0 0 187 56" fill="none" xmlns="http://www.w3.org/2000/svg">
<path d="M181.578 54.5643C184.213 53.1193 184.965 49.5477 182.215 45.2673C185.689 42.0229 183.691 39.6237 186.21 36.4338C186.21 32.2897 180.941 29.9177 183.605 26.5097C185.342 17.4036 182.736 11.6237 183.402 7.72492C184.415 2.05403 182.475 -0.835938 183.634 -0.835938C173.211 -0.835938 2.04804 -0.835938 5.29064 -0.835938C6.47766 -0.835938 6.15919 5.78918 3.52458 7.69766C4.01676 12.2507 3.64039 16.1767 6.275 16.5312C4.97217 18.167 4.01676 19.4211 4.01676 19.4211C4.01676 19.4211 4.24837 24.7648 5.31959 26.4825C3.52458 28.1728 1.12158 29.5905 0.658355 31.2536C0.195127 32.944 3.20611 35.3705 1.78747 36.9791C1.78747 39.8418 2.54022 43.4406 3.52458 45.24C5.14588 50.3656 8.15686 53.7736 5.34854 53.7736C4.42208 53.7736 178.364 56.3091 181.578 54.5643Z" fill="#E7BD11"/>
</svg>
