<svg width="58" height="57" viewBox="0 0 58 57" fill="none" xmlns="http://www.w3.org/2000/svg">
<g clip-path="url(#clip0_4307_5328)">
<g clip-path="url(#clip1_4307_5328)">
<path d="M55.3349 56.2693C56.1375 54.8243 56.3668 51.2528 55.529 46.9724C56.5873 43.728 55.9788 41.3287 56.7461 38.1389C56.7461 33.9948 55.1409 31.6228 55.9523 28.2148C56.4815 19.1087 55.6877 13.3287 55.8906 9.43C56.1993 3.75911 55.6083 0.869141 55.9611 0.869141C52.786 0.869141 0.64335 0.869141 1.63117 0.869141C1.99278 0.869141 1.89576 7.49426 1.09316 9.40273C1.2431 13.9558 1.12844 17.8818 1.93104 18.2362C1.53415 19.8721 1.2431 21.1262 1.2431 21.1262C1.2431 21.1262 1.31365 26.4699 1.63999 28.1875C1.09316 29.8779 0.361116 31.2956 0.219999 32.9587C0.0788826 34.6491 0.996142 37.0756 0.563972 38.6841C0.563972 41.5468 0.793286 45.1457 1.09316 46.9451C1.58707 52.0707 2.50433 55.4787 1.64881 55.4787C1.36657 55.4787 54.3559 58.0142 55.3349 56.2693Z" fill="#E96024"/>
<path d="M29.9453 28.8691L24.1953 23.1191L25.9453 21.3691L33.4453 28.8691L25.9453 36.3691L24.1953 34.6191L29.9453 28.8691Z" fill="white"/>
</g>
</g>
<defs>
<clipPath id="clip0_4307_5328">
<rect width="57" height="56" fill="white" transform="translate(0.195312 0.869141)"/>
</clipPath>
<clipPath id="clip1_4307_5328">
<rect width="57" height="56" fill="white" transform="translate(0.195312 0.869141)"/>
</clipPath>
</defs>
</svg>
