<svg width="58" height="57" viewBox="0 0 58 57" fill="none" xmlns="http://www.w3.org/2000/svg">
<g clip-path="url(#clip0_4307_5323)">
<g clip-path="url(#clip1_4307_5323)">
<path d="M2.0557 56.2693C1.2531 54.8243 1.02378 51.2528 1.86166 46.9724C0.803288 43.728 1.41185 41.3287 0.644531 38.1389C0.644531 33.9948 2.24973 31.6228 1.43831 28.2148C0.909126 19.1087 1.70291 13.3287 1.50005 9.43C1.19136 3.75911 1.78228 0.869141 1.42949 0.869141C4.60462 0.869141 56.7473 0.869141 55.7595 0.869141C55.3978 0.869141 55.4949 7.49426 56.2975 9.40273C56.1475 13.9558 56.2622 17.8818 55.4596 18.2362C55.8565 19.8721 56.1475 21.1262 56.1475 21.1262C56.1475 21.1262 56.077 26.4699 55.7506 28.1875C56.2975 29.8779 57.0295 31.2956 57.1706 32.9587C57.3117 34.6491 56.3945 37.0756 56.8267 38.6841C56.8267 41.5468 56.5973 45.1457 56.2975 46.9451C55.8036 52.0707 54.8863 55.4787 55.7418 55.4787C56.0241 55.4787 3.03469 58.0142 2.0557 56.2693Z" fill="#E96024"/>
<path d="M27.4453 28.8691L33.1953 23.1191L31.4453 21.3691L23.9453 28.8691L31.4453 36.3691L33.1953 34.6191L27.4453 28.8691Z" fill="white"/>
</g>
</g>
<defs>
<clipPath id="clip0_4307_5323">
<rect width="57" height="56" fill="white" transform="matrix(-1 0 0 1 57.1953 0.869141)"/>
</clipPath>
<clipPath id="clip1_4307_5323">
<rect width="57" height="56" fill="white" transform="matrix(-1 0 0 1 57.1953 0.869141)"/>
</clipPath>
</defs>
</svg>
