<svg width="18" height="18" viewBox="0 0 18 18" fill="none" xmlns="http://www.w3.org/2000/svg">
<g clip-path="url(#clip0_588_7693)">
<path d="M3.75117 13.5271L13.1939 14.1541L13.6865 6.73482L4.24381 6.10781M6.58076 1.52081L6.49119 2.86977L11.887 3.22806L11.9766 1.8791L13.3256 1.96867L13.236 3.31763L13.9105 3.36241C14.6591 3.41213 15.2196 4.05227 15.1699 4.80095L14.5428 14.2437C14.5191 14.6014 14.3542 14.9351 14.0844 15.1713C13.8146 15.4075 13.4621 15.5268 13.1043 15.5031L3.66159 14.876C3.30383 14.8523 2.97015 14.6874 2.73397 14.4176C2.49779 14.1478 2.37845 13.7953 2.40221 13.4375L3.02921 3.99479C3.05297 3.63703 3.21787 3.30335 3.48765 3.06717C3.75743 2.83099 4.10998 2.71165 4.46775 2.73541L5.14223 2.78019L5.2318 1.43123M5.41363 8.8953L8.78603 9.11923L8.5621 12.4916L5.1897 12.2677L5.41363 8.8953Z" fill="#104751"/>
</g>
<defs>
<clipPath id="clip0_588_7693">
<rect width="16.2232" height="16.2232" fill="white" transform="matrix(-0.997803 -0.0662553 -0.0662553 0.997803 17.392 1.50342)"/>
</clipPath>
</defs>
</svg>
