<svg width="17" height="16" viewBox="0 0 17 16" fill="none" xmlns="http://www.w3.org/2000/svg">
<rect x="0.859375" y="16" width="16" height="16" rx="8" transform="rotate(-90 0.859375 16)" fill="#FFFCF0"/>
<path d="M5.33061 9.79332C5.39228 9.85512 5.46554 9.90415 5.54619 9.93761C5.62684 9.97106 5.71329 9.98828 5.80061 9.98828C5.88792 9.98828 5.97437 9.97106 6.05502 9.93761C6.13567 9.90415 6.20893 9.85512 6.27061 9.79332L8.85727 7.20665L11.4439 9.79332C11.5686 9.91797 11.7377 9.988 11.9139 9.988C12.0902 9.988 12.2593 9.91797 12.3839 9.79332C12.5086 9.66867 12.5786 9.4996 12.5786 9.32332C12.5786 9.14703 12.5086 8.97797 12.3839 8.85332L9.32394 5.79332C9.26226 5.73152 9.189 5.68248 9.10836 5.64903C9.02771 5.61558 8.94125 5.59836 8.85394 5.59836C8.76663 5.59836 8.68017 5.61558 8.59952 5.64903C8.51888 5.68248 8.44562 5.73152 8.38394 5.79332L5.32394 8.85332C5.07061 9.10665 5.07061 9.53332 5.33061 9.79332Z" fill="#E96024"/>
</svg>
