<svg width="17" height="18" viewBox="0 0 17 18" fill="none" xmlns="http://www.w3.org/2000/svg">
<path d="M8.50002 2.89502C11.9775 2.89502 14.7963 5.71387 14.7963 9.19132C14.7963 12.6688 11.9775 15.4876 8.50002 15.4876C5.02257 15.4876 2.20372 12.6688 2.20372 9.19132C2.20372 5.71387 5.02257 2.89502 8.50002 2.89502ZM11.0211 9.74413C10.8038 9.41358 10.6471 9.17557 10.0502 9.27002C8.92313 9.44883 8.79783 9.64591 8.74431 9.9708L8.7292 10.069L8.71346 10.1735C8.65239 10.6036 8.65428 10.766 8.85198 10.9732C9.64846 11.8093 10.1257 12.4119 10.2705 12.7645C10.3411 12.9364 10.5224 13.4571 10.3977 13.9721C11.1618 13.6674 11.842 13.1845 12.3817 12.5636C12.4509 12.3281 12.5013 12.0347 12.5013 11.6796V11.6135C12.5013 11.033 12.5013 10.7679 12.0908 10.5331C11.959 10.4579 11.8235 10.3896 11.6847 10.3284C11.4536 10.2233 11.3006 10.1546 11.0941 9.85243C11.0689 9.81675 11.0446 9.78065 11.0211 9.74413ZM8.50002 4.04913C7.04116 4.04913 5.72335 4.65735 4.78772 5.63328C4.89916 5.71072 4.99613 5.81965 5.06287 5.9695C5.19131 6.25724 5.19131 6.5538 5.19131 6.81635C5.19131 7.02287 5.19131 7.21932 5.25742 7.36098C5.34809 7.55491 5.73972 7.63802 6.08539 7.7098C6.20942 7.73624 6.33661 7.76269 6.45246 7.7948C6.77105 7.88295 7.01787 8.16943 7.21494 8.39924C7.29679 8.49432 7.41831 8.63472 7.47939 8.66998C7.51087 8.64732 7.61224 8.53713 7.66198 8.35643C7.70102 8.21791 7.68968 8.09576 7.63365 8.02902C7.28105 7.61346 7.30057 6.81383 7.4095 6.51854C7.58076 6.05324 8.11594 6.08787 8.50757 6.11306C8.65365 6.1225 8.79091 6.13195 8.89416 6.11872C9.28579 6.06961 9.40668 5.47335 9.49168 5.35687C9.67553 5.10502 10.2384 4.72535 10.5872 4.49113C9.93044 4.19829 9.21914 4.04766 8.50002 4.04913Z" fill="#104751"/>
</svg>
