<svg width="1178" height="85" viewBox="0 0 1178 85" fill="none" xmlns="http://www.w3.org/2000/svg">
<g clip-path="url(#clip0_4259_1613)">
<path d="M894.786 84.91C909.656 82.6716 909.917 80.6248 905.943 71.6509C907.564 64.1726 903.46 67.1639 907.93 56.6943C907.93 50.2748 904.453 53.703 905.081 39.4943C914.886 25.3882 903.956 23.042 905.081 12.3525C906.206 1.66292 894.257 -0.140625 900.794 -0.140625C841.967 -0.140625 -17.8145 -0.140625 0.487244 -0.140625C4.061 5.842 5.28687 8.08548 4.061 12.3103C6.08197 25.2855 3.07657 17.8568 5.28687 28.287C2.96979 41.7378 8.90392 58.6451 6.24719 68.6596C2.52285 82.6984 7.43995 76.1378 6.40879 83.6852C1.17971 83.6852 876.648 87.613 894.786 84.91Z" fill="#318D95"/>
<path d="M1164.76 84.41C1177.66 82.1716 1177.89 80.1248 1174.44 71.1509C1175.85 63.6726 1172.28 66.6639 1176.16 56.1943C1176.16 49.7748 1173.15 53.203 1173.69 38.9943C1182.2 24.8882 1172.71 22.542 1173.69 11.8525C1174.67 1.16292 1164.3 -0.640625 1169.97 -0.640625C1118.91 -0.640625 372.63 -0.640625 388.516 -0.640625C391.618 5.342 392.682 7.58548 391.618 11.8103C393.372 24.7855 390.763 17.3568 392.682 27.787C390.67 41.2377 395.821 58.1451 393.515 68.1596C390.283 82.1983 394.55 75.6378 393.655 83.1852C389.117 83.1852 1149.01 87.113 1164.76 84.41Z" fill="#318D95"/>
</g>
<defs>
<clipPath id="clip0_4259_1613">
<rect width="1177" height="84" fill="white" transform="translate(0.265625 0.359375)"/>
</clipPath>
</defs>
</svg>
