<svg width="46" height="46" viewBox="0 0 46 46" fill="none" xmlns="http://www.w3.org/2000/svg">
<g clip-path="url(#clip0_505_1537)">
<path d="M44.412 44.6219C45.0585 43.458 45.2432 40.5813 44.5683 37.1337C45.4208 34.5205 44.9306 32.588 45.5487 30.0188C45.5487 26.6809 44.2558 24.7704 44.9093 22.0255C45.3355 14.691 44.6962 10.0355 44.8596 6.89531C45.1082 2.32772 44.6323 0 44.9164 0C42.359 0 0.360908 0 1.15654 0C1.4478 0 1.36966 5.33618 0.723206 6.87335C0.843972 10.5406 0.751621 13.7028 1.39807 13.9883C1.0784 15.3058 0.843972 16.316 0.843972 16.316C0.843972 16.316 0.900803 20.6201 1.16365 22.0035C0.723206 23.365 0.133584 24.5069 0.0199223 25.8464C-0.0937397 27.2079 0.645063 29.1623 0.296973 30.4579C0.296973 32.7637 0.481674 35.6624 0.723206 37.1117C1.12102 41.2401 1.85983 43.9851 1.17075 43.9851C0.943426 43.9851 43.6235 46.0273 44.412 44.6219Z" fill="#E7BD11"/>
<path d="M24.4834 21.5283L18.7334 15.7783L20.4834 14.0283L27.9834 21.5283L20.4834 29.0283L18.7334 27.2783L24.4834 21.5283Z" fill="#FFFCF0"/>
</g>
<defs>
<clipPath id="clip0_505_1537">
<rect width="45.9104" height="45.105" fill="white"/>
</clipPath>
</defs>
</svg>
