<svg width="14" height="14" viewBox="0 0 14 14" fill="none" xmlns="http://www.w3.org/2000/svg">
<path d="M12.2153 10.8325C12.66 11.0504 13.0276 11.3567 13.3181 11.7515C13.6085 12.1464 13.7923 12.5911 13.8695 13.0858H13.1207C13.0707 12.8271 12.9777 12.5866 12.8416 12.3642C12.7054 12.1418 12.5398 11.9512 12.3446 11.7924C12.1495 11.6335 11.9294 11.5065 11.6843 11.4112C11.4392 11.3159 11.1851 11.2705 10.9219 11.275C10.6541 11.275 10.4 11.3204 10.1594 11.4112C9.91891 11.5019 9.69881 11.6267 9.49912 11.7856C9.29944 11.9444 9.13379 12.1373 9.00218 12.3642C8.87057 12.5911 8.77754 12.8316 8.72308 13.0858H7.97427C8.04688 12.5957 8.22841 12.1532 8.51886 11.7583C8.80931 11.3635 9.17918 11.0549 9.62846 10.8325C9.36978 10.6283 9.1701 10.381 9.02941 10.0905C8.88873 9.80009 8.81611 9.49148 8.81158 9.16473C8.81158 8.96051 8.83881 8.76309 8.89326 8.57249C8.94772 8.38188 9.02941 8.20262 9.13833 8.0347C9.24725 7.86679 9.37659 7.71702 9.52635 7.58541C9.67612 7.4538 9.84403 7.34262 10.0301 7.25185C9.90757 7.07486 9.76688 6.91829 9.60804 6.78214C9.4492 6.64599 9.27675 6.52573 9.09068 6.42135C8.90461 6.31697 8.70947 6.24209 8.50524 6.1967C8.30102 6.15132 8.08999 6.12409 7.87215 6.11501C7.50909 6.11501 7.16192 6.18536 6.83062 6.32604C6.49933 6.46673 6.21115 6.67322 5.96608 6.94552C6.075 7.2405 6.12946 7.54457 6.12946 7.85771C6.12946 8.27523 6.03643 8.66779 5.85036 9.03539C5.66429 9.40299 5.40334 9.71159 5.06751 9.9612C5.36249 10.111 5.62798 10.2948 5.86397 10.5126C6.09996 10.7304 6.30418 10.9755 6.47664 11.2478C6.64909 11.5201 6.77843 11.8105 6.86466 12.1191C6.95089 12.4277 6.99627 12.75 7.00081 13.0858H6.12946C6.12946 12.7273 6.06139 12.3892 5.92524 12.0715C5.78909 11.7538 5.60302 11.477 5.36703 11.241C5.13104 11.005 4.85194 10.8167 4.52972 10.676C4.2075 10.5353 3.8694 10.4672 3.51542 10.4718C3.15236 10.4718 2.81426 10.5398 2.50112 10.676C2.18798 10.8121 1.91114 10.9982 1.67061 11.2342C1.43008 11.4702 1.24175 11.7493 1.1056 12.0715C0.969451 12.3937 0.901377 12.7318 0.901377 13.0858H0.0300293C0.0300293 12.7545 0.075412 12.4346 0.166177 12.1259C0.256943 11.8173 0.386283 11.5269 0.554199 11.2546C0.722115 10.9823 0.924068 10.7372 1.16006 10.5194C1.39605 10.3016 1.66381 10.1155 1.96333 9.9612C1.6275 9.71159 1.36655 9.40299 1.18048 9.03539C0.994411 8.66779 0.901377 8.27523 0.901377 7.85771C0.901377 7.49919 0.969451 7.16109 1.1056 6.84341C1.24175 6.52573 1.42782 6.24889 1.66381 6.0129C1.8998 5.77691 2.17663 5.58858 2.49431 5.44789C2.81199 5.3072 3.15236 5.23913 3.51542 5.24367C3.90117 5.24367 4.2665 5.32536 4.61141 5.48873C4.95632 5.65211 5.25584 5.87902 5.50999 6.16947C5.62798 6.05602 5.75505 5.95391 5.8912 5.86314C6.02735 5.77238 6.1703 5.68615 6.32007 5.60446C5.98424 5.35486 5.72329 5.04625 5.53722 4.67865C5.35115 4.31105 5.25811 3.91849 5.25811 3.50097C5.25811 3.14245 5.32619 2.80435 5.46233 2.48667C5.59848 2.16899 5.78455 1.89216 6.02054 1.65617C6.25653 1.42018 6.53337 1.23184 6.85104 1.09115C7.16872 0.950467 7.50909 0.882393 7.87215 0.886931C8.23068 0.886931 8.56878 0.955005 8.88646 1.09115C9.20414 1.2273 9.48097 1.41337 9.71696 1.64936C9.95295 1.88535 10.1413 2.16445 10.282 2.48667C10.4227 2.80889 10.4907 3.14699 10.4862 3.50097C10.4862 3.91849 10.3932 4.31105 10.2071 4.67865C10.021 5.04625 9.76007 5.35486 9.42424 5.60446C9.74192 5.77238 10.0278 5.9766 10.282 6.21713C10.5361 6.45765 10.7517 6.73676 10.9287 7.05444C11.2191 7.05444 11.4914 7.10889 11.7456 7.21781C11.9997 7.32673 12.2244 7.47876 12.4195 7.67391C12.6146 7.86905 12.7644 8.09143 12.8688 8.34103C12.9732 8.59064 13.0276 8.8652 13.0322 9.16473C13.0322 9.49148 12.9618 9.80009 12.8211 10.0905C12.6804 10.381 12.4785 10.6283 12.2153 10.8325ZM3.51542 9.6004C3.75595 9.6004 3.98059 9.55502 4.18935 9.46426C4.39811 9.37349 4.58418 9.24869 4.74756 9.08985C4.91094 8.93101 5.03574 8.74721 5.12196 8.53845C5.20819 8.32969 5.25357 8.10278 5.25811 7.85771C5.25811 7.61718 5.21273 7.39254 5.12196 7.18378C5.0312 6.97502 4.9064 6.78895 4.74756 6.62557C4.58872 6.46219 4.40492 6.33739 4.19616 6.25116C3.9874 6.16494 3.76048 6.11955 3.51542 6.11501C3.27489 6.11501 3.05025 6.1604 2.84149 6.25116C2.63273 6.34193 2.44666 6.46673 2.28328 6.62557C2.1199 6.78441 1.9951 6.96821 1.90887 7.17697C1.82264 7.38573 1.77726 7.61264 1.77272 7.85771C1.77272 8.09824 1.81811 8.32288 1.90887 8.53164C1.99964 8.7404 2.12444 8.92647 2.28328 9.08985C2.44212 9.25323 2.62592 9.37803 2.83468 9.46426C3.04344 9.55048 3.27035 9.59587 3.51542 9.6004ZM6.12946 3.50097C6.12946 3.7415 6.17484 3.96615 6.26561 4.17491C6.35637 4.38367 6.48118 4.56973 6.64002 4.73311C6.79885 4.89649 6.98265 5.02129 7.19141 5.10752C7.40017 5.19375 7.62709 5.23913 7.87215 5.24367C8.11268 5.24367 8.33733 5.19828 8.54609 5.10752C8.75485 5.01675 8.94092 4.89195 9.10429 4.73311C9.26767 4.57427 9.39247 4.39047 9.4787 4.18171C9.56493 3.97295 9.61031 3.74604 9.61485 3.50097C9.61485 3.26044 9.56947 3.0358 9.4787 2.82704C9.38794 2.61828 9.26313 2.43221 9.10429 2.26883C8.94545 2.10546 8.76165 1.98065 8.55289 1.89443C8.34413 1.8082 8.11722 1.76282 7.87215 1.75828C7.63163 1.75828 7.40698 1.80366 7.19822 1.89443C6.98946 1.98519 6.80339 2.10999 6.64002 2.26883C6.47664 2.42767 6.35184 2.61147 6.26561 2.82023C6.17938 3.02899 6.134 3.25591 6.12946 3.50097ZM10.9219 7.78964C10.7313 7.78964 10.5543 7.82594 10.3909 7.89855C10.2275 7.97117 10.0823 8.06874 9.95522 8.19127C9.82815 8.3138 9.72831 8.45903 9.65569 8.62695C9.58308 8.79486 9.54677 8.97412 9.54677 9.16473C9.54677 9.35534 9.58308 9.53233 9.65569 9.69571C9.72831 9.85908 9.82588 10.0043 9.94841 10.1314C10.0709 10.2585 10.2162 10.3583 10.3841 10.4309C10.552 10.5035 10.7313 10.5398 10.9219 10.5398C11.1125 10.5398 11.2895 10.5035 11.4528 10.4309C11.6162 10.3583 11.7614 10.2607 11.8885 10.1382C12.0156 10.0157 12.1154 9.87043 12.188 9.70251C12.2607 9.5346 12.297 9.35534 12.297 9.16473C12.297 8.97412 12.2607 8.79713 12.188 8.63375C12.1154 8.47038 12.0179 8.32515 11.8953 8.19808C11.7728 8.07101 11.6276 7.97117 11.4597 7.89855C11.2917 7.82594 11.1125 7.78964 10.9219 7.78964Z" fill="#104751"/>
</svg>
