<svg width="46" height="46" viewBox="0 0 46 46" fill="none" xmlns="http://www.w3.org/2000/svg">
<g clip-path="url(#clip0_505_1533)">
<path d="M1.58796 44.6219C0.941509 43.458 0.756809 40.5813 1.43168 37.1337C0.579212 34.5205 1.06938 32.588 0.451344 30.0188C0.451344 26.6809 1.74425 24.7704 1.09069 22.0255C0.664459 14.691 1.30381 10.0355 1.14042 6.89531C0.891785 2.32772 1.36774 0 1.08359 0C3.64098 0 45.6391 0 44.8435 0C44.5522 0 44.6303 5.33618 45.2768 6.87335C45.156 10.5406 45.2484 13.7028 44.6019 13.9883C44.9216 15.3058 45.156 16.316 45.156 16.316C45.156 16.316 45.0992 20.6201 44.8364 22.0035C45.2768 23.365 45.8664 24.5069 45.9801 25.8464C46.0937 27.2079 45.3549 29.1623 45.703 30.4579C45.703 32.7637 45.5183 35.6624 45.2768 37.1117C44.879 41.2401 44.1402 43.9851 44.8292 43.9851C45.0566 43.9851 2.37649 46.0273 1.58796 44.6219Z" fill="#E7BD11"/>
<path d="M21.5166 21.5283L27.2666 15.7783L25.5166 14.0283L18.0166 21.5283L25.5166 29.0283L27.2666 27.2783L21.5166 21.5283Z" fill="#FFFCF0"/>
</g>
<defs>
<clipPath id="clip0_505_1533">
<rect width="45.9104" height="45.105" fill="white" transform="matrix(-1 0 0 1 46 0)"/>
</clipPath>
</defs>
</svg>
