<svg width="201" height="86" viewBox="0 0 201 86" fill="none" xmlns="http://www.w3.org/2000/svg">
<path d="M195.862 24.7636C195.862 26.0831 196.932 27.1528 198.251 27.1528C199.571 27.1528 200.64 26.0831 200.64 24.7636C200.64 23.4441 199.571 22.3745 198.251 22.3745C196.932 22.3745 195.862 23.4441 195.862 24.7636ZM84.2632 19.036L84.7024 19.1242L84.2632 19.036ZM57.7344 0.94569L57.7561 1.39313L57.7344 0.94569ZM42.5025 82.9444C42.5025 84.2639 43.5722 85.3336 44.8917 85.3336C46.2112 85.3336 47.2808 84.2639 47.2808 82.9444C47.2808 81.625 46.2112 80.5553 44.8917 80.5553C43.5722 80.5553 42.5025 81.625 42.5025 82.9444ZM44.8917 82.9444L44.9755 82.5044C43.9835 82.3155 43.0088 82.1129 42.0512 81.8972L41.9527 82.3342L41.8543 82.7712C42.8218 82.9892 43.8063 83.1938 44.8079 83.3845L44.8917 82.9444ZM36.2279 80.8306L36.3574 80.4018C34.4238 79.8175 32.5715 79.1751 30.8005 78.4797L30.6368 78.8966L30.4731 79.3136C32.2672 80.0181 34.1423 80.6683 36.0983 81.2594L36.2279 80.8306ZM25.2389 76.4943L25.4399 76.0939C23.6356 75.1884 21.9346 74.222 20.3364 73.2018L20.0954 73.5794L19.8543 73.957C21.4792 74.9943 23.2071 75.9758 25.038 76.8947L25.2389 76.4943ZM15.2835 70.1039L15.567 69.7571C14.0094 68.4838 12.5827 67.1515 11.2863 65.7703L10.9596 66.0768L10.633 66.3834C11.9571 67.7942 13.4128 69.1533 15 70.4508L15.2835 70.1039ZM7.23149 61.4766L7.59977 61.2215C6.4638 59.5812 5.48854 57.8934 4.67331 56.1721L4.26845 56.3638L3.8636 56.5556C4.7002 58.322 5.70009 60.0521 6.86322 61.7316L7.23149 61.4766ZM2.21242 50.8125L2.64473 50.6951C2.12967 48.7983 1.79606 46.8791 1.64334 44.9539L1.19678 44.9894L0.750219 45.0248C0.907371 47.0058 1.2506 48.9799 1.78011 50.9299L2.21242 50.8125ZM1.28784 39.0752L1.7331 39.1243C1.94474 37.2059 2.33645 35.2976 2.9081 33.4161L2.47947 33.2858L2.05085 33.1556C1.46329 35.0896 1.06033 37.0521 0.842575 39.0261L1.28784 39.0752ZM4.69439 27.7998L5.09369 28.0029C5.95816 26.3031 6.98075 24.6406 8.16151 23.0292L7.80017 22.7644L7.43883 22.4997C6.23015 24.1492 5.18202 25.8529 4.2951 27.5968L4.69439 27.7998ZM11.6408 18.2675L11.9597 18.5821C13.2924 17.2313 14.7534 15.9324 16.3424 14.6956L16.0673 14.3421L15.7921 13.9886C14.1732 15.2487 12.6829 16.5735 11.3219 17.9529L11.6408 18.2675ZM20.9618 10.9791L21.1941 11.3622C22.813 10.3808 24.5321 9.45538 26.3513 8.59311L26.1595 8.18831L25.9676 7.78351C24.1216 8.65848 22.3755 9.59829 20.7296 10.5961L20.9618 10.9791ZM31.6141 5.90632L31.7684 6.32687C33.5564 5.67083 35.4237 5.07013 37.3704 4.52977L37.2505 4.09813L37.1307 3.66648C35.1615 4.21312 33.2711 4.82117 31.4598 5.48577L31.6141 5.90632ZM43.0099 2.72518L43.0983 3.16434C44.9717 2.7873 46.9084 2.46223 48.9082 2.19268L48.8484 1.74873L48.7886 1.30478C46.7701 1.57683 44.8144 1.90507 42.9216 2.28602L43.0099 2.72518ZM54.7347 1.13199L54.7686 1.57866C55.7509 1.50405 56.7467 1.44209 57.7561 1.39313L57.7344 0.94569L57.7127 0.498251C56.6952 0.5476 55.6913 0.610067 54.7007 0.685307L54.7347 1.13199ZM57.7344 0.94569L57.7561 1.39313C58.7903 1.34297 59.8065 1.29724 60.8049 1.25586L60.7864 0.808275L60.7678 0.360694C59.7672 0.40217 58.7489 0.447989 57.7127 0.498251L57.7344 0.94569ZM66.5729 0.610989L66.5847 1.0588C68.6535 1.00436 70.6367 0.970479 72.5371 0.956049L72.5337 0.508097L72.5303 0.0601444C70.624 0.0746186 68.6352 0.108603 66.5611 0.163179L66.5729 0.610989ZM78.4018 0.527868L78.395 0.975781C80.4452 1.00693 82.3827 1.06388 84.2122 1.14476L84.232 0.697229L84.2518 0.249701C82.413 0.168409 80.4668 0.111225 78.4086 0.0799541L78.4018 0.527868ZM90.0713 1.06375L90.034 1.51016C92.1588 1.68764 94.0997 1.90402 95.8684 2.15475L95.9313 1.71122L95.9942 1.26769C94.2064 1.01425 92.2482 0.796066 90.1085 0.617342L90.0713 1.06375ZM101.721 2.78761L101.616 3.22314C103.852 3.76122 105.655 4.37481 107.079 5.04112L107.269 4.63538L107.458 4.22964C105.966 3.53121 104.103 2.90007 101.826 2.35207L101.721 2.78761ZM111.624 8.34501L111.216 8.53073C111.919 10.0733 111.493 11.7785 110.177 13.5406L110.536 13.8087L110.895 14.0768C112.308 12.1843 112.926 10.1239 112.031 8.15929L111.624 8.34501ZM106.214 17.7698L105.959 17.4016C104.442 18.4527 102.72 19.4251 100.923 20.2668L101.112 20.6725L101.302 21.0782C103.139 20.2181 104.906 19.2213 106.469 18.138L106.214 17.7698ZM95.6236 22.7589L95.4978 22.329C93.4578 22.9258 91.5057 23.2866 89.8262 23.3475L89.8424 23.7952L89.8586 24.2429C91.6331 24.1785 93.6611 23.7998 95.7494 23.1889L95.6236 22.7589ZM84.5656 21.9079L84.9535 21.6839C84.6056 21.0813 84.4758 20.2525 84.7024 19.1242L84.2632 19.036L83.824 18.9478C83.5682 20.2216 83.6903 21.2879 84.1776 22.1319L84.5656 21.9079ZM84.2632 19.036L84.7024 19.1242C84.9338 17.9722 85.3736 17.2 85.9633 16.708L85.6764 16.364L85.3894 16.02C84.6001 16.6785 84.0832 17.6579 83.824 18.9478L84.2632 19.036ZM91.5439 15.9782L91.4247 16.4101C93.052 16.859 94.9301 17.6145 97.028 18.6102L97.2201 18.2055L97.4122 17.8008C95.2915 16.7943 93.3609 16.0148 91.663 15.5464L91.5439 15.9782ZM102.615 20.9951L102.399 21.3877C104.088 22.3156 105.865 23.3297 107.717 24.4046L107.942 24.0171L108.166 23.6297C106.311 22.553 104.528 21.5351 102.83 20.6025L102.615 20.9951ZM113.199 27.0965L112.972 27.4827C114.687 28.491 116.449 29.5269 118.25 30.5731L118.475 30.1858L118.7 29.7984C116.901 28.7536 115.141 27.7188 113.426 26.7104L113.199 27.0965ZM123.782 33.2241L123.563 33.6145C125.324 34.605 127.113 35.5902 128.923 36.5559L129.134 36.1607L129.345 35.7655C127.542 34.8034 125.759 33.8214 124.002 32.8336L123.782 33.2241ZM134.562 38.9575L134.363 39.3589C136.199 40.2679 138.048 41.1437 139.904 41.9721L140.087 41.563L140.269 41.154C138.425 40.331 136.587 39.4604 134.761 38.556L134.562 38.9575ZM145.722 43.9121L145.561 44.3301C147.492 45.0742 149.423 45.7522 151.347 46.3485L151.479 45.9206L151.612 45.4927C149.71 44.9031 147.798 44.2318 145.883 43.4941L145.722 43.9121ZM157.386 47.4821L157.291 47.92C159.339 48.3616 161.371 48.6894 163.376 48.883L163.419 48.4371L163.462 47.9912C161.495 47.8013 159.498 47.4794 157.48 47.0442L157.386 47.4821ZM169.505 48.5822L169.53 49.0295C171.613 48.9145 173.655 48.6205 175.642 48.1219L175.533 47.6874L175.424 47.2529C173.497 47.7364 171.512 48.0228 169.481 48.1349L169.505 48.5822ZM181.242 45.5784L181.442 45.9789C183.243 45.0764 184.978 43.9605 186.637 42.61L186.354 42.2626L186.071 41.9152C184.463 43.2248 182.783 44.305 181.041 45.1779L181.242 45.5784ZM190.658 37.9945L191.001 38.2823C192.253 36.7902 193.443 35.1244 194.568 33.2729L194.185 33.0403L193.802 32.8078C192.699 34.6232 191.535 36.2518 190.315 37.7066L190.658 37.9945ZM197.021 27.652L197.428 27.838C197.854 26.9043 198.268 25.935 198.667 24.9292L198.251 24.7636L197.835 24.5981C197.44 25.5907 197.033 26.5463 196.613 27.466L197.021 27.652Z" fill="#E7BD11"/>
</svg>
